<svg width="115" height="101" viewBox="0 0 115 101" fill="none" xmlns="http://www.w3.org/2000/svg">
<path d="M88.4358 11.4945L57.2332 0L26.3288 11.3431C22.3826 13.2519 18.9227 14.3991 18.9227 18.1664V36.9522C18.8584 50.0997 22.3786 63.016 29.1049 74.3128C34.8682 83.9076 43.7885 93.7869 57.5544 100.069C70.1869 95.861 79.6165 84.6418 85.3798 75.0424C92.1066 63.7475 95.6269 50.8325 95.562 37.6864V20.7911C95.539 15.4132 92.7629 12.7885 88.4358 11.4945Z" fill="#455A64"/>
<g opacity="0.8">
<path opacity="0.8" d="M88.4358 11.4945L57.2332 0L26.3288 11.3431C22.3826 13.2519 18.9227 14.3991 18.9227 18.1664V36.9522C18.8584 50.0997 22.3786 63.016 29.1049 74.3128C34.8682 83.9076 43.7885 93.7869 57.5544 100.069C70.1869 95.861 79.6165 84.6418 85.3798 75.0424C92.1066 63.7475 95.6269 50.8325 95.562 37.6864V20.7911C95.539 15.4132 92.7629 12.7885 88.4358 11.4945Z" fill="white"/>
</g>
<path d="M76.2841 59.0141H70.5483V27.8115C70.5483 24.278 69.1446 20.8892 66.6461 18.3906C64.1475 15.8921 60.7587 14.4884 57.2252 14.4884C53.6917 14.4884 50.3029 15.8921 47.8044 18.3906C45.3058 20.8892 43.9021 24.278 43.9021 27.8115V59.0141H38.1664V27.8115C38.1271 25.2837 38.5911 22.7735 39.5313 20.4268C40.4715 18.0801 41.8691 15.9438 43.6428 14.1424C45.4165 12.341 47.5307 10.9104 49.8626 9.93396C52.1944 8.95747 54.6972 8.45459 57.2252 8.45459C59.7532 8.45459 62.256 8.95747 64.5879 9.93396C66.9197 10.9104 69.034 12.341 70.8076 14.1424C72.5813 15.9438 73.9789 18.0801 74.9191 20.4268C75.8593 22.7735 76.3233 25.2837 76.2841 27.8115V59.0141Z" fill="#455A64"/>
<g opacity="0.4">
<path opacity="0.4" d="M76.288 59.014H70.5522V27.8113C70.5522 24.2779 69.1485 20.8891 66.65 18.3905C64.1514 15.892 60.7626 14.4883 57.2291 14.4883C53.6956 14.4883 50.3068 15.892 47.8083 18.3905C45.3097 20.8891 43.906 24.2779 43.906 27.8113V59.014H38.1703V27.8113C38.131 25.2836 38.595 22.7733 39.5352 20.4266C40.4754 18.0799 41.873 15.9437 43.6467 14.1423C45.4204 12.3409 47.5347 10.9103 49.8665 9.93384C52.1983 8.95735 54.7011 8.45447 57.2291 8.45447C59.7572 8.45447 62.2599 8.95735 64.5918 9.93384C66.9236 10.9103 69.0379 12.3409 70.8115 14.1423C72.5852 15.9437 73.9828 18.0799 74.923 20.4266C75.8632 22.7733 76.3272 25.2836 76.288 27.8113V59.014Z" fill="black"/>
</g>
<path d="M80.2427 45.1292H34.2051C32.7327 45.1292 31.5391 46.3228 31.5391 47.7951V75.4187C31.5391 76.891 32.7327 78.0847 34.2051 78.0847H80.2427C81.7151 78.0847 82.9087 76.891 82.9087 75.4187V47.7951C82.9087 46.3228 81.7151 45.1292 80.2427 45.1292Z" fill="#455A64"/>
<g opacity="0.5">
<path opacity="0.5" d="M61.5196 57.3166C61.5201 56.5174 61.2976 55.734 60.8772 55.0543C60.4567 54.3747 59.855 53.8258 59.1397 53.4695C58.4243 53.1132 57.6238 52.9635 56.828 53.0373C56.0322 53.1111 55.2729 53.4054 54.6353 53.8873C53.9977 54.3691 53.5071 55.0192 53.2188 55.7646C52.9306 56.51 52.856 57.321 53.0034 58.1064C53.1509 58.8919 53.5146 59.6206 54.0536 60.2107C54.5926 60.8007 55.2856 61.2286 56.0545 61.4464V67.8704H58.3993V61.4464C59.2989 61.1929 60.0908 60.6521 60.6542 59.9064C61.2176 59.1607 61.5216 58.2512 61.5196 57.3166Z" fill="black"/>
</g>
<path d="M34.2814 74.96C34.1621 74.96 34.0703 69.4537 34.0703 62.6855C34.0703 55.9172 34.1621 50.4109 34.2814 50.4109C34.4007 50.4109 34.4971 55.9172 34.4971 62.6855C34.4971 69.4537 34.4007 74.96 34.2814 74.96Z" fill="#FAFAFA"/>
<path d="M53.8667 62.8181C53.8667 62.8181 53.6648 62.7539 53.362 62.5336C52.9375 62.2165 52.5645 61.8357 52.2561 61.4048C51.7205 60.698 51.3479 59.8815 51.1648 59.0138C50.9817 58.1461 50.9927 57.2486 51.197 56.3857C51.4014 55.5227 51.794 54.7156 52.3467 54.0222C52.8995 53.3287 53.5987 52.766 54.3944 52.3744C54.8704 52.1288 55.381 51.957 55.9086 51.8651C56.0969 51.8135 56.294 51.8026 56.4868 51.833C56.4868 51.9156 55.6746 51.9936 54.5596 52.6406C53.8318 53.043 53.1962 53.5931 52.6936 54.2557C52.1909 54.9183 51.8324 55.6786 51.641 56.4879C51.4496 57.2972 51.4295 58.1376 51.5821 58.9551C51.7346 59.7727 52.0564 60.5492 52.5268 61.2351C52.9296 61.7984 53.3777 62.3278 53.8667 62.8181Z" fill="#FAFAFA"/>
<path d="M95.8286 92.7775C95.8286 92.7775 95.9524 92.6032 96.2002 92.2774L96.4067 92.0021C96.4801 91.8965 96.5444 91.7726 96.6178 91.6395C96.8007 91.3415 96.9544 91.0265 97.0767 90.6989C97.1501 90.5107 97.2373 90.318 97.3107 90.1069C97.3841 89.8959 97.4346 89.6481 97.4988 89.4278C97.5737 89.1807 97.6259 88.9273 97.6548 88.6707C97.7096 88.3947 97.7494 88.1159 97.7741 87.8356C97.8826 86.4918 97.8209 85.1397 97.5906 83.8114C97.1317 80.7966 95.8469 77.2542 93.8922 73.3998C91.6244 69.0539 88.9675 64.9225 85.9538 61.0564C82.3255 56.3478 78.3694 51.9011 74.1152 47.7494C69.2554 42.9667 64.0634 38.5337 58.5781 34.4836C55.6735 32.3545 52.6129 30.285 49.4008 28.3349C46.1177 26.3339 42.7089 24.5467 39.1957 22.9845C35.5748 21.3303 31.7611 20.1356 27.8435 19.4284C25.8437 19.0729 23.8016 19.0218 21.7865 19.2769C20.7787 19.4282 19.7956 19.7137 18.8635 20.1258C17.9251 20.5433 17.0856 21.1544 16.4 21.9191C15.7144 22.6838 15.1982 23.5848 14.8852 24.563C14.5808 25.5358 14.4095 26.5453 14.3759 27.564C14.3474 29.5951 14.6274 31.6188 15.2064 33.5659C16.3544 37.3785 17.9761 41.0321 20.0336 44.441C21.9853 47.7559 24.1495 50.9409 26.5128 53.9761C28.8071 56.9587 31.2207 59.7624 33.6664 62.4008C38.3148 67.3928 43.3106 72.0496 48.6162 76.3365C53.2238 80.0882 58.089 83.5121 63.1759 86.5829C67.3595 89.1357 71.7657 91.3043 76.3407 93.062C80.3924 94.5671 84.0587 95.4298 87.1056 95.5491C88.4517 95.6309 89.8028 95.5384 91.1252 95.2737C91.3993 95.219 91.6704 95.1501 91.9374 95.0673C92.1892 95.0042 92.4361 94.9229 92.6762 94.8241L93.3277 94.5579C93.5296 94.4616 93.7132 94.3514 93.8876 94.2597C94.1994 94.0937 94.4958 93.9002 94.7732 93.6815C94.8925 93.5897 95.0118 93.5163 95.1081 93.4337L95.3559 93.1951L95.8148 92.7684L95.3789 93.2272L95.1311 93.475C95.0347 93.5576 94.92 93.6356 94.7961 93.732C94.5204 93.9535 94.2256 94.15 93.9151 94.3193C93.7407 94.4157 93.5572 94.5258 93.3553 94.6267L92.6991 94.8975C92.4602 95.0006 92.2131 95.0835 91.9603 95.1453C91.6921 95.2328 91.4195 95.3063 91.1436 95.3655C89.8158 95.6365 88.4588 95.7368 87.1056 95.6638C84.045 95.5582 80.3649 94.7002 76.2994 93.2089C71.7102 91.4591 67.2899 89.2951 63.0933 86.7435C57.9905 83.6826 53.1126 80.2616 48.4969 76.5063C43.178 72.2214 38.17 67.5645 33.5104 62.5706C31.0555 59.9276 28.6465 57.1193 26.3384 54.1321C23.968 51.0906 21.7962 47.8995 19.8363 44.5786C17.769 41.1517 16.1381 37.4799 14.9816 33.6485C14.3983 31.6741 14.1182 29.6225 14.151 27.564C14.1837 26.5216 14.3597 25.4886 14.6741 24.4942C14.9928 23.4839 15.5219 22.5527 16.2266 21.7617C16.9313 20.9708 17.7956 20.3382 18.7626 19.9056C19.7141 19.4817 20.7192 19.1899 21.7498 19.0383C23.789 18.7764 25.8564 18.8274 27.8802 19.1897C31.8178 19.8994 35.6503 21.1019 39.2875 22.7689C42.8001 24.3382 46.2061 26.1363 49.4834 28.1513C52.6955 30.1061 55.779 32.1802 58.6607 34.3139C64.1512 38.3778 69.3477 42.8246 74.2115 47.6209C78.4635 51.7819 82.4165 56.2378 86.041 60.9554C89.0524 64.8366 91.7048 68.9834 93.9656 73.3447C95.9111 77.2129 97.1776 80.7737 97.6365 83.7976C97.8625 85.1343 97.9164 86.4944 97.7971 87.8448C97.7728 88.1266 97.7329 88.407 97.6778 88.6845C97.6415 88.9421 97.5863 89.1967 97.5126 89.4462C97.4437 89.6848 97.3795 89.9051 97.3199 90.1299C97.2602 90.3547 97.1501 90.5337 97.0767 90.7218C96.9467 91.051 96.7837 91.3662 96.5903 91.6625C96.5123 91.7956 96.448 91.9195 96.3746 92.025L96.1589 92.2957C95.9433 92.6169 95.8286 92.7775 95.8286 92.7775Z" fill="#455A64"/>
<path d="M110.514 57.3211C110.514 57.3211 110.491 57.11 110.459 56.7016C110.459 56.5976 110.45 56.4829 110.431 56.3575C110.431 56.229 110.376 56.0959 110.349 55.9445C110.289 55.5971 110.197 55.2561 110.074 54.9258C110.005 54.7377 109.94 54.5358 109.858 54.3293C109.775 54.1228 109.651 53.9209 109.541 53.6961C109.426 53.4574 109.291 53.2287 109.137 53.0124C108.986 52.7921 108.858 52.5535 108.679 52.3149C107.866 51.2384 106.919 50.27 105.861 49.4332C103.507 47.4968 100.194 45.6981 96.1746 44.1242C91.5885 42.3914 86.8552 41.0768 82.0324 40.1963C76.1929 39.1008 70.2834 38.4184 64.3479 38.1544C57.536 37.8267 50.7096 37.9801 43.9193 38.6132C40.3356 38.9528 36.6739 39.4484 32.9709 40.1413C29.1884 40.832 25.4546 41.767 21.793 42.9403C17.9855 44.1153 14.3399 45.7616 10.9409 47.841C9.22366 48.91 7.67685 50.2309 6.35224 51.7597C5.69928 52.542 5.15589 53.4095 4.73705 54.3385C4.31595 55.2764 4.09822 56.2929 4.09822 57.3211C4.09822 58.3492 4.31595 59.3657 4.73705 60.3037C5.15758 61.2317 5.70083 62.0991 6.35224 62.8825C7.67721 64.4044 9.22415 65.7178 10.9409 66.7782C14.3378 68.8597 17.982 70.5076 21.7884 71.6835C25.4497 72.8579 29.1836 73.7929 32.9663 74.4825C36.6693 75.18 40.331 75.671 43.9147 76.0105C50.7048 76.646 57.5315 76.7994 64.3433 76.4694C70.2788 76.2056 76.1884 75.5233 82.0279 74.4275C86.8509 73.5483 91.5843 72.2336 96.17 70.4996C100.194 68.9257 103.512 67.127 105.857 65.1906C106.916 64.355 107.862 63.3865 108.674 62.3089C108.839 62.0849 108.993 61.852 109.133 61.6114C109.28 61.3994 109.409 61.1753 109.518 60.9415L109.835 60.3083C109.918 60.1018 109.982 59.8999 110.051 59.7117C110.174 59.3814 110.266 59.0404 110.326 58.6931C110.353 58.5462 110.39 58.4086 110.408 58.2847C110.427 58.1608 110.408 58.0415 110.436 57.9405C110.468 57.5276 110.491 57.3211 110.491 57.3211C110.491 57.3211 110.491 57.5322 110.459 57.9405C110.459 58.0461 110.459 58.1608 110.459 58.2893C110.459 58.4178 110.408 58.5508 110.381 58.7022C110.324 59.0508 110.235 59.3933 110.115 59.7255C110.046 59.9182 109.986 60.1201 109.899 60.3312L109.592 60.969C109.482 61.204 109.353 61.4295 109.206 61.6436C109.055 61.8684 108.926 62.1254 108.747 62.3548C107.936 63.4421 106.987 64.4199 105.925 65.264C103.571 67.2187 100.254 69.0358 96.2296 70.6235C91.6371 72.3672 86.896 73.6911 82.0646 74.5789C76.2183 75.6877 70.3011 76.3823 64.3571 76.6575C57.5353 76.9985 50.698 76.8559 43.8964 76.2308C40.3081 75.8912 36.6418 75.4003 32.925 74.7074C29.1334 74.0166 25.3905 73.0817 21.7195 71.9083C17.8938 70.7272 14.2311 69.0716 10.817 66.9801C9.06968 65.8988 7.49497 64.5608 6.14575 63.011C5.47744 62.2092 4.92169 61.32 4.49386 60.3679C4.0627 59.4027 3.83984 58.3575 3.83984 57.3004C3.83984 56.2433 4.0627 55.1981 4.49386 54.2329C4.92345 53.2832 5.47907 52.3957 6.14575 51.5945C7.49443 50.0436 9.07104 48.7068 10.8216 47.6299C14.2334 45.5382 17.8948 43.884 21.7195 42.7063C25.3898 41.5293 29.1329 40.5927 32.925 39.9026C36.6372 39.2098 40.3035 38.7188 43.8918 38.3792C50.6935 37.7555 57.5308 37.6145 64.3525 37.9571C70.2985 38.2329 76.2174 38.9306 82.0646 40.0449C86.8936 40.9368 91.6317 42.2653 96.2205 44.0141C100.249 45.6063 103.562 47.4188 105.921 49.3736C106.979 50.221 107.924 51.2002 108.734 52.2873C108.899 52.5145 109.052 52.7504 109.193 52.994C109.337 53.2092 109.466 53.4347 109.578 53.6685L109.885 54.3109C109.973 54.5174 110.032 54.7239 110.101 54.912C110.222 55.2456 110.311 55.5897 110.367 55.9399C110.395 56.0867 110.427 56.2244 110.445 56.3529C110.464 56.4814 110.445 56.5961 110.445 56.697C110.514 57.11 110.514 57.3211 110.514 57.3211Z" fill="#455A64"/>
<path d="M91.0365 13.1831C91.0365 13.1831 90.853 13.073 90.5134 12.8482L90.2243 12.66C90.1142 12.5958 89.9811 12.5407 89.8481 12.4719C89.5367 12.3082 89.2111 12.173 88.8753 12.0681C88.6826 12.0085 88.4853 11.9304 88.2696 11.8708L87.5675 11.7148C87.3153 11.6595 87.059 11.6242 86.8012 11.6092C86.5305 11.6092 86.2552 11.5404 85.9615 11.5496C84.6122 11.5337 83.2663 11.6878 81.9556 12.0085C78.9868 12.6784 75.5316 14.1972 71.8285 16.4135C67.648 18.9742 63.7085 21.9092 60.0587 25.1824C55.6148 29.1256 51.4548 33.3776 47.6098 37.9067C43.1737 43.0863 39.1088 48.5726 35.4453 54.3247C33.5181 57.367 31.6643 60.5607 29.939 63.915C28.1692 67.3298 26.6211 70.855 25.3045 74.4688C23.9072 78.1962 22.9822 82.084 22.5513 86.0413C22.3339 88.0608 22.4252 90.1017 22.822 92.0937C23.039 93.0898 23.391 94.0516 23.8682 94.9524C24.3501 95.8573 25.0178 96.6501 25.8276 97.2788C26.6374 97.9075 27.5709 98.3578 28.567 98.6004C29.558 98.8386 30.5769 98.9404 31.5955 98.9032C33.6232 98.7911 35.6221 98.3718 37.524 97.6597C41.2498 96.2508 44.7845 94.3809 48.0457 92.0937C51.2175 89.9186 54.2447 87.5397 57.1082 84.9722C59.9256 82.4714 62.5595 79.8788 65.0236 77.2541C69.6754 72.2732 73.9689 66.9692 77.8718 61.3821C81.3048 56.5337 84.3915 51.4491 87.1087 46.1662C89.3661 41.8153 91.2259 37.2694 92.6655 32.5838C93.8861 28.4541 94.5009 24.7235 94.4046 21.6767C94.3933 20.3279 94.2083 18.9861 93.854 17.6846C93.7798 17.4138 93.6909 17.1473 93.5878 16.8862C93.5106 16.6403 93.4139 16.4009 93.2987 16.1703C93.1886 15.9501 93.0876 15.7115 92.9913 15.5371C92.8949 15.3627 92.7573 15.1654 92.6517 15.0002C92.4658 14.6996 92.2523 14.4169 92.0139 14.1559C91.9175 14.0412 91.8304 13.9311 91.7432 13.8393L91.4862 13.6053C91.1834 13.33 91.0274 13.1831 91.0274 13.1831L91.4862 13.5869L91.7432 13.8164C91.835 13.9081 91.9221 14.0183 92.0231 14.133C92.2671 14.3898 92.484 14.6712 92.6701 14.9727C92.7802 15.1425 92.9041 15.3169 93.0188 15.5096L93.3308 16.1428C93.4518 16.374 93.5531 16.615 93.6337 16.8632C93.7163 17.1202 93.8402 17.3771 93.9044 17.6662C94.2666 18.9715 94.4609 20.3177 94.4826 21.6721C94.5881 24.7327 93.987 28.4633 92.7756 32.6206C91.3474 37.32 89.4952 41.88 87.2417 46.2442C84.5352 51.5434 81.4578 56.6449 78.0324 61.5105C74.1302 67.1099 69.8368 72.4261 65.1842 77.4193C62.7155 80.0532 60.0817 82.6503 57.2597 85.1603C54.3892 87.7347 51.3543 90.1198 48.1742 92.3002C44.9048 94.6 41.359 96.4793 37.6203 97.8937C35.6857 98.6217 33.6505 99.0474 31.5863 99.1556C30.5445 99.1915 29.5027 99.0866 28.489 98.8436C27.4612 98.5933 26.4978 98.1287 25.662 97.4803C24.8262 96.8319 24.1367 96.0143 23.6388 95.0809C23.1507 94.16 22.7909 93.1765 22.5697 92.158C22.1694 90.1432 22.0766 88.0793 22.2943 86.0367C22.7332 82.0582 23.6689 78.1504 25.0796 74.4046C26.4018 70.7901 27.956 67.2649 29.7325 63.8507C31.4578 60.4919 33.3162 57.2936 35.2388 54.2467C38.9118 48.4902 42.9875 43.0007 47.4354 37.8195C51.2941 33.2893 55.4679 29.0374 59.9257 25.0952C63.597 21.8095 67.5612 18.8666 71.7689 16.3034C75.4949 14.0917 78.9593 12.582 81.9465 11.9213C83.2623 11.5946 84.6151 11.4403 85.9707 11.4624C86.253 11.4691 86.5349 11.4905 86.815 11.5266C87.0744 11.543 87.3322 11.5799 87.5859 11.6368L88.2834 11.7836C88.499 11.8478 88.6963 11.9213 88.8891 11.9855C89.2261 12.0929 89.5519 12.2327 89.8618 12.4031C89.9995 12.4719 90.128 12.5316 90.2381 12.5958L90.5226 12.7885C90.8668 13.0592 91.0365 13.1831 91.0365 13.1831Z" fill="#455A64"/>
<path d="M1.9777 82.6823C3.06995 82.6823 3.95539 81.7969 3.95539 80.7046C3.95539 79.6124 3.06995 78.7269 1.9777 78.7269C0.885444 78.7269 0 79.6124 0 80.7046C0 81.7969 0.885444 82.6823 1.9777 82.6823Z" fill="#455A64"/>
<path d="M114.998 18.0011C114.997 18.392 114.881 18.774 114.663 19.0986C114.445 19.4232 114.136 19.676 113.774 19.825C113.413 19.9739 113.015 20.0125 112.632 19.9356C112.249 19.8588 111.897 19.6701 111.621 19.3933C111.344 19.1165 111.157 18.7641 111.081 18.3806C111.005 17.9971 111.044 17.5997 111.194 17.2386C111.344 16.8775 111.597 16.5689 111.922 16.3518C112.248 16.1347 112.63 16.0188 113.021 16.0188C113.281 16.0188 113.538 16.0701 113.779 16.1698C114.019 16.2695 114.237 16.4155 114.421 16.5997C114.604 16.7838 114.75 17.0024 114.849 17.2428C114.948 17.4833 114.999 17.741 114.998 18.0011Z" fill="#455A64"/>
<path d="M15.8689 85.8119C15.8689 85.9119 15.8391 86.0097 15.7835 86.0928C15.7278 86.1759 15.6487 86.2406 15.5562 86.2786C15.4637 86.3167 15.362 86.3264 15.264 86.3066C15.1659 86.2867 15.076 86.2382 15.0056 86.1672C14.9352 86.0961 14.8875 86.0057 14.8685 85.9075C14.8496 85.8093 14.8602 85.7077 14.8991 85.6155C14.938 85.5234 15.0034 85.4449 15.087 85.39C15.1707 85.3351 15.2687 85.3062 15.3687 85.3071C15.5018 85.3084 15.629 85.3621 15.7227 85.4566C15.8163 85.5511 15.8689 85.6788 15.8689 85.8119Z" fill="#455A64"/>
<path d="M26.5993 30.3721C26.5993 30.4719 26.5697 30.5695 26.5143 30.6525C26.4588 30.7355 26.38 30.8002 26.2878 30.8384C26.1955 30.8766 26.094 30.8866 25.9961 30.8671C25.8982 30.8476 25.8083 30.7996 25.7377 30.729C25.6671 30.6584 25.619 30.5684 25.5995 30.4705C25.5801 30.3726 25.5901 30.2711 25.6283 30.1789C25.6665 30.0867 25.7312 30.0078 25.8142 29.9524C25.8972 29.8969 25.9948 29.8673 26.0946 29.8673C26.2285 29.8673 26.3568 29.9205 26.4515 30.0152C26.5462 30.1098 26.5993 30.2382 26.5993 30.3721Z" fill="#455A64"/>
<path d="M105.06 57.3209C105.06 57.421 105.031 57.5187 104.975 57.6018C104.919 57.6849 104.84 57.7496 104.748 57.7877C104.655 57.8258 104.553 57.8355 104.455 57.8156C104.357 57.7958 104.267 57.7472 104.197 57.6762C104.127 57.6051 104.079 57.5148 104.06 57.4166C104.041 57.3184 104.052 57.2167 104.091 57.1246C104.129 57.0324 104.195 56.9539 104.278 56.899C104.362 56.8441 104.46 56.8153 104.56 56.8162C104.626 56.8162 104.692 56.8293 104.753 56.8547C104.814 56.8801 104.869 56.9174 104.915 56.9643C104.962 57.0112 104.999 57.0669 105.024 57.1281C105.048 57.1893 105.061 57.2549 105.06 57.3209Z" fill="#455A64"/>
<path d="M112.049 33.8779C112.049 33.9781 112.021 34.0763 111.965 34.16C111.91 34.2437 111.832 34.3091 111.739 34.3479C111.647 34.3867 111.545 34.397 111.446 34.3777C111.348 34.3584 111.258 34.3102 111.187 34.2393C111.116 34.1685 111.068 34.0781 111.049 33.9798C111.029 33.8814 111.04 33.7796 111.078 33.6872C111.117 33.5948 111.183 33.516 111.266 33.4609C111.35 33.4057 111.448 33.3768 111.548 33.3777C111.681 33.3777 111.808 33.4304 111.902 33.5242C111.996 33.618 112.049 33.7452 112.049 33.8779Z" fill="#455A64"/>
</svg>
