<svg width="375" height="861" viewBox="0 0 375 861" fill="none" xmlns="http://www.w3.org/2000/svg">
<path d="M0 32L12.5 35.25C25 38.5 50 45 75 54.75C100 64.5 125 77.5 150 78.5766C175 79.7344 200 68.7656 225 69.9234C250 71 275 84 300 89.4234C325 94.7656 350 92.7344 362.5 91.5766L375 90.5V97H362.5C350 97 325 97 300 97C275 97 250 97 225 97C200 97 175 97 150 97C125 97 100 97 75 97C50 97 25 97 12.5 97H0V32Z" fill="#F7CF6A" fill-opacity="0.15"/>
<path d="M0 799H12.4667C24.9333 799 49.8667 799 74.8 801.591C99.7333 804.086 124.667 809.414 149.6 817.091C174.533 824.914 199.467 835.086 224.4 832.591C249.333 830 274.267 814.5 299.2 817.091C324.133 819.586 349.067 840.414 361.533 850.659L374 861V799H361.533C349.067 799 324.133 799 299.2 799C274.267 799 249.333 799 224.4 799C199.467 799 174.533 799 149.6 799C124.667 799 99.7333 799 74.8 799C49.8667 799 24.9333 799 12.4667 799H0Z" fill="#F7CF6A" fill-opacity="0.15"/>
<rect y="97" width="374.35" height="702" fill="#F7CF6A" fill-opacity="0.15"/>
</svg>
