<svg width="140" height="101" viewBox="0 0 140 101" fill="none" xmlns="http://www.w3.org/2000/svg">
<path d="M135.218 3.83008H4.77344V100.083H135.218V3.83008Z" fill="#EBEBEB"/>
<path d="M136.659 3.56494H136.168V72.4577H136.659V3.56494Z" fill="#263238"/>
<path d="M137.295 74.7755H135.527L135.969 72.2368H136.853L137.295 74.7755Z" fill="#263238"/>
<path d="M138.448 3.56494H137.957V59.3322H138.448V3.56494Z" fill="#263238"/>
<path d="M139.088 61.1982H137.32L137.767 58.6595H138.646L139.088 61.1982Z" fill="#263238"/>
<path d="M140 0H0V7.13479H140V0Z" fill="#C7C7C7"/>
<path d="M96.8336 16.1847H43.168V17.373H96.8336V16.1847Z" fill="#C7C7C7"/>
<path d="M87.6504 18.6693H52.3398V19.8576H87.6504V18.6693Z" fill="#C7C7C7"/>
<path d="M86.07 45.0137C84.9288 45.6408 83.6594 45.9987 82.3587 46.06C81.058 46.1212 79.7606 45.8842 78.5656 45.367C77.3706 44.8498 76.3096 44.0662 75.464 43.0761C74.6183 42.0859 74.0103 40.9155 73.6864 39.6543C73.3625 38.3931 73.3313 37.0746 73.5952 35.7995C73.8591 34.5244 74.4112 33.3265 75.2091 32.2975C76.007 31.2685 77.0297 30.4357 78.1989 29.8626C79.3682 29.2895 80.653 28.9914 81.9551 28.9911V37.5302L86.07 45.0137Z" fill="#263238"/>
<path d="M87.0157 30.6407L81.9531 37.5153V28.9761C83.7758 28.9722 85.5511 29.5559 87.0157 30.6407Z" fill="#F7CF6A"/>
<path d="M90.4923 37.5152C90.4955 39.66 89.6867 41.7266 88.2286 43.2996L81.9531 37.5152L87.0157 30.6406C88.0945 31.4329 88.9714 32.4681 89.5754 33.6625C90.1794 34.8569 90.4935 36.1768 90.4923 37.5152Z" fill="#A6A6A6"/>
<path d="M91.2998 47.2625C90.6785 47.935 89.9522 48.5022 89.1491 48.9418L85.0391 41.4584L91.2998 47.2625Z" fill="#455A64"/>
<path d="M58.9088 29.3002L56.5665 37.5152V46.0544C54.3018 46.0544 52.1298 45.1547 50.5284 43.5533C48.927 41.9519 48.0273 39.78 48.0273 37.5152C48.0273 35.2505 48.927 33.0785 50.5284 31.4771C52.1298 29.8757 54.3018 28.9761 56.5665 28.9761C57.3583 28.9774 58.1463 29.0864 58.9088 29.3002Z" fill="#A6A6A6"/>
<path d="M61.6192 44.3898C60.1574 45.4729 58.3857 46.0566 56.5664 46.0544V37.5153L61.6192 44.3898Z" fill="#263238"/>
<path d="M65.0889 37.5154C65.0904 38.8543 64.7759 40.1748 64.1709 41.3693C63.566 42.5638 62.6877 43.5987 61.6075 44.3899L56.5547 37.5154L63.1935 32.1483C64.4244 33.6657 65.0939 35.5615 65.0889 37.5154Z" fill="#455A64"/>
<path d="M65.0851 29.3838L58.4609 34.7508L60.8081 26.5358C62.4925 27.0232 63.9858 28.0176 65.0851 29.3838Z" fill="#F7CF6A"/>
<path d="M31.1763 28.9761V37.5152L25.4263 43.8251C24.1537 42.6648 23.2618 41.1468 22.8675 39.4704C22.4732 37.794 22.5949 36.0376 23.2168 34.4317C23.8387 32.8258 24.9316 31.4454 26.3521 30.4718C27.7725 29.4982 29.4542 28.9768 31.1763 28.9761Z" fill="#455A64"/>
<path d="M37.2892 31.554L31.1758 37.5152V28.9761C32.3155 28.9748 33.4438 29.2023 34.4939 29.6451C35.5441 30.0879 36.4946 30.7371 37.2892 31.554Z" fill="#F7CF6A"/>
<path d="M39.717 37.5153C39.7183 38.7826 39.4363 40.0343 38.8918 41.1787C38.3472 42.323 37.5537 43.3313 36.5694 44.1296L31.168 37.5153L37.2814 31.5541C38.8414 33.1463 39.7157 35.2862 39.717 37.5153Z" fill="#A6A6A6"/>
<path d="M36.5674 46.3688C34.9817 47.6609 32.9848 48.3409 30.9401 48.2851C28.8953 48.2292 26.9386 47.4412 25.4258 46.0644L31.1758 39.7545L36.5674 46.3688Z" fill="#263238"/>
<path d="M107.348 28.9761V46.0544C105.083 46.0544 102.911 45.1547 101.31 43.5533C99.7083 41.9519 98.8086 39.78 98.8086 37.5152C98.8086 35.2505 99.7083 33.0785 101.31 31.4771C102.911 29.8757 105.083 28.9761 107.348 28.9761Z" fill="#F7CF6A"/>
<path d="M109.503 29.2511L107.348 37.5152V28.9761C108.075 28.9767 108.799 29.0691 109.503 29.2511Z" fill="#263238"/>
<path d="M117.359 37.0243C117.36 38.0951 117.159 39.1563 116.765 40.1522L108.82 37.0243L110.976 28.7601C112.804 29.2379 114.422 30.3082 115.577 31.8035C116.732 33.2988 117.359 35.1348 117.359 37.0243Z" fill="#455A64"/>
<path d="M115.293 40.6432C114.662 42.2359 113.567 43.6024 112.151 44.5655C110.734 45.5286 109.061 46.0439 107.348 46.0446V37.5153L115.293 40.6432Z" fill="#A6A6A6"/>
<path d="M37.2064 51.073H27.2383V52.0305H37.2064V51.073Z" fill="#C7C7C7"/>
<path d="M33.8526 53.0714H27.2383V54.0289H33.8526V53.0714Z" fill="#C7C7C7"/>
<path d="M25.6222 51.0632H22.6367V54.0487H25.6222V51.0632Z" fill="#455A64"/>
<path d="M62.597 51.073H52.6289V52.0305H62.597V51.073Z" fill="#C7C7C7"/>
<path d="M59.2432 53.0714H52.6289V54.0289H59.2432V53.0714Z" fill="#C7C7C7"/>
<path d="M51.0129 51.0632H48.0273V54.0487H51.0129V51.0632Z" fill="#A6A6A6"/>
<path d="M87.9876 51.073H78.0195V52.0305H87.9876V51.073Z" fill="#C7C7C7"/>
<path d="M84.6338 53.0714H78.0195V54.0289H84.6338V53.0714Z" fill="#C7C7C7"/>
<path d="M76.4035 51.0632H73.418V54.0487H76.4035V51.0632Z" fill="#263238"/>
<path d="M113.382 51.073H103.414V52.0305H113.382V51.073Z" fill="#C7C7C7"/>
<path d="M110.028 53.0714H103.414V54.0289H110.028V53.0714Z" fill="#C7C7C7"/>
<path d="M101.798 51.0632H98.8125V54.0487H101.798V51.0632Z" fill="#F7CF6A"/>
<path d="M21.9805 63.0692L45.0593 63.0103C52.7489 63.0103 60.4435 63.0103 68.1381 63.0692C60.4484 63.1232 52.7539 63.1085 45.0593 63.133L21.9805 63.0692Z" fill="#C7C7C7"/>
<path d="M21.9805 64.9497L45.0593 64.8907C52.7489 64.8907 60.4435 64.8908 68.1381 64.9497C60.4484 65.0037 52.7539 64.9939 45.0593 65.0135L21.9805 64.9497Z" fill="#C7C7C7"/>
<path d="M21.9805 66.8353L45.0593 66.7715C52.7489 66.796 60.4435 66.7715 68.1381 66.8353C60.4484 66.8844 52.7539 66.8746 45.0593 66.8942L21.9805 66.8353Z" fill="#C7C7C7"/>
<path d="M21.9805 68.7158L45.0593 68.652C52.7489 68.6765 60.4435 68.652 68.1381 68.7158C60.4484 68.7698 52.7539 68.7551 45.0593 68.7747L21.9805 68.7158Z" fill="#C7C7C7"/>
<path d="M21.9805 70.5965L45.0593 70.5376C52.7489 70.5376 60.4435 70.5376 68.1381 70.5965C60.4484 70.6505 52.7539 70.6358 45.0593 70.6604L21.9805 70.5965Z" fill="#C7C7C7"/>
<path d="M21.9805 72.4774L45.0593 72.4185C52.7489 72.4185 60.4435 72.4185 68.1381 72.4774C60.4484 72.5314 52.7539 72.5216 45.0593 72.5412L21.9805 72.4774Z" fill="#C7C7C7"/>
<path d="M21.9805 74.3629L45.0593 74.2991C52.7489 74.3236 60.4435 74.2991 68.1381 74.3629C60.4484 74.412 52.7539 74.4022 45.0593 74.4218L21.9805 74.3629Z" fill="#C7C7C7"/>
<path d="M21.9805 76.2438L45.0593 76.1799C52.7489 76.2045 60.4435 76.1799 68.1381 76.2438C60.4484 76.2978 52.7539 76.283 45.0593 76.3027L21.9805 76.2438Z" fill="#C7C7C7"/>
<path d="M21.9805 78.1242L45.0593 78.0653C52.7489 78.0653 60.4435 78.0653 68.1381 78.1242C60.4484 78.1782 52.7539 78.1635 45.0593 78.1881L21.9805 78.1242Z" fill="#C7C7C7"/>
<path d="M21.9805 80.005L45.0593 79.946C52.7489 79.946 60.4435 79.946 68.1381 80.005C60.4484 80.059 52.7539 80.0492 45.0593 80.0688L21.9805 80.005Z" fill="#C7C7C7"/>
<path d="M21.9805 81.8905L45.0593 81.8267C52.7489 81.8512 60.4435 81.8267 68.1381 81.8905C60.4484 81.9396 52.7539 81.9298 45.0593 81.9494L21.9805 81.8905Z" fill="#C7C7C7"/>
<path d="M21.9805 83.7713L45.0593 83.7075C52.7489 83.7075 60.4435 83.7075 68.1381 83.7713C60.4484 83.8254 52.7539 83.8106 45.0593 83.8303L21.9805 83.7713Z" fill="#C7C7C7"/>
<path d="M21.9805 85.6518L45.0593 85.5929C52.7489 85.5929 60.4435 85.5929 68.1381 85.6518C60.4484 85.7058 52.7539 85.6911 45.0593 85.7157L21.9805 85.6518Z" fill="#C7C7C7"/>
<path d="M21.9805 87.5326L45.0593 87.4736C52.7489 87.4736 60.4435 87.4736 68.1381 87.5326C60.4484 87.5866 52.7539 87.5768 45.0593 87.5964L21.9805 87.5326Z" fill="#C7C7C7"/>
<path d="M21.9805 89.4181L45.0593 89.3542C52.7489 89.3542 60.4435 89.3542 68.1381 89.4181C60.4484 89.4672 52.7539 89.4574 45.0593 89.477L21.9805 89.4181Z" fill="#C7C7C7"/>
<path d="M30.3605 76.2437H26.8594V91.6132H30.3605V76.2437Z" fill="#F7CF6A"/>
<path d="M36.8527 69.7422H33.3516V91.6081H36.8527V69.7422Z" fill="#455A64"/>
<path d="M43.3449 74.4266H39.8438V91.613H43.3449V74.4266Z" fill="#A6A6A6"/>
<path d="M49.837 68.7159H46.3359V91.6131H49.837V68.7159Z" fill="#F7CF6A"/>
<path d="M56.3292 71.7849H52.8281V91.6081H56.3292V71.7849Z" fill="#455A64"/>
<path d="M62.8175 83.02H59.3164V91.6132H62.8175V83.02Z" fill="#A6A6A6"/>
<path d="M23.2308 61.7483L23.3241 69.217L23.3928 76.6808C23.437 81.655 23.4468 86.6341 23.4567 91.6083L23.2308 91.3825H34.4559L45.6811 91.4119L56.9013 91.4856L68.1264 91.6231L56.9013 91.7557L45.6811 91.8293L34.4559 91.8588H23.2308H23V91.628C23 86.6554 23.0213 81.6795 23.0638 76.7004L23.1277 69.2366L23.2308 61.7483Z" fill="#C7C7C7"/>
<path d="M30.3605 93.1895H26.8594V93.5037H30.3605V93.1895Z" fill="#C7C7C7"/>
<path d="M36.8527 93.1895H33.3516V93.5037H36.8527V93.1895Z" fill="#C7C7C7"/>
<path d="M43.3449 93.1895H39.8438V93.5037H43.3449V93.1895Z" fill="#C7C7C7"/>
<path d="M49.837 93.1895H46.3359V93.5037H49.837V93.1895Z" fill="#C7C7C7"/>
<path d="M56.3292 93.1895H52.8281V93.5037H56.3292V93.1895Z" fill="#C7C7C7"/>
<path d="M62.8175 93.1895H59.3164V93.5037H62.8175V93.1895Z" fill="#C7C7C7"/>
<path d="M117.081 70.0123H78.5586V74.196H117.081V70.0123Z" fill="white"/>
<path d="M96.8851 71.2006H79.9492V73.0125H96.8851V71.2006Z" fill="#455A64"/>
<path d="M73.1597 72.2368C73.1669 72.367 73.122 72.4948 73.035 72.5919C72.9479 72.6891 72.8259 72.7477 72.6957 72.7548C72.5654 72.762 72.4377 72.7171 72.3405 72.6301C72.2434 72.5431 72.1848 72.4211 72.1776 72.2908C72.1752 72.2516 72.1752 72.2122 72.1776 72.173C72.1765 72.0325 72.1997 71.893 72.2464 71.7605C72.2955 71.6218 72.3864 71.5017 72.5066 71.4168C72.5964 71.3596 72.6998 71.3274 72.8061 71.3235C72.821 71.3228 72.8358 71.3251 72.8498 71.3302C72.8637 71.3352 72.8765 71.343 72.8875 71.353C72.8984 71.3631 72.9073 71.3752 72.9135 71.3886C72.9198 71.4021 72.9234 71.4167 72.924 71.4315C72.9241 71.4611 72.913 71.4897 72.893 71.5115C72.873 71.5334 72.8455 71.5469 72.816 71.5493C72.7497 71.5479 72.6846 71.5667 72.6294 71.6034C72.5749 71.6386 72.5308 71.6878 72.5017 71.7458L72.4722 71.7949C72.5345 71.7692 72.6013 71.7558 72.6687 71.7556C72.7972 71.7556 72.9206 71.8059 73.0124 71.8959C73.1043 71.9859 73.1571 72.1083 73.1597 72.2368ZM72.9387 72.2368C72.9387 72.1665 72.9108 72.099 72.8611 72.0493C72.8113 71.9996 72.7439 71.9716 72.6736 71.9716C72.6032 71.9716 72.5358 71.9996 72.4861 72.0493C72.4363 72.099 72.4084 72.1665 72.4084 72.2368C72.4084 72.3071 72.4363 72.3746 72.4861 72.4243C72.5358 72.474 72.6032 72.502 72.6736 72.502C72.7439 72.502 72.8113 72.474 72.8611 72.4243C72.9108 72.3746 72.9387 72.3071 72.9387 72.2368Z" fill="#263238"/>
<path d="M73.4728 72.0205C73.4694 71.8469 73.5172 71.6761 73.6103 71.5295C73.6474 71.463 73.7015 71.4076 73.7671 71.3691C73.8327 71.3305 73.9074 71.3102 73.9835 71.3102C74.0596 71.3102 74.1343 71.3305 74.1999 71.3691C74.2655 71.4076 74.3197 71.463 74.3567 71.5295C74.4506 71.6755 74.4969 71.847 74.4893 72.0205C74.4963 72.1939 74.45 72.3652 74.3567 72.5115C74.3197 72.578 74.2655 72.6334 74.1999 72.6719C74.1343 72.7105 74.0596 72.7308 73.9835 72.7308C73.9074 72.7308 73.8327 72.7105 73.7671 72.6719C73.7015 72.6334 73.6474 72.578 73.6103 72.5115C73.5178 72.3647 73.47 72.1941 73.4728 72.0205ZM74.2683 72.0205C74.2716 71.894 74.2374 71.7693 74.1701 71.662C74.1512 71.628 74.1244 71.5991 74.0919 71.5777C74.0594 71.5563 74.0222 71.5431 73.9835 71.5393C73.9443 71.5436 73.9066 71.5569 73.8733 71.5782C73.8401 71.5995 73.8123 71.6282 73.792 71.662C73.7287 71.7707 73.6964 71.8947 73.6987 72.0205C73.6972 72.1462 73.7294 72.27 73.792 72.379C73.8123 72.4128 73.8401 72.4415 73.8733 72.4628C73.9066 72.4841 73.9443 72.4974 73.9835 72.5017C74.0222 72.4979 74.0594 72.4847 74.0919 72.4633C74.1244 72.4419 74.1512 72.413 74.1701 72.379C74.2366 72.2714 74.2707 72.1469 74.2683 72.0205Z" fill="#263238"/>
<path d="M74.9048 71.6622C74.8991 71.6153 74.9034 71.5677 74.9174 71.5225C74.9315 71.4774 74.9549 71.4358 74.9863 71.4004C75.0176 71.365 75.0561 71.3367 75.0992 71.3173C75.1423 71.2979 75.189 71.2878 75.2362 71.2878C75.2835 71.2878 75.3302 71.2979 75.3733 71.3173C75.4164 71.3367 75.4549 71.365 75.4862 71.4004C75.5176 71.4358 75.541 71.4774 75.5551 71.5225C75.5691 71.5677 75.5734 71.6153 75.5677 71.6622C75.5704 71.7079 75.5637 71.7536 75.5482 71.7967C75.5327 71.8398 75.5086 71.8793 75.4774 71.9128C75.4462 71.9463 75.4085 71.9731 75.3666 71.9916C75.3248 72.0102 75.2796 72.02 75.2338 72.0206C75.1882 72.0201 75.1432 72.0102 75.1016 71.9916C75.06 71.973 75.0226 71.9461 74.9918 71.9125C74.961 71.8789 74.9374 71.8394 74.9224 71.7963C74.9074 71.7533 74.9014 71.7076 74.9048 71.6622ZM75.3958 71.6622C75.4015 71.6141 75.3883 71.5658 75.3589 71.5273C75.3296 71.4888 75.2865 71.4632 75.2387 71.4559C75.1454 71.4559 75.0865 71.5492 75.0865 71.6573C75.0865 71.7702 75.1503 71.8586 75.2436 71.8586C75.3369 71.8586 75.3664 71.7751 75.3664 71.6622H75.3958ZM75.1405 72.605L76.0636 71.343C76.0708 71.3315 76.081 71.3222 76.0932 71.3161C76.1053 71.3101 76.1189 71.3075 76.1324 71.3086C76.1532 71.3086 76.1732 71.3169 76.1879 71.3316C76.2027 71.3464 76.211 71.3663 76.211 71.3872C76.2159 71.4032 76.2159 71.4203 76.211 71.4363L75.2878 72.6983C75.2792 72.7095 75.268 72.7184 75.2552 72.7244C75.2424 72.7304 75.2283 72.7332 75.2142 72.7326C75.1933 72.7326 75.1733 72.7244 75.1586 72.7096C75.1439 72.6949 75.1356 72.6749 75.1356 72.6541C75.1224 72.6407 75.1138 72.6235 75.111 72.605H75.1405ZM75.7592 72.384C75.7565 72.3383 75.7632 72.2925 75.7787 72.2494C75.7942 72.2064 75.8183 72.1669 75.8495 72.1334C75.8807 72.0999 75.9184 72.073 75.9603 72.0545C76.0021 72.036 76.0473 72.0261 76.0931 72.0255C76.1387 72.0261 76.1837 72.036 76.2253 72.0545C76.2669 72.0731 76.3043 72.1001 76.3351 72.1336C76.3659 72.1672 76.3895 72.2068 76.4045 72.2498C76.4195 72.2929 76.4255 72.3385 76.4221 72.384C76.4278 72.4309 76.4235 72.4785 76.4095 72.5236C76.3954 72.5688 76.372 72.6104 76.3406 72.6458C76.3093 72.6811 76.2708 72.7095 76.2277 72.7289C76.1846 72.7483 76.1379 72.7583 76.0907 72.7583C76.0434 72.7583 75.9967 72.7483 75.9536 72.7289C75.9105 72.7095 75.872 72.6811 75.8407 72.6458C75.8093 72.6104 75.7859 72.5688 75.7718 72.5236C75.7578 72.4785 75.7535 72.4309 75.7592 72.384ZM76.2502 72.384C76.2502 72.2711 76.1864 72.1827 76.0931 72.1827C75.9998 72.1827 75.9458 72.2711 75.9458 72.384C75.9458 72.5018 76.0096 72.5902 76.098 72.5902C76.1864 72.5902 76.2159 72.5117 76.2159 72.384H76.2502Z" fill="#263238"/>
<path d="M117.081 63.8694H78.5586V68.053H117.081V63.8694Z" fill="white"/>
<path d="M88.3018 65.0577H79.9492V66.8697H88.3018V65.0577Z" fill="#F7CF6A"/>
<path d="M72.9415 65.7255C72.989 65.7713 73.0268 65.8263 73.0526 65.887C73.0784 65.9477 73.0918 66.0131 73.0918 66.0791C73.0918 66.1451 73.0784 66.2104 73.0526 66.2712C73.0268 66.3319 72.989 66.3868 72.9415 66.4326C72.8954 66.4796 72.8404 66.5169 72.7797 66.5422C72.7189 66.5675 72.6537 66.5803 72.5879 66.5799C72.523 66.5797 72.4587 66.5665 72.3989 66.5412C72.339 66.5159 72.2848 66.479 72.2393 66.4326C72.2186 66.4107 72.207 66.3817 72.207 66.3516C72.207 66.3215 72.2186 66.2925 72.2393 66.2706C72.2494 66.2599 72.2616 66.2514 72.2751 66.2455C72.2886 66.2397 72.3031 66.2367 72.3179 66.2367C72.3326 66.2367 72.3471 66.2397 72.3606 66.2455C72.3742 66.2514 72.3863 66.2599 72.3964 66.2706C72.4215 66.2958 72.4513 66.3158 72.4842 66.3293C72.5171 66.3428 72.5524 66.3496 72.5879 66.3491C72.6243 66.3499 72.6604 66.3434 72.6942 66.3299C72.7279 66.3164 72.7586 66.2962 72.7843 66.2706C72.8096 66.2456 72.8296 66.2157 72.8431 66.1828C72.8566 66.1499 72.8633 66.1146 72.8629 66.0791C72.8642 66.0434 72.8579 66.0079 72.8443 65.9748C72.8308 65.9418 72.8103 65.912 72.7843 65.8876C72.7593 65.8623 72.7295 65.8423 72.6966 65.8288C72.6637 65.8153 72.6284 65.8086 72.5928 65.809C72.5768 65.8094 72.561 65.806 72.5465 65.7992C72.532 65.7924 72.5193 65.7823 72.5094 65.7697C72.4985 65.7592 72.4899 65.7466 72.484 65.7327C72.4781 65.7188 72.4751 65.7038 72.4751 65.6887C72.4751 65.6736 72.4781 65.6586 72.484 65.6447C72.4899 65.6308 72.4985 65.6182 72.5094 65.6077L72.7156 65.3965H72.3866C72.3567 65.3965 72.3279 65.3846 72.3068 65.3634C72.2856 65.3423 72.2737 65.3135 72.2737 65.2836C72.2737 65.2536 72.2856 65.2249 72.3068 65.2037C72.3279 65.1826 72.3567 65.1707 72.3866 65.1707H72.9808C73.0107 65.1707 73.0395 65.1826 73.0606 65.2037C73.0818 65.2249 73.0937 65.2536 73.0937 65.2836C73.0988 65.3012 73.0988 65.32 73.0937 65.3376C73.0951 65.3474 73.0951 65.3573 73.0937 65.3671L72.8433 65.6273C72.881 65.6547 72.9141 65.6878 72.9415 65.7255Z" fill="#263238"/>
<path d="M73.4341 65.8778C73.4282 65.7039 73.4762 65.5324 73.5716 65.3868C73.6075 65.3189 73.6612 65.2622 73.727 65.2226C73.7927 65.183 73.868 65.1621 73.9448 65.1621C74.0215 65.1621 74.0968 65.183 74.1626 65.2226C74.2283 65.2622 74.282 65.3189 74.3179 65.3868C74.4096 65.5338 74.4557 65.7046 74.4505 65.8778C74.4543 66.0508 74.4082 66.2212 74.3179 66.3688C74.2809 66.4353 74.2268 66.4907 74.1612 66.5292C74.0956 66.5678 74.0209 66.5881 73.9448 66.5881C73.8687 66.5881 73.7939 66.5678 73.7283 66.5292C73.6627 66.4907 73.6086 66.4353 73.5716 66.3688C73.4774 66.2227 73.4295 66.0516 73.4341 65.8778ZM74.2296 65.8778C74.2328 65.7513 74.1986 65.6266 74.1314 65.5193C74.0724 65.4359 74.0086 65.3917 73.9448 65.3966C73.9051 65.3992 73.8667 65.4119 73.8332 65.4333C73.7997 65.4548 73.7722 65.4844 73.7532 65.5193C73.6899 65.628 73.6577 65.752 73.6599 65.8778C73.6575 66.002 73.6899 66.1245 73.7532 66.2314C73.772 66.2669 73.7993 66.2973 73.8327 66.3196C73.8662 66.3419 73.9047 66.3554 73.9448 66.359C73.9841 66.3551 74.0218 66.3413 74.0544 66.319C74.087 66.2967 74.1134 66.2666 74.1314 66.2314C74.19 66.1232 74.2156 66.0003 74.205 65.8778H74.2296Z" fill="#263238"/>
<path d="M74.8189 65.5192C74.8131 65.4723 74.8174 65.4247 74.8315 65.3796C74.8455 65.3345 74.869 65.2928 74.9003 65.2574C74.9317 65.2221 74.9701 65.1937 75.0132 65.1743C75.0563 65.1549 75.103 65.1449 75.1503 65.1449C75.1976 65.1449 75.2443 65.1549 75.2874 65.1743C75.3305 65.1937 75.369 65.2221 75.4003 65.2574C75.4316 65.2928 75.4551 65.3345 75.4691 65.3796C75.4832 65.4247 75.4875 65.4723 75.4818 65.5192C75.4844 65.5649 75.4778 65.6107 75.4623 65.6538C75.4467 65.6968 75.4226 65.7363 75.3914 65.7698C75.3602 65.8033 75.3226 65.8302 75.2807 65.8487C75.2388 65.8672 75.1936 65.8771 75.1479 65.8777C75.1023 65.8771 75.0573 65.8673 75.0157 65.8487C74.974 65.8301 74.9367 65.8032 74.9059 65.7696C74.875 65.736 74.8514 65.6965 74.8365 65.6534C74.8215 65.6103 74.8155 65.5647 74.8189 65.5192ZM75.3099 65.5192C75.3099 65.4063 75.2461 65.313 75.1577 65.313C75.0693 65.313 75.0055 65.4063 75.0055 65.5143C75.0055 65.6272 75.0693 65.7156 75.1626 65.7156C75.2559 65.7156 75.3001 65.6371 75.3001 65.5192H75.3099ZM75.0595 66.462L75.9826 65.2C75.9896 65.188 75.9996 65.178 76.0117 65.1711C76.0238 65.1642 76.0374 65.1606 76.0514 65.1608C76.0722 65.1608 76.0922 65.169 76.1069 65.1838C76.1217 65.1985 76.1299 65.2185 76.1299 65.2393C76.1368 65.2567 76.1368 65.276 76.1299 65.2933L75.2068 66.5553C75.1996 66.5668 75.1894 66.5761 75.1773 66.5822C75.1651 66.5882 75.1515 66.5908 75.138 66.5897C75.1277 66.5897 75.1175 66.5877 75.108 66.5837C75.0984 66.5798 75.0898 66.574 75.0825 66.5667C75.0752 66.5594 75.0694 66.5507 75.0654 66.5412C75.0615 66.5317 75.0595 66.5214 75.0595 66.5111C75.0506 66.4964 75.0471 66.479 75.0497 66.462H75.0595ZM75.6782 66.241C75.6725 66.1941 75.6768 66.1465 75.6908 66.1014C75.7048 66.0563 75.7283 66.0147 75.7596 65.9793C75.791 65.9439 75.8295 65.9156 75.8726 65.8962C75.9156 65.8768 75.9624 65.8667 76.0096 65.8667C76.0569 65.8667 76.1036 65.8768 76.1467 65.8962C76.1898 65.9156 76.2283 65.9439 76.2596 65.9793C76.2909 66.0147 76.3144 66.0563 76.3285 66.1014C76.3425 66.1465 76.3468 66.1941 76.3411 66.241C76.3468 66.288 76.3425 66.3355 76.3285 66.3807C76.3144 66.4258 76.2909 66.4674 76.2596 66.5028C76.2283 66.5382 76.1898 66.5665 76.1467 66.5859C76.1036 66.6053 76.0569 66.6154 76.0096 66.6154C75.9624 66.6154 75.9156 66.6053 75.8726 66.5859C75.8295 66.5665 75.791 66.5382 75.7596 66.5028C75.7283 66.4674 75.7048 66.4258 75.6908 66.3807C75.6768 66.3355 75.6725 66.288 75.6782 66.241ZM76.1692 66.241C76.1692 66.1281 76.1054 66.0348 76.0121 66.0348C75.9188 66.0348 75.8599 66.1281 75.8599 66.2361C75.8542 66.2842 75.8674 66.3325 75.8968 66.371C75.9261 66.4095 75.9692 66.4351 76.017 66.4424C76.0956 66.4424 76.1545 66.3491 76.1545 66.241H76.1692Z" fill="#263238"/>
<path d="M117.081 88.4458H78.5586V92.6295H117.081V88.4458Z" fill="white"/>
<path d="M108.852 89.6343H79.9492V91.4462H108.852V89.6343Z" fill="#F7CF6A"/>
<path d="M72.1881 90.2332C72.1849 90.1688 72.1944 90.1043 72.2161 90.0435C72.2378 89.9827 72.2713 89.9267 72.3146 89.8788C72.3579 89.831 72.4102 89.7921 72.4686 89.7644C72.5269 89.7368 72.5901 89.7209 72.6546 89.7177C72.7848 89.7111 72.9123 89.7566 73.009 89.8441C73.0569 89.8874 73.0958 89.9398 73.1234 89.9981C73.1511 90.0564 73.167 90.1197 73.1702 90.1841C73.1725 90.2218 73.1725 90.2595 73.1702 90.2971C73.1717 90.4375 73.1485 90.5772 73.1014 90.7096C73.0538 90.8491 72.9626 90.9696 72.8412 91.0533C72.7528 91.114 72.6488 91.1481 72.5417 91.1515C72.5117 91.1515 72.483 91.1396 72.4618 91.1184C72.4406 91.0972 72.4287 91.0685 72.4287 91.0386C72.4287 91.0086 72.4406 90.9799 72.4618 90.9587C72.483 90.9375 72.5117 90.9256 72.5417 90.9256C72.6076 90.9249 72.6721 90.9062 72.7283 90.8716C72.7818 90.8352 72.8256 90.7863 72.8559 90.7292C72.867 90.7127 72.8753 90.6944 72.8805 90.6752C72.8212 90.7053 72.7555 90.7205 72.689 90.7194C72.6241 90.7207 72.5596 90.7091 72.4992 90.6853C72.4388 90.6615 72.3837 90.626 72.3371 90.5808C72.2906 90.5356 72.2534 90.4816 72.2278 90.4219C72.2022 90.3623 72.1887 90.2982 72.1881 90.2332ZM72.4091 90.2332C72.4091 90.3036 72.437 90.371 72.4867 90.4207C72.5365 90.4705 72.6039 90.4984 72.6742 90.4984C72.7446 90.4984 72.812 90.4705 72.8617 90.4207C72.9115 90.371 72.9394 90.3036 72.9394 90.2332C72.9394 90.1629 72.9115 90.0955 72.8617 90.0458C72.812 89.996 72.7446 89.9681 72.6742 89.9681C72.6039 89.9681 72.5365 89.996 72.4867 90.0458C72.437 90.0955 72.4091 90.1629 72.4091 90.2332Z" fill="#263238"/>
<path d="M73.4728 90.4545C73.4694 90.2808 73.5172 90.11 73.6103 89.9634C73.6462 89.8956 73.7 89.8388 73.7657 89.7993C73.8315 89.7597 73.9068 89.7388 73.9835 89.7388C74.0603 89.7388 74.1356 89.7597 74.2013 89.7993C74.2671 89.8388 74.3208 89.8956 74.3567 89.9634C74.4506 90.1095 74.4969 90.281 74.4893 90.4545C74.4953 90.6277 74.4492 90.7988 74.3567 90.9455C74.3197 91.012 74.2655 91.0674 74.1999 91.1059C74.1343 91.1445 74.0596 91.1648 73.9835 91.1648C73.9074 91.1648 73.8327 91.1445 73.7671 91.1059C73.7015 91.0674 73.6474 91.012 73.6103 90.9455C73.5185 90.7983 73.4708 90.6279 73.4728 90.4545ZM74.2683 90.4545C74.2722 90.3278 74.2379 90.203 74.1701 90.096C74.1112 90.0125 74.0473 89.9683 73.9835 89.9732C73.9197 89.9782 73.8558 90.0125 73.792 90.096C73.7309 90.2047 73.6988 90.3273 73.6988 90.452C73.6988 90.5767 73.7309 90.6993 73.792 90.808C73.8114 90.8431 73.8389 90.8729 73.8722 90.8951C73.9056 90.9174 73.9437 90.9313 73.9835 90.9357C74.0228 90.9317 74.0605 90.918 74.0931 90.8957C74.1257 90.8734 74.1522 90.8432 74.1701 90.808C74.2373 90.7026 74.2715 90.5795 74.2683 90.4545Z" fill="#263238"/>
<path d="M74.9048 90.0958C74.8991 90.0488 74.9034 90.0013 74.9174 89.9561C74.9315 89.911 74.9549 89.8694 74.9863 89.834C75.0176 89.7986 75.0561 89.7703 75.0992 89.7509C75.1423 89.7315 75.189 89.7214 75.2362 89.7214C75.2835 89.7214 75.3302 89.7315 75.3733 89.7509C75.4164 89.7703 75.4549 89.7986 75.4862 89.834C75.5176 89.8694 75.541 89.911 75.5551 89.9561C75.5691 90.0013 75.5734 90.0488 75.5677 90.0958C75.5734 90.1427 75.5691 90.1903 75.5551 90.2354C75.541 90.2805 75.5176 90.3222 75.4862 90.3575C75.4549 90.3929 75.4164 90.4212 75.3733 90.4406C75.3302 90.46 75.2835 90.4701 75.2362 90.4701C75.189 90.4701 75.1423 90.46 75.0992 90.4406C75.0561 90.4212 75.0176 90.3929 74.9863 90.3575C74.9549 90.3222 74.9315 90.2805 74.9174 90.2354C74.9034 90.1903 74.8991 90.1427 74.9048 90.0958ZM75.3958 90.0958C75.4014 90.0483 75.388 90.0005 75.3586 89.9628C75.3292 89.9251 75.2861 89.9006 75.2387 89.8944C75.1454 89.8944 75.0865 89.9828 75.0865 90.0958C75.0865 90.2136 75.1503 90.302 75.2436 90.302C75.3369 90.302 75.3664 90.1891 75.3664 90.0958H75.3958ZM75.1405 91.0336L76.0636 89.7766C76.0706 89.7645 76.0806 89.7546 76.0927 89.7477C76.1048 89.7408 76.1185 89.7372 76.1324 89.7373C76.1532 89.7373 76.1732 89.7456 76.1879 89.7603C76.2027 89.775 76.211 89.795 76.211 89.8159C76.216 89.8335 76.216 89.8522 76.211 89.8699L75.2878 91.1319C75.2792 91.1431 75.268 91.152 75.2552 91.158C75.2424 91.164 75.2283 91.1668 75.2142 91.1662C75.1933 91.1662 75.1733 91.1579 75.1586 91.1432C75.1439 91.1285 75.1356 91.1085 75.1356 91.0877C75.1223 91.0725 75.1138 91.0537 75.111 91.0336H75.1405ZM75.7592 90.8176C75.7565 90.7719 75.7632 90.7261 75.7787 90.683C75.7942 90.64 75.8183 90.6005 75.8495 90.567C75.8807 90.5335 75.9184 90.5067 75.9603 90.4881C76.0021 90.4696 76.0473 90.4597 76.0931 90.4591C76.1383 90.4597 76.1828 90.4694 76.2241 90.4877C76.2653 90.506 76.3025 90.5325 76.3332 90.5655C76.364 90.5986 76.3877 90.6375 76.403 90.68C76.4183 90.7225 76.4248 90.7676 76.4221 90.8127C76.4278 90.8596 76.4235 90.9072 76.4095 90.9523C76.3954 90.9974 76.372 91.0391 76.3406 91.0745C76.3093 91.1098 76.2708 91.1382 76.2277 91.1576C76.1846 91.177 76.1379 91.187 76.0907 91.187C76.0434 91.187 75.9967 91.177 75.9536 91.1576C75.9105 91.1382 75.872 91.1098 75.8407 91.0745C75.8093 91.0391 75.7859 90.9974 75.7718 90.9523C75.7578 90.9072 75.7535 90.8596 75.7592 90.8127V90.8176ZM76.2502 90.8176C76.2502 90.7046 76.1864 90.6114 76.0931 90.6114C75.9998 90.6114 75.9458 90.7047 75.9458 90.8127C75.9458 90.9256 76.0096 91.0189 76.098 91.0189C76.1864 91.0189 76.2159 90.9256 76.2159 90.8176H76.2502Z" fill="#263238"/>
<path d="M117.081 82.3029H78.5586V86.4865H117.081V82.3029Z" fill="white"/>
<path d="M105.925 83.4866H79.9492V85.2985H105.925V83.4866Z" fill="#455A64"/>
<path d="M73.1266 84.5322C73.1266 84.6624 73.0749 84.7873 72.9828 84.8794C72.8907 84.9715 72.7658 85.0233 72.6356 85.0233C72.5053 85.0233 72.3804 84.9715 72.2884 84.8794C72.1963 84.7873 72.1445 84.6624 72.1445 84.5322C72.146 84.4534 72.1664 84.3762 72.204 84.307C72.2416 84.2377 72.2953 84.1786 72.3606 84.1345C72.3157 84.077 72.2915 84.0061 72.2918 83.9331C72.2918 83.8446 72.327 83.7597 72.3896 83.697C72.4523 83.6344 72.5372 83.5992 72.6258 83.5992C72.7143 83.5992 72.7992 83.6344 72.8619 83.697C72.9245 83.7597 72.9597 83.8446 72.9597 83.9331C72.96 84.0061 72.9358 84.077 72.8909 84.1345C72.9598 84.1763 73.0174 84.2345 73.0585 84.3039C73.0996 84.3732 73.123 84.4517 73.1266 84.5322ZM72.9056 84.5322C72.9056 84.4807 72.8904 84.4304 72.8618 84.3876C72.8332 84.3448 72.7925 84.3115 72.745 84.2918C72.6974 84.2721 72.6451 84.2669 72.5946 84.277C72.5441 84.287 72.4978 84.3118 72.4614 84.3482C72.425 84.3846 72.4002 84.431 72.3901 84.4814C72.3801 84.5319 72.3853 84.5843 72.405 84.6318C72.4247 84.6794 72.458 84.72 72.5008 84.7486C72.5436 84.7772 72.5939 84.7925 72.6454 84.7925C72.7144 84.7925 72.7806 84.765 72.8294 84.7162C72.8782 84.6674 72.9056 84.6012 72.9056 84.5322ZM72.5325 83.9331C72.5315 83.9557 72.5373 83.978 72.5491 83.9972C72.5609 84.0164 72.5781 84.0316 72.5987 84.0409C72.6192 84.0502 72.642 84.0532 72.6643 84.0494C72.6865 84.0456 72.7071 84.0353 72.7234 84.0197C72.7396 84.0041 72.7509 83.984 72.7557 83.962C72.7604 83.9399 72.7585 83.917 72.7501 83.896C72.7417 83.8751 72.7273 83.8572 72.7086 83.8445C72.69 83.8319 72.6679 83.8251 72.6454 83.8251C72.6163 83.8251 72.5883 83.8363 72.5672 83.8564C72.5462 83.8766 72.5337 83.9041 72.5325 83.9331Z" fill="#263238"/>
<path d="M73.4338 84.2967C73.4318 84.1233 73.4795 83.9529 73.5713 83.8057C73.6083 83.7392 73.6624 83.6839 73.728 83.6453C73.7936 83.6068 73.8684 83.5864 73.9444 83.5864C74.0205 83.5864 74.0953 83.6068 74.1609 83.6453C74.2265 83.6839 74.2806 83.7392 74.3176 83.8057C74.4118 83.9518 74.4597 84.123 74.4551 84.2967C74.461 84.4707 74.413 84.6422 74.3176 84.7878C74.2817 84.8556 74.228 84.9124 74.1622 84.9519C74.0965 84.9915 74.0212 85.0124 73.9444 85.0124C73.8677 85.0124 73.7924 84.9915 73.7267 84.9519C73.6609 84.9124 73.6072 84.8556 73.5713 84.7878C73.4782 84.6412 73.4304 84.4704 73.4338 84.2967ZM74.2292 84.2967C74.2316 84.1703 74.1975 84.0459 74.131 83.9383C74.1129 83.9037 74.0862 83.8743 74.0536 83.8528C74.021 83.8314 73.9834 83.8185 73.9444 83.8155C73.9053 83.8202 73.8677 83.8336 73.8346 83.8549C73.8014 83.8761 73.7735 83.9047 73.7529 83.9383C73.6903 84.0473 73.6581 84.1711 73.6596 84.2967C73.6574 84.4225 73.6896 84.5465 73.7529 84.6552C73.7735 84.6888 73.8014 84.7174 73.8346 84.7386C73.8677 84.7599 73.9053 84.7733 73.9444 84.778C73.9834 84.775 74.021 84.7621 74.0536 84.7407C74.0862 84.7192 74.1129 84.6898 74.131 84.6552C74.2035 84.5496 74.2429 84.4248 74.244 84.2967H74.2292Z" fill="#263238"/>
<path d="M74.8579 83.9531C74.8522 83.9061 74.8565 83.8586 74.8706 83.8134C74.8846 83.7683 74.9081 83.7267 74.9394 83.6913C74.9707 83.6559 75.0092 83.6276 75.0523 83.6082C75.0954 83.5888 75.1421 83.5787 75.1894 83.5787C75.2366 83.5787 75.2834 83.5888 75.3265 83.6082C75.3695 83.6276 75.408 83.6559 75.4394 83.6913C75.4707 83.7267 75.4942 83.7683 75.5082 83.8134C75.5222 83.8586 75.5265 83.9061 75.5208 83.9531C75.5265 84 75.5222 84.0476 75.5082 84.0927C75.4942 84.1378 75.4707 84.1794 75.4394 84.2148C75.408 84.2502 75.3695 84.2785 75.3265 84.2979C75.2834 84.3173 75.2366 84.3274 75.1894 84.3274C75.1421 84.3274 75.0954 84.3173 75.0523 84.2979C75.0092 84.2785 74.9707 84.2502 74.9394 84.2148C74.9081 84.1794 74.8846 84.1378 74.8706 84.0927C74.8565 84.0476 74.8522 84 74.8579 83.9531ZM75.349 83.9531C75.349 83.8401 75.2851 83.7468 75.1918 83.7468C75.0985 83.7468 75.0396 83.8401 75.0396 83.9481C75.0396 84.0611 75.1034 84.1544 75.1967 84.1544C75.29 84.1544 75.3441 84.0611 75.3441 83.9531H75.349ZM75.0936 84.8909L76.0168 83.629C76.024 83.6175 76.0342 83.6082 76.0463 83.6021C76.0584 83.596 76.072 83.5935 76.0855 83.5946C76.0958 83.5946 76.1061 83.5966 76.1156 83.6006C76.1251 83.6045 76.1338 83.6103 76.1411 83.6176C76.1484 83.6249 76.1542 83.6336 76.1581 83.6431C76.1621 83.6526 76.1641 83.6628 76.1641 83.6732C76.1691 83.6908 76.1691 83.7095 76.1641 83.7272L75.2409 84.9842C75.2325 84.9961 75.2215 85.0058 75.2087 85.0126C75.196 85.0194 75.1818 85.0231 75.1673 85.0235C75.157 85.0235 75.1468 85.0215 75.1372 85.0175C75.1277 85.0136 75.119 85.0078 75.1117 85.0005C75.1044 84.9932 75.0986 84.9846 75.0947 84.975C75.0907 84.9655 75.0887 84.9553 75.0887 84.945C75.0839 84.9273 75.0839 84.9086 75.0887 84.8909H75.0936ZM75.7123 84.67C75.7097 84.624 75.7163 84.578 75.7318 84.5347C75.7472 84.4913 75.7713 84.4515 75.8024 84.4176C75.8335 84.3837 75.8712 84.3565 75.9131 84.3374C75.9549 84.3183 76.0002 84.3078 76.0462 84.3066C76.0918 84.3072 76.1368 84.317 76.1784 84.3356C76.22 84.3542 76.2574 84.3811 76.2882 84.4147C76.3191 84.4483 76.3427 84.4878 76.3576 84.5309C76.3726 84.5739 76.3786 84.6196 76.3752 84.6651C76.3779 84.7108 76.3713 84.7565 76.3557 84.7996C76.3402 84.8427 76.3161 84.8822 76.2849 84.9157C76.2537 84.9492 76.216 84.976 76.1742 84.9945C76.1323 85.0131 76.0871 85.0229 76.0413 85.0235C75.9958 85.0236 75.9507 85.0144 75.9088 84.9964C75.867 84.9784 75.8293 84.952 75.798 84.9189C75.7667 84.8858 75.7425 84.8466 75.727 84.8038C75.7114 84.761 75.7047 84.7154 75.7074 84.67H75.7123ZM76.2034 84.67C76.2034 84.557 76.1395 84.4637 76.0462 84.4637C75.9529 84.4637 75.8989 84.557 75.8989 84.6651C75.8989 84.778 75.9628 84.8664 76.0511 84.8664C76.1395 84.8664 76.1935 84.7878 76.1935 84.67H76.2034Z" fill="#263238"/>
<path d="M117.081 76.1553H78.5586V80.3389H117.081V76.1553Z" fill="white"/>
<path d="M101.997 77.3435H79.9492V79.1554H101.997V77.3435Z" fill="#F7CF6A"/>
<path d="M73.0842 77.6136L72.5932 78.8019C72.5856 78.8226 72.5713 78.8401 72.5526 78.8517C72.5339 78.8632 72.5119 78.8682 72.4901 78.8658H72.4508C72.4236 78.8539 72.4021 78.8318 72.3911 78.8042C72.3801 78.7766 72.3803 78.7458 72.3918 78.7185L72.824 77.6873H72.3035C72.2888 77.6873 72.2744 77.6843 72.2609 77.6786C72.2475 77.6729 72.2354 77.6645 72.2253 77.6539C72.2152 77.6434 72.2073 77.6309 72.2022 77.6172C72.1971 77.6035 72.1948 77.5889 72.1954 77.5743C72.1954 77.5457 72.2068 77.5182 72.2271 77.498C72.2473 77.4777 72.2748 77.4663 72.3035 77.4663H73.0155H73.0596V77.5301C73.0596 77.5301 73.0842 77.6087 73.0842 77.6136Z" fill="#263238"/>
<path d="M73.3244 78.1637C73.321 77.99 73.3688 77.8192 73.4619 77.6726C73.5017 77.6074 73.5571 77.553 73.6231 77.5144C73.6891 77.4759 73.7636 77.4543 73.84 77.4517C73.9149 77.455 73.9878 77.477 74.0521 77.5156C74.1164 77.5542 74.17 77.6081 74.2083 77.6726C74.3036 77.8182 74.3516 77.9897 74.3458 78.1637C74.351 78.3375 74.303 78.5088 74.2083 78.6547C74.17 78.7192 74.1164 78.7732 74.0521 78.8118C73.9878 78.8503 73.9149 78.8723 73.84 78.8757C73.7636 78.873 73.6891 78.8515 73.6231 78.8129C73.5571 78.7743 73.5017 78.72 73.4619 78.6547C73.3693 78.5078 73.3216 78.3372 73.3244 78.1637ZM74.1199 78.1637C74.1214 78.038 74.0892 77.9142 74.0266 77.8052C74.0105 77.7684 73.9841 77.7371 73.9505 77.7151C73.9169 77.6931 73.8777 77.6814 73.8375 77.6814C73.7974 77.6814 73.7581 77.6931 73.7245 77.7151C73.691 77.7371 73.6645 77.7684 73.6485 77.8052C73.5841 77.9137 73.5501 78.0375 73.5501 78.1637C73.5501 78.2898 73.5841 78.4136 73.6485 78.5221C73.6645 78.5589 73.691 78.5902 73.7245 78.6122C73.7581 78.6342 73.7974 78.6459 73.8375 78.6459C73.8777 78.6459 73.9169 78.6342 73.9505 78.6122C73.9841 78.5902 74.0105 78.5589 74.0266 78.5221C74.0892 78.4131 74.1214 78.2893 74.1199 78.1637Z" fill="#263238"/>
<path d="M74.7329 77.8099C74.7303 77.7639 74.7369 77.7179 74.7523 77.6746C74.7678 77.6312 74.7918 77.5914 74.823 77.5576C74.8541 77.5237 74.8918 77.4964 74.9336 77.4773C74.9755 77.4582 75.0208 77.4478 75.0668 77.4465C75.1124 77.4471 75.1574 77.457 75.199 77.4755C75.2406 77.4941 75.278 77.521 75.3088 77.5546C75.3396 77.5882 75.3633 77.6278 75.3782 77.6708C75.3932 77.7139 75.3992 77.7595 75.3958 77.805C75.4015 77.8519 75.3972 77.8995 75.3832 77.9446C75.3692 77.9897 75.3457 78.0314 75.3144 78.0668C75.283 78.1022 75.2445 78.1305 75.2014 78.1499C75.1583 78.1693 75.1116 78.1793 75.0644 78.1793C75.0171 78.1793 74.9704 78.1693 74.9273 78.1499C74.8842 78.1305 74.8457 78.1022 74.8144 78.0668C74.7831 78.0314 74.7596 77.9897 74.7455 77.9446C74.7315 77.8995 74.7272 77.8519 74.7329 77.805V77.8099ZM75.224 77.8099C75.224 77.697 75.1601 77.6037 75.0668 77.6037C74.9735 77.6037 74.9195 77.697 74.9195 77.805C74.9195 77.9179 74.9833 78.0112 75.0717 78.0112C75.1601 78.0112 75.219 77.913 75.219 77.8099H75.224ZM74.9686 78.7478L75.8918 77.4858C75.899 77.4743 75.9092 77.465 75.9213 77.4589C75.9334 77.4529 75.947 77.4503 75.9605 77.4514C75.9818 77.4514 76.0023 77.4595 76.0179 77.4741C76.0334 77.4887 76.0427 77.5087 76.044 77.53C76.0486 77.546 76.0486 77.5631 76.044 77.5791L75.1208 78.8411C75.1125 78.8526 75.1014 78.8618 75.0885 78.8678C75.0756 78.8739 75.0614 78.8765 75.0472 78.8755C75.0373 78.8762 75.0274 78.8748 75.0182 78.8713C75.0089 78.8679 75.0005 78.8625 74.9935 78.8555C74.9865 78.8485 74.9811 78.8401 74.9776 78.8308C74.9742 78.8216 74.9728 78.8117 74.9735 78.8018C74.9646 78.7853 74.9612 78.7664 74.9637 78.7478H74.9686ZM75.5873 78.5268C75.5847 78.4811 75.5913 78.4353 75.6068 78.3923C75.6223 78.3492 75.6464 78.3097 75.6776 78.2762C75.7089 78.2427 75.7465 78.2159 75.7884 78.1973C75.8303 78.1788 75.8754 78.1689 75.9212 78.1684C75.9668 78.1689 76.0118 78.1788 76.0534 78.1974C76.095 78.216 76.1324 78.2429 76.1632 78.2765C76.1941 78.31 76.2177 78.3496 76.2326 78.3926C76.2476 78.4357 76.2536 78.4814 76.2502 78.5268C76.2536 78.5725 76.2476 78.6184 76.2327 78.6617C76.2178 78.7051 76.1942 78.7449 76.1635 78.7789C76.1327 78.8129 76.0954 78.8402 76.0538 78.8594C76.0121 78.8785 75.967 78.889 75.9212 78.8902C75.8746 78.8903 75.8284 78.8808 75.7856 78.8623C75.7428 78.8437 75.7043 78.8165 75.6725 78.7824C75.6407 78.7483 75.6163 78.708 75.6008 78.664C75.5853 78.62 75.579 78.5733 75.5824 78.5268H75.5873ZM76.0784 78.5268C76.0784 78.4139 76.0145 78.3255 75.9261 78.3255C75.8378 78.3255 75.7739 78.4139 75.7739 78.5268C75.7739 78.6447 75.8378 78.7331 75.9261 78.7331C76.0145 78.7331 76.0685 78.6348 76.0685 78.5268H76.0784Z" fill="#263238"/>
</svg>
