<svg width="1152" height="565" viewBox="0 0 1152 565" fill="none" xmlns="http://www.w3.org/2000/svg">
<path d="M0 32L38.4667 35.25C76.9333 38.5 153.867 45 230.8 54.75C307.733 64.5 384.667 77.5 461.6 78.5766C538.533 79.7344 615.467 68.7656 692.4 69.9234C769.333 71 846.267 84 923.2 89.4234C1000.13 94.7656 1077.07 92.7344 1115.53 91.5766L1154 90.5V97H1115.53C1077.07 97 1000.13 97 923.2 97C846.267 97 769.333 97 692.4 97C615.467 97 538.533 97 461.6 97C384.667 97 307.733 97 230.8 97C153.867 97 76.9333 97 38.4667 97H0V32Z" fill="#F7CF6A" fill-opacity="0.15"/>
<rect y="97" width="1152" height="352" fill="#F7CF6A" fill-opacity="0.15"/>
<path d="M0 449H38.4C76.8 449 153.6 449 230.4 453.848C307.2 458.516 384 468.484 460.8 482.848C537.6 497.484 614.4 516.516 691.2 511.848C768 507 844.8 478 921.6 482.848C998.4 487.516 1075.2 526.484 1113.6 545.652L1152 565V449H1113.6C1075.2 449 998.4 449 921.6 449C844.8 449 768 449 691.2 449C614.4 449 537.6 449 460.8 449C384 449 307.2 449 230.4 449C153.6 449 76.8 449 38.4 449H0Z" fill="#F7CF6A" fill-opacity="0.15"/>
</svg>
