<svg width="77" height="100" viewBox="0 0 77 100" fill="none" xmlns="http://www.w3.org/2000/svg">
<path d="M34.0273 0.484446L1.74384 19.1311C1.23306 19.4254 0.805209 19.8443 0.500251 20.3488C0.195294 20.8533 0.0231841 21.4269 0 22.0159V92.1234C0 93.3067 0.729921 94.6868 1.62925 95.2075C2.52857 95.7281 4.08806 95.6683 5.11693 95.0779L37.2759 76.511C37.8144 76.1586 38.2627 75.6847 38.5847 75.1273C38.9066 74.57 39.0932 73.9449 39.1293 73.3023V3.43652C39.1293 2.25569 38.3994 0.875565 37.4976 0.354903C36.5958 -0.165758 35.0512 -0.105969 34.0273 0.484446Z" fill="#37474F"/>
<path d="M4.68414 95.2996C3.68766 95.6857 2.42213 95.6658 1.64487 95.2174C0.745546 94.6967 0.015625 93.3166 0.015625 92.1333V22.0059C0.0346094 21.445 0.195761 20.8981 0.483969 20.4165L3.48587 22.1205C2.96644 22.7248 2.66239 23.4845 2.62142 24.2804V93.6379C2.60897 95.0604 3.50829 95.7355 4.68414 95.2996Z" fill="#263238"/>
<path d="M4.23579 21.443C3.76078 21.7544 3.36545 22.1729 3.08162 22.6648C2.79778 23.1568 2.63336 23.7085 2.60156 24.2755V93.6381C2.60156 95.235 3.73257 95.8802 5.11519 95.0905L37.2791 76.521C37.8177 76.1687 38.266 75.6947 38.5879 75.1374C38.9098 74.5801 39.0964 73.955 39.1326 73.3124V3.43663C39.1326 2.26078 38.298 1.77749 37.2791 2.36791L4.23579 21.443Z" fill="#455A64"/>
<path d="M5.92144 26.0194C5.40881 26.3534 4.98217 26.8035 4.67615 27.3333C4.37012 27.8631 4.19334 28.4576 4.16016 29.0686V88.0703C4.16016 89.1938 4.94987 89.6497 5.92144 89.0891L36.1771 71.6183C36.6892 71.2832 37.1154 70.8324 37.4214 70.3023C37.7273 69.7723 37.9044 69.1777 37.9384 68.5666V9.56495C37.9384 8.4464 37.1462 7.99051 36.1771 8.54854L5.92144 26.0194Z" fill="#37474F"/>
<path d="M35.7088 67.0993V8.82007L5.92144 26.0094C5.40881 26.3434 4.98217 26.7936 4.67615 27.3234C4.37012 27.8532 4.19334 28.4477 4.16016 29.0586V87.3528L33.9475 70.1635C34.461 69.8268 34.888 69.374 35.194 68.8417C35.4999 68.3093 35.6763 67.7124 35.7088 67.0993Z" fill="#455A64"/>
<path opacity="0.6" d="M35.7088 67.0993V8.82007L5.92144 26.0094C5.40881 26.3434 4.98217 26.7936 4.67615 27.3234C4.37012 27.8532 4.19334 28.4477 4.16016 29.0586V87.3528L33.9475 70.1635C34.461 69.8268 34.888 69.374 35.194 68.8417C35.4999 68.3093 35.6763 67.7124 35.7088 67.0993Z" fill="white"/>
<path d="M18.5272 15.6235L23.8907 12.5269C24.2096 12.3425 24.4687 12.4721 24.4687 12.8209C24.4543 13.0152 24.3945 13.2034 24.2941 13.3704C24.1937 13.5374 24.0556 13.6785 23.8907 13.7825L18.5272 16.889C18.2083 17.0758 17.9492 16.9438 17.9492 16.5975C17.9617 16.401 18.0206 16.2103 18.1211 16.041C18.2215 15.8717 18.3607 15.7286 18.5272 15.6235Z" fill="black"/>
<path d="M27.7306 10.3023C28.0295 10.1304 28.2737 10.2699 28.2737 10.6162C28.2632 10.8047 28.2086 10.9881 28.1143 11.1517C28.0199 11.3153 27.8885 11.4544 27.7306 11.5579C27.4291 11.7298 27.1875 11.5902 27.1875 11.244C27.1976 11.0554 27.252 10.8718 27.3464 10.7082C27.4407 10.5445 27.5724 10.4055 27.7306 10.3023Z" fill="black"/>
<path d="M29.8946 9.0492C30.1936 8.87481 30.4377 9.01432 30.4377 9.36309C30.4275 9.55132 30.3729 9.73447 30.2786 9.89766C30.1842 10.0609 30.0527 10.1995 29.8946 10.3023C29.5957 10.4767 29.3516 10.3371 29.3516 9.98838C29.3618 9.80015 29.4164 9.617 29.5107 9.45381C29.6051 9.29061 29.7366 9.15199 29.8946 9.0492Z" fill="black"/>
<path d="M12.5118 19.0888C12.8133 18.9144 13.0574 19.0564 13.0574 19.4027C13.0473 19.5912 12.9925 19.7747 12.8977 19.9379C12.8028 20.1012 12.6706 20.2396 12.5118 20.3419C12.2129 20.5162 11.9688 20.3767 11.9688 20.0305C11.9786 19.8418 12.033 19.6581 12.1274 19.4945C12.2217 19.3308 12.3535 19.1918 12.5118 19.0888Z" fill="black"/>
<path d="M14.6993 17.8333C15.0008 17.6614 15.2449 17.8009 15.2449 18.1472C15.2346 18.3358 15.1801 18.5193 15.0858 18.6829C14.9914 18.8464 14.8599 18.9855 14.7018 19.0889C14.4004 19.2632 14.1562 19.1212 14.1562 18.775C14.1667 18.5865 14.2213 18.403 14.3156 18.2395C14.41 18.0759 14.5414 17.9368 14.6993 17.8333Z" fill="black"/>
<path d="M35.7094 60.9832V67.1041C35.6493 68.1441 35.1821 69.1187 34.409 69.817C34.2674 69.9455 34.113 70.0591 33.9481 70.1558L33.3826 70.4771C30.8216 68.3447 28.8785 66.7129 28.8785 66.7129C24.4691 61.5063 24.9773 57.5827 25.5154 57.5378C25.5776 57.5378 25.6848 57.508 25.8342 57.4756C27.2606 57.1908 28.7325 57.2279 30.1427 57.5843C31.5529 57.9408 32.8657 58.6075 33.9855 59.5358C34.4114 59.8721 35.0019 60.3753 35.7094 60.9832Z" fill="#FFA8A7"/>
<path d="M34.409 69.8122C34.2675 69.9407 34.1131 70.0542 33.9482 70.151L33.3827 70.4773L10.354 83.7729C9.63152 81.0076 8.44073 76.4263 8.42578 76.3441C8.42578 76.3017 11.0291 72.413 11.206 67.874C11.3828 63.335 10.1198 61.3446 9.71124 60.8986C9.89559 60.8239 14.0011 59.668 14.0011 59.668L22.1872 58.0337L25.8243 57.4633C25.8243 57.4633 30.7569 59.8797 33.4499 65.2807C34.1836 66.673 34.5156 68.2419 34.409 69.8122Z" fill="#455A64"/>
<path opacity="0.2" d="M34.409 69.8122C34.2675 69.9407 34.1131 70.0542 33.9482 70.151L33.3827 70.4773L10.354 83.7729C9.63152 81.0076 8.44073 76.4263 8.42578 76.3441C8.42578 76.3017 11.0291 72.413 11.206 67.874C11.3828 63.335 10.1198 61.3446 9.71124 60.8986C9.89559 60.8239 14.0011 59.668 14.0011 59.668L22.1872 58.0337L25.8243 57.4633C25.8243 57.4633 30.7569 59.8797 33.4499 65.2807C34.1836 66.673 34.5156 68.2419 34.409 69.8122Z" fill="black"/>
<path d="M9.71662 60.9012C7.25531 61.1753 5.60613 62.3486 4.15625 64.8074V87.3503L7.61155 85.3574L10.8227 76.6382C10.8227 76.6382 14.7787 63.5693 9.71662 60.9012Z" fill="#FFA8A7"/>
<path d="M13.6755 56.5739C13.7627 56.2675 13.0378 55.2685 12.8758 54.992C12.5594 54.4489 12.2107 53.9233 11.847 53.4101C11.0772 52.3289 10.3522 51.2228 9.56004 50.1715C8.66264 49.0359 7.89943 47.8004 7.28557 46.4895C6.52077 44.7706 6.13713 42.835 6.50333 40.989C6.86954 39.143 8.05784 37.4116 9.78674 36.6667C10.5341 33.0719 13.7478 30.1273 17.3974 29.6914C21.1765 29.238 25.1799 31.2384 28.827 29.5469C29.2804 29.3351 29.7213 29.0486 30.2196 29.0063C31.3332 28.8942 32.2599 30.0177 32.3645 31.1338C32.4691 32.2498 31.9809 33.326 31.51 34.34C31.9407 34.4727 32.3239 34.7268 32.6137 35.0719C32.9035 35.4169 33.0875 35.8383 33.1438 36.2854C33.2001 36.7325 33.1262 37.1863 32.931 37.5924C32.7357 37.9985 32.4275 38.3397 32.0431 38.575C32.6684 40.2018 32.0556 42.1125 30.8872 43.4029C29.7189 44.6934 28.0796 45.4607 26.428 46.0162C24.7763 46.5718 23.0624 46.9554 21.4655 47.6455C19.5922 48.472 17.9234 49.7002 16.5772 51.2431C15.2311 52.786 14.2405 54.6058 13.6755 56.5739Z" fill="#263238"/>
<path d="M28.152 36.3204C29.009 37.1924 30.7379 39.2825 30.546 46.8707C30.3816 53.303 28.304 54.8874 27.2452 55.3408C26.1864 55.7942 24.1785 55.5127 22.218 55.1813V58.3202C22.218 58.3202 25.0006 60.2509 25.7056 62.0047C26.2487 63.3749 22.781 65.2782 17.5171 63.0012C15.3647 62.0745 13.6258 59.7103 13.6258 59.7103L13.698 50.4206C13.698 50.4206 12.5396 51.5392 10.5865 49.8228C8.97223 48.4053 8.43164 46.0212 9.69468 44.7432C10.9577 43.4652 13.287 43.8214 14.1788 45.6475C14.1788 45.6475 17.7039 45.939 21.8767 43.6545C26.0494 41.3701 27.858 38.8116 28.152 36.3204Z" fill="#FFA8A7"/>
<path d="M23.2599 45.7224C23.2607 45.8811 23.2148 46.0365 23.128 46.1694C23.0412 46.3022 22.9172 46.4067 22.7716 46.4696C22.6259 46.5326 22.4649 46.5514 22.3086 46.5236C22.1524 46.4959 22.0077 46.4228 21.8926 46.3135C21.7776 46.2042 21.6972 46.0634 21.6614 45.9088C21.6257 45.7542 21.6362 45.5924 21.6916 45.4437C21.747 45.295 21.845 45.1658 21.9732 45.0723C22.1014 44.9788 22.2543 44.925 22.4129 44.9177C22.5216 44.914 22.6299 44.9321 22.7315 44.9707C22.8331 45.0093 22.9261 45.0677 23.0049 45.1426C23.0838 45.2175 23.1469 45.3073 23.1907 45.4069C23.2344 45.5064 23.258 45.6136 23.2599 45.7224Z" fill="#263238"/>
<path d="M22.6423 50.4879L25.6766 51.0385C25.6494 51.2404 25.5818 51.4347 25.4779 51.6099C25.3739 51.7851 25.2358 51.9376 25.0716 52.0583C24.9075 52.1789 24.7207 52.2653 24.5225 52.3122C24.3243 52.3592 24.1186 52.3657 23.9178 52.3314C23.5078 52.2491 23.1458 52.011 22.9079 51.6672C22.67 51.3233 22.5748 50.9006 22.6423 50.4879Z" fill="#B16668"/>
<path d="M23.9178 52.3313C24.1221 52.3674 24.3316 52.3606 24.5331 52.3114C24.5184 51.9703 24.3726 51.6481 24.1262 51.4119C23.8797 51.1757 23.5517 51.0437 23.2103 51.0433C23.0275 51.0429 22.8467 51.0811 22.6797 51.1554C22.7525 51.4491 22.9078 51.7158 23.1271 51.9241C23.3465 52.1324 23.6208 52.2737 23.9178 52.3313Z" fill="#F28F8F"/>
<path d="M29.6936 43.1215L27.8477 42.3741C27.8902 42.2515 27.9572 42.1389 28.0446 42.043C28.1321 41.9472 28.2381 41.8701 28.3562 41.8165C28.4743 41.7629 28.6022 41.7339 28.7319 41.7313C28.8616 41.7286 28.9905 41.7524 29.1107 41.8011C29.3588 41.9042 29.5577 42.0989 29.6663 42.3447C29.7748 42.5905 29.7846 42.8686 29.6936 43.1215Z" fill="#263238"/>
<path d="M29.2677 45.1245C29.269 45.2832 29.2236 45.4387 29.1371 45.5718C29.0507 45.705 28.9271 45.8097 28.7816 45.8731C28.6361 45.9366 28.4752 45.9558 28.3188 45.9285C28.1625 45.9012 28.0176 45.8286 27.9022 45.7196C27.7868 45.6106 27.706 45.4702 27.6698 45.3156C27.6336 45.1611 27.6436 44.9994 27.6986 44.8505C27.7535 44.7016 27.8511 44.5722 27.979 44.4782C28.107 44.3843 28.2597 44.3301 28.4182 44.3223C28.5267 44.319 28.6348 44.3371 28.7363 44.3757C28.8377 44.4142 28.9306 44.4724 29.0095 44.547C29.0885 44.6215 29.1519 44.7109 29.1962 44.81C29.2405 44.9091 29.2648 45.0159 29.2677 45.1245Z" fill="#263238"/>
<path d="M25.4766 44.7981L26.0346 49.5065L28.461 48.3506L25.4766 44.7981Z" fill="#F28F8F"/>
<path d="M22.2058 55.1914C20.1381 54.9173 15.8832 53.6842 15.2305 52.0001C15.2305 52.0001 15.4472 53.0589 16.7252 54.15C18.0032 55.2412 22.2058 56.4793 22.2058 56.4793V55.1914Z" fill="#F28F8F"/>
<path d="M13.8505 48.0291C14.1122 48.0069 14.367 47.9333 14.6003 47.8126C14.8336 47.6919 15.0408 47.5264 15.2101 47.3256C15.3795 47.1248 15.5076 46.8926 15.5872 46.6423C15.6668 46.392 15.6963 46.1285 15.6741 45.8668C15.6518 45.605 15.5783 45.3503 15.4575 45.117C15.3368 44.8837 15.1714 44.6765 14.9706 44.5071C14.7698 44.3378 14.5376 44.2097 14.2873 44.1301C14.037 44.0505 13.7734 44.021 13.5117 44.0432L13.8505 48.0291Z" fill="#263238"/>
<path d="M30.7692 68.5612C32.2341 67.7142 33.4199 65.6615 33.4199 63.9699C33.4199 62.2784 32.2341 61.5958 30.7692 62.4403C29.3044 63.2848 28.1211 65.3401 28.1211 67.0291C28.1211 68.7182 29.3069 69.4057 30.7692 68.5612Z" fill="#F28F8F"/>
<path fill-rule="evenodd" clip-rule="evenodd" d="M29.2658 67.4602C29.353 67.3755 29.764 66.962 29.8413 66.8798C29.8805 66.8434 29.9107 66.7982 29.9293 66.748C29.9479 66.6978 29.9545 66.644 29.9484 66.5908C29.9484 66.4538 29.9359 66.0925 29.9359 65.9904C29.935 65.9405 29.9449 65.891 29.9652 65.8454C29.9854 65.7997 30.0154 65.7591 30.053 65.7263C30.2682 65.4838 30.5204 65.2769 30.8004 65.1135C31.0104 64.9934 31.2443 64.9211 31.4855 64.9017C31.5702 64.9017 31.5677 64.9889 31.5652 65.0761C31.5627 65.1633 31.5652 65.263 31.5652 65.3551C31.5652 65.3825 31.5652 65.405 31.5652 65.4274C31.5705 65.476 31.5788 65.5243 31.5901 65.5719C31.6026 65.6516 31.6424 65.669 31.6823 65.6715C31.7221 65.674 32.0958 65.7463 32.2503 65.7712C32.4047 65.7961 32.4346 65.684 32.4695 65.6167C32.5044 65.5495 32.5467 65.4797 32.5866 65.405C32.6461 65.2866 32.6785 65.1563 32.6812 65.0238C32.7192 64.7031 32.6405 64.3795 32.4595 64.112C32.4044 64.0466 32.3343 63.9953 32.2553 63.9626C32.071 63.9002 31.8724 63.8941 31.6848 63.9451C30.988 64.0691 30.3558 64.4309 29.8961 64.969C29.0864 65.8883 29.1487 65.9655 29.0541 66.1872C28.916 66.5229 28.8621 66.8872 28.8971 67.2485C28.9669 67.4976 29.069 67.6097 29.1064 67.6072C29.1437 67.6047 29.1811 67.5499 29.2658 67.4602Z" fill="white"/>
<path opacity="0.5" d="M23.6858 72.6493C25.1481 71.8048 26.3364 69.7496 26.3364 68.0605C26.3364 66.3715 25.1481 65.6839 23.6858 66.5309C22.2235 67.3779 21.0352 69.4307 21.0352 71.1197C21.0352 72.8088 22.2235 73.4939 23.6858 72.6493Z" fill="white"/>
<path d="M23.7081 70.5591C23.3568 70.7634 23.0703 70.5467 23.0703 70.0759V68.6011C23.0738 68.3622 23.1333 68.1276 23.2441 67.916C23.3548 67.7044 23.5138 67.5218 23.7081 67.3829C24.0593 67.1786 24.3458 67.3953 24.3458 67.8637V69.3409C24.3418 69.5796 24.282 69.8141 24.1713 70.0256C24.0605 70.2371 23.9019 70.4198 23.7081 70.5591Z" fill="white"/>
<path d="M23.4049 71.197C23.2635 71.1974 23.125 71.1568 23.0063 71.08C22.8597 70.9689 22.7439 70.8223 22.6698 70.6541C22.5957 70.4858 22.5658 70.3014 22.5828 70.1184C22.5828 70.0787 22.5985 70.0407 22.6265 70.0127C22.6546 69.9846 22.6926 69.9689 22.7322 69.9689C22.7719 69.9689 22.8099 69.9846 22.8379 70.0127C22.8659 70.0407 22.8817 70.0787 22.8817 70.1184C22.8673 70.2509 22.8857 70.3849 22.9352 70.5087C22.9847 70.6325 23.0639 70.7423 23.1657 70.8283C23.2378 70.8722 23.3201 70.8964 23.4044 70.8986C23.4888 70.9008 23.5722 70.8809 23.6465 70.8408C24.5209 70.4447 24.5907 69.4084 24.5782 68.9824C24.5782 68.9427 24.5934 68.9045 24.6208 68.8757C24.6481 68.8469 24.6855 68.8298 24.7252 68.8279C24.7447 68.8276 24.7641 68.8311 24.7822 68.8384C24.8003 68.8456 24.8168 68.8564 24.8307 68.8701C24.8446 68.8837 24.8557 68.9001 24.8632 68.9181C24.8708 68.936 24.8747 68.9554 24.8747 68.9749C24.9021 69.9863 24.4885 70.786 23.7686 71.1148C23.6544 71.1674 23.5305 71.1954 23.4049 71.197Z" fill="white"/>
<path d="M23.3293 71.9095C23.2964 71.9096 23.2644 71.8987 23.2382 71.8787C23.2121 71.8587 23.1933 71.8306 23.1848 71.7987C23.1763 71.7669 23.1785 71.7332 23.1911 71.7028C23.2037 71.6724 23.226 71.647 23.2546 71.6305L24.0019 71.1946C24.0189 71.1844 24.0377 71.1778 24.0572 71.175C24.0768 71.1723 24.0967 71.1735 24.1157 71.1786C24.1348 71.1837 24.1526 71.1926 24.1682 71.2048C24.1837 71.2169 24.1967 71.2321 24.2062 71.2494C24.2254 71.2839 24.2304 71.3245 24.2202 71.3626C24.21 71.4007 24.1853 71.4334 24.1514 71.4537L23.4041 71.8896C23.3818 71.9037 23.3557 71.9107 23.3293 71.9095Z" fill="white"/>
<path opacity="0.5" d="M16.6038 76.74C18.0661 75.8955 19.2519 73.8403 19.2519 72.1488C19.2519 70.4572 18.0661 69.7746 16.6038 70.6192C15.1414 71.4637 13.9531 73.5189 13.9531 75.2104C13.9531 76.902 15.1389 77.5846 16.6038 76.74Z" fill="white"/>
<path d="M16.2733 73.626C16.1929 73.6266 16.1139 73.606 16.0441 73.5662C15.9602 73.511 15.8928 73.4341 15.849 73.3438C15.8052 73.2535 15.7865 73.153 15.795 73.053C15.806 72.8181 15.8731 72.5893 15.9905 72.3857C16.1079 72.182 16.2724 72.0093 16.4701 71.8821C16.5484 71.8146 16.6458 71.7732 16.7487 71.7635C16.8517 71.7539 16.9551 71.7765 17.0446 71.8282C17.1341 71.88 17.2053 71.9583 17.2484 72.0523C17.2914 72.1463 17.3041 72.2514 17.2847 72.353C17.2736 72.5878 17.2066 72.8166 17.0892 73.0203C16.9717 73.224 16.8073 73.3966 16.6096 73.5238C16.5082 73.5864 16.3923 73.6216 16.2733 73.626Z" fill="white"/>
<path d="M18.8344 72.0516C18.8173 72.0231 18.7897 72.0025 18.7576 71.9941C18.7255 71.9857 18.6913 71.9903 18.6625 72.0067L18.376 72.1737V71.7576C18.3754 71.7248 18.362 71.6935 18.3388 71.6702C18.3156 71.647 18.2843 71.6337 18.2515 71.6331C18.2184 71.6331 18.1867 71.6462 18.1634 71.6695C18.14 71.6929 18.1269 71.7246 18.1269 71.7576V72.3156L17.7134 72.5648C17.69 72.5786 17.6718 72.5998 17.6615 72.625C17.6513 72.6501 17.6496 72.678 17.6566 72.7042C17.6637 72.7305 17.6791 72.7537 17.7006 72.7704C17.7221 72.787 17.7485 72.7962 17.7756 72.7965C17.7977 72.7969 17.8193 72.7908 17.8379 72.779L18.1269 72.6146V72.9833C18.1269 73.0163 18.14 73.048 18.1634 73.0714C18.1867 73.0947 18.2184 73.1079 18.2515 73.1079C18.2843 73.1072 18.3156 73.0939 18.3388 73.0707C18.362 73.0474 18.3754 73.0161 18.376 72.9833V72.4701L18.7871 72.221C18.8158 72.2048 18.8369 72.1778 18.8457 72.1461C18.8546 72.1143 18.8505 72.0803 18.8344 72.0516Z" fill="white"/>
<path d="M17.5877 73.7953C17.4447 73.7242 17.2851 73.6931 17.1259 73.7054C16.9667 73.7177 16.8138 73.7728 16.6834 73.865L16.3122 74.0793C15.9749 74.2955 15.694 74.5892 15.493 74.9358C15.2919 75.2824 15.1765 75.672 15.1562 76.0722V76.3363C15.5225 76.5381 16.0207 76.5032 16.5737 76.1843C17.1633 75.818 17.6502 75.308 17.9887 74.7021V74.6373C18.0018 74.4741 17.9716 74.3103 17.9012 74.1625C17.8307 74.0146 17.7226 73.888 17.5877 73.7953Z" fill="white"/>
<path opacity="0.5" d="M9.51783 80.8305C10.9827 79.9835 12.1685 77.9283 12.1685 76.2393C12.1685 74.5502 10.9827 73.8651 9.51783 74.7097C8.053 75.5542 6.86719 77.6094 6.86719 79.2984C6.86719 80.9875 8.05549 81.6751 9.51783 80.8305Z" fill="white"/>
<path d="M9.518 79.5972C9.9795 79.2978 10.3636 78.8934 10.639 78.4172C10.9144 77.9409 11.0731 77.4063 11.1024 76.8569C11.1024 75.8604 10.3924 75.4394 9.518 75.9426C9.05746 76.2431 8.67408 76.6477 8.39884 77.1238C8.1236 77.5998 7.96423 78.1339 7.93359 78.683C7.93608 79.6944 8.64359 80.1029 9.518 79.5972Z" fill="white"/>
<path opacity="0.3" d="M9.51783 32.9222C10.9827 32.0777 12.1685 30.0224 12.1685 28.3309C12.1685 26.6394 10.9827 25.9568 9.51783 26.8013C8.053 27.6458 6.86719 29.7011 6.86719 31.3926C6.86719 33.0841 8.05549 33.7667 9.51783 32.9222Z" fill="white"/>
<path d="M9.518 28.0319C9.05746 28.3324 8.67408 28.737 8.39884 29.213C8.1236 29.6891 7.96423 30.2232 7.93359 30.7722C7.93359 31.3726 8.18271 31.7687 8.57134 31.8683L8.39696 32.7428L9.21906 31.836C9.32739 31.7982 9.43171 31.7498 9.53046 31.6915C9.99196 31.392 10.3761 30.9877 10.6514 30.5114C10.9268 30.0351 11.0856 29.5005 11.1149 28.9511C11.1024 27.9372 10.3924 27.5287 9.518 28.0319Z" fill="white"/>
<path opacity="0.3" d="M16.6013 28.8316C18.0661 27.9871 19.2519 25.9319 19.2519 24.2428C19.2519 22.5538 18.0661 21.8662 16.6013 22.7107C15.1364 23.5553 13.9531 25.608 13.9531 27.302C13.9531 28.996 15.1389 29.6761 16.6013 28.8316Z" fill="white"/>
<path d="M17.7941 23.5278L17.3706 23.7769V23.5552C17.3706 23.4132 17.2959 23.3434 17.2037 23.3958L15.9955 24.0933C15.9422 24.1348 15.8994 24.1882 15.8704 24.2492C15.8414 24.3101 15.8271 24.3771 15.8286 24.4446V24.6663L15.4051 24.9154C15.2947 25.0019 15.206 25.1129 15.1459 25.2395C15.0858 25.3662 15.056 25.5051 15.0588 25.6453V27.8102C15.0588 28.1041 15.2132 28.2511 15.4051 28.1415L17.7941 26.7614C17.9042 26.6746 17.9927 26.5636 18.0528 26.437C18.1128 26.3104 18.1428 26.1716 18.1404 26.0315V23.8641C18.1404 23.5652 17.9859 23.4157 17.7941 23.5278ZM15.8859 26.5845C15.8762 26.5972 15.8644 26.6082 15.851 26.6169C15.8161 26.6343 15.7862 26.6169 15.7713 26.5945C15.7157 26.4516 15.6886 26.2993 15.6915 26.146C15.6915 25.4784 16.1001 24.7012 16.5983 24.4022C16.6476 24.3743 16.6993 24.351 16.7528 24.3325L16.6058 24.2353C16.5858 24.2124 16.573 24.1841 16.569 24.154C16.5651 24.1238 16.57 24.0932 16.5834 24.0659C16.6108 23.9986 16.6606 23.9638 16.6955 23.9862L17.0293 24.2079C17.0407 24.2183 17.0497 24.231 17.0557 24.2452C17.0618 24.2594 17.0646 24.2747 17.0642 24.2901C17.064 24.331 17.0537 24.3712 17.0343 24.4072L16.7229 24.9528C16.7148 24.968 16.7038 24.9816 16.6905 24.9926C16.6859 24.9988 16.6799 25.0038 16.6729 25.0073C16.666 25.0107 16.6584 25.0126 16.6507 25.0126C16.6429 25.0126 16.6353 25.0107 16.6284 25.0073C16.6215 25.0038 16.6154 24.9988 16.6108 24.9926C16.5962 24.9645 16.5885 24.9334 16.5885 24.9017C16.5885 24.87 16.5962 24.8388 16.6108 24.8108L16.7453 24.5741C16.6908 24.591 16.6382 24.6136 16.5884 24.6414C16.3657 24.8016 16.1835 25.0116 16.0564 25.2547C15.9292 25.4977 15.8606 25.7671 15.856 26.0414C15.8535 26.1657 15.8755 26.2893 15.9207 26.4051C15.9303 26.4356 15.9321 26.4679 15.926 26.4992C15.9199 26.5306 15.9061 26.5599 15.8859 26.5845ZM16.5983 26.8336C16.5485 26.8628 16.4959 26.887 16.4414 26.9059L16.5784 27.0155C16.5946 27.0408 16.6032 27.0702 16.6032 27.1002C16.6032 27.1302 16.5946 27.1596 16.5784 27.1849C16.5687 27.2097 16.5533 27.2318 16.5336 27.2497C16.5238 27.2578 16.5114 27.2622 16.4987 27.2622C16.486 27.2622 16.4736 27.2578 16.4638 27.2497L16.1474 27.0005C16.1363 26.9891 16.1278 26.9754 16.1226 26.9603C16.1175 26.9452 16.1157 26.9292 16.1175 26.9133C16.1179 26.8729 16.1291 26.8334 16.1499 26.7987L16.4837 26.2781C16.5211 26.2208 16.5709 26.2108 16.5958 26.2557C16.6081 26.2855 16.6129 26.3179 16.6098 26.35C16.6068 26.3821 16.596 26.413 16.5784 26.44L16.4314 26.6692C16.4853 26.6527 16.5371 26.6301 16.5859 26.6019C16.8123 26.4443 16.9981 26.2352 17.1281 25.9919C17.258 25.7485 17.3283 25.4777 17.3332 25.2019C17.336 25.0784 17.3139 24.9555 17.2685 24.8407C17.2605 24.8094 17.2604 24.7766 17.2682 24.7453C17.276 24.714 17.2915 24.6851 17.3133 24.6613C17.3582 24.609 17.408 24.6065 17.4279 24.6613C17.4838 24.8032 17.5109 24.9548 17.5076 25.1072C17.5076 25.7649 17.0991 26.5422 16.5983 26.8311V26.8336Z" fill="white"/>
<path d="M32.0974 13.3191L24.1256 17.9153C23.8113 18.1197 23.5497 18.3955 23.3623 18.7202C23.1748 19.0449 23.0667 19.4093 23.0469 19.7837V33.6523C23.0469 34.3398 23.5277 34.6188 24.1256 34.2751L32.0974 29.6788C32.4112 29.4738 32.6723 29.1979 32.8597 28.8733C33.0471 28.5487 33.1555 28.1846 33.1761 27.8104V13.9419C33.1761 13.2543 32.6928 12.9753 32.0974 13.3191Z" fill="#455A64"/>
<path d="M33.0869 28.3609C32.9211 28.9042 32.568 29.3712 32.0904 29.6788L31.6445 29.9279L31.4327 30.0524C30.7277 29.0734 30.1074 28.1666 30.1074 28.1666C29.9127 27.6344 29.7464 27.0922 29.6092 26.5423C29.5026 26.1229 29.4244 25.6968 29.375 25.2668C29.825 25.1308 30.3051 25.1308 30.7551 25.2668C31.2036 25.4783 31.5728 25.8274 31.8089 26.2633C32.063 26.6594 32.5986 27.5488 33.0869 28.3609Z" fill="#455A64"/>
<path opacity="0.3" d="M33.0869 28.3609C32.9211 28.9042 32.568 29.3712 32.0904 29.6788L31.6445 29.9279L31.4327 30.0524C30.7277 29.0734 30.1074 28.1666 30.1074 28.1666C29.9127 27.6344 29.7464 27.0922 29.6092 26.5423C29.5026 26.1229 29.4244 25.6968 29.375 25.2668C29.825 25.1308 30.3051 25.1308 30.7551 25.2668C31.2036 25.4783 31.5728 25.8274 31.8089 26.2633C32.063 26.6594 32.5986 27.5488 33.0869 28.3609Z" fill="black"/>
<path d="M31.6502 29.9354L31.4384 30.0575L29.3931 31.2383L29.0793 31.4177L24.9837 33.7793L24.8168 33.874L24.7969 33.169L25.0036 29.9005C25.0036 29.2703 25.33 26.7616 25.33 26.7616L26.2592 26.3904L26.8197 26.1687L27.0041 26.0965L27.0788 26.0666L28.6283 25.4463C28.7305 25.4089 28.8301 25.379 28.9248 25.3541C28.9558 25.3443 28.9874 25.3368 29.0195 25.3317C29.1403 25.3006 29.2637 25.2806 29.3882 25.2719C30.5391 25.1822 31.1544 26.0466 31.4384 27.4293C31.5561 28.26 31.6268 29.0967 31.6502 29.9354Z" fill="#455A64"/>
<path d="M25.7028 30.7575C25.7028 30.7575 25.3142 32.2522 24.9854 33.7793L24.8185 33.8765L24.0711 34.3074C23.5031 34.5989 23.0547 34.3074 23.0547 33.6523V30.5158C23.2639 29.2005 23.5031 28.3136 23.8494 27.7307C24.1957 27.1477 24.7537 26.9684 25.3316 26.7616C25.8573 27.1527 26.074 29.0211 25.7028 30.7575Z" fill="#455A64"/>
<path opacity="0.3" d="M25.7028 30.7575C25.7028 30.7575 25.3142 32.2522 24.9854 33.7793L24.8185 33.8765L24.0711 34.3074C23.5031 34.5989 23.0547 34.3074 23.0547 33.6523V30.5158C23.2639 29.2005 23.5031 28.3136 23.8494 27.7307C24.1957 27.1477 24.7537 26.9684 25.3316 26.7616C25.8573 27.1527 26.074 29.0211 25.7028 30.7575Z" fill="black"/>
<path d="M26.4291 19.5247C26.2702 19.5834 26.1245 19.6731 26.0005 19.7886C25.8765 19.904 25.7766 20.0429 25.7067 20.1973C25.5373 20.6283 25.5971 21.5849 25.8238 22.6013C25.9465 23.2465 26.1369 23.8769 26.3918 24.4822C26.4309 24.5608 26.4881 24.6291 26.5587 24.6815C26.6293 24.7339 26.7112 24.7689 26.7978 24.7836L26.7704 23.538L26.7306 22.6735C26.9956 22.2104 27.1777 21.7046 27.2687 21.1788C27.3384 20.3617 27.1914 20.0578 27.1914 20.0578L26.4291 19.5247Z" fill="#263238"/>
<path d="M26.302 19.699L25.5547 19.4499C25.5855 19.3292 25.6603 19.2244 25.7645 19.1561C25.8688 19.0879 25.9948 19.0612 26.1177 19.0812C26.2222 19.1405 26.2997 19.2379 26.334 19.3531C26.3684 19.4682 26.3569 19.5921 26.302 19.699Z" fill="#263238"/>
<path d="M27.2813 20.5859C27.2813 21.8739 28.1955 22.7557 29.3116 22.5564C30.4276 22.3571 31.332 21.1464 31.3295 19.856C31.327 18.5655 30.4177 17.6837 29.2991 17.8854C28.1806 18.0872 27.2788 19.2955 27.2813 20.5859Z" fill="#263238"/>
<path d="M26.7587 22.5291C26.5769 22.7433 26.4274 22.2974 26.2754 22.1404C26.1235 21.9835 25.6227 21.8216 25.3736 22.4718C25.1245 23.122 25.6028 23.8868 25.9765 24.0213C26.5246 24.2181 26.7687 23.538 26.7687 23.538L26.826 26.3506C27.3566 27.1851 28.6197 27.3595 29.225 27.073C29.8902 26.7616 29.4741 26.2509 29.0282 25.8748V25.0178C29.3355 25.0189 29.6417 24.9821 29.94 24.9082C30.4382 24.7288 30.6874 24.2505 30.8443 23.6003C31.1367 22.0738 31.1367 20.5056 30.8443 18.9791C30.2863 18.5805 28.3531 19.004 27.1872 20.0653C27.2744 21.7717 26.9406 22.3148 26.7587 22.5291Z" fill="#FFA8A7"/>
<path d="M31.1214 17.5566C31.1064 17.5267 31.0815 17.4993 31.0491 17.5043C31.0223 17.5127 30.9988 17.5292 30.9819 17.5516C30.8435 17.7016 30.6954 17.8422 30.5385 17.9726C30.577 17.7417 30.577 17.506 30.5385 17.2751C30.516 17.1356 30.4812 16.8142 30.3292 16.8068C30.2395 16.8068 30.1623 16.9014 30.095 16.9861C29.4847 17.7509 28.6925 17.5865 27.9601 17.7335C27.3472 17.863 26.6073 18.2816 26.3308 19.019C26.2038 19.3553 26.1813 19.6916 26.4329 19.866C26.659 19.9989 26.9182 20.0646 27.1803 20.0553C28.401 20.0852 30.1498 20.3567 31.0516 18.8844C31.1826 18.6667 31.2483 18.4159 31.241 18.162C31.244 17.953 31.2023 17.7458 31.1189 17.5541L31.1214 17.5566Z" fill="#263238"/>
<path d="M29.025 25.0176C29.025 25.0176 27.9114 24.9579 27.5303 24.7909C27.2962 24.6872 27.1058 24.5047 26.9922 24.2753C27.0484 24.5162 27.1526 24.7432 27.2986 24.9429C27.5851 25.3091 29.0424 25.3589 29.0424 25.3589L29.025 25.0176Z" fill="#F28F8F"/>
<path d="M28.7391 21.8713C28.7413 21.9397 28.7207 22.007 28.6806 22.0624C28.6404 22.1179 28.583 22.1585 28.5173 22.1777C28.3953 22.1977 28.2931 22.098 28.2931 21.9485C28.2909 21.8801 28.3115 21.8129 28.3516 21.7574C28.3917 21.702 28.4492 21.6614 28.5148 21.6421C28.6494 21.6222 28.7391 21.7243 28.7391 21.8713Z" fill="#263238"/>
<path d="M28.4981 20.9446L28.0223 21.3333C27.9903 21.255 27.9836 21.1687 28.0033 21.0864C28.0229 21.0042 28.0679 20.9302 28.1319 20.8749C28.1581 20.8492 28.19 20.8302 28.2251 20.8196C28.2602 20.8089 28.2973 20.807 28.3333 20.8138C28.3693 20.8207 28.4031 20.8362 28.4318 20.8589C28.4605 20.8817 28.4833 20.9111 28.4981 20.9446Z" fill="#263238"/>
<path d="M28.6959 23.3336L29.6152 23.5653C29.5901 23.7074 29.5116 23.8346 29.3959 23.9207C29.2801 24.0069 29.1357 24.0455 28.9924 24.0287C28.927 24.0029 28.8673 23.9644 28.8169 23.9154C28.7665 23.8664 28.7264 23.8078 28.6988 23.7431C28.6712 23.6785 28.6568 23.609 28.6563 23.5387C28.6558 23.4684 28.6693 23.3987 28.6959 23.3336Z" fill="#B16668"/>
<path d="M28.853 23.6476C28.795 23.648 28.7376 23.6589 28.6836 23.68C28.6971 23.7613 28.7333 23.8371 28.7879 23.8988C28.8425 23.9605 28.9134 24.0055 28.9925 24.0287C29.1007 24.0537 29.2145 24.0349 29.3089 23.9764C29.2773 23.8805 29.2162 23.797 29.1343 23.738C29.0525 23.6789 28.954 23.6473 28.853 23.6476Z" fill="#F28F8F"/>
<path d="M30.6391 20.7728L30.2031 20.4664C30.2168 20.4311 30.2379 20.3991 30.2651 20.3727C30.2922 20.3462 30.3248 20.3259 30.3604 20.3132C30.3961 20.3004 30.4342 20.2955 30.4719 20.2987C30.5097 20.3019 30.5463 20.3133 30.5793 20.3319C30.6399 20.3864 30.6792 20.4606 30.6902 20.5414C30.7011 20.6222 30.683 20.7042 30.6391 20.7728Z" fill="#263238"/>
<path d="M30.4969 21.4803C30.4991 21.5487 30.4785 21.6159 30.4384 21.6714C30.3983 21.7268 30.3408 21.7674 30.2752 21.7867C30.1506 21.8091 30.0509 21.707 30.0509 21.56C30.0487 21.4916 30.0693 21.4244 30.1094 21.3689C30.1496 21.3134 30.207 21.2729 30.2727 21.2536C30.3922 21.2312 30.4969 21.3333 30.4969 21.4803Z" fill="#263238"/>
<path d="M29.4531 21.4255L29.5304 22.9576L30.2304 22.5565L29.4531 21.4255Z" fill="#F28F8F"/>
<path d="M67.2812 37.5908C69.2319 37.4588 70.2184 37.8524 71.4465 39.9599C72.8217 42.3191 75.7239 48.1809 75.8983 48.577C76.2321 49.3243 76.3841 50.1166 75.6766 50.7767C73.7409 52.5928 70.1063 55.642 70.1063 55.642L68.756 52.3537L71.591 49.1973L69.197 44.4516L67.2812 37.5908Z" fill="#FFA8A7"/>
<path d="M71.5904 49.1973C71.8917 49.7221 72.2439 50.2161 72.6417 50.6721C72.0824 50.4407 71.616 50.0296 71.3164 49.5037L71.5904 49.1973Z" fill="#F28F8F"/>
<path d="M66.8281 37.5982C67.5523 37.4515 68.2975 37.4414 69.0254 37.5683C70.0218 37.7975 70.8664 38.5798 71.7159 40.082C72.5654 41.5842 74.4163 45.4131 74.4163 45.4131C74.4163 45.4131 73.7113 46.9602 70.8539 47.9741L67.4086 43.0166L66.8281 37.5982Z" fill="#455A64"/>
<path opacity="0.3" d="M66.8281 37.5982C67.5523 37.4515 68.2975 37.4414 69.0254 37.5683C70.0218 37.7975 70.8664 38.5798 71.7159 40.082C72.5654 41.5842 74.4163 45.4131 74.4163 45.4131C74.4163 45.4131 73.7113 46.9602 70.8539 47.9741L67.4086 43.0166L66.8281 37.5982Z" fill="black"/>
<path d="M50.0718 97.5067C49.9697 97.8393 49.961 98.1935 50.0468 98.5306C50.144 98.7349 50.7593 99.4125 52.0099 99.6591C53.2605 99.9057 54.9819 99.6591 55.7218 99.6143C56.4617 99.5694 58.7885 99.8634 59.5284 99.9531C60.6893 100.11 61.5836 99.8559 62.0196 99.4349C62.0901 99.3508 62.1422 99.2527 62.1722 99.1471C62.2023 99.0415 62.2097 98.9307 62.1939 98.8221C62.1904 98.5422 62.1494 98.264 62.0719 97.995L50.0718 97.5067Z" fill="#37474F"/>
<path d="M61.863 96.7792C61.8854 96.8739 61.9078 96.9711 61.9253 97.0707C62.0392 97.5645 62.0754 98.073 62.0324 98.5779C61.8829 98.9441 61.4719 99.1484 61.1405 99.253C60.2661 99.5295 59.601 99.4847 58.6319 99.3028C57.6564 99.1593 56.6705 99.0985 55.6848 99.121C54.9225 99.1733 53.8737 99.3178 53.1089 99.248C52.4606 99.2202 51.8207 99.0898 51.2131 98.8619C50.7149 98.6452 50.1842 98.3637 50.0597 97.8405C49.9102 96.7369 50.3736 96.2486 50.8992 95.9422C51.4249 95.6358 52.1623 95.6582 52.9569 95.6059C53.6769 95.5561 54.2026 95.5561 54.8403 95.5062C55.3949 95.4806 55.9461 95.4047 56.487 95.2795C56.9678 95.1276 57.4635 94.5123 57.6678 94.4898C57.6678 94.4898 60.869 94.4649 61.1754 94.4898C61.5292 94.5197 61.6363 95.6134 61.6737 95.8525C61.7085 96.0394 61.716 96.2387 61.7658 96.418C61.8032 96.5376 61.8356 96.6572 61.863 96.7792Z" fill="#455A64"/>
<path d="M51.9991 99.0988C51.8995 98.3041 51.7674 96.5826 53.2298 95.5862H53.4166C52.755 95.3949 52.0528 95.3949 51.3913 95.5862C50.2204 95.8976 49.7022 96.8442 49.9937 97.8457C49.9937 97.8382 50.2553 98.8073 51.9991 99.0988Z" fill="#FAFAFA"/>
<path d="M56.2701 95.337C55.7968 95.7555 55.6324 96.7096 55.6324 96.7096C55.5701 97.0683 54.9224 97.1207 54.9847 96.7769C55.0833 96.3012 55.2737 95.8494 55.5452 95.4466C55.7675 95.3292 56.0231 95.2906 56.2701 95.337Z" fill="#FAFAFA"/>
<path d="M54.942 95.4988C54.5859 95.8502 54.3526 96.3071 54.2769 96.8017C54.2121 97.143 53.6715 97.138 53.7089 96.8017C53.7089 96.8017 53.7737 95.9572 54.2794 95.5561C54.3772 95.4942 54.4884 95.4566 54.6037 95.4467C54.719 95.4367 54.8351 95.4546 54.942 95.4988Z" fill="#FAFAFA"/>
<path d="M61.2832 92.1532C61.2832 92.1532 61.1985 94.2134 61.084 94.8935C61.0142 95.2971 60.4886 95.7181 59.1757 95.6733C58.2515 95.6434 57.5265 95.7206 57.5639 94.9982L57.6436 92.8956L61.2832 92.1532Z" fill="#FFA8A7"/>
<path d="M63.3318 87.3003C63.2844 87.8608 63.2097 88.369 63.4389 88.9868C63.7677 89.8737 64.4652 90.2823 64.8738 90.631C65.3063 91.0573 65.7045 91.5171 66.0646 92.0062C66.4657 92.5044 66.5628 92.8083 67.1757 93.3215C67.5643 93.6429 68.6505 93.907 69.3181 93.623C69.8413 93.4012 70.0231 93.2219 69.9907 92.4222C69.9583 91.6225 67.4049 91.346 67.4049 91.346L63.3318 87.3003Z" fill="#37474F"/>
<path d="M69.6588 90.0331C69.878 90.1104 69.9328 90.5065 69.9652 91.2912C69.9901 91.8841 70.2542 92.7535 69.3922 93.1272C68.6997 93.4287 67.5911 93.2294 67.1227 92.6688C66.5373 91.9713 66.1412 91.356 65.3066 90.504C64.5817 89.7566 63.8294 89.5075 63.5055 88.0377C63.2987 87.0861 63.4632 86.6924 64.1358 86.4209C65.06 86.0447 66.5124 87.2704 67.2348 87.4622C67.8601 87.6391 69.442 89.9534 69.6588 90.0331Z" fill="#455A64"/>
<path d="M67.2375 87.4622L67.1154 87.4224C66.7036 87.4387 66.3031 87.5622 65.9536 87.7806C65.6041 87.9991 65.3176 88.3049 65.1224 88.668C64.9979 88.9171 65.3716 89.1288 65.6032 88.9171C66.1214 87.9405 67.1802 87.7238 67.5962 87.6715C67.4915 87.5788 67.3696 87.5077 67.2375 87.4622Z" fill="#FAFAFA"/>
<path d="M67.8363 87.9106C67.4474 87.9474 67.0738 88.0805 66.7493 88.298C66.4248 88.5155 66.1597 88.8105 65.9779 89.1562C65.8533 89.4054 66.227 89.6146 66.4612 89.4054C66.6367 89.0992 66.8767 88.8348 67.1644 88.6305C67.4522 88.4262 67.7809 88.2868 68.1278 88.222C68.0282 88.1099 67.931 88.0053 67.8363 87.9106Z" fill="#FAFAFA"/>
<path d="M69.7846 88.6132L69.66 90.2698C69.66 90.2698 68.6088 91.0396 67.1016 90.3346C67.0567 90.2424 66.9297 88.7626 66.9297 88.7626L69.7846 88.6132Z" fill="#FFA8A7"/>
<path d="M63.9312 89.134C63.9312 89.134 64.0034 87.3727 66.5021 87.1285L66.6466 87.2058C66.362 86.7633 65.9236 86.4421 65.416 86.304C64.5864 86.0897 63.9212 86.3039 63.4927 86.8296C63.0643 87.3552 63.4977 88.7877 63.9312 89.134Z" fill="#FAFAFA"/>
<path d="M70.5158 77.5847C70.1596 74.6874 70.0176 73.0706 70.0176 73.0706C70.0176 73.0706 69.9453 68.995 70.1944 65.2333C70.3041 63.5766 70.3589 61.7456 70.3938 60.0939C70.4377 58.2569 70.2916 56.4203 69.9578 54.6133C69.9578 54.6133 57.1281 52.0623 56.9687 56.7707C56.7768 62.4108 56.9263 73.7482 57.006 75.2205C57.1206 77.2907 56.9836 79.3734 57.1131 83.3917C57.2228 86.7224 57.4744 93.5732 57.4744 93.5732C59.2381 94.1761 61.3258 93.5732 61.3258 93.5732C61.3258 93.5732 62.6536 84.0195 62.8055 81.6404C62.9675 79.0819 62.6959 77.784 62.6959 77.784L64.0237 65.8611C64.0237 65.8611 64.1234 69.6876 64.238 71.7553C64.3526 73.823 64.649 75.086 65.1871 78.9374C65.653 82.2756 66.8637 89.0118 66.8637 89.0118C67.806 89.3776 68.8511 89.3776 69.7934 89.0118C69.7934 89.0118 70.8745 80.4819 70.5158 77.5847Z" fill="#455A64"/>
<path d="M68.7579 61.1202C68.7579 61.1202 67.1511 63.1705 65.0884 64.0524C65.0884 64.0524 64.1915 71.2619 64.199 71.1199L63.9648 63.8631C63.9648 63.8631 67.049 62.4979 68.7579 61.1202Z" fill="#37474F"/>
<path d="M62.1406 35.7922L62.3424 40.082L66.5974 39.8553L66.4654 34.8679L62.1406 35.7922Z" fill="#FFA8A7"/>
<path d="M70.7728 39.7758C70.4166 38.6049 69.1784 37.6408 67.6165 37.5935C67.2702 37.5935 66.5378 37.5935 66.5378 37.5935C66.3609 38.316 64.1462 38.59 62.2529 38.1391C61.6799 38.291 59.3008 38.864 58.825 39.021C57.4648 39.4744 57.0438 40.862 56.832 45.3013C56.832 45.3013 56.8744 54.0554 56.832 58.2331C59.2261 59.4962 62.928 59.3392 65.5512 59.0727C69.6866 58.6541 70.302 57.1569 70.302 57.1569C70.1301 54.7205 70.2347 53.8038 70.302 51.3973C70.3518 49.5911 70.8725 47.6779 71.0344 45.6301C71.2835 42.5884 71.0169 40.5805 70.7728 39.7758Z" fill="#455A64"/>
<path d="M59.2891 30.5258C59.2891 30.5258 58.2751 32.0653 58.3922 32.2148C58.5093 32.3643 59.2542 32.5038 59.2542 32.5038L59.2891 30.5258Z" fill="#F28F8F"/>
<path d="M62.0934 26.2683C60.0406 26.7018 59.221 27.3022 59.1039 30.8073C58.9794 34.2178 59.4078 35.3413 59.8513 35.7897C60.1527 36.0986 61.8318 36.1559 62.6788 35.9218C63.7375 35.6303 66.1341 34.7808 67.2551 33.0668C68.5755 31.0515 68.9217 28.3186 67.5042 27.1976C65.5163 25.6306 62.9279 26.0915 62.0934 26.2683Z" fill="#FFA8A7"/>
<path d="M59.8516 35.7997C60.1007 36.0488 61.2715 36.136 62.1534 36.0289L62.141 35.5306C61.4094 35.7981 60.6252 35.8902 59.8516 35.7997Z" fill="#F28F8F"/>
<path d="M58.8223 27.5836C59.3328 27.951 59.9667 28.1039 60.5885 28.0096C60.5759 28.2842 60.649 28.5558 60.7978 28.7869C61.0063 29.1021 61.3224 29.3306 61.6872 29.4296C61.463 29.8697 61.3436 30.3557 61.3384 30.8496C61.3243 31.0055 61.3582 31.162 61.4356 31.298C61.4596 31.3473 61.4973 31.3887 61.5442 31.4172C61.591 31.4457 61.6451 31.4601 61.6999 31.4588C61.7547 31.4575 61.808 31.4405 61.8534 31.4098C61.8989 31.3791 61.9346 31.336 61.9562 31.2856C62.0715 31.0206 62.2169 30.7698 62.3897 30.5382C62.6104 30.2695 62.9228 30.092 63.2666 30.04C64.557 29.9005 64.7165 31.5845 64.2008 32.2821C63.3563 33.4255 62.6413 32.6532 62.6413 32.6532C62.6069 33.1904 62.6875 33.7288 62.8778 34.2323C63.0681 34.7358 63.3638 35.1928 63.7449 35.5729C64.6602 35.8413 65.6296 35.8662 66.5575 35.6452C67.7034 34.0707 68.4234 33.3059 69.0312 31.9482C70.3217 29.0759 69.6989 27.2747 68.7024 26.5149C68.5031 25.1896 67.4568 24.5967 66.2735 24.3252C64.4972 23.9166 62.8356 24.9704 61.0768 24.5743C60.7875 24.5145 60.5014 24.4396 60.2198 24.3501C60.1116 24.2989 59.9881 24.29 59.8736 24.3252C59.8108 24.3677 59.7616 24.4275 59.732 24.4973C59.7024 24.5671 59.6936 24.644 59.7067 24.7188C59.7291 25.0576 60.0729 25.4337 60.2473 25.6156C59.8632 25.6514 59.476 25.6287 59.0988 25.5483C58.9662 25.5283 58.831 25.5333 58.7002 25.5633C58.5566 25.6186 58.4346 25.7188 58.3525 25.8489C58.2704 25.9791 58.2324 26.1323 58.2443 26.2857C58.2431 26.5307 58.294 26.7731 58.3936 26.9969C58.4933 27.2207 58.6394 27.4207 58.8223 27.5836Z" fill="#263238"/>
<path d="M68.7357 26.9632L69.9639 26.2383C69.8678 26.0754 69.7109 25.9574 69.5277 25.9102C69.3446 25.8631 69.1502 25.8906 68.9873 25.9867C68.8245 26.0828 68.7065 26.2397 68.6593 26.4229C68.6121 26.606 68.6396 26.8004 68.7357 26.9632Z" fill="#263238"/>
<path d="M43.869 42.4762C44.2028 43.1039 47.8848 49.8451 48.956 50.864C49.7183 51.5915 50.8992 52.0847 52.1224 51.0359C54.4018 49.0803 57.8098 45.7571 57.8098 45.7571C60.5775 44.1453 60.8665 40.5255 59.6159 39.26C59.6159 39.26 58.5048 38.4255 56.8432 39.9874C54.0829 42.5833 50.5529 46.4646 50.5529 46.4646C49.8728 45.5677 49.2699 44.8577 48.535 43.8363C47.9496 43.0217 47.0403 42.1672 47.0029 41.096C46.983 40.543 47.1873 39.9899 47.272 39.4468C47.3791 38.7393 47.4788 38.0368 47.5958 37.3293C47.6381 37.1903 47.6247 37.0402 47.5585 36.9108C47.483 36.8348 47.3813 36.7907 47.2742 36.7874C47.1672 36.7842 47.0629 36.8221 46.983 36.8934C46.8007 37.0559 46.662 37.2614 46.5794 37.4913L46.2481 38.2137C46.1958 38.3283 46.121 38.4628 45.999 38.4628C45.6876 38.4628 45.5207 37.6631 45.4659 37.4439C45.3689 37.0118 45.3312 36.5684 45.3538 36.1261C45.3662 35.7923 45.3737 35.3962 45.1046 35.1993C44.982 35.1337 44.8451 35.0994 44.706 35.0994C44.567 35.0994 44.4301 35.1337 44.3074 35.1993C43.616 35.4779 43.0536 36.0048 42.7305 36.6766C42.2846 37.6258 42.4814 38.7294 42.7305 39.7034C42.9998 40.6692 43.3819 41.5998 43.869 42.4762Z" fill="#FFA8A7"/>
<path d="M50.5546 46.4744C49.8595 47.2368 49.451 48.7464 49.451 48.7464C49.451 48.7464 49.3763 47.1471 50.1983 46.0061L50.5546 46.4744Z" fill="#F28F8F"/>
<path d="M59.8904 38.7441C58.8042 38.7965 57.7554 39.078 56.9284 39.7755C56.3006 40.3061 51.8164 44.8302 51.8164 44.8302C51.8164 44.8302 52.7481 47.3214 55.1098 48.6392L59.4295 44.8302C59.4295 44.8302 61.7812 41.6838 59.8904 38.7441Z" fill="#455A64"/>
<g opacity="0.3">
<path opacity="0.3" d="M59.8904 38.7444C58.8042 38.7967 57.7554 39.0782 56.9284 39.7757C56.3006 40.3064 51.8164 44.8304 51.8164 44.8304C51.8164 44.8304 52.7481 47.3216 55.1098 48.6394L59.4295 44.8304C59.4295 44.8304 61.7812 41.684 59.8904 38.7444Z" fill="black"/>
</g>
<path d="M53.9806 6.69474L44.2001 12.3273C44.0805 12.4044 43.9809 12.5087 43.9095 12.6316C43.838 12.7546 43.7967 12.8928 43.7891 13.0348V24.7883C43.7968 24.9303 43.8384 25.0684 43.9103 25.191C43.9823 25.3136 44.0825 25.4173 44.2026 25.4934L45.6674 26.3155C45.7948 26.38 45.9357 26.4137 46.0785 26.4137C46.2213 26.4137 46.3621 26.38 46.4895 26.3155L56.2725 20.6853C56.3914 20.6072 56.4903 20.5023 56.5612 20.3789C56.6322 20.2556 56.6732 20.1174 56.681 19.9753V8.21935C56.6736 8.07761 56.6324 7.9397 56.5609 7.81707C56.4894 7.69445 56.3897 7.59067 56.27 7.51434L54.8077 6.69224C54.6792 6.62802 54.5375 6.59479 54.3938 6.59522C54.2502 6.59565 54.1087 6.62974 53.9806 6.69474Z" fill="#455A64"/>
<path d="M46.0898 26.0763V14.3228C46.0975 14.1807 46.1384 14.0424 46.2094 13.919C46.2804 13.7957 46.3794 13.6908 46.4984 13.6128L56.2814 7.98269C56.5056 7.85065 56.6899 7.95777 56.6899 8.23181V19.9828C56.6821 20.1249 56.6411 20.2631 56.5701 20.3864C56.4992 20.5097 56.4003 20.6147 56.2814 20.6928L46.4984 26.3229C46.2642 26.4425 46.0898 26.3354 46.0898 26.0763Z" fill="#455A64"/>
<path opacity="0.2" d="M46.4895 26.3104C46.3616 26.3731 46.221 26.4056 46.0785 26.4056C45.936 26.4056 45.7954 26.3731 45.6674 26.3104L44.2026 25.4883C44.0826 25.4121 43.9825 25.3084 43.9106 25.1858C43.8387 25.0632 43.797 24.9252 43.7891 24.7832V13.0347C43.7953 12.886 43.8409 12.7416 43.9211 12.6162L46.2006 13.9191C46.129 14.0417 46.0903 14.1807 46.0884 14.3227V26.0737C46.0884 26.3128 46.2479 26.4524 46.4895 26.3104Z" fill="black"/>
<path opacity="0.4" d="M56.6754 8.1445C56.643 7.93773 56.4736 7.86549 56.2694 7.98257L46.4889 13.6127C46.3686 13.6892 46.2692 13.7945 46.1999 13.9191L43.918 12.6162C43.9857 12.4968 44.0825 12.3965 44.1995 12.3247L53.9824 6.69462C54.1098 6.63141 54.25 6.59851 54.3922 6.59851C54.5344 6.59851 54.6747 6.63141 54.802 6.69462L56.2669 7.51672C56.3756 7.58634 56.4683 7.67834 56.5388 7.78659C56.6092 7.89483 56.6558 8.01685 56.6754 8.1445Z" fill="white"/>
<path d="M43.7882 17.0632L40.4949 20.4139C40.457 20.4524 40.4282 20.4989 40.4106 20.5499C40.3929 20.601 40.3869 20.6553 40.3929 20.709C40.3988 20.7626 40.4167 20.8143 40.4451 20.8602C40.4735 20.9061 40.5118 20.9451 40.5572 20.9744C40.6244 21.0193 42.8366 22.2873 42.8366 22.2873L46.0876 18.3836L43.7882 17.0632Z" fill="#455A64"/>
<path opacity="0.1" d="M43.7882 17.0632L40.4949 20.4139C40.457 20.4524 40.4282 20.4989 40.4106 20.5499C40.3929 20.601 40.3869 20.6553 40.3929 20.709C40.3988 20.7626 40.4167 20.8143 40.4451 20.8602C40.4735 20.9061 40.5118 20.9451 40.5572 20.9744C40.6244 21.0193 42.8366 22.2873 42.8366 22.2873L46.0876 18.3836L43.7882 17.0632Z" fill="black"/>
<path d="M46.0892 18.3835L42.7934 21.7367C42.7408 21.7911 42.7066 21.8606 42.6954 21.9354C42.6842 22.0102 42.6966 22.0866 42.7309 22.154C42.7651 22.2214 42.8195 22.2765 42.8866 22.3115C42.9536 22.3466 43.0298 22.3599 43.1048 22.3495L46.0942 21.9186C46.4006 21.9161 46.4006 18.3835 46.0892 18.3835Z" fill="#455A64"/>
<path d="M48.4026 15.4465L52.5629 13.0425C52.8917 12.8507 53.1608 13.0052 53.1608 13.3863V18.4659C53.149 18.673 53.0887 18.8744 52.9849 19.054C52.881 19.2335 52.7365 19.3862 52.5629 19.4997L48.4026 21.9037C48.0712 22.0931 47.8047 21.9411 47.8047 21.5599V16.4804C47.8161 16.2732 47.8762 16.0716 47.9801 15.892C48.0839 15.7124 48.2287 15.5598 48.4026 15.4465Z" fill="white"/>
<path d="M54.1303 14.4302L55.2837 13.2244C55.4232 13.075 55.5328 13.1223 55.5328 13.3266V16.7545C55.531 16.8551 55.4925 16.9516 55.4246 17.0259C55.3568 17.1001 55.2641 17.1471 55.1641 17.158L54.2399 17.2402C54.1928 17.2452 54.1451 17.2401 54.1002 17.2252C54.0552 17.2104 54.0139 17.1861 53.979 17.1541C53.9442 17.122 53.9165 17.0829 53.8979 17.0394C53.8793 16.9958 53.8702 16.9488 53.8712 16.9014V15.0679C53.885 14.8326 53.9761 14.6085 54.1303 14.4302Z" fill="white"/>
</svg>
