<svg width="1009" height="262" viewBox="0 0 1009 262" fill="none" xmlns="http://www.w3.org/2000/svg">
<path d="M429.559 249.445H432.488C432.395 250.562 432.082 251.559 431.551 252.434C431.02 253.301 430.273 253.984 429.312 254.484C428.352 254.984 427.184 255.234 425.809 255.234C424.754 255.234 423.805 255.047 422.961 254.672C422.117 254.289 421.395 253.75 420.793 253.055C420.191 252.352 419.73 251.504 419.41 250.512C419.098 249.52 418.941 248.41 418.941 247.184V245.766C418.941 244.539 419.102 243.43 419.422 242.438C419.75 241.445 420.219 240.598 420.828 239.895C421.438 239.184 422.168 238.641 423.02 238.266C423.879 237.891 424.844 237.703 425.914 237.703C427.273 237.703 428.422 237.953 429.359 238.453C430.297 238.953 431.023 239.645 431.539 240.527C432.062 241.41 432.383 242.422 432.5 243.562H429.57C429.492 242.828 429.32 242.199 429.055 241.676C428.797 241.152 428.414 240.754 427.906 240.48C427.398 240.199 426.734 240.059 425.914 240.059C425.242 240.059 424.656 240.184 424.156 240.434C423.656 240.684 423.238 241.051 422.902 241.535C422.566 242.02 422.312 242.617 422.141 243.328C421.977 244.031 421.895 244.836 421.895 245.742V247.184C421.895 248.043 421.969 248.824 422.117 249.527C422.273 250.223 422.508 250.82 422.82 251.32C423.141 251.82 423.547 252.207 424.039 252.48C424.531 252.754 425.121 252.891 425.809 252.891C426.645 252.891 427.32 252.758 427.836 252.492C428.359 252.227 428.754 251.84 429.02 251.332C429.293 250.816 429.473 250.188 429.559 249.445ZM434.34 248.801V248.531C434.34 247.617 434.473 246.77 434.738 245.988C435.004 245.199 435.387 244.516 435.887 243.938C436.395 243.352 437.012 242.898 437.738 242.578C438.473 242.25 439.301 242.086 440.223 242.086C441.152 242.086 441.98 242.25 442.707 242.578C443.441 242.898 444.062 243.352 444.57 243.938C445.078 244.516 445.465 245.199 445.73 245.988C445.996 246.77 446.129 247.617 446.129 248.531V248.801C446.129 249.715 445.996 250.562 445.73 251.344C445.465 252.125 445.078 252.809 444.57 253.395C444.062 253.973 443.445 254.426 442.719 254.754C441.992 255.074 441.168 255.234 440.246 255.234C439.316 255.234 438.484 255.074 437.75 254.754C437.023 254.426 436.406 253.973 435.898 253.395C435.391 252.809 435.004 252.125 434.738 251.344C434.473 250.562 434.34 249.715 434.34 248.801ZM437.164 248.531V248.801C437.164 249.371 437.223 249.91 437.34 250.418C437.457 250.926 437.641 251.371 437.891 251.754C438.141 252.137 438.461 252.438 438.852 252.656C439.242 252.875 439.707 252.984 440.246 252.984C440.77 252.984 441.223 252.875 441.605 252.656C441.996 252.438 442.316 252.137 442.566 251.754C442.816 251.371 443 250.926 443.117 250.418C443.242 249.91 443.305 249.371 443.305 248.801V248.531C443.305 247.969 443.242 247.438 443.117 246.938C443 246.43 442.812 245.98 442.555 245.59C442.305 245.199 441.984 244.895 441.594 244.676C441.211 244.449 440.754 244.336 440.223 244.336C439.691 244.336 439.23 244.449 438.84 244.676C438.457 244.895 438.141 245.199 437.891 245.59C437.641 245.98 437.457 246.43 437.34 246.938C437.223 247.438 437.164 247.969 437.164 248.531ZM451.32 244.898V255H448.496V242.32H451.156L451.32 244.898ZM450.863 248.191L449.902 248.18C449.902 247.305 450.012 246.496 450.23 245.754C450.449 245.012 450.77 244.367 451.191 243.82C451.613 243.266 452.137 242.84 452.762 242.543C453.395 242.238 454.125 242.086 454.953 242.086C455.531 242.086 456.059 242.172 456.535 242.344C457.02 242.508 457.438 242.77 457.789 243.129C458.148 243.488 458.422 243.949 458.609 244.512C458.805 245.074 458.902 245.754 458.902 246.551V255H456.078V246.797C456.078 246.18 455.984 245.695 455.797 245.344C455.617 244.992 455.355 244.742 455.012 244.594C454.676 244.438 454.273 244.359 453.805 244.359C453.273 244.359 452.82 244.461 452.445 244.664C452.078 244.867 451.777 245.145 451.543 245.496C451.309 245.848 451.137 246.254 451.027 246.715C450.918 247.176 450.863 247.668 450.863 248.191ZM458.727 247.441L457.402 247.734C457.402 246.969 457.508 246.246 457.719 245.566C457.938 244.879 458.254 244.277 458.668 243.762C459.09 243.238 459.609 242.828 460.227 242.531C460.844 242.234 461.551 242.086 462.348 242.086C462.996 242.086 463.574 242.176 464.082 242.355C464.598 242.527 465.035 242.801 465.395 243.176C465.754 243.551 466.027 244.039 466.215 244.641C466.402 245.234 466.496 245.953 466.496 246.797V255H463.66V246.785C463.66 246.145 463.566 245.648 463.379 245.297C463.199 244.945 462.941 244.703 462.605 244.57C462.27 244.43 461.867 244.359 461.398 244.359C460.961 244.359 460.574 244.441 460.238 244.605C459.91 244.762 459.633 244.984 459.406 245.273C459.18 245.555 459.008 245.879 458.891 246.246C458.781 246.613 458.727 247.012 458.727 247.441ZM472.227 244.898V255H469.402V242.32H472.062L472.227 244.898ZM471.77 248.191L470.809 248.18C470.809 247.305 470.918 246.496 471.137 245.754C471.355 245.012 471.676 244.367 472.098 243.82C472.52 243.266 473.043 242.84 473.668 242.543C474.301 242.238 475.031 242.086 475.859 242.086C476.438 242.086 476.965 242.172 477.441 242.344C477.926 242.508 478.344 242.77 478.695 243.129C479.055 243.488 479.328 243.949 479.516 244.512C479.711 245.074 479.809 245.754 479.809 246.551V255H476.984V246.797C476.984 246.18 476.891 245.695 476.703 245.344C476.523 244.992 476.262 244.742 475.918 244.594C475.582 244.438 475.18 244.359 474.711 244.359C474.18 244.359 473.727 244.461 473.352 244.664C472.984 244.867 472.684 245.145 472.449 245.496C472.215 245.848 472.043 246.254 471.934 246.715C471.824 247.176 471.77 247.668 471.77 248.191ZM479.633 247.441L478.309 247.734C478.309 246.969 478.414 246.246 478.625 245.566C478.844 244.879 479.16 244.277 479.574 243.762C479.996 243.238 480.516 242.828 481.133 242.531C481.75 242.234 482.457 242.086 483.254 242.086C483.902 242.086 484.48 242.176 484.988 242.355C485.504 242.527 485.941 242.801 486.301 243.176C486.66 243.551 486.934 244.039 487.121 244.641C487.309 245.234 487.402 245.953 487.402 246.797V255H484.566V246.785C484.566 246.145 484.473 245.648 484.285 245.297C484.105 244.945 483.848 244.703 483.512 244.57C483.176 244.43 482.773 244.359 482.305 244.359C481.867 244.359 481.48 244.441 481.145 244.605C480.816 244.762 480.539 244.984 480.312 245.273C480.086 245.555 479.914 245.879 479.797 246.246C479.688 246.613 479.633 247.012 479.633 247.441ZM497.938 252.012V242.32H500.773V255H498.102L497.938 252.012ZM498.336 249.375L499.285 249.352C499.285 250.203 499.191 250.988 499.004 251.707C498.816 252.418 498.527 253.039 498.137 253.57C497.746 254.094 497.246 254.504 496.637 254.801C496.027 255.09 495.297 255.234 494.445 255.234C493.828 255.234 493.262 255.145 492.746 254.965C492.23 254.785 491.785 254.508 491.41 254.133C491.043 253.758 490.758 253.27 490.555 252.668C490.352 252.066 490.25 251.348 490.25 250.512V242.32H493.074V250.535C493.074 250.996 493.129 251.383 493.238 251.695C493.348 252 493.496 252.246 493.684 252.434C493.871 252.621 494.09 252.754 494.34 252.832C494.59 252.91 494.855 252.949 495.137 252.949C495.941 252.949 496.574 252.793 497.035 252.48C497.504 252.16 497.836 251.73 498.031 251.191C498.234 250.652 498.336 250.047 498.336 249.375ZM506.469 245.027V255H503.645V242.32H506.305L506.469 245.027ZM505.965 248.191L505.051 248.18C505.059 247.281 505.184 246.457 505.426 245.707C505.676 244.957 506.02 244.312 506.457 243.773C506.902 243.234 507.434 242.82 508.051 242.531C508.668 242.234 509.355 242.086 510.113 242.086C510.723 242.086 511.273 242.172 511.766 242.344C512.266 242.508 512.691 242.777 513.043 243.152C513.402 243.527 513.676 244.016 513.863 244.617C514.051 245.211 514.145 245.941 514.145 246.809V255H511.309V246.797C511.309 246.188 511.219 245.707 511.039 245.355C510.867 244.996 510.613 244.742 510.277 244.594C509.949 244.438 509.539 244.359 509.047 244.359C508.562 244.359 508.129 244.461 507.746 244.664C507.363 244.867 507.039 245.145 506.773 245.496C506.516 245.848 506.316 246.254 506.176 246.715C506.035 247.176 505.965 247.668 505.965 248.191ZM520.051 242.32V255H517.215V242.32H520.051ZM517.027 238.992C517.027 238.562 517.168 238.207 517.449 237.926C517.738 237.637 518.137 237.492 518.645 237.492C519.145 237.492 519.539 237.637 519.828 237.926C520.117 238.207 520.262 238.562 520.262 238.992C520.262 239.414 520.117 239.766 519.828 240.047C519.539 240.328 519.145 240.469 518.645 240.469C518.137 240.469 517.738 240.328 517.449 240.047C517.168 239.766 517.027 239.414 517.027 238.992ZM528.324 252.984C528.785 252.984 529.199 252.895 529.566 252.715C529.941 252.527 530.242 252.27 530.469 251.941C530.703 251.613 530.832 251.234 530.855 250.805H533.516C533.5 251.625 533.258 252.371 532.789 253.043C532.32 253.715 531.699 254.25 530.926 254.648C530.152 255.039 529.297 255.234 528.359 255.234C527.391 255.234 526.547 255.07 525.828 254.742C525.109 254.406 524.512 253.945 524.035 253.359C523.559 252.773 523.199 252.098 522.957 251.332C522.723 250.566 522.605 249.746 522.605 248.871V248.461C522.605 247.586 522.723 246.766 522.957 246C523.199 245.227 523.559 244.547 524.035 243.961C524.512 243.375 525.109 242.918 525.828 242.59C526.547 242.254 527.387 242.086 528.348 242.086C529.363 242.086 530.254 242.289 531.02 242.695C531.785 243.094 532.387 243.652 532.824 244.371C533.27 245.082 533.5 245.91 533.516 246.855H530.855C530.832 246.387 530.715 245.965 530.504 245.59C530.301 245.207 530.012 244.902 529.637 244.676C529.27 244.449 528.828 244.336 528.312 244.336C527.742 244.336 527.27 244.453 526.895 244.688C526.52 244.914 526.227 245.227 526.016 245.625C525.805 246.016 525.652 246.457 525.559 246.949C525.473 247.434 525.43 247.938 525.43 248.461V248.871C525.43 249.395 525.473 249.902 525.559 250.395C525.645 250.887 525.793 251.328 526.004 251.719C526.223 252.102 526.52 252.41 526.895 252.645C527.27 252.871 527.746 252.984 528.324 252.984ZM542.832 252.457V246.41C542.832 245.957 542.75 245.566 542.586 245.238C542.422 244.91 542.172 244.656 541.836 244.477C541.508 244.297 541.094 244.207 540.594 244.207C540.133 244.207 539.734 244.285 539.398 244.441C539.062 244.598 538.801 244.809 538.613 245.074C538.426 245.34 538.332 245.641 538.332 245.977H535.52C535.52 245.477 535.641 244.992 535.883 244.523C536.125 244.055 536.477 243.637 536.938 243.27C537.398 242.902 537.949 242.613 538.59 242.402C539.23 242.191 539.949 242.086 540.746 242.086C541.699 242.086 542.543 242.246 543.277 242.566C544.02 242.887 544.602 243.371 545.023 244.02C545.453 244.66 545.668 245.465 545.668 246.434V252.07C545.668 252.648 545.707 253.168 545.785 253.629C545.871 254.082 545.992 254.477 546.148 254.812V255H543.254C543.121 254.695 543.016 254.309 542.938 253.84C542.867 253.363 542.832 252.902 542.832 252.457ZM543.242 247.289L543.266 249.035H541.238C540.715 249.035 540.254 249.086 539.855 249.188C539.457 249.281 539.125 249.422 538.859 249.609C538.594 249.797 538.395 250.023 538.262 250.289C538.129 250.555 538.062 250.855 538.062 251.191C538.062 251.527 538.141 251.836 538.297 252.117C538.453 252.391 538.68 252.605 538.977 252.762C539.281 252.918 539.648 252.996 540.078 252.996C540.656 252.996 541.16 252.879 541.59 252.645C542.027 252.402 542.371 252.109 542.621 251.766C542.871 251.414 543.004 251.082 543.02 250.77L543.934 252.023C543.84 252.344 543.68 252.688 543.453 253.055C543.227 253.422 542.93 253.773 542.562 254.109C542.203 254.438 541.77 254.707 541.262 254.918C540.762 255.129 540.184 255.234 539.527 255.234C538.699 255.234 537.961 255.07 537.312 254.742C536.664 254.406 536.156 253.957 535.789 253.395C535.422 252.824 535.238 252.18 535.238 251.461C535.238 250.789 535.363 250.195 535.613 249.68C535.871 249.156 536.246 248.719 536.738 248.367C537.238 248.016 537.848 247.75 538.566 247.57C539.285 247.383 540.105 247.289 541.027 247.289H543.242ZM554.434 242.32V244.383H547.285V242.32H554.434ZM549.348 239.215H552.172V251.496C552.172 251.887 552.227 252.188 552.336 252.398C552.453 252.602 552.613 252.738 552.816 252.809C553.02 252.879 553.258 252.914 553.531 252.914C553.727 252.914 553.914 252.902 554.094 252.879C554.273 252.855 554.418 252.832 554.527 252.809L554.539 254.965C554.305 255.035 554.031 255.098 553.719 255.152C553.414 255.207 553.062 255.234 552.664 255.234C552.016 255.234 551.441 255.121 550.941 254.895C550.441 254.66 550.051 254.281 549.77 253.758C549.488 253.234 549.348 252.539 549.348 251.672V239.215ZM559.637 242.32V255H556.801V242.32H559.637ZM556.613 238.992C556.613 238.562 556.754 238.207 557.035 237.926C557.324 237.637 557.723 237.492 558.23 237.492C558.73 237.492 559.125 237.637 559.414 237.926C559.703 238.207 559.848 238.562 559.848 238.992C559.848 239.414 559.703 239.766 559.414 240.047C559.125 240.328 558.73 240.469 558.23 240.469C557.723 240.469 557.324 240.328 557.035 240.047C556.754 239.766 556.613 239.414 556.613 238.992ZM562.191 248.801V248.531C562.191 247.617 562.324 246.77 562.59 245.988C562.855 245.199 563.238 244.516 563.738 243.938C564.246 243.352 564.863 242.898 565.59 242.578C566.324 242.25 567.152 242.086 568.074 242.086C569.004 242.086 569.832 242.25 570.559 242.578C571.293 242.898 571.914 243.352 572.422 243.938C572.93 244.516 573.316 245.199 573.582 245.988C573.848 246.77 573.98 247.617 573.98 248.531V248.801C573.98 249.715 573.848 250.562 573.582 251.344C573.316 252.125 572.93 252.809 572.422 253.395C571.914 253.973 571.297 254.426 570.57 254.754C569.844 255.074 569.02 255.234 568.098 255.234C567.168 255.234 566.336 255.074 565.602 254.754C564.875 254.426 564.258 253.973 563.75 253.395C563.242 252.809 562.855 252.125 562.59 251.344C562.324 250.562 562.191 249.715 562.191 248.801ZM565.016 248.531V248.801C565.016 249.371 565.074 249.91 565.191 250.418C565.309 250.926 565.492 251.371 565.742 251.754C565.992 252.137 566.312 252.438 566.703 252.656C567.094 252.875 567.559 252.984 568.098 252.984C568.621 252.984 569.074 252.875 569.457 252.656C569.848 252.438 570.168 252.137 570.418 251.754C570.668 251.371 570.852 250.926 570.969 250.418C571.094 249.91 571.156 249.371 571.156 248.801V248.531C571.156 247.969 571.094 247.438 570.969 246.938C570.852 246.43 570.664 245.98 570.406 245.59C570.156 245.199 569.836 244.895 569.445 244.676C569.062 244.449 568.605 244.336 568.074 244.336C567.543 244.336 567.082 244.449 566.691 244.676C566.309 244.895 565.992 245.199 565.742 245.59C565.492 245.98 565.309 246.43 565.191 246.938C565.074 247.438 565.016 247.969 565.016 248.531ZM579.148 245.027V255H576.324V242.32H578.984L579.148 245.027ZM578.645 248.191L577.73 248.18C577.738 247.281 577.863 246.457 578.105 245.707C578.355 244.957 578.699 244.312 579.137 243.773C579.582 243.234 580.113 242.82 580.73 242.531C581.348 242.234 582.035 242.086 582.793 242.086C583.402 242.086 583.953 242.172 584.445 242.344C584.945 242.508 585.371 242.777 585.723 243.152C586.082 243.527 586.355 244.016 586.543 244.617C586.73 245.211 586.824 245.941 586.824 246.809V255H583.988V246.797C583.988 246.188 583.898 245.707 583.719 245.355C583.547 244.996 583.293 244.742 582.957 244.594C582.629 244.438 582.219 244.359 581.727 244.359C581.242 244.359 580.809 244.461 580.426 244.664C580.043 244.867 579.719 245.145 579.453 245.496C579.195 245.848 578.996 246.254 578.855 246.715C578.715 247.176 578.645 247.668 578.645 248.191Z" fill="#01818C"/>
<circle cx="503" cy="140" r="75" fill="url(#paint0_linear_20073_2382)"/>
<path d="M493.868 141.174C493.868 136.195 489.816 132.144 484.837 132.144C479.858 132.144 475.809 136.195 475.809 141.174C475.809 146.153 479.858 150.203 484.837 150.203C489.816 150.203 493.868 146.153 493.868 141.174ZM478.084 141.174C478.084 137.45 481.114 134.419 484.838 134.419C488.563 134.419 491.593 137.45 491.593 141.174C491.593 144.899 488.563 147.928 484.838 147.928C481.113 147.928 478.084 144.899 478.084 141.174V141.174Z" fill="white"/>
<path d="M531.231 141.174C531.231 136.195 527.181 132.144 522.202 132.144C517.223 132.144 513.172 136.195 513.172 141.174C513.172 146.153 517.223 150.203 522.202 150.203C527.181 150.203 531.231 146.153 531.231 141.174ZM515.447 141.174C515.447 137.45 518.477 134.419 522.201 134.419C525.926 134.419 528.955 137.45 528.955 141.174C528.955 144.899 525.926 147.928 522.201 147.928C518.478 147.928 515.447 144.899 515.447 141.174Z" fill="white"/>
<path d="M470.117 160.209V169.472C470.117 172.019 471.916 174.154 474.311 174.676V184.861C474.311 185.49 474.819 185.999 475.448 185.999H494.141C494.77 185.999 495.279 185.491 495.279 184.861V174.675C497.674 174.153 499.473 172.019 499.473 169.472V160.208C499.473 157.119 496.957 154.607 493.865 154.607L475.725 154.607C472.633 154.607 470.117 157.12 470.117 160.209L470.117 160.209ZM497.198 160.209V169.472C497.198 171.154 495.827 172.522 494.142 172.522C493.514 172.522 493.004 173.031 493.004 173.66V183.724H476.586V173.66C476.586 173.032 476.078 172.522 475.448 172.522C473.763 172.522 472.393 171.154 472.393 169.472V160.209C472.393 158.375 473.888 156.882 475.725 156.882H493.865C495.703 156.882 497.198 158.375 497.198 160.209H497.198Z" fill="white"/>
<path d="M511.235 159.051L507.547 176.692C507.478 177.027 507.562 177.376 507.778 177.642C507.994 177.908 508.319 178.062 508.661 178.062H514.087V184.862C514.087 185.491 514.596 186 515.225 186H529.176C529.805 186 530.314 185.491 530.314 184.862V178.063H535.741C536.083 178.063 536.408 177.908 536.625 177.643C536.84 177.377 536.924 177.028 536.855 176.693L533.179 159.123C532.812 156.549 530.571 154.608 527.969 154.608H516.434C513.831 154.608 511.59 156.549 511.236 159.051L511.235 159.051ZM516.433 156.882H527.969C529.447 156.882 530.719 157.985 530.94 159.518L534.342 175.788H529.176C528.548 175.788 528.038 176.297 528.038 176.926V183.725H516.362V176.926C516.362 176.298 515.853 175.788 515.224 175.788H510.059L513.474 159.445C513.683 157.985 514.955 156.883 516.433 156.883L516.433 156.882Z" fill="white"/>
<path d="M541.037 95H465.962C461.572 95 458 98.5721 458 102.962V113.959C458 118.349 461.572 121.921 465.962 121.921H470.784C475.788 121.921 480.493 123.87 484.032 127.409C484.254 127.631 484.545 127.742 484.836 127.742C485.127 127.742 485.418 127.631 485.641 127.409C489.179 123.87 493.884 121.921 498.888 121.921H541.036C545.426 121.921 548.999 118.349 548.999 113.959V102.962C548.999 98.5721 545.426 95 541.036 95H541.037ZM546.724 113.959C546.724 117.095 544.173 119.646 541.037 119.646H498.889C493.648 119.646 488.7 121.552 484.837 125.036C480.973 121.553 476.025 119.646 470.784 119.646H465.962C462.826 119.646 460.274 117.095 460.274 113.959V102.962C460.274 99.8264 462.826 97.2748 465.962 97.2748H541.036C544.172 97.2748 546.724 99.8264 546.724 102.962L546.724 113.959Z" fill="white"/>
<g filter="url(#filter0_d_20073_2382)">
<ellipse cx="503" cy="29.8802" rx="24" ry="22.8802" fill="#043953"/>
<path d="M512.164 38.8375V41.355H496.38V39.1522L504.28 30.3575C505.252 29.2754 506.003 28.3589 506.533 27.6081C507.074 26.8462 507.449 26.1672 507.659 25.5709C507.88 24.9636 507.99 24.3453 507.99 23.7159C507.99 22.9209 507.825 22.2032 507.493 21.5628C507.173 20.9113 506.698 20.3924 506.069 20.0059C505.44 19.6195 504.678 19.4262 503.783 19.4262C502.712 19.4262 501.818 19.636 501.1 20.0556C500.394 20.4641 499.864 21.0383 499.51 21.7781C499.157 22.5179 498.98 23.3681 498.98 24.3287H495.916C495.916 22.9706 496.214 21.7284 496.811 20.6022C497.407 19.4759 498.29 18.5815 499.461 17.919C500.631 17.2455 502.072 16.9087 503.783 16.9087C505.307 16.9087 506.61 17.1793 507.692 17.7203C508.774 18.2503 509.602 19.0011 510.177 19.9728C510.762 20.9334 511.054 22.0597 511.054 23.3515C511.054 24.0582 510.933 24.7759 510.69 25.5047C510.458 26.2224 510.132 26.9401 509.713 27.6578C509.304 28.3755 508.824 29.0822 508.272 29.7778C507.731 30.4734 507.151 31.158 506.533 31.8315L500.073 38.8375H512.164Z" fill="white"/>
</g>
<g filter="url(#filter1_d_20073_2382)">
<ellipse cx="880" cy="29.8802" rx="24" ry="22.8802" fill="#043953"/>
<path d="M877.835 27.7903H880.022C881.093 27.7903 881.976 27.6136 882.672 27.2603C883.378 26.8959 883.903 26.4046 884.245 25.7862C884.598 25.1569 884.775 24.4502 884.775 23.6662C884.775 22.7387 884.62 21.9603 884.311 21.3309C884.002 20.7015 883.538 20.2268 882.92 19.9065C882.302 19.5863 881.518 19.4262 880.568 19.4262C879.707 19.4262 878.945 19.5974 878.282 19.9397C877.631 20.2709 877.118 20.7457 876.742 21.364C876.378 21.9824 876.196 22.7111 876.196 23.5503H873.132C873.132 22.3247 873.441 21.2095 874.059 20.2047C874.677 19.1999 875.544 18.3994 876.659 17.8031C877.786 17.2069 879.089 16.9087 880.568 16.9087C882.026 16.9087 883.301 17.1682 884.394 17.6872C885.487 18.1951 886.337 18.957 886.945 19.9728C887.552 20.9776 887.856 22.2308 887.856 23.7325C887.856 24.3398 887.712 24.9912 887.425 25.6869C887.149 26.3714 886.713 27.0119 886.117 27.6081C885.531 28.2044 884.769 28.6957 883.831 29.0822C882.892 29.4576 881.766 29.6453 880.452 29.6453H877.835V27.7903ZM877.835 30.3078V28.4694H880.452C881.987 28.4694 883.257 28.6515 884.262 29.0159C885.266 29.3803 886.056 29.8661 886.63 30.4734C887.215 31.0807 887.624 31.7487 887.856 32.4775C888.099 33.1952 888.22 33.9129 888.22 34.6306C888.22 35.7569 888.027 36.7561 887.64 37.6284C887.265 38.5007 886.729 39.2405 886.034 39.8478C885.349 40.4551 884.543 40.9133 883.616 41.2225C882.688 41.5316 881.678 41.6862 880.585 41.6862C879.536 41.6862 878.547 41.5372 877.62 41.239C876.704 40.9409 875.892 40.5103 875.185 39.9472C874.479 39.373 873.927 38.6719 873.529 37.8437C873.132 37.0046 872.933 36.0495 872.933 34.9784H875.997C875.997 35.8176 876.179 36.5519 876.543 37.1812C876.919 37.8106 877.449 38.302 878.133 38.6553C878.829 38.9976 879.646 39.1687 880.585 39.1687C881.523 39.1687 882.329 39.0086 883.003 38.6884C883.687 38.3572 884.212 37.8603 884.576 37.1978C884.952 36.5353 885.139 35.7016 885.139 34.6969C885.139 33.6921 884.93 32.8695 884.51 32.229C884.09 31.5776 883.494 31.0973 882.721 30.7881C881.959 30.4679 881.059 30.3078 880.022 30.3078H877.835Z" fill="white"/>
</g>
<path d="M824.477 237.938H830.512C831.809 237.938 832.914 238.133 833.828 238.523C834.742 238.914 835.441 239.492 835.926 240.258C836.418 241.016 836.664 241.953 836.664 243.07C836.664 243.922 836.508 244.672 836.195 245.32C835.883 245.969 835.441 246.516 834.871 246.961C834.301 247.398 833.621 247.738 832.832 247.98L831.941 248.414H826.516L826.492 246.082H830.559C831.262 246.082 831.848 245.957 832.316 245.707C832.785 245.457 833.137 245.117 833.371 244.688C833.613 244.25 833.734 243.758 833.734 243.211C833.734 242.617 833.617 242.102 833.383 241.664C833.156 241.219 832.805 240.879 832.328 240.645C831.852 240.402 831.246 240.281 830.512 240.281H827.418V255H824.477V237.938ZM834.215 255L830.207 247.336L833.289 247.324L837.355 254.848V255H834.215ZM844.902 255.234C843.965 255.234 843.117 255.082 842.359 254.777C841.609 254.465 840.969 254.031 840.438 253.477C839.914 252.922 839.512 252.27 839.23 251.52C838.949 250.77 838.809 249.961 838.809 249.094V248.625C838.809 247.633 838.953 246.734 839.242 245.93C839.531 245.125 839.934 244.438 840.449 243.867C840.965 243.289 841.574 242.848 842.277 242.543C842.98 242.238 843.742 242.086 844.562 242.086C845.469 242.086 846.262 242.238 846.941 242.543C847.621 242.848 848.184 243.277 848.629 243.832C849.082 244.379 849.418 245.031 849.637 245.789C849.863 246.547 849.977 247.383 849.977 248.297V249.504H840.18V247.477H847.188V247.254C847.172 246.746 847.07 246.27 846.883 245.824C846.703 245.379 846.426 245.02 846.051 244.746C845.676 244.473 845.176 244.336 844.551 244.336C844.082 244.336 843.664 244.438 843.297 244.641C842.938 244.836 842.637 245.121 842.395 245.496C842.152 245.871 841.965 246.324 841.832 246.855C841.707 247.379 841.645 247.969 841.645 248.625V249.094C841.645 249.648 841.719 250.164 841.867 250.641C842.023 251.109 842.25 251.52 842.547 251.871C842.844 252.223 843.203 252.5 843.625 252.703C844.047 252.898 844.527 252.996 845.066 252.996C845.746 252.996 846.352 252.859 846.883 252.586C847.414 252.312 847.875 251.926 848.266 251.426L849.754 252.867C849.48 253.266 849.125 253.648 848.688 254.016C848.25 254.375 847.715 254.668 847.082 254.895C846.457 255.121 845.73 255.234 844.902 255.234ZM859.293 251.566C859.293 251.285 859.223 251.031 859.082 250.805C858.941 250.57 858.672 250.359 858.273 250.172C857.883 249.984 857.305 249.812 856.539 249.656C855.867 249.508 855.25 249.332 854.688 249.129C854.133 248.918 853.656 248.664 853.258 248.367C852.859 248.07 852.551 247.719 852.332 247.312C852.113 246.906 852.004 246.438 852.004 245.906C852.004 245.391 852.117 244.902 852.344 244.441C852.57 243.98 852.895 243.574 853.316 243.223C853.738 242.871 854.25 242.594 854.852 242.391C855.461 242.188 856.141 242.086 856.891 242.086C857.953 242.086 858.863 242.266 859.621 242.625C860.387 242.977 860.973 243.457 861.379 244.066C861.785 244.668 861.988 245.348 861.988 246.105H859.164C859.164 245.77 859.078 245.457 858.906 245.168C858.742 244.871 858.492 244.633 858.156 244.453C857.82 244.266 857.398 244.172 856.891 244.172C856.406 244.172 856.004 244.25 855.684 244.406C855.371 244.555 855.137 244.75 854.98 244.992C854.832 245.234 854.758 245.5 854.758 245.789C854.758 246 854.797 246.191 854.875 246.363C854.961 246.527 855.102 246.68 855.297 246.82C855.492 246.953 855.758 247.078 856.094 247.195C856.438 247.312 856.867 247.426 857.383 247.535C858.352 247.738 859.184 248 859.879 248.32C860.582 248.633 861.121 249.039 861.496 249.539C861.871 250.031 862.059 250.656 862.059 251.414C862.059 251.977 861.938 252.492 861.695 252.961C861.461 253.422 861.117 253.824 860.664 254.168C860.211 254.504 859.668 254.766 859.035 254.953C858.41 255.141 857.707 255.234 856.926 255.234C855.777 255.234 854.805 255.031 854.008 254.625C853.211 254.211 852.605 253.684 852.191 253.043C851.785 252.395 851.582 251.723 851.582 251.027H854.312C854.344 251.551 854.488 251.969 854.746 252.281C855.012 252.586 855.34 252.809 855.73 252.949C856.129 253.082 856.539 253.148 856.961 253.148C857.469 253.148 857.895 253.082 858.238 252.949C858.582 252.809 858.844 252.621 859.023 252.387C859.203 252.145 859.293 251.871 859.293 251.566ZM863.992 248.801V248.531C863.992 247.617 864.125 246.77 864.391 245.988C864.656 245.199 865.039 244.516 865.539 243.938C866.047 243.352 866.664 242.898 867.391 242.578C868.125 242.25 868.953 242.086 869.875 242.086C870.805 242.086 871.633 242.25 872.359 242.578C873.094 242.898 873.715 243.352 874.223 243.938C874.73 244.516 875.117 245.199 875.383 245.988C875.648 246.77 875.781 247.617 875.781 248.531V248.801C875.781 249.715 875.648 250.562 875.383 251.344C875.117 252.125 874.73 252.809 874.223 253.395C873.715 253.973 873.098 254.426 872.371 254.754C871.645 255.074 870.82 255.234 869.898 255.234C868.969 255.234 868.137 255.074 867.402 254.754C866.676 254.426 866.059 253.973 865.551 253.395C865.043 252.809 864.656 252.125 864.391 251.344C864.125 250.562 863.992 249.715 863.992 248.801ZM866.816 248.531V248.801C866.816 249.371 866.875 249.91 866.992 250.418C867.109 250.926 867.293 251.371 867.543 251.754C867.793 252.137 868.113 252.438 868.504 252.656C868.895 252.875 869.359 252.984 869.898 252.984C870.422 252.984 870.875 252.875 871.258 252.656C871.648 252.438 871.969 252.137 872.219 251.754C872.469 251.371 872.652 250.926 872.77 250.418C872.895 249.91 872.957 249.371 872.957 248.801V248.531C872.957 247.969 872.895 247.438 872.77 246.938C872.652 246.43 872.465 245.98 872.207 245.59C871.957 245.199 871.637 244.895 871.246 244.676C870.863 244.449 870.406 244.336 869.875 244.336C869.344 244.336 868.883 244.449 868.492 244.676C868.109 244.895 867.793 245.199 867.543 245.59C867.293 245.98 867.109 246.43 866.992 246.938C866.875 247.438 866.816 247.969 866.816 248.531ZM881.172 237V255H878.336V237H881.172ZM891.895 252.012V242.32H894.73V255H892.059L891.895 252.012ZM892.293 249.375L893.242 249.352C893.242 250.203 893.148 250.988 892.961 251.707C892.773 252.418 892.484 253.039 892.094 253.57C891.703 254.094 891.203 254.504 890.594 254.801C889.984 255.09 889.254 255.234 888.402 255.234C887.785 255.234 887.219 255.145 886.703 254.965C886.188 254.785 885.742 254.508 885.367 254.133C885 253.758 884.715 253.27 884.512 252.668C884.309 252.066 884.207 251.348 884.207 250.512V242.32H887.031V250.535C887.031 250.996 887.086 251.383 887.195 251.695C887.305 252 887.453 252.246 887.641 252.434C887.828 252.621 888.047 252.754 888.297 252.832C888.547 252.91 888.812 252.949 889.094 252.949C889.898 252.949 890.531 252.793 890.992 252.48C891.461 252.16 891.793 251.73 891.988 251.191C892.191 250.652 892.293 250.047 892.293 249.375ZM903.438 242.32V244.383H896.289V242.32H903.438ZM898.352 239.215H901.176V251.496C901.176 251.887 901.23 252.188 901.34 252.398C901.457 252.602 901.617 252.738 901.82 252.809C902.023 252.879 902.262 252.914 902.535 252.914C902.73 252.914 902.918 252.902 903.098 252.879C903.277 252.855 903.422 252.832 903.531 252.809L903.543 254.965C903.309 255.035 903.035 255.098 902.723 255.152C902.418 255.207 902.066 255.234 901.668 255.234C901.02 255.234 900.445 255.121 899.945 254.895C899.445 254.66 899.055 254.281 898.773 253.758C898.492 253.234 898.352 252.539 898.352 251.672V239.215ZM908.641 242.32V255H905.805V242.32H908.641ZM905.617 238.992C905.617 238.562 905.758 238.207 906.039 237.926C906.328 237.637 906.727 237.492 907.234 237.492C907.734 237.492 908.129 237.637 908.418 237.926C908.707 238.207 908.852 238.562 908.852 238.992C908.852 239.414 908.707 239.766 908.418 240.047C908.129 240.328 907.734 240.469 907.234 240.469C906.727 240.469 906.328 240.328 906.039 240.047C905.758 239.766 905.617 239.414 905.617 238.992ZM911.195 248.801V248.531C911.195 247.617 911.328 246.77 911.594 245.988C911.859 245.199 912.242 244.516 912.742 243.938C913.25 243.352 913.867 242.898 914.594 242.578C915.328 242.25 916.156 242.086 917.078 242.086C918.008 242.086 918.836 242.25 919.562 242.578C920.297 242.898 920.918 243.352 921.426 243.938C921.934 244.516 922.32 245.199 922.586 245.988C922.852 246.77 922.984 247.617 922.984 248.531V248.801C922.984 249.715 922.852 250.562 922.586 251.344C922.32 252.125 921.934 252.809 921.426 253.395C920.918 253.973 920.301 254.426 919.574 254.754C918.848 255.074 918.023 255.234 917.102 255.234C916.172 255.234 915.34 255.074 914.605 254.754C913.879 254.426 913.262 253.973 912.754 253.395C912.246 252.809 911.859 252.125 911.594 251.344C911.328 250.562 911.195 249.715 911.195 248.801ZM914.02 248.531V248.801C914.02 249.371 914.078 249.91 914.195 250.418C914.312 250.926 914.496 251.371 914.746 251.754C914.996 252.137 915.316 252.438 915.707 252.656C916.098 252.875 916.562 252.984 917.102 252.984C917.625 252.984 918.078 252.875 918.461 252.656C918.852 252.438 919.172 252.137 919.422 251.754C919.672 251.371 919.855 250.926 919.973 250.418C920.098 249.91 920.16 249.371 920.16 248.801V248.531C920.16 247.969 920.098 247.438 919.973 246.938C919.855 246.43 919.668 245.98 919.41 245.59C919.16 245.199 918.84 244.895 918.449 244.676C918.066 244.449 917.609 244.336 917.078 244.336C916.547 244.336 916.086 244.449 915.695 244.676C915.312 244.895 914.996 245.199 914.746 245.59C914.496 245.98 914.312 246.43 914.195 246.938C914.078 247.438 914.02 247.969 914.02 248.531ZM928.152 245.027V255H925.328V242.32H927.988L928.152 245.027ZM927.648 248.191L926.734 248.18C926.742 247.281 926.867 246.457 927.109 245.707C927.359 244.957 927.703 244.312 928.141 243.773C928.586 243.234 929.117 242.82 929.734 242.531C930.352 242.234 931.039 242.086 931.797 242.086C932.406 242.086 932.957 242.172 933.449 242.344C933.949 242.508 934.375 242.777 934.727 243.152C935.086 243.527 935.359 244.016 935.547 244.617C935.734 245.211 935.828 245.941 935.828 246.809V255H932.992V246.797C932.992 246.188 932.902 245.707 932.723 245.355C932.551 244.996 932.297 244.742 931.961 244.594C931.633 244.438 931.223 244.359 930.73 244.359C930.246 244.359 929.812 244.461 929.43 244.664C929.047 244.867 928.723 245.145 928.457 245.496C928.199 245.848 928 246.254 927.859 246.715C927.719 247.176 927.648 247.668 927.648 248.191Z" fill="#01818C"/>
<circle cx="880" cy="140" r="75" fill="url(#paint1_linear_20073_2382)"/>
<path d="M889.932 108.497C889.932 107.712 889.296 107.076 888.511 107.076H860.804C860.019 107.076 859.383 107.712 859.383 108.497C859.383 109.281 860.019 109.917 860.804 109.917H888.511C889.296 109.917 889.932 109.281 889.932 108.497Z" fill="white"/>
<path d="M890.994 121.285H872.522C871.738 121.285 871.102 121.921 871.102 122.706C871.102 123.491 871.738 124.127 872.522 124.127H890.994C891.779 124.127 892.414 123.491 892.414 122.706C892.414 121.921 891.779 121.285 890.994 121.285Z" fill="white"/>
<path d="M866.839 121.285H861.155C860.371 121.285 859.734 121.921 859.734 122.706C859.734 123.491 860.371 124.127 861.155 124.127H866.839C867.624 124.127 868.26 123.491 868.26 122.706C868.26 121.921 867.624 121.285 866.839 121.285Z" fill="white"/>
<path d="M890.994 128.388H872.522C871.738 128.388 871.102 129.024 871.102 129.809C871.102 130.593 871.738 131.23 872.522 131.23H890.994C891.779 131.23 892.414 130.593 892.414 129.809C892.414 129.024 891.779 128.388 890.994 128.388Z" fill="white"/>
<path d="M866.839 128.388H861.155C860.371 128.388 859.734 129.024 859.734 129.809C859.734 130.593 860.371 131.23 861.155 131.23H866.839C867.624 131.23 868.26 130.593 868.26 129.809C868.26 129.024 867.624 128.388 866.839 128.388Z" fill="white"/>
<path d="M892.415 136.913C892.414 136.128 891.779 135.492 890.994 135.492H872.522C871.738 135.492 871.102 136.128 871.102 136.913C871.102 137.698 871.738 138.334 872.522 138.334H890.994C891.779 138.334 892.414 137.698 892.415 136.913Z" fill="white"/>
<path d="M866.839 135.494H861.155C860.371 135.494 859.734 136.13 859.734 136.915C859.734 137.699 860.371 138.336 861.155 138.336H866.839C867.624 138.336 868.26 137.699 868.26 136.915C868.26 136.13 867.624 135.494 866.839 135.494Z" fill="white"/>
<path d="M866.839 142.596H861.155C860.371 142.596 859.734 143.233 859.734 144.017C859.734 144.802 860.371 145.438 861.155 145.438H866.839C867.624 145.438 868.26 144.802 868.26 144.017C868.26 143.233 867.624 142.596 866.839 142.596Z" fill="white"/>
<path d="M866.839 149.702H861.155C860.371 149.702 859.734 150.339 859.734 151.123C859.734 151.908 860.371 152.544 861.155 152.544H866.839C867.624 152.544 868.26 151.908 868.26 151.123C868.26 150.339 867.624 149.702 866.839 149.702Z" fill="white"/>
<path d="M866.839 156.805H861.155C860.371 156.805 859.734 157.441 859.734 158.226C859.734 159.011 860.371 159.647 861.155 159.647H866.839C867.624 159.647 868.26 159.011 868.26 158.226C868.26 157.441 867.624 156.805 866.839 156.805Z" fill="white"/>
<path d="M866.839 163.911H861.155C860.371 163.911 859.734 164.547 859.734 165.332C859.734 166.117 860.371 166.753 861.155 166.753H866.839C867.624 166.753 868.26 166.117 868.26 165.332C868.26 164.547 867.624 163.911 866.839 163.911Z" fill="white"/>
<path d="M904.232 181.671C904.231 182.456 903.595 183.091 902.811 183.092H900.431C900.594 182.636 900.678 182.156 900.68 181.671V160.678L898.69 163.118C898.439 163.434 898.153 163.72 897.837 163.971V181.67C897.837 182.455 897.201 183.091 896.416 183.091H852.368V170.304H853.078C853.863 170.304 854.499 169.667 854.499 168.883C854.499 168.098 853.863 167.462 853.078 167.462H852.368V156.095H853.078C853.863 156.095 854.499 155.459 854.499 154.674C854.499 153.889 853.863 153.253 853.078 153.253H852.368V141.886H853.078C853.863 141.886 854.499 141.25 854.499 140.465C854.499 139.681 853.863 139.045 853.078 139.045H852.368V127.678H853.078C853.863 127.678 854.499 127.041 854.499 126.257C854.499 125.472 853.863 124.836 853.078 124.836H852.368V113.469H853.078C853.863 113.469 854.499 112.833 854.499 112.048C854.499 111.264 853.863 110.627 853.078 110.627H852.368V97.8396H896.416C897.201 97.8403 897.837 98.4759 897.837 99.2605V133.938L900.679 130.454L900.68 99.2616C900.678 98.777 900.594 98.2969 900.431 97.8408H902.811C903.595 97.8414 904.231 98.477 904.232 99.2616V126.1L905.873 124.089C906.216 123.663 906.62 123.292 907.073 122.985V99.2626C907.072 98.1323 906.623 97.0488 905.824 96.2496C905.025 95.4504 903.941 95.0013 902.811 95H847.394C846.264 95.0013 845.181 95.451 844.382 96.2496C843.582 97.0488 843.133 98.1323 843.131 99.2626V110.63H842.421C841.636 110.63 841 111.266 841 112.05C841 112.835 841.636 113.471 842.421 113.471H843.131V124.838H842.421C841.636 124.838 841 125.474 841 126.259C841 127.044 841.636 127.68 842.421 127.68H843.131V139.047H842.421C841.636 139.047 841 139.683 841 140.468C841 141.252 841.636 141.888 842.421 141.888H843.131V153.255H842.421C841.636 153.255 841 153.892 841 154.676C841 155.461 841.636 156.097 842.421 156.097H843.131V167.464H842.421C841.636 167.464 841 168.1 841 168.885C841 169.669 841.636 170.306 842.421 170.306H843.131V181.673C843.133 182.803 843.582 183.886 844.382 184.686C845.181 185.484 846.264 185.934 847.394 185.935H902.811C903.941 185.934 905.024 185.485 905.824 184.686C906.623 183.886 907.072 182.803 907.073 181.673V152.84L904.232 156.325L904.232 181.671ZM849.526 183.092H847.394C846.61 183.091 845.975 182.456 845.973 181.671V170.304H849.526L849.526 183.092ZM849.526 167.462H845.973V156.095H849.526L849.526 167.462ZM849.526 153.254H845.973V141.887H849.526L849.526 153.254ZM849.526 139.045H845.973V127.678H849.526L849.526 139.045ZM849.526 124.836H845.973V113.47H849.526L849.526 124.836ZM849.526 110.628H845.973V99.261C845.975 98.4764 846.61 97.8408 847.394 97.8401H849.526L849.526 110.628Z" fill="white"/>
<path d="M890.773 142.596H872.522C871.738 142.596 871.102 143.233 871.102 144.017C871.102 144.802 871.738 145.438 872.522 145.438H888.454L890.773 142.596Z" fill="white"/>
<path d="M884.021 150.873L884.977 149.701H872.522C871.738 149.701 871.102 150.337 871.102 151.122C871.102 151.906 871.738 152.543 872.522 152.543H883.075C883.304 151.941 883.623 151.379 884.021 150.873L884.021 150.873Z" fill="white"/>
<path d="M881.743 156.805H872.522C871.738 156.805 871.102 157.441 871.102 158.226C871.102 159.011 871.738 159.647 872.522 159.647H880.861L881.743 156.805Z" fill="white"/>
<path d="M879.545 163.911H872.522C871.738 163.911 871.102 164.547 871.102 165.332C871.102 166.117 871.738 166.753 872.522 166.753H879.55C879.301 165.827 879.298 164.852 879.541 163.925L879.545 163.911Z" fill="white"/>
<path d="M918.116 130.369L912.065 125.467L912.064 125.466C911.48 124.994 910.732 124.773 909.985 124.851C909.237 124.929 908.552 125.301 908.078 125.884L886.26 152.628H886.259C885.959 153.012 885.741 153.452 885.618 153.923L882.329 164.515L882.306 164.599C882.007 165.467 882.267 166.429 882.961 167.03C883.321 167.313 883.765 167.465 884.223 167.461C884.649 167.453 885.067 167.347 885.446 167.151L895.521 162.098C895.898 161.914 896.229 161.649 896.49 161.321L918.542 134.279C919 133.703 919.214 132.969 919.134 132.236C919.054 131.504 918.688 130.832 918.116 130.369L918.116 130.369ZM885.48 163.952L887.634 157.017L892.032 160.668L885.48 163.952ZM894.614 159.119L888.663 154.179L910.28 127.678L916.289 132.545L894.614 159.119Z" fill="white"/>
<path d="M202 139.311C202 141.52 203.791 143.311 206 143.311C208.209 143.311 210 141.52 210 139.311C210 137.102 208.209 135.311 206 135.311C203.791 135.311 202 137.102 202 139.311ZM297.575 147.636L297.885 148.319L297.907 148.309L297.928 148.298L297.575 147.636ZM428.218 140.028C428.615 139.908 428.838 139.489 428.718 139.093L426.752 132.635C426.632 132.239 426.213 132.015 425.816 132.136C425.42 132.256 425.197 132.676 425.317 133.072L427.064 138.812L421.324 140.559C420.928 140.679 420.704 141.098 420.825 141.495C420.946 141.891 421.365 142.114 421.761 141.994L428.218 140.028ZM205.721 140.007C206.934 140.492 208.157 140.977 209.39 141.46L209.937 140.064C208.708 139.582 207.488 139.098 206.279 138.615L205.721 140.007ZM216.779 144.271C219.235 145.175 221.724 146.055 224.24 146.898L224.717 145.475C222.216 144.638 219.741 143.762 217.297 142.864L216.779 144.271ZM231.791 149.274C234.321 150.016 236.873 150.707 239.442 151.332L239.797 149.875C237.252 149.256 234.723 148.571 232.213 147.835L231.791 149.274ZM247.195 152.996C249.799 153.476 252.417 153.876 255.043 154.18L255.216 152.69C252.626 152.39 250.041 151.995 247.467 151.52L247.195 152.996ZM262.964 154.795C265.612 154.895 268.265 154.884 270.916 154.747L270.838 153.249C268.235 153.383 265.627 153.394 263.02 153.296L262.964 154.795ZM278.834 153.947C281.442 153.55 284.043 153.016 286.633 152.331L286.249 150.881C283.713 151.552 281.165 152.075 278.608 152.465L278.834 153.947ZM294.209 149.867C295.438 149.389 296.664 148.874 297.885 148.319L297.265 146.953C296.069 147.497 294.869 148.001 293.666 148.469L294.209 149.867ZM297.928 148.298C299.039 147.705 300.154 147.123 301.272 146.55L300.589 145.215C299.463 145.791 298.34 146.378 297.222 146.974L297.928 148.298ZM308.048 143.232C310.332 142.164 312.629 141.14 314.937 140.162L314.352 138.781C312.026 139.766 309.712 140.797 307.412 141.873L308.048 143.232ZM321.936 137.359C324.295 136.467 326.665 135.627 329.043 134.84L328.571 133.416C326.173 134.21 323.784 135.057 321.406 135.956L321.936 137.359ZM336.249 132.627C338.675 131.941 341.107 131.313 343.544 130.745L343.204 129.284C340.743 129.857 338.288 130.492 335.84 131.184L336.249 132.627ZM350.919 129.216C353.398 128.767 355.879 128.383 358.361 128.067L358.172 126.579C355.663 126.899 353.155 127.287 350.652 127.74L350.919 129.216ZM365.853 127.323C368.361 127.145 370.868 127.04 373.371 127.01L373.353 125.51C370.82 125.54 368.283 125.647 365.746 125.827L365.853 127.323ZM380.893 127.151C383.397 127.275 385.896 127.479 388.388 127.766L388.559 126.275C386.035 125.985 383.503 125.779 380.967 125.652L380.893 127.151ZM395.826 128.871C398.284 129.32 400.732 129.854 403.17 130.474L403.54 129.021C401.069 128.392 398.587 127.851 396.096 127.395L395.826 128.871ZM410.385 132.579C412.749 133.358 415.1 134.223 417.437 135.178L418.005 133.789C415.635 132.822 413.251 131.944 410.855 131.154L410.385 132.579ZM424.297 138.258C425.418 138.808 426.534 139.379 427.647 139.973L428.353 138.649C427.225 138.048 426.094 137.469 424.958 136.911L424.297 138.258Z" fill="url(#paint2_linear_20073_2382)"/>
<path d="M574 139.354C574 141.563 575.791 143.354 578 143.354C580.209 143.354 582 141.563 582 139.354C582 137.145 580.209 135.354 578 135.354C575.791 135.354 574 137.145 574 139.354ZM671.638 147.867L671.948 148.549L671.969 148.54L671.99 148.528L671.638 147.867ZM805.218 140.072C805.615 139.951 805.838 139.532 805.718 139.136L803.752 132.678C803.632 132.282 803.213 132.058 802.816 132.179C802.42 132.3 802.197 132.719 802.317 133.115L804.064 138.855L798.324 140.602C797.928 140.723 797.704 141.142 797.825 141.538C797.946 141.934 798.365 142.158 798.761 142.037L805.218 140.072ZM577.721 140.05C578.961 140.546 580.212 141.042 581.473 141.536L582.02 140.14C580.763 139.647 579.515 139.152 578.279 138.658L577.721 140.05ZM589.028 144.41C591.539 145.334 594.084 146.234 596.657 147.096L597.133 145.673C594.576 144.817 592.045 143.922 589.546 143.003L589.028 144.41ZM604.377 149.525C606.963 150.284 609.572 150.991 612.199 151.63L612.554 150.172C609.952 149.539 607.365 148.839 604.799 148.086L604.377 149.525ZM620.126 153.33C622.789 153.821 625.465 154.23 628.15 154.542L628.322 153.052C625.674 152.744 623.031 152.341 620.398 151.855L620.126 153.33ZM636.247 155.17C638.955 155.272 641.667 155.261 644.377 155.121L644.299 153.623C641.637 153.76 638.97 153.772 636.303 153.671L636.247 155.17ZM652.472 154.304C655.138 153.897 657.797 153.351 660.445 152.651L660.061 151.201C657.467 151.887 654.861 152.422 652.246 152.821L652.472 154.304ZM668.189 150.132C669.446 149.644 670.699 149.117 671.948 148.549L671.327 147.184C670.104 147.74 668.877 148.256 667.646 148.734L668.189 150.132ZM671.99 148.528C673.126 147.923 674.266 147.327 675.41 146.742L674.727 145.406C673.575 145.995 672.428 146.595 671.285 147.205L671.99 148.528ZM682.339 143.348C684.674 142.256 687.023 141.208 689.384 140.209L688.799 138.828C686.421 139.834 684.055 140.889 681.703 141.99L682.339 143.348ZM696.541 137.342C698.954 136.431 701.377 135.571 703.809 134.766L703.337 133.342C700.886 134.154 698.443 135.02 696.011 135.939L696.541 137.342ZM711.177 132.504C713.658 131.802 716.146 131.159 718.638 130.579L718.298 129.118C715.782 129.704 713.272 130.352 710.769 131.06L711.177 132.504ZM726.18 129.016C728.715 128.556 731.252 128.164 733.79 127.84L733.601 126.352C731.036 126.679 728.472 127.076 725.913 127.54L726.18 129.016ZM741.452 127.08C744.017 126.898 746.58 126.79 749.141 126.759L749.123 125.259C746.532 125.29 743.939 125.399 741.346 125.583L741.452 127.08ZM756.833 126.903C759.394 127.031 761.949 127.239 764.498 127.532L764.669 126.042C762.088 125.745 759.5 125.534 756.907 125.405L756.833 126.903ZM772.105 128.662C774.618 129.122 777.122 129.668 779.615 130.302L779.985 128.849C777.459 128.205 774.921 127.652 772.375 127.186L772.105 128.662ZM786.994 132.454C789.411 133.251 791.816 134.136 794.206 135.112L794.773 133.724C792.35 132.734 789.913 131.837 787.463 131.03L786.994 132.454ZM801.221 138.262C802.367 138.825 803.509 139.409 804.647 140.016L805.353 138.692C804.2 138.078 803.043 137.485 801.882 136.916L801.221 138.262Z" fill="url(#paint3_linear_20073_2382)"/>
<g filter="url(#filter2_d_20073_2382)">
<ellipse cx="131" cy="29.8802" rx="24" ry="22.8802" fill="#043953"/>
<path d="M134.433 17.1075V41.355H131.369V20.9334L125.192 23.1859V20.42L133.953 17.1075H134.433Z" fill="white"/>
</g>
<path d="M66.5742 226.938H72.6094C73.9062 226.938 75.0117 227.133 75.9258 227.523C76.8398 227.914 77.5391 228.492 78.0234 229.258C78.5156 230.016 78.7617 230.953 78.7617 232.07C78.7617 232.922 78.6055 233.672 78.293 234.32C77.9805 234.969 77.5391 235.516 76.9688 235.961C76.3984 236.398 75.7188 236.738 74.9297 236.98L74.0391 237.414H68.6133L68.5898 235.082H72.6562C73.3594 235.082 73.9453 234.957 74.4141 234.707C74.8828 234.457 75.2344 234.117 75.4688 233.688C75.7109 233.25 75.832 232.758 75.832 232.211C75.832 231.617 75.7148 231.102 75.4805 230.664C75.2539 230.219 74.9023 229.879 74.4258 229.645C73.9492 229.402 73.3438 229.281 72.6094 229.281H69.5156V244H66.5742V226.938ZM76.3125 244L72.3047 236.336L75.3867 236.324L79.4531 243.848V244H76.3125ZM87 244.234C86.0625 244.234 85.2148 244.082 84.457 243.777C83.707 243.465 83.0664 243.031 82.5352 242.477C82.0117 241.922 81.6094 241.27 81.3281 240.52C81.0469 239.77 80.9062 238.961 80.9062 238.094V237.625C80.9062 236.633 81.0508 235.734 81.3398 234.93C81.6289 234.125 82.0312 233.438 82.5469 232.867C83.0625 232.289 83.6719 231.848 84.375 231.543C85.0781 231.238 85.8398 231.086 86.6602 231.086C87.5664 231.086 88.3594 231.238 89.0391 231.543C89.7188 231.848 90.2812 232.277 90.7266 232.832C91.1797 233.379 91.5156 234.031 91.7344 234.789C91.9609 235.547 92.0742 236.383 92.0742 237.297V238.504H82.2773V236.477H89.2852V236.254C89.2695 235.746 89.168 235.27 88.9805 234.824C88.8008 234.379 88.5234 234.02 88.1484 233.746C87.7734 233.473 87.2734 233.336 86.6484 233.336C86.1797 233.336 85.7617 233.438 85.3945 233.641C85.0352 233.836 84.7344 234.121 84.4922 234.496C84.25 234.871 84.0625 235.324 83.9297 235.855C83.8047 236.379 83.7422 236.969 83.7422 237.625V238.094C83.7422 238.648 83.8164 239.164 83.9648 239.641C84.1211 240.109 84.3477 240.52 84.6445 240.871C84.9414 241.223 85.3008 241.5 85.7227 241.703C86.1445 241.898 86.625 241.996 87.1641 241.996C87.8438 241.996 88.4492 241.859 88.9805 241.586C89.5117 241.312 89.9727 240.926 90.3633 240.426L91.8516 241.867C91.5781 242.266 91.2227 242.648 90.7852 243.016C90.3477 243.375 89.8125 243.668 89.1797 243.895C88.5547 244.121 87.8281 244.234 87 244.234ZM99.457 241.984C99.918 241.984 100.332 241.895 100.699 241.715C101.074 241.527 101.375 241.27 101.602 240.941C101.836 240.613 101.965 240.234 101.988 239.805H104.648C104.633 240.625 104.391 241.371 103.922 242.043C103.453 242.715 102.832 243.25 102.059 243.648C101.285 244.039 100.43 244.234 99.4922 244.234C98.5234 244.234 97.6797 244.07 96.9609 243.742C96.2422 243.406 95.6445 242.945 95.168 242.359C94.6914 241.773 94.332 241.098 94.0898 240.332C93.8555 239.566 93.7383 238.746 93.7383 237.871V237.461C93.7383 236.586 93.8555 235.766 94.0898 235C94.332 234.227 94.6914 233.547 95.168 232.961C95.6445 232.375 96.2422 231.918 96.9609 231.59C97.6797 231.254 98.5195 231.086 99.4805 231.086C100.496 231.086 101.387 231.289 102.152 231.695C102.918 232.094 103.52 232.652 103.957 233.371C104.402 234.082 104.633 234.91 104.648 235.855H101.988C101.965 235.387 101.848 234.965 101.637 234.59C101.434 234.207 101.145 233.902 100.77 233.676C100.402 233.449 99.9609 233.336 99.4453 233.336C98.875 233.336 98.4023 233.453 98.0273 233.688C97.6523 233.914 97.3594 234.227 97.1484 234.625C96.9375 235.016 96.7852 235.457 96.6914 235.949C96.6055 236.434 96.5625 236.938 96.5625 237.461V237.871C96.5625 238.395 96.6055 238.902 96.6914 239.395C96.7773 239.887 96.9258 240.328 97.1367 240.719C97.3555 241.102 97.6523 241.41 98.0273 241.645C98.4023 241.871 98.8789 241.984 99.457 241.984ZM106.277 237.801V237.531C106.277 236.617 106.41 235.77 106.676 234.988C106.941 234.199 107.324 233.516 107.824 232.938C108.332 232.352 108.949 231.898 109.676 231.578C110.41 231.25 111.238 231.086 112.16 231.086C113.09 231.086 113.918 231.25 114.645 231.578C115.379 231.898 116 232.352 116.508 232.938C117.016 233.516 117.402 234.199 117.668 234.988C117.934 235.77 118.066 236.617 118.066 237.531V237.801C118.066 238.715 117.934 239.562 117.668 240.344C117.402 241.125 117.016 241.809 116.508 242.395C116 242.973 115.383 243.426 114.656 243.754C113.93 244.074 113.105 244.234 112.184 244.234C111.254 244.234 110.422 244.074 109.688 243.754C108.961 243.426 108.344 242.973 107.836 242.395C107.328 241.809 106.941 241.125 106.676 240.344C106.41 239.562 106.277 238.715 106.277 237.801ZM109.102 237.531V237.801C109.102 238.371 109.16 238.91 109.277 239.418C109.395 239.926 109.578 240.371 109.828 240.754C110.078 241.137 110.398 241.438 110.789 241.656C111.18 241.875 111.645 241.984 112.184 241.984C112.707 241.984 113.16 241.875 113.543 241.656C113.934 241.438 114.254 241.137 114.504 240.754C114.754 240.371 114.938 239.926 115.055 239.418C115.18 238.91 115.242 238.371 115.242 237.801V237.531C115.242 236.969 115.18 236.438 115.055 235.938C114.938 235.43 114.75 234.98 114.492 234.59C114.242 234.199 113.922 233.895 113.531 233.676C113.148 233.449 112.691 233.336 112.16 233.336C111.629 233.336 111.168 233.449 110.777 233.676C110.395 233.895 110.078 234.199 109.828 234.59C109.578 234.98 109.395 235.43 109.277 235.938C109.16 236.438 109.102 236.969 109.102 237.531ZM128.555 231.32H131.121V243.648C131.121 244.789 130.879 245.758 130.395 246.555C129.91 247.352 129.234 247.957 128.367 248.371C127.5 248.793 126.496 249.004 125.355 249.004C124.871 249.004 124.332 248.934 123.738 248.793C123.152 248.652 122.582 248.426 122.027 248.113C121.48 247.809 121.023 247.406 120.656 246.906L121.98 245.242C122.434 245.781 122.934 246.176 123.48 246.426C124.027 246.676 124.602 246.801 125.203 246.801C125.852 246.801 126.402 246.68 126.855 246.438C127.316 246.203 127.672 245.855 127.922 245.395C128.172 244.934 128.297 244.371 128.297 243.707V234.191L128.555 231.32ZM119.941 237.801V237.555C119.941 236.594 120.059 235.719 120.293 234.93C120.527 234.133 120.863 233.449 121.301 232.879C121.738 232.301 122.27 231.859 122.895 231.555C123.52 231.242 124.227 231.086 125.016 231.086C125.836 231.086 126.535 231.234 127.113 231.531C127.699 231.828 128.188 232.254 128.578 232.809C128.969 233.355 129.273 234.012 129.492 234.777C129.719 235.535 129.887 236.379 129.996 237.309V238.094C129.895 239 129.723 239.828 129.48 240.578C129.238 241.328 128.918 241.977 128.52 242.523C128.121 243.07 127.629 243.492 127.043 243.789C126.465 244.086 125.781 244.234 124.992 244.234C124.219 244.234 123.52 244.074 122.895 243.754C122.277 243.434 121.746 242.984 121.301 242.406C120.863 241.828 120.527 241.148 120.293 240.367C120.059 239.578 119.941 238.723 119.941 237.801ZM122.766 237.555V237.801C122.766 238.379 122.82 238.918 122.93 239.418C123.047 239.918 123.223 240.359 123.457 240.742C123.699 241.117 124.004 241.414 124.371 241.633C124.746 241.844 125.188 241.949 125.695 241.949C126.359 241.949 126.902 241.809 127.324 241.527C127.754 241.246 128.082 240.867 128.309 240.391C128.543 239.906 128.707 239.367 128.801 238.773V236.652C128.754 236.191 128.656 235.762 128.508 235.363C128.367 234.965 128.176 234.617 127.934 234.32C127.691 234.016 127.387 233.781 127.02 233.617C126.652 233.445 126.219 233.359 125.719 233.359C125.211 233.359 124.77 233.469 124.395 233.688C124.02 233.906 123.711 234.207 123.469 234.59C123.234 234.973 123.059 235.418 122.941 235.926C122.824 236.434 122.766 236.977 122.766 237.555ZM136.852 234.027V244H134.027V231.32H136.688L136.852 234.027ZM136.348 237.191L135.434 237.18C135.441 236.281 135.566 235.457 135.809 234.707C136.059 233.957 136.402 233.312 136.84 232.773C137.285 232.234 137.816 231.82 138.434 231.531C139.051 231.234 139.738 231.086 140.496 231.086C141.105 231.086 141.656 231.172 142.148 231.344C142.648 231.508 143.074 231.777 143.426 232.152C143.785 232.527 144.059 233.016 144.246 233.617C144.434 234.211 144.527 234.941 144.527 235.809V244H141.691V235.797C141.691 235.188 141.602 234.707 141.422 234.355C141.25 233.996 140.996 233.742 140.66 233.594C140.332 233.438 139.922 233.359 139.43 233.359C138.945 233.359 138.512 233.461 138.129 233.664C137.746 233.867 137.422 234.145 137.156 234.496C136.898 234.848 136.699 235.254 136.559 235.715C136.418 236.176 136.348 236.668 136.348 237.191ZM150.434 231.32V244H147.598V231.32H150.434ZM147.41 227.992C147.41 227.562 147.551 227.207 147.832 226.926C148.121 226.637 148.52 226.492 149.027 226.492C149.527 226.492 149.922 226.637 150.211 226.926C150.5 227.207 150.645 227.562 150.645 227.992C150.645 228.414 150.5 228.766 150.211 229.047C149.922 229.328 149.527 229.469 149.027 229.469C148.52 229.469 148.121 229.328 147.832 229.047C147.551 228.766 147.41 228.414 147.41 227.992ZM159.34 231.32V233.383H152.191V231.32H159.34ZM154.254 228.215H157.078V240.496C157.078 240.887 157.133 241.188 157.242 241.398C157.359 241.602 157.52 241.738 157.723 241.809C157.926 241.879 158.164 241.914 158.438 241.914C158.633 241.914 158.82 241.902 159 241.879C159.18 241.855 159.324 241.832 159.434 241.809L159.445 243.965C159.211 244.035 158.938 244.098 158.625 244.152C158.32 244.207 157.969 244.234 157.57 244.234C156.922 244.234 156.348 244.121 155.848 243.895C155.348 243.66 154.957 243.281 154.676 242.758C154.395 242.234 154.254 241.539 154.254 240.672V228.215ZM164.543 231.32V244H161.707V231.32H164.543ZM161.52 227.992C161.52 227.562 161.66 227.207 161.941 226.926C162.23 226.637 162.629 226.492 163.137 226.492C163.637 226.492 164.031 226.637 164.32 226.926C164.609 227.207 164.754 227.562 164.754 227.992C164.754 228.414 164.609 228.766 164.32 229.047C164.031 229.328 163.637 229.469 163.137 229.469C162.629 229.469 162.23 229.328 161.941 229.047C161.66 228.766 161.52 228.414 161.52 227.992ZM167.098 237.801V237.531C167.098 236.617 167.23 235.77 167.496 234.988C167.762 234.199 168.145 233.516 168.645 232.938C169.152 232.352 169.77 231.898 170.496 231.578C171.23 231.25 172.059 231.086 172.98 231.086C173.91 231.086 174.738 231.25 175.465 231.578C176.199 231.898 176.82 232.352 177.328 232.938C177.836 233.516 178.223 234.199 178.488 234.988C178.754 235.77 178.887 236.617 178.887 237.531V237.801C178.887 238.715 178.754 239.562 178.488 240.344C178.223 241.125 177.836 241.809 177.328 242.395C176.82 242.973 176.203 243.426 175.477 243.754C174.75 244.074 173.926 244.234 173.004 244.234C172.074 244.234 171.242 244.074 170.508 243.754C169.781 243.426 169.164 242.973 168.656 242.395C168.148 241.809 167.762 241.125 167.496 240.344C167.23 239.562 167.098 238.715 167.098 237.801ZM169.922 237.531V237.801C169.922 238.371 169.98 238.91 170.098 239.418C170.215 239.926 170.398 240.371 170.648 240.754C170.898 241.137 171.219 241.438 171.609 241.656C172 241.875 172.465 241.984 173.004 241.984C173.527 241.984 173.98 241.875 174.363 241.656C174.754 241.438 175.074 241.137 175.324 240.754C175.574 240.371 175.758 239.926 175.875 239.418C176 238.91 176.062 238.371 176.062 237.801V237.531C176.062 236.969 176 236.438 175.875 235.938C175.758 235.43 175.57 234.98 175.312 234.59C175.062 234.199 174.742 233.895 174.352 233.676C173.969 233.449 173.512 233.336 172.98 233.336C172.449 233.336 171.988 233.449 171.598 233.676C171.215 233.895 170.898 234.199 170.648 234.59C170.398 234.98 170.215 235.43 170.098 235.938C169.98 236.438 169.922 236.969 169.922 237.531ZM184.055 234.027V244H181.23V231.32H183.891L184.055 234.027ZM183.551 237.191L182.637 237.18C182.645 236.281 182.77 235.457 183.012 234.707C183.262 233.957 183.605 233.312 184.043 232.773C184.488 232.234 185.02 231.82 185.637 231.531C186.254 231.234 186.941 231.086 187.699 231.086C188.309 231.086 188.859 231.172 189.352 231.344C189.852 231.508 190.277 231.777 190.629 232.152C190.988 232.527 191.262 233.016 191.449 233.617C191.637 234.211 191.73 234.941 191.73 235.809V244H188.895V235.797C188.895 235.188 188.805 234.707 188.625 234.355C188.453 233.996 188.199 233.742 187.863 233.594C187.535 233.438 187.125 233.359 186.633 233.359C186.148 233.359 185.715 233.461 185.332 233.664C184.949 233.867 184.625 234.145 184.359 234.496C184.102 234.848 183.902 235.254 183.762 235.715C183.621 236.176 183.551 236.668 183.551 237.191Z" fill="#01818C"/>
<circle cx="129" cy="129" r="75" fill="url(#paint4_linear_20073_2382)"/>
<path d="M165.672 167.503L141.681 143.514C144.787 139.17 146.621 133.859 146.621 128.124C146.621 113.489 134.715 101.582 120.081 101.582C105.447 101.581 93.5391 113.488 93.5391 128.124C93.5391 142.757 105.446 154.664 120.079 154.664C125.814 154.664 131.127 152.829 135.471 149.724L159.46 173.713C160.317 174.57 161.441 175 162.564 175C163.689 175 164.814 174.571 165.671 173.713C167.384 171.998 167.384 169.219 165.671 167.503L165.672 167.503ZM95.8821 128.124C95.8821 114.758 106.715 103.925 120.081 103.925C133.446 103.925 144.279 114.759 144.279 128.124C144.279 141.487 133.446 152.322 120.081 152.322C106.716 152.322 95.8821 141.488 95.8821 128.124Z" fill="white"/>
<path d="M126.176 152.838C126.418 154.284 127.717 155.336 129.207 155.219C130.783 155.096 131.959 153.719 131.836 152.144L131.728 150.754C129.984 151.653 128.126 152.358 126.176 152.837L126.176 152.838Z" fill="white"/>
<path d="M128.863 99.5628C126.869 99.6258 125.291 101.225 125.219 103.188C127.878 103.733 130.38 104.698 132.666 106.002L132.747 103.448C132.749 103.373 132.75 103.286 132.747 103.21C132.682 101.13 130.942 99.4974 128.863 99.563L128.863 99.5628Z" fill="white"/>
<path d="M127.696 138.207C129.684 138.27 131.348 136.708 131.411 134.72L132.207 109.477C129.572 107.761 126.554 106.584 123.305 106.111L124.208 134.718C124.271 136.6 125.787 138.146 127.696 138.206L127.696 138.207Z" fill="white"/>
<path d="M128.092 143.883C126.103 143.728 124.364 145.214 124.208 147.203L123.988 150.021C126.659 149.546 129.166 148.599 131.415 147.263L131.411 147.204C131.275 145.459 129.889 144.024 128.092 143.883L128.092 143.883Z" fill="white"/>
<path d="M109.701 108.405C107.739 109.439 105.95 110.755 104.388 112.303L98.5246 122.461C98.0499 124.269 97.7969 126.166 97.7969 128.123C97.7969 128.414 97.808 128.7 97.8179 128.987L109.701 108.405Z" fill="white"/>
<path d="M92.9004 159.95C90.9191 159.95 89.0729 158.884 88.0836 157.17C87.0924 155.456 87.0924 153.324 88.0836 151.608L96.3403 137.305C95.9614 136.325 95.6395 135.317 95.3805 134.283L86.0552 150.438C84.6483 152.876 84.6483 155.905 86.0552 158.341C87.4621 160.778 90.0853 162.294 92.9004 162.294H145.559L143.218 159.951L92.9006 159.952L92.9004 159.95Z" fill="white"/>
<path d="M171.694 150.083L135.823 87.952C134.414 85.5151 131.793 84 128.979 84C126.162 84 123.541 85.5145 122.133 87.952L113.066 103.656C114.077 103.366 115.11 103.132 116.167 102.969L124.161 89.1222C125.151 87.4071 126.997 86.3418 128.979 86.3418C130.958 86.3418 132.804 87.4079 133.795 89.1222L169.683 151.282L169.718 151.34C170.314 152.246 170.629 153.299 170.629 154.39C170.629 157.456 168.134 159.951 165.066 159.951H160.606L162.948 162.294H165.066C169.425 162.294 172.97 158.748 172.97 154.39C172.97 152.853 172.528 151.364 171.693 150.083L171.694 150.083Z" fill="white"/>
<defs>
<filter id="filter0_d_20073_2382" x="470.671" y="0.942857" width="64.6571" height="62.4176" filterUnits="userSpaceOnUse" color-interpolation-filters="sRGB">
<feFlood flood-opacity="0" result="BackgroundImageFix"/>
<feColorMatrix in="SourceAlpha" type="matrix" values="0 0 0 0 0 0 0 0 0 0 0 0 0 0 0 0 0 0 127 0" result="hardAlpha"/>
<feMorphology radius="0.757143" operator="dilate" in="SourceAlpha" result="effect1_dropShadow_20073_2382"/>
<feOffset dy="2.27143"/>
<feGaussianBlur stdDeviation="3.78571"/>
<feComposite in2="hardAlpha" operator="out"/>
<feColorMatrix type="matrix" values="0 0 0 0 0.27451 0 0 0 0 0.239216 0 0 0 0 0.54902 0 0 0 0.25 0"/>
<feBlend mode="normal" in2="BackgroundImageFix" result="effect1_dropShadow_20073_2382"/>
<feBlend mode="normal" in="SourceGraphic" in2="effect1_dropShadow_20073_2382" result="shape"/>
</filter>
<filter id="filter1_d_20073_2382" x="847.671" y="0.942857" width="64.6571" height="62.4176" filterUnits="userSpaceOnUse" color-interpolation-filters="sRGB">
<feFlood flood-opacity="0" result="BackgroundImageFix"/>
<feColorMatrix in="SourceAlpha" type="matrix" values="0 0 0 0 0 0 0 0 0 0 0 0 0 0 0 0 0 0 127 0" result="hardAlpha"/>
<feMorphology radius="0.757143" operator="dilate" in="SourceAlpha" result="effect1_dropShadow_20073_2382"/>
<feOffset dy="2.27143"/>
<feGaussianBlur stdDeviation="3.78571"/>
<feComposite in2="hardAlpha" operator="out"/>
<feColorMatrix type="matrix" values="0 0 0 0 0.27451 0 0 0 0 0.239216 0 0 0 0 0.54902 0 0 0 0.25 0"/>
<feBlend mode="normal" in2="BackgroundImageFix" result="effect1_dropShadow_20073_2382"/>
<feBlend mode="normal" in="SourceGraphic" in2="effect1_dropShadow_20073_2382" result="shape"/>
</filter>
<filter id="filter2_d_20073_2382" x="98.6714" y="0.942857" width="64.6571" height="62.4176" filterUnits="userSpaceOnUse" color-interpolation-filters="sRGB">
<feFlood flood-opacity="0" result="BackgroundImageFix"/>
<feColorMatrix in="SourceAlpha" type="matrix" values="0 0 0 0 0 0 0 0 0 0 0 0 0 0 0 0 0 0 127 0" result="hardAlpha"/>
<feMorphology radius="0.757143" operator="dilate" in="SourceAlpha" result="effect1_dropShadow_20073_2382"/>
<feOffset dy="2.27143"/>
<feGaussianBlur stdDeviation="3.78571"/>
<feComposite in2="hardAlpha" operator="out"/>
<feColorMatrix type="matrix" values="0 0 0 0 0.27451 0 0 0 0 0.239216 0 0 0 0 0.54902 0 0 0 0.25 0"/>
<feBlend mode="normal" in2="BackgroundImageFix" result="effect1_dropShadow_20073_2382"/>
<feBlend mode="normal" in="SourceGraphic" in2="effect1_dropShadow_20073_2382" result="shape"/>
</filter>
<linearGradient id="paint0_linear_20073_2382" x1="503" y1="65" x2="503" y2="215" gradientUnits="userSpaceOnUse">
<stop stop-color="#32959D"/>
<stop offset="1" stop-color="#036696" stop-opacity="0.8"/>
</linearGradient>
<linearGradient id="paint1_linear_20073_2382" x1="880" y1="65" x2="880" y2="215" gradientUnits="userSpaceOnUse">
<stop stop-color="#32959D"/>
<stop offset="1" stop-color="#036696" stop-opacity="0.8"/>
</linearGradient>
<linearGradient id="paint2_linear_20073_2382" x1="317" y1="126.251" x2="317" y2="154.111" gradientUnits="userSpaceOnUse">
<stop stop-color="#32959D"/>
<stop offset="1" stop-color="#036696" stop-opacity="0.8"/>
</linearGradient>
<linearGradient id="paint3_linear_20073_2382" x1="691.5" y1="126" x2="691.5" y2="154.488" gradientUnits="userSpaceOnUse">
<stop stop-color="#32959D"/>
<stop offset="1" stop-color="#036696" stop-opacity="0.8"/>
</linearGradient>
<linearGradient id="paint4_linear_20073_2382" x1="129" y1="54" x2="129" y2="204" gradientUnits="userSpaceOnUse">
<stop stop-color="#32959D"/>
<stop offset="1" stop-color="#036696" stop-opacity="0.8"/>
</linearGradient>
</defs>
</svg>
