<svg width="40" height="40" viewBox="0 0 40 40" fill="none" xmlns="http://www.w3.org/2000/svg">
<path d="M39.8761 38.1917L36.2968 30.3597C38.2759 27.2859 39.4129 23.6223 39.4129 19.7064C39.4129 8.80052 30.5702 7.31586e-09 19.7064 7.31586e-09C8.84263 -0.000293694 0 8.84263 0 19.7057C0 30.6116 8.84263 39.4121 19.7064 39.4121C23.6223 39.4121 27.2858 38.2751 30.3597 36.2961L38.1917 39.8754C39.2447 40.3809 40.3814 39.2442 39.8762 38.1914L39.8761 38.1917ZM16.1274 23.8751C15.6221 24.6752 15.0747 25.391 14.4851 26.0225C14.2746 26.2331 13.9377 26.2331 13.7274 26.0225L12.3378 24.5909C12.1695 24.3803 12.1695 24.0857 12.3378 23.9171C12.4641 23.7908 12.5484 23.6645 12.6747 23.4959C13.3062 22.6539 13.98 21.3906 14.1063 20.2536C13.2642 20.2116 12.2535 20.043 11.664 19.3272C11.0745 18.6114 10.7377 17.7693 10.7377 16.885C10.7377 15.9586 11.1166 15.1164 11.8324 14.3583C12.5482 13.6005 13.4326 13.2636 14.401 13.2636C15.3694 13.2636 16.2538 13.6425 16.9695 14.4426C17.7273 15.2004 18.0643 16.2531 18.0643 17.4744C18.1066 19.6223 17.4748 21.7277 16.1275 23.8751L16.1274 23.8751ZM26.6543 23.8751C26.1491 24.6752 25.6016 25.391 25.0121 26.0225C24.8015 26.2331 24.4646 26.2331 24.2543 26.0225L22.8647 24.5909C22.6964 24.3803 22.6964 24.0857 22.8647 23.9171C22.991 23.7908 23.0753 23.6645 23.2016 23.4959C23.8331 22.6539 24.5069 21.3906 24.6332 20.2536C23.7912 20.2116 22.7804 20.043 22.191 19.3272C21.6015 18.6114 21.2646 17.7693 21.2646 16.885C21.2646 15.9586 21.6435 15.1164 22.3593 14.3583C23.0751 13.6005 23.9595 13.2636 24.9279 13.2636C25.8963 13.2636 26.7807 13.6425 27.4965 14.4426C28.2543 15.2004 28.5912 16.2531 28.5912 17.4744C28.6755 19.6223 28.0017 21.7277 26.6544 23.8751L26.6543 23.8751Z" fill="url(#paint0_linear_18057_1977)"/>
<defs>
<linearGradient id="paint0_linear_18057_1977" x1="20" y1="0" x2="20" y2="39.9993" gradientUnits="userSpaceOnUse">
<stop stop-color="#32959D"/>
<stop offset="1" stop-color="#036696" stop-opacity="0.8"/>
</linearGradient>
</defs>
</svg>
