<svg width="38" height="36" viewBox="0 0 38 36" fill="none" xmlns="http://www.w3.org/2000/svg">
<path d="M19 3.70752C19.3106 3.70752 19.5625 3.46505 19.5625 3.16602V1.5415C19.5625 1.24247 19.3106 1 19 1C18.6894 1 18.4375 1.24247 18.4375 1.5415V3.16602C18.4375 3.46505 18.6894 3.70752 19 3.70752Z" fill="#043953" stroke="#043953" stroke-width="0.5"/>
<path d="M19 32.9456C18.6894 32.9456 18.4375 33.188 18.4375 33.487V35.1112C18.4375 35.4102 18.6894 35.6526 19 35.6526C19.3106 35.6526 19.5625 35.4102 19.5625 35.1112V33.487C19.5625 33.188 19.3106 32.9456 19 32.9456Z" fill="#043953" stroke="#043953" stroke-width="0.5"/>
<path d="M36.4375 17.7849H34.75C34.4394 17.7849 34.1875 18.0274 34.1875 18.3264C34.1875 18.6254 34.4394 18.8679 34.75 18.8679H36.4375C36.7481 18.8679 37 18.6254 37 18.3264C37 18.0274 36.7481 17.7849 36.4375 17.7849Z" fill="#043953" stroke="#043953" stroke-width="0.5"/>
<path d="M3.25 17.7849H1.5625C1.25187 17.7849 1 18.0274 1 18.3264C1 18.6254 1.25187 18.8679 1.5625 18.8679H3.25C3.56063 18.8679 3.8125 18.6254 3.8125 18.3264C3.8125 18.0274 3.56063 17.7849 3.25 17.7849Z" fill="#043953" stroke="#043953" stroke-width="0.5"/>
<path d="M7.46328 7.98962C7.57302 8.09525 7.71716 8.14819 7.86105 8.14819C8.00494 8.14819 8.14883 8.09525 8.25882 7.98962C8.47855 7.7781 8.47855 7.43533 8.25882 7.22406L7.06554 6.07539C6.84607 5.86387 6.48999 5.86387 6.27026 6.07539C6.05054 6.2869 6.05053 6.62967 6.27026 6.84094L7.46328 7.98962Z" fill="#043953" stroke="#043953" stroke-width="0.5"/>
<path d="M7.46357 28.6639L6.2703 29.8124C6.05057 30.0237 6.05057 30.3665 6.27005 30.578C6.37978 30.6836 6.52392 30.7366 6.66781 30.7366C6.8117 30.7366 6.95559 30.6836 7.06558 30.578L8.25885 29.4295C8.47858 29.2182 8.47858 28.8752 8.2591 28.6639C8.03987 28.4526 7.6838 28.4524 7.46357 28.6639Z" fill="#043953" stroke="#043953" stroke-width="0.5"/>
<path d="M30.1368 8.14819C30.2807 8.14819 30.4248 8.09525 30.5345 7.98962L31.7278 6.84094C31.9475 6.62943 31.9475 6.2869 31.7278 6.07539C31.5083 5.86387 31.1518 5.86387 30.9323 6.07539L29.739 7.22406C29.5193 7.43558 29.5193 7.77835 29.739 7.98962C29.8487 8.09525 29.9929 8.14819 30.1368 8.14819Z" fill="#043953" stroke="#043953" stroke-width="0.5"/>
<path d="M30.0901 26.0432C29.9894 25.9359 29.8477 25.8719 29.6976 25.8656C29.5552 25.8627 29.4138 25.9069 29.3053 25.9968L28.0613 24.7425C29.4361 22.9464 30.25 20.7281 30.25 18.3257C30.25 12.3449 25.2133 7.49683 19 7.49683C12.7867 7.49683 7.75 12.3449 7.75 18.3257C7.75 24.3064 12.7867 29.1545 19 29.1545C21.244 29.1545 23.3325 28.5198 25.0875 27.4299L26.3155 28.667L26.2173 28.7521L26.2239 28.7591C26.0503 28.9631 26.0513 29.2628 26.2404 29.4637L31.5556 35.1181C31.8888 35.4624 32.3494 35.6519 32.8529 35.6519H32.8531C33.3385 35.6519 33.8076 35.474 34.174 35.1505L35.2385 34.2117C35.6225 33.8733 35.854 33.4008 35.8736 32.9156C35.8922 32.4603 35.7282 32.0302 35.4183 31.7112L30.0901 26.0432ZM8.87514 18.3263C8.87514 12.9522 13.417 8.58033 19.0001 8.58033C24.5832 8.58033 29.1251 12.9522 29.1251 18.3263C29.1251 23.7004 24.5832 28.0723 19.0001 28.0723C13.417 28.0723 8.87514 23.7004 8.87514 18.3263ZM26.0105 26.7926C26.4881 26.4257 26.9354 26.0237 27.3452 25.5881L28.5124 26.7648L27.1526 27.9429L26.0105 26.7926ZM34.4788 33.4137L33.4143 34.3527C33.2559 34.4927 33.0565 34.5696 32.8533 34.5696C32.6653 34.5696 32.497 34.5024 32.3848 34.3866L27.4526 29.1397L29.6744 27.2147L34.5903 32.4447C34.7304 32.5892 34.7545 32.758 34.7497 32.874C34.7417 33.0724 34.643 33.2692 34.4788 33.4137L34.4788 33.4137Z" fill="#043953" stroke="#043953" stroke-width="0.5"/>
<path d="M19 10.2048C14.3401 10.2048 10.5625 13.841 10.5625 18.3264C10.5625 22.8119 14.3401 26.448 19 26.448C23.6599 26.448 27.4375 22.8119 27.4375 18.3264C27.4375 13.841 23.6599 10.2048 19 10.2048ZM19 25.3651C14.9678 25.3651 11.6875 22.2074 11.6875 18.3264C11.6875 14.4452 14.9678 11.2877 19 11.2877C23.0322 11.2877 26.3125 14.4452 26.3125 18.3264C26.3125 22.2074 23.0322 25.3651 19 25.3651Z" fill="#043953" stroke="#043953" stroke-width="0.5"/>
<path d="M22.7298 14.3043L17.4174 16.3373C17.2878 16.3869 17.1821 16.4809 17.1206 16.6013L14.558 21.607C14.455 21.8078 14.4914 22.049 14.6494 22.2134C14.7579 22.3265 14.9085 22.3875 15.0627 22.3875C15.1325 22.3875 15.2028 22.3751 15.2704 22.349L20.583 20.3164C20.7126 20.2669 20.8183 20.1728 20.8799 20.0525L23.4422 15.0464C23.5452 14.8455 23.5088 14.6043 23.3508 14.4396C23.1929 14.2753 22.946 14.2209 22.7298 14.3043V14.3043ZM17.7266 17.8667L19.4939 19.5678L16.2131 20.823L17.7266 17.8667ZM20.2734 18.7869L18.5063 17.0857L21.7869 15.8305L20.2734 18.7869Z" fill="#043953" stroke="#043953" stroke-width="0.5"/>
</svg>
