<svg width="18" height="23" viewBox="0 0 18 23" fill="none" xmlns="http://www.w3.org/2000/svg">
<path d="M17.973 9.44106C17.7329 7.07954 15.739 5.23712 13.3145 5.23712C12.2948 5.23712 11.3532 5.56533 10.5843 6.1185C11.5508 7.58248 12.1149 9.33541 12.1149 11.2206C12.1149 14.8809 9.99399 18.0451 6.91406 19.5537C7.77737 20.3731 8.52344 21.2006 8.99607 22.0889C11.0144 18.2944 17.9967 15.609 17.9967 9.91951C17.9968 9.75807 17.9886 9.59853 17.9726 9.44106H17.973Z" fill="#01818C"/>
<path d="M4.68256 5.23683C2.25789 5.23683 0.263782 7.07924 0.024096 9.44077C0.00808987 9.59825 0 9.7578 0 9.91975C0 13.35 2.53808 15.6881 4.99641 17.836C7.78457 16.9295 9.80071 14.3114 9.80071 11.2208C9.7718 10.3476 9.77868 9.88578 9.00076 8.10584C8.22266 6.32591 6.62601 5.23679 4.68287 5.23679L4.68256 5.23683Z" fill="#01818C"/>
<path d="M6.69712 2.08303C6.69712 3.23339 5.76464 4.16587 4.61428 4.16587C3.46391 4.16587 2.53125 3.23339 2.53125 2.08303C2.53125 0.932663 3.46391 0 4.61428 0C5.76464 0 6.69712 0.932663 6.69712 2.08303Z" fill="#01818C"/>
<path d="M15.9823 2.08303C15.9823 3.23339 15.0498 4.16587 13.8994 4.16587C12.7491 4.16587 11.8164 3.23339 11.8164 2.08303C11.8164 0.932663 12.7491 0 13.8994 0C15.0498 0 15.9823 0.932663 15.9823 2.08303Z" fill="#01818C"/>
</svg>
