<svg width="28" height="37" viewBox="0 0 28 37" fill="none" xmlns="http://www.w3.org/2000/svg">
<path d="M5.73047 10.3255C5.73047 11.8518 6.96776 13.0891 8.494 13.0891C10.0205 13.0891 11.2575 11.8518 11.2575 10.3255C11.2575 8.7993 10.0205 7.56201 8.494 7.56201C6.96776 7.56201 5.73047 8.7993 5.73047 10.3255ZM8.49374 12.3519C7.76531 12.3519 7.12724 11.9642 6.76987 11.3857H10.2173C9.86048 11.9642 9.22237 12.3519 8.49368 12.3519H8.49374Z" fill="#043953"/>
<path d="M17.418 35.4246C17.418 36.1029 17.9678 36.6529 18.6463 36.6529C19.3246 36.6529 19.8746 36.1031 19.8746 35.4246V29.3498C18.9337 29.3383 18.1139 29.2489 17.4182 29.124L17.418 35.4246Z" fill="#043953"/>
<path d="M20.2773 35.4245C20.2773 36.1028 20.8271 36.6528 21.5057 36.6528C22.1834 36.6528 22.734 36.1031 22.734 35.4245V29.124C22.0383 29.2489 21.2185 29.3383 20.2776 29.3498L20.2773 35.4245Z" fill="#043953"/>
<path d="M23.2059 15.2533C22.6804 14.917 22.2637 14.813 22.0799 14.7816C21.8695 14.7291 20.9799 14.5207 20.0764 14.5207C19.1728 14.5207 18.2832 14.7288 18.0728 14.7816C17.889 14.8128 17.4723 14.917 16.9468 15.2533C16.1933 15.7352 15.2153 16.6959 14.3763 18.6071C14.0686 16.7166 13.4871 15.3616 12.6332 14.5595C11.9424 13.9104 11.2677 13.8 10.9227 13.7924C10.9038 13.7913 10.8849 13.7896 10.8657 13.7896H6.12081C6.10136 13.7896 6.08242 13.7913 6.06348 13.7926C5.75173 13.8003 5.16711 13.8924 4.54673 14.3913C3.4382 15.2825 2.74175 17.0399 2.47585 19.6155C2.31819 19.6746 2.0328 19.7059 1.69979 19.7082L1.70337 19.6859L1.58179 19.0519C1.57846 18.8999 1.45151 18.7783 1.29948 18.7816C1.14744 18.7849 1.02586 18.9119 1.02919 19.0639L1.14719 19.6869C0.965973 19.6723 0.783476 19.6501 0.609431 19.6199C0.0747437 19.5262 -0.265443 21.4612 0.26876 21.5554C0.521642 21.5999 1.04889 21.6775 1.64476 21.6775C2.36657 21.6775 3.1889 21.5638 3.74637 21.1395C4.13952 20.8405 4.37167 20.4277 4.41799 19.9459C4.56721 18.3908 4.86207 17.3841 5.17178 16.748V35.1753C5.17178 36.0141 5.85185 36.6936 6.6901 36.6936C7.52861 36.6936 8.20868 36.0141 8.20868 35.1753V24.088H8.77792V35.1753C8.77792 36.0141 9.45799 36.6936 10.2962 36.6936C11.1347 36.6936 11.8148 36.0141 11.8148 35.1753L11.8153 16.7487C12.3643 17.8908 12.8535 20.1913 12.6008 24.5067C12.5691 25.0483 12.9825 25.5131 13.5243 25.5449C13.5438 25.5462 13.5632 25.5467 13.5827 25.5467C14.0989 25.5467 14.532 25.1438 14.5627 24.6214C14.5773 24.3713 14.5891 24.1267 14.5993 23.8848C15.0122 21.1607 15.6736 19.4156 16.3272 18.3007C16.5087 17.9912 16.6894 17.7307 16.864 17.5108L14.7547 27.8786C14.7547 27.8786 16.5986 28.9841 20.0767 28.9841C23.5549 28.9841 25.3991 27.8786 25.3991 27.8786L23.2905 17.5154C23.4653 17.7365 23.6463 17.9991 23.8282 18.3101C24.5259 19.5033 25.2342 21.413 25.6361 24.4611C25.689 24.863 26.032 25.1553 26.4267 25.1553C26.4612 25.1553 26.4965 25.153 26.5319 25.1484C26.969 25.0905 27.2764 24.6897 27.2191 24.2525C26.4331 18.2924 24.4924 16.0765 23.206 15.2535L23.2059 15.2533Z" fill="#043953"/>
<path d="M20.0743 13.9686C21.5327 13.9686 22.7149 12.7864 22.7149 11.3279C22.7149 9.8695 21.5327 8.68726 20.0743 8.68726C18.6158 8.68726 17.4336 9.8695 17.4336 11.3279C17.4336 12.7864 18.6158 13.9686 20.0743 13.9686ZM21.7298 12.427C21.3868 12.9827 20.7741 13.3551 20.0745 13.3551C19.375 13.3551 18.7623 12.983 18.4193 12.427H21.7298Z" fill="#043953"/>
<path d="M11.5854 0.915008C10.8147 1.33349 10.8994 2.05499 10.8994 2.05499C10.8994 2.05499 10.3402 1.59095 9.56975 2.00918C8.79854 2.42766 7.49088 4.8267 12.6376 5.25667C15.0801 0.706628 12.356 0.496493 11.5853 0.914928L11.5854 0.915008Z" fill="#043953"/>
<path d="M19.8772 0.689565C19.0886 0.457669 18.6486 0.946287 18.5961 1.00823C18.5859 0.927855 18.4832 0.278226 17.6957 0.0430604C16.8549 -0.208027 14.2324 0.557783 17.5585 4.50864C22.5007 3.00847 20.719 0.937068 19.8772 0.689584L19.8772 0.689565Z" fill="#043953"/>
<path d="M15.9089 6.74886C15.3813 6.50903 15.0348 6.84075 15.0348 6.84075C15.0348 6.84075 15.057 6.36135 14.5298 6.12129C14.0023 5.88121 12.217 6.14612 14.0381 9.03095C17.4092 8.5088 16.4361 6.98896 15.9089 6.74888L15.9089 6.74886Z" fill="#043953"/>
</svg>
