<svg width="375" height="910" viewBox="0 0 375 910" fill="none" xmlns="http://www.w3.org/2000/svg">
<path fill-rule="evenodd" clip-rule="evenodd" d="M375 0L362.5 4.85C350 9.7 325 19.4 300 33.95C294.645 37.0665 289.29 40.4054 283.936 43.7444C264.29 55.9943 244.645 68.2441 225 69.5066C212.5 70.3705 200 66.7102 187.5 63.05C175 59.3898 162.5 55.7295 150 56.5934C134.714 57.5758 119.427 65.2108 104.141 72.8458C94.4271 77.6973 84.7135 82.5488 75 85.6934C50 93.6656 25 90.6344 12.5 88.9066L0 87.3V97H0.999986V829H0V910L12.5 896.489L13.1811 895.76C25.8923 882.142 50.4462 855.836 75 852.636C89.5898 850.66 104.18 856.734 118.77 862.808C129.18 867.142 139.59 871.476 150 872.886C171.089 875.635 192.177 866.609 213.266 857.583C217.177 855.909 221.089 854.234 225 852.636C248.527 843.196 272.054 836.475 295.581 833H375V829V97V0Z" fill="#EBF7FC"/>
</svg>
