<svg width="1152" height="910" viewBox="0 0 1152 910" fill="none" xmlns="http://www.w3.org/2000/svg">
<path fill-rule="evenodd" clip-rule="evenodd" d="M1153 0L1114.53 4.85C1076.07 9.7 999.133 19.4 922.2 33.95C905.722 37.0665 889.243 40.4054 872.765 43.7444C812.31 55.9943 751.855 68.2441 691.4 69.5066C652.933 70.3705 614.467 66.7102 576 63.05C537.533 59.3898 499.067 55.7295 460.6 56.5934C413.558 57.5758 366.517 65.2108 319.475 72.8458L319.475 72.8458C289.583 77.6973 259.692 82.5488 229.8 85.6934C152.867 93.6656 75.9333 90.6344 37.4667 88.9066L-1 87.3V97H0V794V910L38.4 890.652C39.0852 890.31 39.7826 889.961 40.492 889.607C79.5406 870.105 154.97 832.432 230.4 827.848C275.22 825.019 320.04 833.718 364.86 842.416C396.84 848.623 428.82 854.83 460.8 856.848C525.584 860.785 590.369 847.859 655.153 834.933C667.169 832.536 679.184 830.138 691.2 827.848C768 813.484 844.8 803.516 921.6 798.848C998.4 794 1075.2 794 1113.6 794H1152V97H1153V0Z" fill="#EBF7FC"/>
</svg>
