<svg width="242" height="238" viewBox="0 0 242 238" fill="none" xmlns="http://www.w3.org/2000/svg">
<path d="M43.9349 79.8936L39.4297 71.9569C42.2135 67.4377 43.2062 62.0406 42.2127 56.8266C41.2192 51.6126 38.3114 46.9588 34.0607 43.7799C29.8101 40.601 24.5242 39.127 19.242 39.6477C13.9598 40.1683 9.06331 42.6459 5.5151 46.5935C1.9669 50.541 0.0235721 55.673 0.0671227 60.9806C0.110673 66.2883 2.13795 71.3877 5.75045 75.2765C9.36296 79.1653 14.2994 81.5622 19.5895 81.9961C24.8795 82.43 30.1405 80.8694 34.3384 77.6213L43.9349 79.8936Z" fill="#FAFAFA"/>
<path d="M43.9324 79.8936L34.3162 77.72H34.2174L34.2766 77.641L34.3689 77.7332C33.0224 78.7807 31.5566 79.6651 30.002 80.3678C28.151 81.1978 26.1901 81.7568 24.1796 82.0276C23.0673 82.1849 21.9431 82.2423 20.8205 82.1988C20.2409 82.1659 19.6482 82.1527 19.0554 82.1L17.2639 81.83C11.9159 80.7873 7.16838 77.7408 3.99218 73.3137C2.22572 70.8645 1.00196 68.0667 0.402565 65.107C-0.213687 61.9581 -0.121442 58.7116 0.672609 55.6027C1.47397 52.3712 3.03417 49.3772 5.22384 46.8691L6.09325 45.9141C6.37647 45.5979 6.7519 45.3279 7.02853 45.0381C7.30516 44.7483 7.64107 44.4453 7.99015 44.195L8.99787 43.4705C9.32995 43.21 9.68235 42.9766 10.0517 42.7724L11.1253 42.1137L12.2582 41.567C12.6269 41.374 13.0074 41.2046 13.3976 41.0599C16.4205 39.8657 19.6731 39.366 22.915 39.5977C25.9708 39.8063 28.9445 40.6783 31.6289 42.1532C36.4535 44.8445 40.0625 49.2833 41.7127 54.5555C42.3685 56.7985 42.6795 59.1282 42.6348 61.4647C42.5287 65.1966 41.4331 68.8334 39.4602 72.003V71.9371L43.906 79.9067L39.3482 72.003V71.9701V71.9371C40.2204 70.5073 40.9212 68.9797 41.4361 67.3859C42.0547 65.4686 42.3941 63.4721 42.4438 61.4581C42.4814 59.1427 42.166 56.8352 41.5086 54.6148C39.8642 49.4017 36.2867 45.0158 31.5103 42.3574C28.8496 40.8903 25.9003 40.0226 22.8689 39.815C19.6644 39.5917 16.4506 40.0891 13.4635 41.2707C13.0787 41.4157 12.7027 41.5828 12.3372 41.7712L11.2241 42.3113L10.1637 42.97C9.80155 43.1767 9.45387 43.4077 9.12302 43.6615L8.11529 44.4124C7.7728 44.6561 7.45664 44.9656 7.16025 45.2423C6.86386 45.5189 6.50161 45.7955 6.23815 46.1117L5.38192 47.0535C3.22004 49.5326 1.67818 52.4899 0.883375 55.6818C0.132729 58.7356 0.0607846 61.9169 0.672609 65.0016C1.25636 67.9244 2.45775 70.6887 4.19636 73.1095C7.33145 77.494 12.0219 80.5165 17.31 81.5599L19.0817 81.8366C19.6745 81.8892 20.2541 81.9024 20.8271 81.9353C21.9403 81.9822 23.0555 81.9315 24.1599 81.7839C26.1551 81.5198 28.1025 80.972 29.9428 80.157C31.4907 79.4658 32.952 78.5947 34.2964 77.5619L34.6916 77.2656L34.3886 77.6542L34.3491 77.5488L43.9324 79.8936Z" fill="#263238"/>
<path d="M15.3637 60.8324C15.365 61.2594 15.2397 61.6772 15.0037 62.0331C14.7677 62.3889 14.4315 62.6668 14.0376 62.8317C13.6438 62.9966 13.2099 63.0411 12.7907 62.9596C12.3716 62.878 11.986 62.6741 11.6827 62.3735C11.3794 62.073 11.172 61.6893 11.0866 61.2709C11.0012 60.8525 11.0417 60.4182 11.203 60.0229C11.3643 59.6275 11.6392 59.2888 11.9928 59.0496C12.3465 58.8103 12.7632 58.6813 13.1901 58.6786C13.4746 58.676 13.7568 58.7298 14.0204 58.8369C14.284 58.944 14.5238 59.1022 14.7259 59.3024C14.928 59.5027 15.0884 59.741 15.1979 60.0036C15.3073 60.2662 15.3637 60.5479 15.3637 60.8324Z" fill="#263238"/>
<path d="M23.9926 60.8324C23.9939 61.26 23.8683 61.6783 23.6317 62.0344C23.3951 62.3906 23.0582 62.6685 22.6635 62.833C22.2689 62.9975 21.8343 63.0413 21.4148 62.9587C20.9953 62.876 20.6098 62.6708 20.307 62.3689C20.0042 62.0671 19.7978 61.6821 19.7139 61.2629C19.63 60.8436 19.6724 60.4089 19.8357 60.0138C19.999 59.6187 20.2759 59.2809 20.6313 59.0432C20.9867 58.8055 21.4047 58.6787 21.8322 58.6786C22.404 58.6786 22.9525 58.9054 23.3575 59.3091C23.7625 59.7128 23.9908 60.2606 23.9926 60.8324Z" fill="#263238"/>
<path d="M32.5985 59.7588C32.8109 60.1279 32.9092 60.5516 32.8809 60.9765C32.8526 61.4014 32.699 61.8083 32.4394 62.1459C32.1799 62.4835 31.8261 62.7366 31.4228 62.8732C31.0195 63.0098 30.5847 63.0238 30.1735 62.9134C29.7622 62.803 29.3929 62.5732 29.1122 62.2529C28.8315 61.9327 28.6521 61.5365 28.5965 61.1143C28.541 60.6921 28.6118 60.2629 28.8001 59.881C28.9884 59.4991 29.2857 59.1815 29.6544 58.9685C29.8995 58.8268 30.1702 58.7349 30.4509 58.6979C30.7316 58.661 31.0169 58.6798 31.2903 58.7532C31.5638 58.8266 31.8201 58.9532 32.0445 59.1258C32.269 59.2983 32.4573 59.5134 32.5985 59.7588Z" fill="#263238"/>
<g opacity="0.3">
<path opacity="0.3" d="M235.335 196.763C231.311 192.482 225.231 190.888 219.448 189.867C198.43 186.157 176.842 187.308 156.337 193.233L151.727 193.891C159.828 204.93 166.658 214.138 178.072 221.746C189.487 229.353 203.562 233.687 217.005 231.105C224.803 229.61 232.41 225.559 236.626 218.828C240.841 212.096 240.795 202.546 235.335 196.763Z" fill="black"/>
</g>
<path d="M192.525 121.23L172.608 130.951L165.126 113.115C165.126 113.115 163.551 113.543 159.679 106.101C155.806 98.6581 149.055 86.1043 149.055 86.1043C152.551 82.0486 157.035 78.9644 162.073 77.1504C167.111 75.3364 172.532 74.8542 177.811 75.7504L179.392 76.0271L192.525 121.23Z" fill="#FFBE9D"/>
<path d="M181.59 86.4665C181.695 86.348 186.154 82.2578 188.565 87.4677C190.976 92.6776 185.067 94.12 184.988 93.9751C184.909 93.8302 181.59 86.4665 181.59 86.4665Z" fill="#FFBE9D"/>
<path d="M156.137 97.9401C155.978 97.9401 150.63 99.0993 153.377 104.138C156.123 109.177 160.8 105.291 160.734 105.139C160.668 104.988 156.137 97.9401 156.137 97.9401Z" fill="#FFBE9D"/>
<path d="M183.02 85.0307C184.39 89.7202 185.655 91.9004 186.392 95.1343C187.512 100.252 186.933 104.909 183.837 109.302C180.741 113.695 175.004 116.547 169.814 115.289C166.212 114.413 163.228 112.898 161.212 109.862C159.197 106.825 155.943 101.299 154.31 98.0784C151.326 92.256 148.105 86.8815 148.105 86.8815L163.913 75.151L176.605 75.8426L183.02 85.0307Z" fill="#263238"/>
<path d="M176.388 116.297C176.421 116.428 177.949 116.066 179.549 115.025C181.15 113.985 182.111 112.76 182.006 112.674C181.901 112.588 180.807 113.603 179.266 114.591C177.725 115.579 176.342 116.171 176.388 116.297Z" fill="#263238"/>
<path d="M185.861 92.75C184.155 88.0934 181.948 82.8704 180.328 77.9042C179.722 76.0271 179.096 73.1949 178.056 71.5285C177.015 69.8621 175.928 68.1299 174.328 66.918C173.292 66.1777 172.104 65.6792 170.85 65.4592C169.596 65.2391 168.309 65.3033 167.083 65.6468C165.85 66.0025 164.71 66.6245 163.744 67.469C162.778 68.3135 162.009 69.3597 161.491 70.534C160.366 69.9629 159.101 69.727 157.845 69.8543C156.59 69.9816 155.398 70.4667 154.41 71.2519C153.455 72.0535 152.758 73.1194 152.407 74.3158C152.055 75.5122 152.065 76.7857 152.435 77.9766C151.515 77.7417 150.544 77.7965 149.657 78.1337C148.769 78.4708 148.007 79.0739 147.475 79.8604C146.978 80.6453 146.751 81.5706 146.827 82.4964C146.903 83.4221 147.278 84.2979 147.896 84.9912C147.333 85.4019 146.877 85.9428 146.567 86.5678C146.257 87.1929 146.103 87.8834 146.118 88.5808C146.151 89.2648 146.356 89.9294 146.714 90.5131C147.072 91.0968 147.572 91.5808 148.167 91.9201C149.569 92.7105 151.341 92.6381 152.777 93.3296C153.606 93.7347 154.296 94.3777 154.758 95.1767C155.221 95.9756 155.434 96.8941 155.372 97.815" fill="#263238"/>
<path d="M153.828 88.9496C153.828 88.9496 153.947 89.1209 154.263 89.3382C154.733 89.6422 155.263 89.84 155.817 89.9179C156.707 90.0573 157.618 89.9023 158.412 89.4766C158.928 89.2026 159.383 88.8285 159.752 88.376C160.121 87.9236 160.395 87.402 160.559 86.842L160.145 86.9342C160.575 87.4559 161.133 87.8582 161.764 88.1027C162.394 88.3472 163.077 88.4256 163.747 88.3305C164.509 88.2481 165.239 87.9837 165.876 87.5595C166.514 87.1353 167.039 86.5639 167.409 85.8935C168.081 84.7156 168.36 83.3546 168.206 82.0075L167.811 82.2644C168.572 82.6698 169.417 82.8905 170.278 82.9088C171.14 82.9271 171.994 82.7425 172.771 82.3698C173.384 82.0749 173.933 81.6611 174.386 81.1523C174.838 80.6435 175.184 80.0498 175.405 79.4059C175.702 78.588 175.775 77.7058 175.616 76.8503C175.578 76.5434 175.472 76.2487 175.307 75.9875C175.267 75.9875 175.372 76.3037 175.438 76.8767C175.517 77.7025 175.4 78.5352 175.096 79.3071C174.629 80.4775 173.727 81.4217 172.58 81.9417C171.868 82.2654 171.092 82.4208 170.31 82.3957C169.529 82.3706 168.764 82.1656 168.075 81.7968L167.627 81.5399L167.679 82.0536C167.81 83.2879 167.549 84.5319 166.935 85.6103C166.612 86.2082 166.149 86.7192 165.586 87.0999C165.023 87.4806 164.376 87.7197 163.701 87.797C163.115 87.8887 162.514 87.8298 161.957 87.6259C161.399 87.422 160.902 87.0797 160.513 86.6312L160.224 86.2426L160.098 86.7168C159.82 87.7421 159.148 88.6158 158.228 89.1472C157.508 89.5596 156.676 89.7348 155.85 89.6478C155.136 89.5558 154.447 89.3182 153.828 88.9496Z" fill="#455A64"/>
<path d="M152.843 86.9012C152.606 86.1823 152.536 85.4185 152.639 84.6684C152.791 83.8506 153.224 83.1118 153.864 82.5805C154.262 82.2514 154.724 82.0074 155.22 81.8635C155.716 81.7196 156.237 81.679 156.749 81.7441L157.316 81.8231L157.019 81.3423C156.728 80.8656 156.538 80.3343 156.459 79.7813C156.371 79.1715 156.407 78.5501 156.565 77.9546C156.724 77.3591 157.002 76.802 157.381 76.3168C158.043 75.5186 158.951 74.9626 159.963 74.7361C160.913 74.5491 161.892 74.5783 162.828 74.8217C162.621 74.648 162.375 74.5281 162.11 74.4726C161.389 74.2624 160.629 74.2263 159.891 74.3672C158.641 74.582 157.526 75.28 156.786 76.3103C156.047 77.3407 155.742 78.6206 155.939 79.8735C156.032 80.4975 156.257 81.0947 156.598 81.6255L156.868 81.2303C156.278 81.157 155.68 81.2095 155.112 81.3844C154.545 81.5592 154.02 81.8524 153.574 82.2446C152.867 82.8577 152.414 83.7126 152.303 84.6421C152.226 85.2302 152.299 85.8282 152.514 86.3809C152.666 86.7498 152.817 86.921 152.843 86.9012Z" fill="#455A64"/>
<path d="M163.947 81.5004C164 81.4345 163.789 81.2171 163.612 80.789C163.388 80.2223 163.311 79.6084 163.388 79.0041C163.462 78.3779 163.567 77.7558 163.704 77.1401C163.842 76.745 164.178 76.8042 164.204 76.7581C164.231 76.712 164.204 76.633 163.987 76.6066C163.858 76.6068 163.731 76.6425 163.621 76.7099C163.51 76.7773 163.42 76.8737 163.361 76.9886C163.23 77.2715 163.128 77.5673 163.058 77.8712C162.958 78.2312 162.89 78.5993 162.854 78.9712C162.763 79.6587 162.912 80.3565 163.276 80.9471C163.579 81.4213 163.914 81.5531 163.947 81.5004Z" fill="#455A64"/>
<path d="M170.973 69.8951C171.012 69.849 170.768 69.4933 170.176 69.1179C169.812 68.8989 169.405 68.7618 168.983 68.7161C168.434 68.6666 167.884 68.811 167.429 69.1245C166.665 69.6895 166.143 70.5223 165.967 71.4561C165.815 72.1147 165.802 72.5363 165.875 72.5494C165.947 72.5626 166.099 72.174 166.329 71.5549C166.583 70.7697 167.07 70.0805 167.725 69.5789C168.061 69.3657 168.447 69.2438 168.844 69.2253C169.242 69.2069 169.637 69.2924 169.991 69.4736C170.577 69.7107 170.913 69.9544 170.973 69.8951Z" fill="#455A64"/>
<path d="M179.205 92.9674C179.344 92.9674 179.686 91.0968 179.39 88.785C179.093 86.4732 178.316 84.7409 178.191 84.8002C178.066 84.8595 178.586 86.6115 178.85 88.8574C179.113 91.1034 179.047 92.9608 179.205 92.9674Z" fill="#455A64"/>
<path d="M177.507 95.3648C177.652 95.3648 177.777 94.0475 177.619 92.3943C177.461 90.7411 177.098 89.4765 176.96 89.5095C176.822 89.5424 176.96 90.8268 177.079 92.4536C177.197 94.0805 177.375 95.3714 177.507 95.3648Z" fill="#455A64"/>
<path d="M163.106 103.051C162.981 103.084 163.811 105.33 165.971 107.253C168.131 109.177 170.476 109.815 170.496 109.684C170.516 109.552 168.388 108.722 166.34 106.858C164.292 104.994 163.257 102.999 163.106 103.051Z" fill="#455A64"/>
<path d="M158.931 100.489C158.793 100.489 159.043 102.656 160.631 104.711C162.218 106.766 164.247 107.616 164.279 107.49C164.312 107.365 162.547 106.358 161.065 104.388C159.583 102.419 159.056 100.443 158.931 100.489Z" fill="#455A64"/>
<path d="M148.598 85.5906C148.598 85.6432 148.342 85.775 148.006 86.1043C147.574 86.5326 147.295 87.0899 147.209 87.6916C147.144 88.2961 147.281 88.905 147.597 89.4239C147.841 89.8256 148.078 90.0232 148.039 90.0825C147.999 90.1418 147.722 89.9771 147.38 89.5753C147.17 89.3077 147.014 89.001 146.923 88.673C146.831 88.345 146.806 88.0022 146.847 87.6643C146.889 87.3264 146.997 87 147.165 86.704C147.334 86.4081 147.559 86.1483 147.828 85.9396C148.263 85.6103 148.585 85.551 148.598 85.5906Z" fill="white"/>
<path d="M151.39 78.8329C151.109 79.0338 150.803 79.1976 150.481 79.3203C149.733 79.6366 149.06 80.1055 148.505 80.6969C148.254 80.9953 148.071 81.3452 147.97 81.7218C147.868 82.0985 147.851 82.4928 147.919 82.877C148.015 83.194 148.153 83.4973 148.327 83.7793C148.327 83.8122 147.899 83.6015 147.668 82.9428C147.556 82.516 147.548 82.0683 147.647 81.6381C147.746 81.2079 147.947 80.808 148.235 80.4729C148.813 79.8406 149.543 79.3667 150.356 79.0963C150.679 78.941 151.031 78.8514 151.39 78.8329Z" fill="white"/>
<path d="M157.527 70.8962C157.527 70.9555 157.052 71.0148 156.348 71.3046C155.435 71.6856 154.641 72.3042 154.049 73.0961C153.47 73.8986 153.119 74.8433 153.035 75.8295C152.969 76.5935 153.035 77.0677 152.995 77.0809C152.824 76.6826 152.754 76.2482 152.791 75.8163C152.809 74.7649 153.152 73.7449 153.774 72.8968C154.395 72.0487 155.265 71.4142 156.262 71.0806C156.66 70.9087 157.096 70.845 157.527 70.8962Z" fill="white"/>
<path d="M166.627 67.2803C166.673 67.3725 165.665 67.9389 164.605 68.8149C163.544 69.6909 162.84 70.6064 162.754 70.5471C163.589 69.005 164.97 67.8305 166.627 67.2539V67.2803Z" fill="white"/>
<path d="M158.033 82.7847C157.68 82.4004 157.435 81.9303 157.321 81.4213C156.944 80.2004 157.015 78.8849 157.521 77.7114C158.026 76.5378 158.934 75.5833 160.081 75.0193C160.534 74.7574 161.046 74.6146 161.57 74.6044C161.57 74.6636 160.997 74.7756 160.193 75.263C159.142 75.8509 158.314 76.7692 157.838 77.8754C157.361 78.9817 157.263 80.2141 157.559 81.3818C157.769 82.2578 158.085 82.7584 158.033 82.7847Z" fill="white"/>
<path d="M167.068 73.8733C166.958 73.2091 167.094 72.5276 167.451 71.9565C167.807 71.3855 168.36 70.964 169.005 70.7711C168.536 71.179 168.112 71.6361 167.74 72.1344C167.457 72.6894 167.232 73.2721 167.068 73.8733Z" fill="white"/>
<path d="M143.693 177.794C144.668 179.164 151.768 198.963 162.794 207.282C173.82 215.6 184.035 220.935 199.862 220.422C215.69 219.908 224.002 215.627 229.897 213.315C245.803 207.064 240.198 194.767 240.198 194.767L212.449 187.786L174.906 167.835C174.906 167.835 161.332 155.031 156.359 153.22C151.386 151.409 144.885 159.253 143.509 166.228C142.132 173.203 143.693 177.794 143.693 177.794Z" fill="#263238"/>
<path d="M167.899 200.57C167.833 200.357 167.802 200.135 167.807 199.911C167.752 199.312 167.73 198.709 167.741 198.107C167.777 194.119 168.693 190.188 170.422 186.594C170.758 185.935 171.08 185.369 171.278 185.013C171.377 184.814 171.503 184.63 171.653 184.466C171.706 184.466 171.252 185.316 170.646 186.699C169.061 190.305 168.167 194.177 168.011 198.113C167.912 199.628 167.958 200.57 167.899 200.57Z" fill="#455A64"/>
<path d="M164.137 191.981C164.352 191.311 164.634 190.665 164.98 190.052C165.753 188.541 166.619 187.08 167.575 185.678C168.53 184.276 169.578 182.938 170.71 181.674C171.155 181.129 171.653 180.63 172.199 180.185C171.797 180.763 171.357 181.313 170.881 181.832C170.058 182.833 168.958 184.242 167.845 185.876C166.732 187.509 165.816 189.037 165.21 190.17C164.892 190.796 164.533 191.401 164.137 191.981Z" fill="#455A64"/>
<path d="M200.33 33.4391L199.369 26.6287C199.369 26.6287 196.365 23.8229 195.654 22.6769C194.942 21.5308 191.34 21.8404 191.34 21.8404L190.306 11.0123C190.306 11.0123 189.838 9.08903 188.093 10.2548C186.347 11.4206 187.256 24.1325 187.256 24.1325L186.848 27.0832C186.848 27.0832 183.403 22.7888 181.453 23.3948C179.504 24.0007 182.112 26.2599 182.54 27.5179C182.968 28.7759 190.615 35.9156 190.615 35.9156L197.294 49.3058H198.71L203.413 52.632L207.99 45.7623L200.33 33.4391Z" fill="#FFBE9D"/>
<path d="M161.188 125.432C161.188 125.432 154.253 129.884 152.013 137.011C150.953 140.37 151.658 154.939 152.725 168.191C152.995 171.53 153.456 184.657 156.077 186.706C156.136 186.752 157.717 188.892 161.636 188.892C168.921 188.892 169.994 184.104 172.174 177.162L171.654 168.863C171.654 168.863 174.605 140.969 173.531 136.142C172.458 131.314 161.188 125.432 161.188 125.432Z" fill="#455A64"/>
<path d="M196.958 101.477L189.37 107.253C189.37 107.253 188.29 115.724 178.364 121.085C175.44 122.6 172.047 122.941 168.88 122.04L161.187 125.425L157.762 151.903L173.714 175.983L175.69 185.204L175.934 188.497C175.334 192.434 175.721 196.458 177.06 200.208C179.293 206.379 181.526 214.204 210.137 214.132C235.126 214.072 241.752 197.81 241.996 195.933C242.239 194.056 235.238 176.332 233.894 171.88C232.551 167.427 218.364 119.234 218.364 119.234L212.666 106.463L196.958 101.477Z" fill="#455A64"/>
<path d="M200.179 66.5294L189.371 107.253L203.565 112.305L210.81 115.829L213.194 103.499C213.194 103.499 218.918 71.8842 218.957 66.6611C219.004 60.0747 203.809 36.2318 203.809 36.2318C203.809 36.2318 195.246 34.9145 192.612 43.4769L200.179 66.5294Z" fill="#455A64"/>
<path d="M198.242 203.962C197.868 203.931 197.498 203.867 197.135 203.771C196.691 203.697 196.251 203.595 195.818 203.468C195.318 203.323 194.745 203.198 194.132 202.961C193.46 202.739 192.801 202.482 192.156 202.19C191.438 201.907 190.72 201.532 189.95 201.13C188.307 200.228 186.741 199.192 185.267 198.034C182.623 195.9 180.234 193.469 178.147 190.789C177.343 189.768 176.717 188.919 176.316 188.313C176.085 188.012 175.88 187.693 175.703 187.358C175.965 187.63 176.205 187.923 176.421 188.234C176.856 188.813 177.508 189.637 178.331 190.638C180.462 193.257 182.859 195.647 185.484 197.771C186.937 198.921 188.478 199.954 190.095 200.86C190.852 201.255 191.563 201.644 192.261 201.94C192.96 202.236 193.612 202.513 194.237 202.744C194.863 202.974 195.41 203.132 195.897 203.29C196.385 203.448 196.813 203.56 197.168 203.646C197.533 203.727 197.891 203.833 198.242 203.962Z" fill="#263238"/>
<path d="M227.189 153.879C227.199 154.015 227.199 154.151 227.189 154.287C227.189 154.59 227.143 154.946 227.11 155.446C227.044 156.461 226.899 157.923 226.695 159.721C226.133 164.411 225.331 169.07 224.291 173.678C223.248 178.286 221.964 182.837 220.444 187.312C219.858 189.024 219.358 190.401 218.989 191.349L218.554 192.429C218.508 192.557 218.451 192.681 218.383 192.798C218.403 192.665 218.438 192.535 218.488 192.41C218.587 192.12 218.706 191.751 218.857 191.303C219.193 190.348 219.661 188.958 220.214 187.233C221.327 183.788 222.736 178.986 223.955 173.605C225.173 168.224 225.977 163.278 226.451 159.688C226.688 157.897 226.866 156.441 226.978 155.44L227.123 154.281C227.127 154.144 227.15 154.009 227.189 153.879Z" fill="#263238"/>
<path d="M221.756 141.714C221.695 142.102 221.605 142.485 221.486 142.86C221.302 143.591 220.992 144.638 220.577 145.929C219.52 149.308 217.966 152.511 215.967 155.433C214.844 157.016 213.639 158.54 212.357 159.998L209.262 163.594L207.154 165.991C206.905 166.296 206.634 166.582 206.344 166.848C206.554 166.516 206.79 166.201 207.048 165.906C207.516 165.313 208.214 164.47 209.077 163.436C209.94 162.402 211 161.17 212.146 159.82C213.292 158.47 214.544 156.948 215.71 155.262C217.677 152.359 219.239 149.201 220.353 145.876C220.788 144.605 221.137 143.571 221.361 142.847C221.459 142.458 221.592 142.079 221.756 141.714Z" fill="#263238"/>
<path d="M163.623 160.031C161.784 160.204 159.936 160.261 158.09 160.202C156.242 160.261 154.392 160.204 152.551 160.031C154.392 159.861 156.242 159.804 158.09 159.859C159.936 159.804 161.784 159.861 163.623 160.031Z" fill="white"/>
<path d="M221.607 128.857L221.448 128.936L220.987 129.134L219.189 129.865C217.628 130.523 215.376 131.419 212.603 132.585C207.05 134.91 199.43 138.282 191.203 142.339C182.977 146.397 175.607 150.296 170.285 153.102L163.975 156.434L162.23 157.324L161.775 157.547C161.727 157.578 161.673 157.601 161.617 157.613C161.617 157.613 161.663 157.574 161.755 157.521L162.197 157.264L163.883 156.316L170.14 152.891C175.409 150.026 182.779 146.094 191.026 142.03C199.272 137.966 206.906 134.633 212.484 132.361C215.277 131.221 217.549 130.339 219.123 129.726L220.941 129.068L221.415 128.903C221.477 128.879 221.541 128.864 221.607 128.857Z" fill="white"/>
<path d="M213.215 101.187C213.016 100.946 212.842 100.686 212.694 100.41C212.385 99.8963 211.924 99.1652 211.377 98.2563C210.83 97.3474 210.06 96.2804 209.184 95.2068C208.24 94.0046 207.154 92.921 205.95 91.9794C203.7 90.3355 201.068 89.2928 198.303 88.9497C197.242 88.8311 196.38 88.7323 195.78 88.7191C195.469 88.714 195.158 88.6832 194.852 88.6269C195.161 88.5793 195.474 88.5638 195.787 88.5808C196.638 88.577 197.489 88.621 198.336 88.7125C201.165 88.9894 203.868 90.0223 206.16 91.7028C207.391 92.6587 208.498 93.765 209.454 94.996C210.229 95.9946 210.946 97.037 211.601 98.118C212.148 99.0401 212.582 99.7975 212.859 100.331C213.005 100.604 213.124 100.891 213.215 101.187Z" fill="white"/>
<path d="M206.114 163.884C206.025 163.958 205.931 164.024 205.83 164.081L204.974 164.588C204.23 165.03 203.13 165.622 201.747 166.327C198.146 168.137 194.417 169.678 190.589 170.938C186.76 172.202 182.844 173.183 178.872 173.875C177.344 174.132 176.106 174.31 175.249 174.402L174.255 174.501C174.247 174.544 174.223 174.583 174.187 174.61C174.152 174.637 174.108 174.649 174.064 174.645C174.02 174.641 173.979 174.621 173.949 174.588C173.919 174.555 173.902 174.512 173.902 174.468C173.902 174.424 173.919 174.381 173.949 174.348C173.979 174.316 174.02 174.295 174.064 174.291C174.108 174.287 174.152 174.299 174.187 174.326C174.223 174.353 174.247 174.392 174.255 174.435L175.236 174.27C176.086 174.139 177.318 173.928 178.833 173.612C186.735 172.107 194.405 169.571 201.648 166.07C203.038 165.412 204.151 164.832 204.941 164.43L205.83 163.976C205.92 163.932 206.015 163.901 206.114 163.884Z" fill="white"/>
<path d="M227.191 149.98C227.191 149.98 227.066 150.157 226.803 150.421C226.539 150.684 226.144 151.08 225.644 151.514C224.346 152.703 222.944 153.772 221.455 154.709C219.95 155.616 218.37 156.392 216.732 157.027C216.074 157.271 215.593 157.455 215.231 157.574C215.052 157.656 214.86 157.705 214.664 157.719C215.301 157.369 215.961 157.063 216.64 156.803C218.227 156.109 219.767 155.313 221.251 154.419C222.718 153.483 224.124 152.454 225.459 151.336C226.005 150.846 226.584 150.392 227.191 149.98Z" fill="white"/>
<path d="M220.929 178.262C220.833 178.366 220.724 178.459 220.606 178.538L219.645 179.27C219.223 179.586 218.709 179.968 218.09 180.383C217.471 180.798 216.773 181.298 215.982 181.792C214.408 182.82 212.485 183.966 210.298 185.145C208.112 186.324 205.635 187.489 202.987 188.589C200.34 189.689 197.751 190.565 195.373 191.296C192.996 192.027 190.822 192.554 188.985 192.93C188.069 193.147 187.226 193.279 186.495 193.417C185.764 193.556 185.125 193.654 184.605 193.72L183.406 193.885C183.266 193.904 183.124 193.904 182.984 193.885C183.12 193.841 183.259 193.808 183.399 193.786L184.585 193.562C185.099 193.477 185.731 193.358 186.455 193.2C187.18 193.042 188.023 192.897 188.932 192.666C190.756 192.258 192.884 191.692 195.281 190.967C197.679 190.243 200.215 189.334 202.862 188.247C205.51 187.16 207.954 185.975 210.147 184.835C212.34 183.696 214.27 182.563 215.851 181.542C216.654 181.061 217.352 180.58 217.978 180.178C218.604 179.777 219.137 179.414 219.565 179.111L220.567 178.453C220.681 178.378 220.803 178.314 220.929 178.262Z" fill="white"/>
<path d="M233.908 171.175C231.098 173.359 228.15 175.359 225.082 177.162C227.892 174.978 230.84 172.978 233.908 171.175Z" fill="white"/>
<path d="M240.191 189.439C240.191 189.439 240.158 189.485 240.073 189.564L239.704 189.913L238.248 191.231L237.194 192.179C236.806 192.521 236.338 192.838 235.877 193.22C234.902 193.938 233.855 194.84 232.551 195.637L230.542 196.954C229.851 197.422 229.067 197.791 228.29 198.239L227.091 198.897C226.686 199.143 226.266 199.363 225.833 199.556L223.152 200.787C215.079 204.267 206.32 205.866 197.537 205.464L194.593 205.26C194.121 205.23 193.65 205.173 193.184 205.088L191.834 204.891C190.944 204.746 190.082 204.68 189.265 204.489L186.927 203.975C185.425 203.692 184.128 203.211 182.975 202.889C182.395 202.704 181.849 202.566 181.368 202.381L180.051 201.874L178.226 201.15L177.752 200.959C177.696 200.94 177.643 200.913 177.594 200.88C177.653 200.887 177.71 200.903 177.765 200.926L178.252 201.09L180.097 201.749L181.414 202.23C181.901 202.401 182.448 202.533 183.028 202.704C184.193 203.014 185.491 203.475 186.979 203.738L189.311 204.226C190.121 204.41 190.984 204.476 191.867 204.608L193.184 204.792C193.646 204.867 194.112 204.915 194.58 204.937L197.511 205.128C206.252 205.499 214.966 203.91 223.014 200.478L225.688 199.266C226.119 199.081 226.539 198.872 226.946 198.64L228.138 197.982C228.915 197.54 229.699 197.178 230.391 196.724L232.406 195.406C233.723 194.629 234.764 193.74 235.745 193.042C236.226 192.673 236.694 192.383 237.063 192.028L238.136 191.105L239.631 189.834L240.027 189.511C240.078 189.48 240.133 189.456 240.191 189.439Z" fill="white"/>
<path d="M210.149 106.812C210.149 106.812 210.149 106.865 210.083 106.964L209.853 107.405C209.635 107.78 209.365 108.367 208.911 109.058C207.68 111.049 206.252 112.911 204.649 114.617C202.268 117.152 199.618 119.42 196.746 121.381C193.243 123.784 189.551 125.898 185.707 127.704C181.623 129.641 177.652 131.274 174.049 132.782C170.446 134.291 167.206 135.667 164.538 136.925C161.871 138.183 159.743 139.277 158.301 140.08C157.57 140.469 157.023 140.805 156.641 141.009L156.206 141.246L156.055 141.318C156.095 141.278 156.142 141.245 156.193 141.22L156.608 140.95C156.977 140.726 157.517 140.37 158.235 139.962C159.657 139.125 161.772 137.986 164.433 136.708C167.094 135.43 170.328 134.014 173.924 132.493C177.52 130.971 181.511 129.344 185.575 127.368C189.403 125.568 193.085 123.471 196.588 121.098C199.447 119.155 202.096 116.919 204.491 114.426C206.098 112.741 207.544 110.911 208.812 108.959C209.286 108.301 209.57 107.708 209.807 107.346L210.064 106.924C210.089 106.885 210.118 106.847 210.149 106.812Z" fill="white"/>
<path d="M217.815 76.554C217.769 76.6001 216.952 75.8163 215.483 74.7559C214.625 74.1315 213.73 73.5596 212.802 73.0434C211.662 72.419 210.48 71.8733 209.265 71.41C207.059 70.5742 204.751 70.0381 202.402 69.816C200.598 69.6514 199.465 69.6975 199.465 69.6316C199.725 69.5806 199.99 69.5542 200.255 69.5526C200.977 69.5081 201.701 69.5081 202.422 69.5526C203.493 69.617 204.558 69.7556 205.61 69.9675C206.899 70.2394 208.167 70.6049 209.404 71.0609C210.623 71.5423 211.805 72.1125 212.941 72.7668C213.872 73.3027 214.765 73.9012 215.615 74.5583C216.193 74.9945 216.743 75.4675 217.261 75.9744C217.469 76.1437 217.655 76.3384 217.815 76.554Z" fill="white"/>
<path d="M213.214 53.0799C213.214 53.1392 212.318 53.1194 210.889 53.2709C209.029 53.4677 207.199 53.8902 205.442 54.5289C203.687 55.1801 202.017 56.0403 200.469 57.091C199.283 57.9012 198.611 58.494 198.572 58.4478C198.532 58.4017 198.71 58.27 199 57.9868C199.419 57.5986 199.859 57.2336 200.317 56.8934C203.389 54.6256 207.046 53.2841 210.856 53.0272C211.428 52.9922 212.002 52.9922 212.575 53.0272C212.789 53.0079 213.005 53.0257 213.214 53.0799Z" fill="white"/>
<path d="M211.836 105.225C211.934 105.346 212.018 105.479 212.086 105.62L212.745 106.792C213.008 107.306 213.311 107.952 213.667 108.696C214.023 109.44 214.378 110.316 214.8 111.265C216.407 115.098 218.363 120.486 220.365 126.519C222.368 132.552 224.027 138.032 225.193 142.017C225.779 143.993 226.234 145.626 226.511 146.746C226.655 147.286 226.767 147.714 226.853 148.063C226.895 148.212 226.928 148.364 226.952 148.517C226.882 148.379 226.826 148.233 226.787 148.083C226.682 147.76 226.55 147.332 226.385 146.805L224.93 142.109C223.705 138.157 221.992 132.664 220.003 126.644C218.014 120.624 216.091 115.23 214.543 111.376C214.141 110.421 213.792 109.545 213.463 108.795C213.133 108.044 212.837 107.411 212.587 106.871L211.994 105.673C211.926 105.529 211.873 105.379 211.836 105.225Z" fill="#263238"/>
<path d="M156.471 148.498C156.471 148.498 156.543 148.583 156.655 148.761L157.136 149.532L158.888 152.39C160.377 154.794 162.511 158.068 164.908 161.657C167.306 165.247 169.466 168.507 170.981 170.878C171.738 172.077 172.338 173.052 172.739 173.73C172.919 174.047 173.071 174.31 173.194 174.521C173.299 174.705 173.345 174.804 173.332 174.811C173.258 174.734 173.191 174.651 173.135 174.56L172.627 173.803L170.79 171.036C169.189 168.646 167.022 165.418 164.638 161.848C162.254 158.279 160.133 154.959 158.71 152.515C157.986 151.297 157.393 150.302 157.051 149.598L156.622 148.794C156.504 148.603 156.458 148.504 156.471 148.498Z" fill="#263238"/>
<path d="M171.52 175.403C171.52 175.502 167.503 175.298 162.556 174.955C157.61 174.613 153.618 174.264 153.625 174.172C153.632 174.079 157.643 174.277 162.583 174.619C167.522 174.962 171.527 175.311 171.52 175.403Z" fill="white"/>
<g opacity="0.3">
<path opacity="0.3" d="M208.062 164.582V164.707L199.77 174.04C205.197 171.985 209.941 168.454 213.468 163.845C216.994 159.236 219.162 153.733 219.726 147.958C216.579 153.984 212.658 159.572 208.062 164.582Z" fill="black"/>
</g>
<g opacity="0.3">
<path opacity="0.3" d="M198.241 203.962C190.956 202.559 183.164 196.513 178.172 191.026C182.183 198.186 189.125 204.588 197.022 206.834C205.029 209.039 213.581 208.02 220.845 203.995C213.423 204.845 205.525 205.372 198.241 203.962Z" fill="black"/>
</g>
<path d="M213.036 62.9266C213.036 62.9793 212.437 62.9266 211.489 62.9859C210.259 63.0733 209.051 63.358 207.912 63.829C206.778 64.3149 205.73 64.9822 204.81 65.8049C204.099 66.4635 203.73 66.9048 203.684 66.8653C203.924 66.3995 204.247 65.982 204.639 65.6337C205.54 64.7353 206.607 64.0196 207.78 63.526C208.954 63.0351 210.21 62.7735 211.482 62.7554C212.006 62.7142 212.534 62.7723 213.036 62.9266Z" fill="#263238"/>
<path d="M143.317 99.9862C143.317 100.019 143.021 99.8611 142.718 99.4527C142.336 98.9113 142.148 98.2569 142.184 97.5954C142.235 96.9378 142.51 96.3175 142.961 95.8368C143.304 95.4679 143.62 95.3428 143.62 95.3757C143.62 95.4087 143.416 95.6128 143.152 95.9883C142.801 96.4722 142.594 97.0451 142.553 97.6415C142.526 98.2385 142.665 98.8313 142.955 99.3539C143.146 99.7359 143.356 99.9467 143.317 99.9862Z" fill="white"/>
<path d="M175.674 82.3412C175.274 82.0007 174.779 81.7916 174.256 81.7421C173.733 81.6927 173.207 81.8052 172.75 82.0645C172.75 82.0316 172.822 81.8538 173.086 81.6759C173.446 81.4531 173.87 81.3558 174.291 81.3993C174.71 81.4418 175.105 81.6172 175.418 81.8999C175.648 82.1304 175.707 82.3214 175.674 82.3412Z" fill="white"/>
<path d="M177.8 29.643C177.36 29.3581 176.957 29.0196 176.601 28.6353C175.691 27.7639 174.824 26.8472 174.006 25.8888C173.051 24.7625 172.247 23.6955 171.701 22.8985C171.379 22.4936 171.107 22.0513 170.891 21.5812C171.261 21.9483 171.597 22.3497 171.892 22.78C172.491 23.5374 173.314 24.5781 174.269 25.6912C175.225 26.8043 176.12 27.7857 176.772 28.4904C177.153 28.839 177.497 29.2252 177.8 29.643Z" fill="white"/>
<path d="M178.535 6.26117C178.535 6.2941 178.351 6.33362 178.107 6.54438C177.787 6.86956 177.56 7.27431 177.448 7.71678C177.048 9.22708 176.784 10.77 176.658 12.3273C176.533 13.877 176.533 15.4342 176.658 16.9839C176.742 17.6264 176.792 18.2727 176.81 18.9203C176.599 18.3024 176.467 17.6608 176.414 17.0102C176.224 15.4476 176.195 13.8695 176.329 12.3009C176.456 10.7352 176.759 9.18867 177.231 7.69043C177.377 7.21637 177.664 6.79817 178.054 6.4917C178.181 6.35912 178.352 6.27719 178.535 6.26117Z" fill="white"/>
<g opacity="0.3">
<path opacity="0.3" d="M109.599 225.313C108.394 223.739 106.589 222.679 105.424 221.104C102.282 216.803 104.903 210.869 107.143 206.041C109.382 201.213 110.68 194.39 106.221 191.472C103.435 189.647 99.7659 190.425 96.5188 191.182C74.6985 196.221 52.1104 196.997 29.9957 193.468L27.4336 192.394C28.9946 199.395 30.6083 206.529 34.2835 212.68C37.9587 218.832 44.1632 223.943 51.2897 224.45C56.1373 224.793 60.8532 223.041 65.6218 222.138C70.3904 221.236 75.9032 221.401 79.3677 224.806C83.0429 228.415 84.0704 235.219 89.1222 236.233C94.5626 237.327 98.8306 230.213 104.37 230.595C106.102 230.714 108.012 231.55 109.461 230.595C111.141 229.502 110.805 226.907 109.599 225.313Z" fill="black"/>
</g>
<path d="M88.6652 220.979L87.697 225.392C87.697 225.392 82.665 233.111 82.9153 234.284C83.1656 235.456 84.0877 234.87 84.0877 234.87L87.4468 230.51C87.4468 230.51 84.5092 235.542 84.9307 236.55C84.9766 236.675 85.0505 236.788 85.1468 236.88C85.2431 236.973 85.3592 237.042 85.4863 237.082C85.6133 237.123 85.748 237.134 85.88 237.115C86.0121 237.096 86.1379 237.046 86.248 236.971C86.5119 237.277 86.8369 237.525 87.2021 237.699C87.5673 237.872 87.9647 237.968 88.3689 237.979C89.2159 237.938 90.0161 237.578 90.6082 236.971C91.5059 237.108 92.4226 237.05 93.2955 236.8C94.3032 236.385 96.3977 234.034 98.0773 231.603C99.0833 230.145 100.007 228.633 100.844 227.072C101.238 226.862 101.692 226.788 102.133 226.863C102.574 226.938 102.977 227.158 103.281 227.487C104.374 228.666 107.647 231.182 108.991 230.931C110.335 230.681 110.163 230.101 110.163 230.101C110.163 230.101 105.882 225.306 105.21 224.134C104.539 222.962 101.917 222.198 100.765 221.111C100.158 220.618 99.7396 219.932 99.579 219.168L88.6652 220.979Z" fill="#BA7F72"/>
<path d="M96.1026 228.343C95.9524 228.806 95.7444 229.249 95.4834 229.66C95.0553 230.431 94.4362 231.478 93.7051 232.604C92.974 233.731 92.2627 234.718 91.7292 235.423C91.4665 235.823 91.1545 236.188 90.8005 236.51C90.7214 236.451 91.9531 234.659 93.4351 232.413C94.917 230.167 96.0169 228.297 96.1026 228.343Z" fill="#8B5D54"/>
<path d="M92.3205 226.663C92.1604 227.226 91.9395 227.769 91.6618 228.284C91.1876 229.258 90.4894 230.576 89.6398 231.998C88.7901 233.421 87.9537 234.633 87.3214 235.535C87.0043 236.029 86.6332 236.487 86.2148 236.899C86.4737 236.374 86.7756 235.872 87.1172 235.397C87.7034 234.488 88.5003 233.23 89.3434 231.82C90.1865 230.411 90.9242 229.113 91.4445 228.172C91.6903 227.643 91.9835 227.139 92.3205 226.663Z" fill="#8B5D54"/>
<path d="M90.0047 226.604C89.7749 227.344 89.4352 228.046 88.997 228.685C88.6597 229.387 88.2153 230.031 87.6797 230.595C87.9185 229.857 88.2599 229.157 88.694 228.514C89.0332 227.816 89.475 227.172 90.0047 226.604Z" fill="#8B5D54"/>
<path d="M98.2551 74.4506C101.594 82.8022 100.192 91.1473 100.383 99.7689C100.442 102.278 105.112 105.697 106.08 108.048C107.535 111.559 105.494 112.738 107.641 115.879C109.715 118.916 110.605 123.217 108.451 126.194C105.816 129.823 100.442 129.619 95.9959 129.039C92.0555 112.118 92.7771 94.4453 98.0838 77.9019" fill="#263238"/>
<path d="M48.1867 158.342C48.1867 158.342 40.2171 148.746 37.0359 147.87C28.4735 145.564 17.7969 148.001 17.7969 157.835C17.7969 167.669 23.0133 182.205 23.0133 182.205C23.0133 182.205 28.4669 203.505 34.9282 208.84C41.3895 214.175 44.1953 215.585 58.8041 216.428C68.3976 216.928 78.0039 215.726 87.1785 212.878C89.4244 212.219 97.3282 205.89 105.489 194.936C113.649 183.983 124.082 172.18 125.485 166.009C126.888 159.837 124.234 150.452 115.915 148.278C107.596 146.105 94.226 157.855 94.226 157.855L59.0939 163.894L48.1867 158.342Z" fill="#263238"/>
<path d="M40.7716 165.805C40.4691 165.129 40.2138 164.434 40.0076 163.723C39.5728 162.406 38.9669 160.647 38.2226 158.704C37.4784 156.761 36.7275 155.042 36.1347 153.817C35.7787 153.177 35.4598 152.518 35.1797 151.841C35.1797 151.841 35.3246 151.999 35.5288 152.322C35.7329 152.645 36.0228 153.126 36.3521 153.725C37.1828 155.305 37.9153 156.935 38.5454 158.606C39.2896 160.582 39.8626 162.36 40.2381 163.671C40.4774 164.365 40.6559 165.079 40.7716 165.805Z" fill="#455A64"/>
<path d="M114.138 151.822C113.918 151.833 113.697 151.819 113.479 151.782C112.912 151.806 112.354 151.943 111.839 152.184C110.147 153.032 108.593 154.131 107.229 155.444C105.556 156.926 104.14 158.375 103.099 159.396C102.566 159.983 101.994 160.533 101.387 161.043C101.49 160.855 101.621 160.684 101.775 160.535C102.039 160.219 102.434 159.771 102.928 159.218C103.923 158.138 105.319 156.656 106.998 155.161C108.39 153.82 110.001 152.727 111.76 151.927C112.308 151.697 112.9 151.594 113.493 151.624C113.718 151.652 113.936 151.719 114.138 151.822Z" fill="#455A64"/>
<path d="M123.369 157.802C123.194 157.561 123.039 157.306 122.908 157.038C122.625 156.537 122.25 155.806 121.69 154.944C121.069 153.926 120.326 152.988 119.477 152.151C118.431 151.144 117.135 150.434 115.723 150.096C114.301 149.78 112.833 149.738 111.395 149.971C110.215 150.161 109.053 150.454 107.924 150.847C106.956 151.169 106.179 151.466 105.639 151.663C105.364 151.781 105.08 151.874 104.789 151.94C105.043 151.781 105.313 151.646 105.593 151.538C106.113 151.308 106.91 150.972 107.845 150.616C108.979 150.184 110.153 149.865 111.349 149.661C112.825 149.399 114.339 149.433 115.802 149.76C117.271 150.113 118.617 150.86 119.694 151.92C120.553 152.785 121.292 153.759 121.894 154.818C122.414 155.708 122.783 156.458 123.027 156.979C123.172 157.239 123.287 157.515 123.369 157.802Z" fill="white"/>
<path d="M44.8254 154.68C43.9753 153.57 43.0275 152.538 41.9932 151.598C39.4671 149.345 36.299 147.94 32.9335 147.579C29.568 147.219 26.1741 147.922 23.2284 149.589C22.0158 150.29 20.8675 151.096 19.7969 151.999C19.8505 151.917 19.9147 151.841 19.9879 151.775C20.1262 151.644 20.3106 151.426 20.5938 151.189C21.3605 150.497 22.1996 149.89 23.0967 149.378C26.069 147.626 29.5266 146.878 32.9574 147.244C36.3882 147.611 39.6097 149.073 42.1447 151.413C42.9096 152.108 43.6005 152.881 44.2062 153.718C44.4302 154.008 44.5685 154.259 44.6739 154.417C44.7357 154.497 44.7866 154.586 44.8254 154.68Z" fill="white"/>
<path d="M58.3049 35.7421L46.5086 77.5199L48.7809 121.379L46.3703 153.508L33.2501 182.198C33.2501 182.198 28.0599 197.459 47.1343 203.565C66.2086 209.67 82.7011 207.517 86.9625 203.565C91.2239 199.613 98.5612 143.74 98.5612 143.74L110.779 117.203C110.779 117.203 107.716 112.593 98.8642 109.55C90.012 106.507 68.0397 104.979 68.0397 104.979L64.8518 78.2378L72.2484 38.4491C72.2484 38.4491 63.9297 34.9649 58.3049 35.7421Z" fill="#01818C"/>
<path d="M98.178 137.806C98.178 137.806 84.7482 163.75 84.4387 169.243C84.1291 174.736 87.396 221.585 87.396 221.585L100.925 220.512C100.925 220.512 98.481 186.921 99.3965 179.313C100.312 171.706 100.615 159.172 104.277 150.623C107.939 142.074 114.229 124.356 110.831 117.203L98.178 137.806Z" fill="#01818C"/>
<g opacity="0.3">
<path opacity="0.3" d="M98.9774 131.581C97.2847 129.757 94.5315 129.494 92.0484 129.355L62.719 127.722L57.1996 132.918C55.9738 136.681 55.6578 140.681 56.2775 144.59L59.6497 142.074C59.8035 143.785 60.2795 145.452 61.0526 146.987L66.3811 142.291C70.4597 145.785 75.6217 147.759 80.9908 147.879C86.3598 147.999 91.6049 146.257 95.8357 142.95C97.6493 141.654 99.0675 139.88 99.9324 137.825C100.696 135.751 100.479 133.208 98.9774 131.581Z" fill="black"/>
</g>
<path d="M98.1789 137.806C98.1789 137.806 98.1789 137.865 98.0932 137.97L97.8298 138.431C97.5861 138.859 97.237 139.446 96.8023 140.197C95.9263 141.744 94.6946 143.997 93.3312 146.862C89.8227 154.364 87.0905 162.206 85.1772 170.264C85.0257 170.85 84.9072 171.436 84.7689 172.022C84.7096 172.312 84.6305 172.602 84.5844 172.892C84.5383 173.181 84.4922 173.458 84.4856 173.754C84.4066 174.92 84.4329 176.086 84.4395 177.225C84.4725 179.504 84.5647 181.711 84.6503 183.812C84.8611 188.001 85.0521 191.775 85.2101 194.956C85.3682 198.137 85.5065 200.673 85.5987 202.471C85.5987 203.341 85.658 204.019 85.6778 204.513C85.6778 204.73 85.6778 204.908 85.6778 205.047C85.6848 205.108 85.6848 205.17 85.6778 205.231C85.6705 205.17 85.6705 205.108 85.6778 205.047L85.6317 204.52C85.5922 204.026 85.5461 203.347 85.4802 202.478C85.3616 200.68 85.197 198.124 84.9928 194.969C84.7886 191.814 84.5581 188.027 84.3341 183.825C84.2354 181.731 84.1431 179.524 84.1036 177.239C84.1036 176.099 84.0641 174.933 84.1431 173.741C84.1624 173.439 84.1976 173.138 84.2485 172.839C84.3012 172.543 84.3737 172.253 84.433 171.963C84.5713 171.377 84.6898 170.784 84.8413 170.198C86.7482 162.126 89.5126 154.28 93.0875 146.796C94.4773 143.938 95.7221 141.698 96.6574 140.17C97.1184 139.406 97.5005 138.853 97.7507 138.438L98.0405 137.99C98.1064 137.852 98.1789 137.799 98.1789 137.806Z" fill="#263238"/>
<path d="M82.181 173.247C82.1002 173.325 82.0094 173.391 81.911 173.445L81.114 173.978C80.4159 174.433 79.3884 175.052 78.0909 175.79C71.3229 179.608 64.0372 182.426 56.461 184.154C55.0054 184.484 53.8264 184.714 53.0031 184.846L52.0547 184.991C51.9449 185.018 51.8317 185.029 51.7188 185.024C51.8213 184.976 51.9299 184.943 52.0415 184.925L52.9768 184.714C53.7869 184.543 54.9527 184.273 56.4017 183.917C63.9187 182.071 71.168 179.269 77.9723 175.579C79.2896 174.874 80.3237 174.262 81.0416 173.86L81.8781 173.392C81.9707 173.328 82.073 173.279 82.181 173.247Z" fill="#263238"/>
<g opacity="0.3">
<path opacity="0.3" d="M44.0234 185.347C56.8209 188.93 71.1793 183.977 80.3411 174.367C69.1375 180.973 57.0251 185.202 44.0234 185.347Z" fill="black"/>
</g>
<g opacity="0.3">
<path opacity="0.3" d="M84.2497 173.715C83.5318 181.717 82.827 194.989 82.9324 203.018C82.9719 206.97 83.321 210.494 86.2256 213.161C85.567 201.661 84.5724 185.3 84.2497 173.715Z" fill="black"/>
</g>
<path d="M69.9995 38.4425C68.4112 38.2608 66.8376 37.9681 65.2902 37.5665C63.7268 37.2744 62.1861 36.8716 60.6797 36.3612C62.268 36.5429 63.8416 36.8357 65.389 37.2372C66.9524 37.5293 68.4931 37.9321 69.9995 38.4425Z" fill="white"/>
<path d="M69.6055 49.1785C69.7919 47.5422 70.0889 45.9204 70.4946 44.3242C70.7929 42.7063 71.2022 41.1108 71.7197 39.5491C71.5375 41.1838 71.2404 42.8037 70.8305 44.3967C70.5392 46.0183 70.1297 47.6165 69.6055 49.1785Z" fill="white"/>
<path d="M108.089 134.901C108.15 134.61 108.238 134.326 108.353 134.051C108.564 133.445 108.827 132.681 109.15 131.766C110.078 129.283 110.585 126.663 110.652 124.014C110.652 121.364 109.72 118.799 108.017 116.769C107.264 115.974 106.388 115.307 105.422 114.793C105.5 114.802 105.575 114.825 105.646 114.858C105.853 114.936 106.056 115.026 106.252 115.128C106.978 115.51 107.634 116.011 108.195 116.61C110.01 118.654 111.011 121.293 111.007 124.027C110.948 126.715 110.401 129.371 109.393 131.865C109.031 132.826 108.735 133.59 108.491 134.117C108.381 134.39 108.247 134.653 108.089 134.901Z" fill="white"/>
<path d="M60.6833 35.7421L63.3705 27.3378C63.3705 27.3378 59.8929 18.8083 60.6833 18.018C61.4736 17.2276 67.9284 12.1692 67.9284 12.1692C67.9284 12.1692 69.6013 0.563892 70.2995 0.162119C70.8922 -0.180376 72.203 -0.180374 72.2754 2.21709C72.3479 4.61456 72.3347 13.1177 72.3347 13.1177C72.3347 13.1177 76.168 16.9114 76.168 19.276C76.168 21.6405 74.113 29.0766 74.113 29.0766L71.215 37.8761L60.6833 35.7421Z" fill="#BA7F72"/>
<path d="M67.8424 15.8906C67.8424 15.8906 67.6383 15.7588 67.5197 15.4097C67.3939 14.9622 67.3625 14.4935 67.4275 14.0332C67.4708 13.391 67.648 12.7651 67.9478 12.1956C68.0598 12.1956 67.9017 13.065 67.77 14.0727C67.7143 14.4968 67.7143 14.9264 67.77 15.3505C67.8029 15.6732 67.882 15.8642 67.8424 15.8906Z" fill="#8B5D54"/>
<path d="M73.4137 18.4263C73.0862 17.5787 72.865 16.6938 72.755 15.7917C72.5446 14.9256 72.3993 14.045 72.3203 13.1572C72.7271 13.9704 72.988 14.8488 73.0909 15.7522C73.3129 16.626 73.4213 17.5248 73.4137 18.4263Z" fill="#8B5D54"/>
<path d="M65.4554 19.0455C65.0513 18.3877 64.7764 17.659 64.6453 16.8983C64.5185 16.358 64.5051 15.7974 64.6057 15.2517C64.6914 14.8367 64.8297 14.593 64.8692 14.593C64.8205 15.3325 64.8581 16.0752 64.9812 16.8061C65.2446 18.0246 65.5674 19.0125 65.4554 19.0455Z" fill="#8B5D54"/>
<path d="M63.0129 19.928C62.6294 19.4599 62.3994 18.8849 62.3543 18.2814C62.2829 17.8585 62.2829 17.4266 62.3543 17.0036C62.407 16.6809 62.519 16.4965 62.5585 16.5097C62.598 16.5228 62.5585 17.2935 62.7166 18.2221C62.8577 18.7826 62.9567 19.3528 63.0129 19.928Z" fill="#8B5D54"/>
<path d="M71.9415 2.30931C71.8427 2.30931 71.9415 1.78898 71.6188 1.30159C71.296 0.81419 70.8811 0.642944 70.9074 0.530974C70.9338 0.419005 71.0589 0.471696 71.2697 0.530974C71.549 0.643239 71.7815 0.847787 71.9283 1.11057C72.0818 1.36571 72.1466 1.66443 72.1128 1.96023C72.0666 2.17758 71.981 2.30931 71.9415 2.30931Z" fill="white"/>
<path d="M73.56 27.5881C73.6671 26.9176 73.8279 26.2569 74.0408 25.6121C74.4899 24.0732 74.7682 22.4895 74.8707 20.8897C74.9479 19.3003 74.6312 17.7165 73.9486 16.2791C73.6247 15.7025 73.2661 15.1461 72.875 14.6128C73.0332 14.7059 73.1737 14.8263 73.2899 14.9684C73.631 15.3297 73.9253 15.7325 74.1659 16.1672C74.9379 17.6287 75.2998 19.272 75.2132 20.9226C75.1156 22.5494 74.7988 24.1557 74.2713 25.6977C74.0949 26.3491 73.8567 26.982 73.56 27.5881Z" fill="white"/>
<path d="M66.7998 13.5063C65.9344 14.4209 64.9714 15.2381 63.9281 15.9432C62.9602 16.7392 61.909 17.4282 60.793 17.9982C61.7122 17.1511 62.6918 16.3718 63.7239 15.6666C64.6959 14.8734 65.7238 14.1514 66.7998 13.5063Z" fill="white"/>
<path d="M78.4195 61.9627C86.8239 60.9484 95.6629 65.7631 98.2447 72.7513C101.149 80.655 96.585 89.1581 97.3226 97.4175C97.7771 102.476 100.214 107.297 100.385 112.389C100.57 117.658 98.304 123.052 100.003 128.117C100.662 129.981 101.782 131.865 101.261 133.755C100.655 135.948 98.0537 137.193 95.709 138.174C90.6506 140.289 85.3946 142.429 79.7829 142.521C74.1713 142.614 68.092 140.085 66.3466 135.467L60.5703 139.307C60.2322 137.99 59.9007 136.673 59.5757 135.355C58.4932 136.542 57.1828 137.499 55.7227 138.168C55.3077 132.128 54.8994 126.029 55.9532 120.049C56.7304 115.616 60.1883 110.709 60.8996 106.25C62.184 98.2672 60.9984 90.8113 62.7438 82.8681C64.4892 74.9248 67.6573 65.3481 76.3843 62.3579L78.4195 61.9627Z" fill="#263238"/>
<path d="M76.7142 73.489C76.6822 72.9441 76.7198 72.3974 76.8262 71.8621C77.0129 70.5649 77.279 69.2803 77.6231 68.0156C77.9657 66.7511 78.3903 65.5102 78.8943 64.3009C79.0751 63.7857 79.3184 63.2946 79.6188 62.8387C79.5003 63.369 79.3327 63.8872 79.1182 64.3865C78.7889 65.3284 78.3542 66.6391 77.9524 68.1078C77.5507 69.5766 77.2938 70.9203 77.0698 71.9016C76.9936 72.4394 76.8747 72.9701 76.7142 73.489Z" fill="#455A64"/>
<path d="M93.1736 81.5574C93.3052 80.3921 93.3448 79.2183 93.2922 78.0468C93.1288 75.2172 92.1289 72.4997 90.4193 70.239C88.7097 67.9783 86.3673 66.2761 83.6891 65.3482C82.5739 64.9859 81.4336 64.7064 80.2773 64.5117C80.3582 64.5003 80.4402 64.5003 80.521 64.5117C80.6857 64.5117 80.9228 64.5117 81.2258 64.5644C82.0896 64.6666 82.9413 64.8541 83.7682 65.1242C86.5357 66.0055 88.963 67.721 90.7175 70.0356C92.4721 72.3502 93.468 75.1507 93.5688 78.0534C93.6083 78.9211 93.5598 79.7906 93.4239 80.6485C93.3844 80.9515 93.3185 81.182 93.2856 81.3401C93.2526 81.4981 93.1868 81.5574 93.1736 81.5574Z" fill="#455A64"/>
<path d="M87.2938 90.3635C87.1678 90.0718 87.075 89.7669 87.0172 89.4545C86.8723 88.8552 86.701 87.9858 86.5496 86.9056C86.2202 84.7386 86.1214 81.7089 85.6274 78.4288C85.2691 75.6206 84.2562 72.9359 82.6701 70.591C81.9589 69.6617 81.1385 68.8214 80.2266 68.0881C80.2266 68.0881 80.3056 68.0881 80.4439 68.2001C80.6471 68.3223 80.8428 68.4565 81.0301 68.6018C81.7197 69.1325 82.3355 69.7527 82.8611 70.4461C84.2443 72.1717 85.4628 75.0566 85.9699 78.3498C86.4771 81.643 86.5232 84.6859 86.7932 86.8463C86.9118 87.9265 87.0435 88.8222 87.1489 89.4018C87.2195 89.7186 87.2679 90.0399 87.2938 90.3635Z" fill="#455A64"/>
<path d="M95.7298 90.785C96.204 90.8179 96.6321 91.4436 97.047 92.4053C97.462 93.3669 98.0021 94.7237 98.72 96.3571C99.4379 97.9906 100.367 99.9335 101.401 102.252C102.647 104.898 103.595 107.675 104.226 110.531C104.396 111.345 104.519 112.167 104.595 112.994C104.66 113.818 104.682 114.645 104.661 115.471C104.585 116.899 104.414 118.321 104.147 119.726C103.936 120.951 103.739 122.011 103.633 122.953C103.587 123.434 103.541 123.842 103.535 124.238C103.511 124.626 103.511 125.015 103.535 125.403C103.617 126.593 103.914 127.758 104.411 128.841C104.78 129.665 105.181 130.251 105.01 130.705C104.839 131.16 104.062 131.43 102.738 130.923C100.971 130.083 99.5919 128.598 98.8847 126.773C98.6272 126.202 98.42 125.609 98.2655 125.002C98.1056 124.352 97.9912 123.691 97.923 123.026C97.7996 121.712 97.771 120.391 97.8374 119.074C97.8835 117.756 97.9494 116.538 97.9165 115.399C97.9165 114.832 97.8374 114.266 97.7781 113.679C97.7189 113.093 97.6201 112.494 97.4752 111.862C96.9944 109.385 96.1579 106.849 95.44 104.406C94.732 102.155 94.2445 99.8413 93.9844 97.4966C93.7947 95.8152 93.9197 94.1132 94.3532 92.4777C94.7813 91.3251 95.2621 90.752 95.7298 90.785Z" fill="#263238"/>
<path d="M76.7124 73.489C76.1432 74.1075 75.6214 74.768 75.1514 75.4649C74.9096 75.8473 74.6897 76.2432 74.4928 76.6505C74.2469 77.1324 74.0271 77.627 73.8341 78.1324C73.3809 79.3677 73.0328 80.639 72.7935 81.9328C72.2202 85.3162 71.9425 88.7431 71.9636 92.1747C71.9175 96.0476 72.0624 100.316 72.0558 104.801C72.0492 109.286 71.878 113.587 70.9098 117.388C70.4089 119.163 69.7973 120.905 69.0787 122.604C68.4201 124.205 67.8141 125.687 67.3333 127.07C66.8874 128.307 66.5394 129.578 66.2927 130.87C66.115 131.845 66.04 132.837 66.0687 133.827C66.0911 134.454 66.1638 135.077 66.2861 135.691C66.3256 135.889 66.3585 136.047 66.3783 136.172C66.387 136.229 66.387 136.287 66.3783 136.343C66.3556 136.293 66.3379 136.24 66.3256 136.185L66.2005 135.705C66.0422 135.092 65.9473 134.466 65.9172 133.834C65.8655 132.832 65.9207 131.827 66.0819 130.837C66.3103 129.53 66.6452 128.243 67.083 126.991C67.5507 125.594 68.1566 124.099 68.7955 122.499C69.4966 120.806 70.0948 119.073 70.587 117.309C71.5223 113.561 71.6672 109.267 71.6936 104.794C71.7199 100.322 71.5618 96.0541 71.6277 92.1681C71.6203 88.7206 71.9245 85.2795 72.5366 81.8867C72.7921 80.5846 73.1579 79.3067 73.63 78.0666C73.8214 77.5584 74.0413 77.0614 74.2886 76.578C74.496 76.1698 74.7269 75.7739 74.9802 75.3925C75.1828 75.086 75.4027 74.7913 75.6388 74.5099C75.8011 74.2968 75.9819 74.0985 76.1789 73.9171C76.3172 73.7722 76.4358 73.6602 76.528 73.568C76.6202 73.4758 76.7058 73.4824 76.7124 73.489Z" fill="#455A64"/>
<path d="M60.8984 129.777C60.9224 129.722 60.951 129.669 60.9841 129.619C61.0499 129.5 61.1421 129.355 61.2475 129.177L61.6888 128.473C61.8535 128.189 62.0313 127.847 62.2355 127.478C63.3604 125.342 64.2271 123.081 64.8174 120.74C65.6662 117.261 66.1736 113.707 66.3323 110.129C66.4508 108.107 66.5364 105.98 66.5496 103.787C66.5628 101.593 66.4442 99.3078 66.3981 96.9697C66.2538 92.5729 66.4145 88.1713 66.8789 83.7968C67.2249 80.2006 68.1571 76.6853 69.6387 73.3902C70.2493 72.1429 71.0198 70.9805 71.9307 69.9323L72.5367 69.2737L73.1492 68.7336C73.5148 68.4219 73.8998 68.1337 74.3019 67.8707C74.8557 67.5125 75.445 67.2123 76.0604 66.975L76.5412 66.7906C76.5957 66.7653 76.6533 66.7476 76.7125 66.7379L76.5544 66.8235L76.0868 67.0343C75.4905 67.302 74.9176 67.6193 74.3743 67.9827C73.9847 68.2479 73.6128 68.5383 73.2612 68.8521L72.6618 69.3988L72.0756 70.0574C71.1929 71.1033 70.449 72.259 69.8626 73.4956C68.4312 76.7751 67.5414 80.2652 67.228 83.8297C66.7809 88.2055 66.629 92.6064 66.7736 97.0026C66.8197 99.3342 66.9119 101.613 66.9184 103.826C66.925 106.039 66.8065 108.16 66.6813 110.189C66.5062 113.783 65.9722 117.351 65.0874 120.839C64.4718 123.191 63.5647 125.457 62.387 127.583C62.1696 127.952 61.9852 128.282 61.8074 128.565L61.3397 129.256C61.2146 129.428 61.1224 129.566 61.0433 129.678C60.9994 129.717 60.9507 129.75 60.8984 129.777Z" fill="#455A64"/>
<path d="M102.36 110.064C102.122 109.943 101.9 109.793 101.701 109.616C101.279 109.313 100.687 108.865 99.9555 108.298C98.0436 106.821 96.267 105.177 94.6468 103.385C93.0213 101.576 91.7421 99.4844 90.8728 97.2134C90.6175 96.5238 90.4192 95.8145 90.28 95.0925C90.2151 94.8319 90.1841 94.5641 90.1878 94.2956C90.2537 94.2956 90.4117 95.4218 91.0967 97.1277C92.0134 99.3322 93.2936 101.367 94.8839 103.148C96.493 104.928 98.2346 106.584 100.094 108.101L101.76 109.51C101.979 109.674 102.179 109.859 102.36 110.064Z" fill="#455A64"/>
<path d="M79.9463 73.6536C80.5262 74.2979 81.0159 75.0181 81.4019 75.7942C82.463 77.917 83.1027 80.2253 83.2856 82.5914C83.6215 85.5751 83.3383 89.1383 83.2461 93.0704C83.1815 95.1216 83.3072 97.1744 83.6215 99.2024C84.0019 101.374 84.5682 103.51 85.3142 105.585C86.816 109.866 88.647 113.811 89.8062 117.598C90.958 120.924 91.4415 124.445 91.2289 127.959C91.0691 130.328 90.3948 132.634 89.2529 134.717C88.8348 135.479 88.3214 136.185 87.7249 136.818C87.7249 136.818 87.7578 136.765 87.8171 136.673L88.1135 136.271C88.4882 135.756 88.8292 135.217 89.1344 134.657C90.2187 132.573 90.8516 130.284 90.9918 127.939C91.1614 124.459 90.6559 120.979 89.5032 117.691C88.3374 113.936 86.4998 109.998 84.9915 105.697C84.2386 103.603 83.6679 101.447 83.2856 99.2551C82.9748 97.2069 82.8557 95.1342 82.93 93.0639C83.0419 89.112 83.3515 85.5751 83.0419 82.6112C82.8809 80.2689 82.2845 77.9771 81.2833 75.8535C80.9989 75.283 80.6754 74.7328 80.3151 74.2069L80.0319 73.7985C79.966 73.7063 79.9397 73.6536 79.9463 73.6536Z" fill="#455A64"/>
<path d="M99.3434 94.0453C99.3319 93.861 99.3319 93.6763 99.3434 93.492C99.3434 93.0968 99.3434 92.5699 99.3763 91.9047C99.4093 90.5281 99.4751 88.5324 99.3763 86.0757C99.3349 83.1887 98.9636 80.316 98.2698 77.5133C97.439 74.0923 95.7838 70.9266 93.4485 68.2923C91.0558 65.6974 87.8714 63.9674 84.3922 63.3722C82.0128 63.005 79.5821 63.1601 77.2687 63.8266C74.9553 64.4931 72.8146 65.6551 70.9954 67.2319L70.3367 67.851C70.1523 68.0354 70.0008 68.2001 69.8757 68.3318C69.7518 68.4691 69.6199 68.5989 69.4805 68.7204C69.5791 68.5639 69.6939 68.4182 69.823 68.2857C69.9415 68.1474 70.0798 67.9695 70.2643 67.7785L70.9229 67.1199C72.3729 65.7967 74.0511 64.7478 75.8759 64.0243C78.5943 62.9505 81.5481 62.6142 84.4383 63.0495C87.9949 63.6363 91.2539 65.3933 93.6988 68.042C96.0738 70.7209 97.7503 73.9449 98.5794 77.4277C99.2572 80.2474 99.6064 83.1361 99.62 86.0362C99.6596 88.5061 99.5542 90.5018 99.4817 91.8783C99.4422 92.537 99.4093 93.0705 99.3829 93.4657C99.3889 93.6597 99.3757 93.8538 99.3434 94.0453Z" fill="white"/>
<path d="M84.4531 80.464C83.9771 78.6948 83.3853 76.9588 82.6814 75.2673C81.8717 73.6268 80.9565 72.0405 79.9414 70.5185C80.3551 70.8743 80.7165 71.2868 81.015 71.7436C82.5726 73.8619 83.6698 76.2827 84.2358 78.8504C84.3821 79.3757 84.4552 79.9187 84.4531 80.464Z" fill="white"/>
<path d="M89.4572 76.1104C89.3452 76.1631 88.7986 73.6339 86.7633 71.2957C85.5225 69.9237 84.0652 68.7645 82.4492 67.8642C82.9872 67.9983 83.4991 68.2209 83.9641 68.5228C86.2975 69.8787 88.0948 71.9945 89.0554 74.5165C89.273 75.0231 89.4086 75.5612 89.4572 76.1104Z" fill="white"/>
</svg>
