<svg width="375" height="1569" viewBox="0 0 375 1569" fill="none" xmlns="http://www.w3.org/2000/svg">
<path d="M375 0L362.5 3.15C350 6.3 325 12.6 300 22.05C275 31.5 250 44.1 225 45.1434C200 46.2656 175 35.6344 150 36.7566C125 37.8 100 50.4 75 55.6566C50 60.8344 25 58.8656 12.5 57.7434L0 56.7V63H12.5C25 63 50 63 75 63C100 63 125 63 150 63C175 63 200 63 225 63C250 63 275 63 300 63C325 63 350 63 362.5 63H375V0Z" fill="#EBF7FC"/>
<rect x="1" y="63" width="374" height="1416" fill="#EBF7FC"/>
<path d="M375 1479H362.533C350.067 1479 325.133 1479 300.2 1482.76C275.267 1486.38 250.333 1494.12 225.4 1505.26C200.467 1516.62 175.533 1531.38 150.6 1527.76C125.667 1524 100.733 1501.5 75.8 1505.26C50.8666 1508.88 25.9333 1539.12 13.4666 1553.99L1 1569V1479H13.4666C25.9333 1479 50.8666 1479 75.8 1479C100.733 1479 125.667 1479 150.6 1479C175.533 1479 200.467 1479 225.4 1479C250.333 1479 275.267 1479 300.2 1479C325.133 1479 350.067 1479 362.533 1479H375Z" fill="#EBF7FC"/>
</svg>
