<svg width="43" height="33" viewBox="0 0 43 33" fill="none" xmlns="http://www.w3.org/2000/svg">
<path d="M31.2096 8.58023V12.7417C33.9352 12.7417 36.4538 14.1955 37.8166 16.5559C39.1794 18.9166 39.1794 21.8247 37.8166 24.1851C36.4538 26.5455 33.9352 27.9997 31.2096 27.9997H11.7904C9.06475 27.9997 6.54619 26.5455 5.18338 24.1851C3.82056 21.8247 3.82056 18.9168 5.18338 16.5559C6.54619 14.1955 9.06475 12.7417 11.7904 12.7417H19.2527L14.398 17.5964L17.3384 20.5368L25.7445 12.1312C26.1339 11.7413 26.3526 11.2125 26.3526 10.661C26.3526 10.1095 26.1339 9.5807 25.7445 9.1908L17.3384 0.784668L14.398 3.72554L19.2527 8.58023H11.7904C7.57809 8.58023 3.68569 10.8274 1.5798 14.4756C-0.526598 18.1233 -0.526598 22.6176 1.5798 26.2657C3.68569 29.9134 7.57821 32.1606 11.7904 32.1606H31.2096C35.4219 32.1606 39.3143 29.9134 41.4202 26.2657C43.5266 22.6176 43.5266 18.1233 41.4202 14.4756C39.3143 10.8274 35.4218 8.58023 31.2096 8.58023Z" fill="#043953"/>
</svg>
