<svg width="196" height="137" viewBox="0 0 196 137" fill="none" xmlns="http://www.w3.org/2000/svg">
<path opacity="0.6" d="M187.789 93.8056C188.422 90.6549 189.46 87.5994 190.877 84.7154C194.75 76.7869 197.533 69.8507 195.069 60.9977C189.033 39.3759 164.483 36.8492 152.373 20.5421C133.65 -4.65674 87.6474 -6.84458 65.6723 14.9321C58.9345 21.607 55.7786 31.036 48.9682 37.6382C38.9342 47.3721 24.0356 48.6258 13.7305 58.3307C-3.07033 74.1635 -4.70153 100.993 10.2116 118.796C25.9621 137.596 48.1938 134.513 69.7866 130.515C80.4111 128.55 91.4568 126.42 102.285 127.93C125.378 131.183 152.779 143.869 175.161 131.241C187.083 124.513 187.388 114.019 187.112 101.778C187.044 99.1035 187.272 96.43 187.789 93.8056Z" fill="#D4D7DA"/>
<path d="M45.7696 54.7326H39.3445C37.5117 54.7342 35.7394 55.3881 34.3447 56.5772C32.9501 57.7664 32.0244 59.4131 31.7332 61.2226L26.5628 92.9875C26.3101 94.5419 26.398 96.1326 26.8204 97.6497C27.2429 99.1667 27.9898 100.574 29.0095 101.774C30.0292 102.974 31.2973 103.938 32.7263 104.6C34.1553 105.262 35.7109 105.605 37.2857 105.607H171.311C172.262 105.606 173.2 105.388 174.053 104.968C174.907 104.549 175.653 103.939 176.234 103.187C176.815 102.434 177.216 101.558 177.405 100.626C177.595 99.6946 177.569 98.7318 177.329 97.8117C176.983 96.4786 176.205 95.2979 175.116 94.4548C174.027 93.6117 172.688 93.154 171.311 93.1534C169.353 93.1501 167.444 92.5336 165.854 91.3903C164.264 90.2469 163.072 88.6343 162.445 86.7788L154.174 62.2538C153.537 60.3619 152.327 58.7151 150.712 57.5424C149.097 56.3696 147.156 55.7291 145.16 55.7097L45.7696 54.7326Z" fill="#455A64"/>
<path d="M42.8345 114.43L39.3516 130.557H42.9932L47.0061 114.43H42.8345Z" fill="#263238"/>
<path d="M169.617 114.43L173.006 130.323H169.328L165.445 114.43H169.617Z" fill="#263238"/>
<path d="M154.246 114.43L157.422 130.323H153.741L150.074 114.43H154.246Z" fill="#E0E0E0"/>
<path d="M29.4379 114.43L25.9297 130.557H29.6073L33.6095 114.43H29.4379Z" fill="#E0E0E0"/>
<path d="M18.0078 93.2291V112.263C18.0097 112.993 18.1554 113.715 18.4365 114.389C18.7177 115.063 19.1288 115.675 19.6464 116.19C20.164 116.705 20.778 117.113 21.4533 117.39C22.1285 117.668 22.8519 117.81 23.582 117.808H172.167C173.64 117.81 175.054 117.227 176.098 116.187C177.141 115.148 177.73 113.736 177.734 112.263L177.528 96.7589L18.0078 93.2291Z" fill="#455A64"/>
<path d="M157.385 71.5886C157.385 71.5886 157.295 71.6643 157.111 71.7977L156.296 72.3999C156.112 72.5261 155.917 72.6847 155.686 72.8325L154.929 73.3193C154.652 73.4924 154.363 73.6798 154.039 73.8781L152.997 74.4658C151.195 75.4597 149.306 76.2876 147.354 76.9392C144.769 77.8051 142.095 78.3807 139.382 78.6555C136.089 78.9676 132.768 78.8232 129.514 78.2264L128.198 77.938L127.531 77.7902L126.867 77.6099C125.977 77.3719 125.09 77.0835 124.192 76.7806C122.389 76.1641 120.586 75.4177 118.755 74.6173C115.081 73.0525 111.273 71.2533 107.084 70.0887C98.4004 67.6499 89.2035 67.7249 80.5612 70.305C76.3968 71.5562 72.5461 73.2436 68.7855 74.6065C65.0249 75.9694 61.34 77.0222 57.785 77.3575C56.0721 77.5245 54.3466 77.5124 52.6362 77.3214C51.0592 77.1304 49.5109 76.7503 48.0247 76.1893C46.678 75.6748 45.3663 75.0726 44.0983 74.3865C42.8904 73.7519 41.7763 73.1174 40.7235 72.5405C38.9484 71.5108 37.0969 70.6188 35.1854 69.8724C33.967 69.4279 32.7054 69.1125 31.4212 68.9313L30.4152 68.852L30.0547 68.8196C30.0547 68.8196 30.1737 68.8196 30.4152 68.8196C30.6568 68.8196 30.9813 68.8448 31.4248 68.8772C32.716 69.0437 33.9853 69.3496 35.2106 69.7894C37.1307 70.535 38.9906 71.427 40.774 72.4576C41.8304 73.0308 42.9373 73.6654 44.156 74.2892C45.4192 74.9687 46.7261 75.5637 48.068 76.0703C49.5454 76.624 51.084 76.998 52.6507 77.1844C54.3518 77.3698 56.0676 77.3783 57.7705 77.2097C61.3076 76.8707 64.9816 75.8396 68.7278 74.4514C72.474 73.0633 76.3319 71.3939 80.5071 70.1248C89.1829 67.5302 98.4174 67.4551 107.134 69.9084C111.342 71.0802 115.153 72.8866 118.823 74.455C120.659 75.2446 122.458 75.991 124.232 76.6184C125.126 76.9212 126.009 77.2097 126.896 77.4476L127.556 77.6279L128.219 77.7757L129.528 78.0642C132.767 78.6634 136.073 78.8126 139.353 78.5077C142.059 78.2424 144.726 77.6777 147.307 76.8239C149.257 76.1838 151.144 75.368 152.946 74.3865L153.992 73.8096C154.316 73.6221 154.608 73.4274 154.886 73.258L155.647 72.7785C155.878 72.6342 156.076 72.4792 156.26 72.353L157.085 71.7689L157.385 71.5886Z" fill="#E0E0E0"/>
<path d="M176.596 87.8713C176.596 87.8713 176.455 87.8352 176.188 87.7523L175.691 87.5972C175.462 87.5201 175.23 87.4551 174.995 87.4026C173.447 87.0082 171.858 86.7976 170.261 86.7752C169.108 86.7576 167.956 86.8142 166.81 86.9446C165.447 87.0937 164.093 87.3249 162.758 87.6369C161.316 87.9614 159.794 88.3833 158.2 88.8916C156.607 89.4 154.955 90.0022 153.192 90.6367C151.429 91.2713 149.608 91.9383 147.676 92.5585C145.669 93.2226 143.622 93.755 141.546 94.1521C141.005 94.2423 140.465 94.3468 139.909 94.4081C139.632 94.4406 139.354 94.4839 139.073 94.5127L138.229 94.5812C137.667 94.6389 137.093 94.6317 136.52 94.6569L135.651 94.6389H135.215L134.779 94.6028C132.381 94.4164 130.013 93.953 127.723 93.2219C123.003 91.7797 118.348 89.4613 113.257 87.8533C110.667 87.0337 107.997 86.4886 105.292 86.2271C102.507 85.9617 99.7041 85.9292 96.9132 86.1298C91.2453 86.5192 85.7901 87.6009 80.5692 88.7294C77.9516 89.2919 75.388 89.8724 72.8642 90.3916C70.3403 90.9107 67.8561 91.3506 65.4187 91.7004C63.0449 92.0497 60.655 92.2795 58.2581 92.389C57.0899 92.4575 55.9397 92.4467 54.8076 92.4503C53.6754 92.4539 52.5613 92.389 51.4724 92.2664C47.4095 91.9569 43.4313 90.9443 39.7147 89.2738C38.0165 88.5023 36.4697 87.6009 35.0275 86.7932C33.656 86.014 32.2375 85.3204 30.7802 84.7164C28.4593 83.6915 25.8824 83.3936 23.3888 83.8619C22.486 84.0403 21.6163 84.3578 20.8108 84.8029C20.2237 85.1332 19.687 85.5461 19.2172 86.0288C19.0475 86.1993 18.8897 86.3812 18.7449 86.5733C18.635 86.709 18.535 86.8524 18.4456 87.0023C18.2978 87.2367 18.2148 87.3629 18.2148 87.3629L18.4312 87.0023C18.5151 86.8495 18.6129 86.7047 18.7232 86.5697C18.8641 86.3731 19.0195 86.1875 19.1883 86.0144C19.6561 85.5233 20.193 85.1031 20.782 84.7669C21.5901 84.3108 22.4649 83.9847 23.3744 83.8006C25.8829 83.317 28.4792 83.6062 30.8198 84.6299C32.2814 85.2334 33.7036 85.9282 35.078 86.7103C36.5491 87.5143 38.0778 88.4085 39.7652 89.1765C43.4713 90.8309 47.4359 91.8312 51.4833 92.133C52.5649 92.252 53.6826 92.2628 54.8076 92.3097C55.9325 92.3566 57.0827 92.3097 58.2473 92.2448C60.6384 92.1346 63.0224 91.9023 65.3899 91.5489C67.8236 91.1884 70.3006 90.7521 72.8245 90.2365C75.3484 89.7209 77.9083 89.1368 80.526 88.5708C85.7576 87.4494 91.2128 86.3353 96.8915 85.9567C99.6933 85.7561 102.507 85.7887 105.303 86.0541C108.02 86.3188 110.702 86.8675 113.304 87.691C115.864 88.495 118.301 89.4938 120.692 90.4528C123.082 91.4119 125.419 92.3566 127.766 93.0705C130.043 93.8008 132.398 94.2642 134.782 94.4514L135.215 94.4875H135.648L136.509 94.5055C137.083 94.4802 137.652 94.4875 138.211 94.4334L139.051 94.3649C139.329 94.336 139.603 94.2964 139.881 94.2639C140.432 94.2026 140.962 94.0981 141.51 94.0115C143.585 93.6173 145.633 93.0898 147.64 92.4323C149.572 91.8157 151.407 91.1523 153.156 90.5214C154.905 89.8904 156.574 89.2919 158.175 88.7907C159.776 88.2895 161.301 87.8677 162.747 87.5432C164.087 87.2358 165.443 87.0094 166.81 86.8653C167.961 86.7403 169.118 86.6898 170.275 86.7139C171.875 86.7442 173.466 86.967 175.013 87.3773C175.249 87.4315 175.481 87.4989 175.709 87.5792L176.206 87.7451L176.596 87.8713Z" fill="#E0E0E0"/>
<path d="M145.17 55.3167L144.958 55.5151L144.319 56.0775C144.027 56.3083 143.656 56.5859 143.212 56.9104C142.769 57.2349 142.232 57.563 141.601 57.8911C140.077 58.7103 138.461 59.3458 136.787 59.784C136.301 59.9138 135.792 60.0292 135.262 60.1446C134.732 60.26 134.181 60.3573 133.618 60.4294C132.423 60.6031 131.219 60.7102 130.013 60.7503C127.241 60.8152 124.468 60.6657 121.72 60.3032C118.752 59.9427 115.59 59.4379 112.273 59.0593C110.608 58.8754 108.895 58.7276 107.143 58.6735C105.39 58.6194 103.598 58.6735 101.781 58.8069C98.0315 59.1214 94.3007 59.6305 90.6039 60.3321C86.7929 61.0099 83.0755 61.7166 79.452 62.2106C75.9676 62.6788 72.4574 62.9293 68.9418 62.9605C62.9877 63.004 57.0463 62.4056 51.2205 61.1758C47.2981 60.3435 43.4418 59.2252 39.6827 57.8298C39.0193 57.5774 38.4244 57.3611 37.9196 57.1556L36.6433 56.6219L35.8609 56.2902C35.6842 56.2145 35.5977 56.1713 35.5977 56.1713L35.8681 56.2722L36.6577 56.5895L37.9377 57.1051C38.446 57.3034 39.041 57.5125 39.708 57.7613C43.4714 59.1277 47.327 60.2254 51.2457 61.046C57.0657 62.2538 62.998 62.8376 68.9418 62.7874C72.449 62.7519 75.9507 62.499 79.4267 62.0303C83.0323 61.5327 86.7568 60.826 90.5715 60.1446C94.2782 59.4449 98.0185 58.9371 101.778 58.623C103.598 58.486 105.383 58.4608 107.157 58.4968C108.931 58.5329 110.633 58.6987 112.302 58.8898C115.637 59.272 118.792 59.7912 121.745 60.1482C124.486 60.5171 127.251 60.6738 130.016 60.6169C131.223 60.58 132.426 60.4777 133.622 60.3104C134.188 60.2419 134.729 60.1301 135.259 60.0364C135.789 59.9427 136.293 59.8129 136.78 59.6759C138.448 59.2471 140.06 58.6239 141.583 57.819C142.214 57.4981 142.737 57.1448 143.198 56.8563C143.66 56.5679 144.017 56.2686 144.312 56.0379L144.961 55.4934L145.17 55.3167Z" fill="#E0E0E0"/>
<path d="M177.28 108.437C177.28 108.437 177.143 108.39 176.883 108.29L175.722 107.832C175.21 107.633 174.55 107.471 173.79 107.215C173.404 107.103 172.978 107.02 172.531 106.912L171.835 106.754C171.594 106.707 171.341 106.674 171.085 106.631C168.584 106.219 166.043 106.098 163.514 106.27C160.169 106.501 156.851 107.027 153.598 107.842C149.971 108.693 146.085 109.948 141.884 111.214C137.684 112.479 133.162 113.759 128.255 114.386C125.746 114.721 123.209 114.806 120.683 114.639C118.046 114.453 115.445 113.917 112.95 113.045C107.851 111.282 103.121 108.279 98.073 105.686C95.5913 104.38 92.9953 103.304 90.3175 102.47C89.6613 102.25 88.9834 102.11 88.32 101.944C87.6566 101.778 86.9823 101.659 86.3081 101.583C84.9742 101.378 83.6295 101.25 82.2807 101.201C79.657 101.124 77.0316 101.278 74.435 101.663C71.9436 102.018 69.4755 102.522 67.0437 103.17C62.2807 104.428 57.8675 106.011 53.6779 107.305C49.4882 108.6 45.5185 109.638 41.8156 110.132C38.4833 110.596 35.1028 110.596 31.7706 110.132C29.2581 109.786 26.8086 109.079 24.4982 108.034C23.0442 107.356 21.6703 106.518 20.4023 105.535C19.5586 104.832 19.1367 104.453 19.1367 104.453C19.1367 104.453 19.2521 104.54 19.4684 104.72C19.6848 104.9 19.9948 105.182 20.4275 105.52C21.6927 106.479 23.0574 107.299 24.4982 107.965C26.8079 109.002 29.2546 109.701 31.7634 110.042C35.0868 110.491 38.4565 110.476 41.776 109.999C45.468 109.497 49.4305 108.466 53.6094 107.154C57.7882 105.841 62.2086 104.269 66.9788 103.004C69.4197 102.348 71.8975 101.837 74.399 101.475C77.0111 101.089 79.6523 100.936 82.2915 101.017C83.6474 101.066 84.9994 101.194 86.3406 101.399C87.0184 101.486 87.6854 101.648 88.3633 101.76C89.0411 101.872 89.7117 102.066 90.3716 102.286C93.0623 103.125 95.6694 104.211 98.1595 105.531C103.207 108.127 107.941 111.127 113.014 112.879C115.494 113.748 118.078 114.283 120.698 114.473C123.212 114.639 125.736 114.556 128.233 114.224C133.123 113.608 137.644 112.317 141.841 111.073C146.038 109.829 149.932 108.549 153.57 107.727C156.829 106.916 160.155 106.397 163.507 106.177C166.037 106.011 168.578 106.139 171.078 106.559C171.338 106.602 171.587 106.638 171.828 106.685L172.528 106.851C172.975 106.963 173.4 107.046 173.786 107.161C174.55 107.413 175.207 107.59 175.715 107.796L176.872 108.271L177.28 108.437Z" fill="#E0E0E0"/>
<path d="M165.476 77.7505H170.675C172.499 77.7505 174.248 78.4749 175.537 79.7644C176.827 81.0538 177.551 82.8027 177.551 84.6263V100.361C177.551 101.68 177.027 102.944 176.095 103.877C175.162 104.809 173.898 105.333 172.579 105.333H167.365C165.037 105.333 162.804 104.408 161.157 102.762C159.511 101.115 158.586 98.8819 158.586 96.5534V84.6263C158.586 83.7221 158.764 82.8269 159.111 81.9917C159.457 81.1566 159.965 80.3979 160.605 79.7593C161.245 79.1206 162.005 78.6144 162.84 78.2697C163.676 77.9251 164.572 77.7486 165.476 77.7505Z" fill="#455A64"/>
<path d="M24.88 77.7505H30.0792C31.9028 77.7505 33.6516 78.4749 34.9411 79.7644C36.2306 81.0538 36.955 82.8027 36.955 84.6263V105.333H26.7837C25.6308 105.332 24.4892 105.105 23.4242 104.663C22.3592 104.222 21.3916 103.575 20.5767 102.759C19.7618 101.943 19.1155 100.975 18.6747 99.9099C18.234 98.8445 18.0073 97.7028 18.0078 96.5498V84.6263C18.0078 82.8033 18.7317 81.055 20.0204 79.7656C21.3091 78.4763 23.057 77.7514 24.88 77.7505Z" fill="#455A64"/>
<path d="M38.0078 93.4022H38.3287H39.2734L42.9078 93.3842H56.2699C67.5553 93.3842 83.1421 93.4671 100.359 93.5753L144.454 93.8241L157.817 93.8745L161.451 93.8962H162.396H162.717H162.396H161.451L157.817 93.9142H144.454C133.169 93.9142 117.582 93.8313 100.359 93.7231L56.2699 93.4743L42.9078 93.4238L39.2806 93.4202H38.3359L38.0078 93.4022Z" fill="#263238"/>
<path d="M36.957 117.808C36.9523 117.769 36.9523 117.729 36.957 117.689C36.957 117.599 36.957 117.484 36.957 117.329C36.957 117.011 36.957 116.561 36.9281 115.987C36.9065 114.812 36.8813 113.128 36.8452 111.055C36.7767 106.894 36.6974 101.14 36.5243 94.7867C36.4162 91.6138 36.3765 88.578 35.9474 85.8666C35.7529 84.5906 35.365 83.3517 34.7973 82.1925C34.2932 81.1812 33.5507 80.3076 32.6339 79.647C31.3478 78.6236 29.8188 77.9504 28.1955 77.6928C27.942 77.6614 27.6865 77.6482 27.4311 77.6532C27.2076 77.6712 27.0201 77.6964 26.8687 77.7144L26.5333 77.8046L26.418 77.8298C26.453 77.8102 26.4906 77.7956 26.5297 77.7866L26.8614 77.6784C27.0129 77.6532 27.222 77.6207 27.4275 77.5991C27.6861 77.5855 27.9453 77.5927 28.2027 77.6207C29.8501 77.8498 31.4068 78.5131 32.7133 79.5425C33.6545 80.2074 34.4173 81.0941 34.9343 82.124C35.5131 83.3038 35.9047 84.5664 36.0953 85.8666C36.5387 88.5996 36.582 91.6355 36.6902 94.812C36.8632 101.165 36.9209 106.919 36.957 111.084C36.957 113.157 36.957 114.841 36.9786 116.016C36.9786 116.589 36.9786 117.04 36.9786 117.357C36.9786 117.502 36.9786 117.617 36.9786 117.718C36.9747 117.749 36.9674 117.779 36.957 117.808Z" fill="#263238"/>
<path d="M27.2873 84.9868C27.2873 85.0084 27.089 85.0048 26.7537 85.1058C26.29 85.2571 25.882 85.5434 25.5819 85.9278C25.3709 86.1888 25.2195 86.4928 25.1384 86.8184C25.0476 87.1905 25.0651 87.5809 25.1889 87.9434C25.3099 88.3687 25.5549 88.7484 25.8927 89.0338C26.2305 89.3193 26.6457 89.4976 27.0853 89.5459C27.5249 89.5943 27.9689 89.5105 28.3607 89.3054C28.7524 89.1002 29.0742 88.7829 29.2848 88.3941C29.4833 88.0686 29.5858 87.6936 29.5804 87.3124C29.5705 86.9766 29.4881 86.647 29.3389 86.3461C29.1262 85.9011 28.7845 85.5305 28.3581 85.2825C28.0553 85.113 27.8606 85.0733 27.8642 85.0553C27.8678 85.0373 27.9147 85.0553 28.0084 85.0769C28.1423 85.1078 28.2719 85.155 28.3942 85.2176C28.7798 85.4192 29.1062 85.7177 29.3414 86.0837C29.5765 86.4497 29.7124 86.8707 29.7355 87.3052C29.7492 87.7197 29.6455 88.1297 29.4362 88.4878C29.2113 88.9096 28.8652 89.2542 28.4425 89.4773C28.0197 89.7004 27.5398 89.7916 27.0647 89.7392C26.5896 89.6868 26.1412 89.4932 25.7772 89.1833C25.4133 88.8735 25.1506 88.4617 25.023 88.001C24.8965 87.6075 24.884 87.1863 24.987 86.786C25.1023 86.3658 25.3258 85.9832 25.6351 85.6763C25.9445 85.3695 26.3289 85.1491 26.7501 85.0373C26.8828 85.001 27.0199 84.9828 27.1575 84.9832C27.2008 84.98 27.2443 84.9812 27.2873 84.9868Z" fill="#263238"/>
<path d="M25.5777 93.4743C25.4746 93.2903 25.4131 93.086 25.3975 92.8757C25.3233 92.3695 25.3577 91.8533 25.4984 91.3614C25.6415 90.8685 25.8872 90.4114 26.2195 90.0201C26.4719 89.7245 26.6774 89.5911 26.6883 89.6091C26.2247 90.1279 25.8861 90.7461 25.6986 91.4161C25.5111 92.0861 25.4796 92.7902 25.6066 93.4743H25.5777Z" fill="#263238"/>
<path d="M24.1649 88.7979C24.118 88.7799 24.2009 88.5131 24.4461 88.2859C24.6913 88.0588 24.9617 87.9939 24.9797 88.0444C24.9977 88.0948 24.7886 88.221 24.5759 88.4049C24.3632 88.5888 24.2117 88.8232 24.1649 88.7979Z" fill="#263238"/>
<path d="M32.678 88.4878C32.6564 88.5094 32.5229 88.3508 32.2597 88.1669C31.915 87.9292 31.5203 87.7738 31.106 87.7126C30.6913 87.656 30.2691 87.6968 29.8729 87.8316C29.7118 87.9052 29.5469 87.9701 29.3789 88.0263C29.3789 88.0263 29.5123 87.8532 29.8224 87.709C30.2328 87.5262 30.6867 87.4637 31.1312 87.5287C31.5768 87.5868 31.9961 87.772 32.3391 88.0623C32.5987 88.2859 32.696 88.4806 32.678 88.4878Z" fill="#263238"/>
<path d="M51.1954 54.7903L51.0981 54.8084L50.8168 54.8372C50.5717 54.8661 50.2039 54.8949 49.7352 54.9165C48.7905 54.9706 47.4204 54.949 45.733 54.9598C43.7608 54.9309 41.7965 55.2157 39.9137 55.8035C39.3788 55.9942 38.8737 56.2601 38.4138 56.5931C37.9433 56.942 37.5453 57.3792 37.2419 57.8803C36.6038 58.9007 36.3117 60.1446 36.099 61.4029C35.3346 66.4976 34.6568 71.1055 34.1412 74.4586C33.8816 76.1172 33.6725 77.4656 33.5246 78.4247C33.4525 78.879 33.3912 79.2396 33.3516 79.5064C33.3299 79.6182 33.3119 79.7083 33.3011 79.784C33.2961 79.8161 33.2877 79.8475 33.2758 79.8778C33.2726 79.8454 33.2726 79.8128 33.2758 79.7804C33.2758 79.7047 33.2975 79.6146 33.3083 79.4992C33.3443 79.2396 33.3912 78.879 33.4489 78.4175C33.5823 77.4656 33.7734 76.1172 34.0042 74.4514C34.4837 71.1055 35.1435 66.4868 35.9115 61.3849C36.0618 60.1183 36.4587 58.8934 37.0797 57.7793C37.3983 57.2597 37.8146 56.8066 38.3056 56.4453C38.7776 56.1068 39.2962 55.8384 39.8452 55.6485C41.7487 55.0618 43.7345 54.7866 45.7258 54.8336C47.4168 54.8336 48.7797 54.8805 49.7244 54.8516C50.1967 54.8516 50.5645 54.8228 50.806 54.8084H51.0909L51.1954 54.7903Z" fill="#263238"/>
<path d="M162.715 93.2291C162.665 93.2291 162.142 90.5538 161.547 87.2331C160.952 83.9124 160.512 81.2118 160.563 81.2046C160.613 81.1974 161.136 83.88 161.731 87.2007C162.326 90.5214 162.766 93.2219 162.715 93.2291Z" fill="#263238"/>
<path d="M163.384 117.808C163.38 117.769 163.38 117.729 163.384 117.689C163.384 117.599 163.384 117.487 163.366 117.329C163.366 117.011 163.333 116.561 163.312 115.991C163.272 114.819 163.214 113.146 163.146 111.084C163.023 106.927 162.854 101.205 162.666 94.8841C162.666 94.4875 162.637 94.0981 162.641 93.7051V92.5405C162.641 91.7689 162.657 91.0093 162.688 90.2618C162.725 88.8245 162.836 87.39 163.02 85.964C163.104 85.2994 163.225 84.6398 163.38 83.9881C163.523 83.3637 163.739 82.7584 164.025 82.1853C164.161 81.9133 164.319 81.6529 164.498 81.4065C164.677 81.1765 164.869 80.9573 165.075 80.7503C165.461 80.3626 165.888 80.0169 166.347 79.7192C167.737 78.8016 169.393 78.374 171.053 78.5041C171.497 78.5587 171.933 78.6727 172.347 78.843L172.661 78.9944L172.765 79.0485C172.218 78.8062 171.637 78.6481 171.042 78.5798C169.406 78.4784 167.781 78.918 166.42 79.8309C165.969 80.1238 165.553 80.466 165.179 80.8513C164.979 81.0539 164.792 81.2695 164.62 81.4967C164.448 81.7369 164.295 81.99 164.162 82.2539C163.888 82.8147 163.679 83.405 163.539 84.0134C163.384 84.6604 163.264 85.3151 163.178 85.9748C162.994 87.3305 162.911 88.7655 162.861 90.2546C162.839 90.9973 162.825 91.7581 162.818 92.5261V93.6907C162.818 94.0801 162.836 94.4731 162.843 94.8697C163.009 101.19 163.157 106.912 163.265 111.069C163.312 113.132 163.348 114.808 163.373 115.98C163.373 116.55 163.373 116.997 163.373 117.314C163.373 117.458 163.373 117.574 163.373 117.675C163.38 117.719 163.384 117.763 163.384 117.808Z" fill="#263238"/>
<path d="M170.524 85.6431C170.524 85.6647 170.326 85.6431 169.99 85.7584C169.522 85.9096 169.109 86.1971 168.804 86.5841C168.593 86.8451 168.442 87.149 168.361 87.4747C168.272 87.847 168.289 88.2368 168.411 88.5996C168.531 89.0276 168.776 89.4099 169.116 89.6972C169.455 89.9844 169.872 90.1634 170.314 90.2112C170.756 90.2589 171.202 90.1731 171.595 89.9649C171.988 89.7567 172.309 89.4356 172.518 89.0431C172.715 88.7171 172.818 88.3425 172.813 87.9614C172.804 87.626 172.723 87.2965 172.575 86.9951C172.361 86.5525 172.019 86.1835 171.595 85.9351C171.288 85.762 171.094 85.726 171.101 85.7044L171.241 85.726C171.375 85.7595 171.504 85.8079 171.627 85.8702C172.088 86.1078 172.461 86.4869 172.691 86.9519C172.859 87.2668 172.954 87.6156 172.968 87.9722C172.984 88.3858 172.88 88.795 172.669 89.1513C172.445 89.5731 172.099 89.9179 171.676 90.1412C171.254 90.3646 170.774 90.4561 170.299 90.4041C169.824 90.3521 169.375 90.1589 169.011 89.8495C168.647 89.54 168.384 89.1285 168.256 88.6681C168.131 88.2731 168.119 87.8512 168.22 87.4494C168.336 87.0302 168.56 86.6487 168.87 86.3426C169.179 86.0366 169.563 85.8165 169.983 85.7044C170.116 85.6691 170.253 85.6498 170.391 85.6467C170.488 85.6322 170.524 85.6359 170.524 85.6431Z" fill="#263238"/>
<path d="M168.83 94.1305C168.723 93.9467 168.66 93.7406 168.646 93.5283C168.574 93.0226 168.608 92.5073 168.748 92.0159C168.888 91.5244 169.13 91.068 169.458 90.6764C169.583 90.5051 169.744 90.3635 169.93 90.2617C169.487 90.7956 169.148 91.4068 168.928 92.0645C168.765 92.7408 168.732 93.4418 168.83 94.1305Z" fill="#263238"/>
<path d="M167.415 89.4541C167.368 89.4361 167.451 89.1692 167.696 88.9421C167.941 88.7149 168.215 88.6501 168.23 88.6969C168.244 88.7438 168.039 88.8772 167.826 89.0791C167.613 89.281 167.462 89.4793 167.415 89.4541Z" fill="#263238"/>
<path d="M175.932 89.144C175.906 89.1657 175.773 89.007 175.51 88.8195C175.166 88.5813 174.771 88.4269 174.356 88.3687C173.942 88.3105 173.519 88.35 173.123 88.4842C172.962 88.5605 172.797 88.6267 172.629 88.6825C172.629 88.6645 172.762 88.5095 173.072 88.3616C173.486 88.1841 173.94 88.1238 174.385 88.1874C174.83 88.2511 175.249 88.4361 175.596 88.7222C175.849 88.9421 175.932 89.1332 175.932 89.144Z" fill="#263238"/>
<path d="M136.543 39.7228L138.443 36.3732C137.263 34.4701 136.838 32.1946 137.251 29.9939C137.663 27.7932 138.884 25.8264 140.673 24.4799C142.462 23.1334 144.69 22.5046 146.919 22.717C149.148 22.9294 151.217 23.9677 152.719 25.6279C154.222 27.288 155.049 29.45 155.038 31.689C155.028 33.9281 154.18 36.0822 152.663 37.7283C151.145 39.3743 149.066 40.3933 146.835 40.5848C144.605 40.7764 142.383 40.1268 140.606 38.7637L136.543 39.7228Z" fill="#FAFAFA"/>
<path d="M136.542 39.7228L140.595 38.7276L140.573 38.7925L140.386 38.5474L140.631 38.7349C141.873 39.6912 143.346 40.302 144.9 40.5052C145.365 40.569 145.834 40.5907 146.303 40.5701C146.544 40.5701 146.789 40.5484 147.024 40.5268L147.774 40.4114C149.996 39.967 151.967 38.695 153.287 36.8528C154.021 35.8341 154.529 34.6698 154.776 33.4383C155.028 32.1374 154.991 30.797 154.667 29.5119C154.332 28.1701 153.684 26.9269 152.775 25.8847C151.851 24.8174 150.687 23.9855 149.378 23.4581C148.119 22.9591 146.763 22.7496 145.412 22.8452C144.136 22.9353 142.895 23.3046 141.778 23.9269C139.767 25.0452 138.261 26.8897 137.566 29.0828C137.287 30.0183 137.154 30.9911 137.17 31.9672C137.21 33.5264 137.657 35.0479 138.468 36.3804V36.3985C137.253 38.4969 136.665 39.4992 136.535 39.73L138.403 36.3624V36.4021C137.569 35.0642 137.106 33.5286 137.062 31.9528C137.039 30.9664 137.169 29.9825 137.447 29.0359C138.141 26.8017 139.669 24.9204 141.713 23.7826C142.851 23.1571 144.112 22.7879 145.408 22.701C146.779 22.6028 148.154 22.8135 149.432 23.3175C150.765 23.8549 151.952 24.7015 152.894 25.7873C153.819 26.849 154.478 28.1159 154.815 29.483C155.146 30.7904 155.182 32.1551 154.92 33.478C154.669 34.7288 154.152 35.9108 153.402 36.9429C152.059 38.8151 150.053 40.1046 147.792 40.5484L147.035 40.6638C146.782 40.6855 146.533 40.6927 146.288 40.7035C145.813 40.7216 145.338 40.6975 144.868 40.6314C143.3 40.4204 141.816 39.7984 140.566 38.8286L140.624 38.7709L140.664 38.8214H140.602L136.542 39.7228Z" fill="#263238"/>
<path d="M148.383 31.9384C148.383 32.081 148.425 32.2204 148.504 32.339C148.584 32.4576 148.696 32.55 148.828 32.6046C148.96 32.6592 149.105 32.6735 149.245 32.6457C149.384 32.6178 149.513 32.5491 149.614 32.4483C149.715 32.3474 149.783 32.219 149.811 32.0791C149.839 31.9392 149.825 31.7942 149.77 31.6624C149.716 31.5307 149.623 31.4181 149.505 31.3388C149.386 31.2596 149.247 31.2173 149.104 31.2173C148.913 31.2173 148.729 31.2933 148.594 31.4285C148.459 31.5637 148.383 31.7471 148.383 31.9384Z" fill="#263238"/>
<path d="M146.229 32.6559C146.625 32.6559 146.947 32.3347 146.947 31.9384C146.947 31.5421 146.625 31.2209 146.229 31.2209C145.833 31.2209 145.512 31.5421 145.512 31.9384C145.512 32.3347 145.833 32.6559 146.229 32.6559Z" fill="#263238"/>
<path d="M142.645 31.5778C142.573 31.7013 142.539 31.8433 142.548 31.9859C142.557 32.1285 142.608 32.2653 142.695 32.3788C142.782 32.4923 142.9 32.5775 143.036 32.6235C143.171 32.6695 143.317 32.6743 143.455 32.6373C143.593 32.6002 143.717 32.523 143.811 32.4155C143.905 32.3079 143.965 32.1748 143.983 32.0331C144.001 31.8914 143.977 31.7474 143.914 31.6195C143.85 31.4916 143.75 31.3855 143.626 31.3146C143.46 31.2203 143.265 31.195 143.081 31.2443C142.897 31.2936 142.741 31.4135 142.645 31.5778Z" fill="#263238"/>
<path d="M100.803 117.267L103.615 125.513C103.615 125.513 96.1772 131.142 96.5486 132.724L112.73 127.85L108.869 114.812L100.803 117.267Z" fill="#01818C"/>
<path d="M108.404 123.296C108.573 123.297 108.737 123.361 108.863 123.474C108.989 123.588 109.069 123.744 109.089 123.912C109.094 124.082 109.034 124.248 108.922 124.375C108.809 124.502 108.652 124.582 108.483 124.597C108.302 124.598 108.128 124.531 107.995 124.41C107.861 124.288 107.778 124.121 107.762 123.941C107.762 123.602 108.122 123.22 108.483 123.299" fill="white"/>
<path d="M112.728 127.839L112.368 126.653L96.8638 131.718C96.6297 131.996 96.5086 132.351 96.5249 132.713L112.728 127.839Z" fill="#263238"/>
<path d="M103.327 125.51C103.352 125.589 103.759 125.51 104.224 125.643C104.69 125.776 104.996 126.05 105.061 126.004C105.126 125.957 104.87 125.528 104.3 125.373C103.731 125.218 103.287 125.459 103.327 125.51Z" fill="#263238"/>
<path d="M101.841 126.725C101.841 126.808 102.226 126.836 102.598 127.085C102.969 127.334 103.149 127.669 103.229 127.644C103.308 127.619 103.229 127.154 102.756 126.847C102.284 126.541 101.819 126.649 101.841 126.725Z" fill="#263238"/>
<path d="M101.488 129.065C101.568 129.065 101.557 128.632 101.225 128.261C100.893 127.889 100.468 127.828 100.454 127.9C100.439 127.972 100.738 128.138 101.009 128.448C101.279 128.758 101.409 129.065 101.488 129.065Z" fill="#263238"/>
<path d="M102.894 123.559C102.948 123.62 103.28 123.404 103.734 123.299C104.188 123.195 104.581 123.231 104.603 123.152C104.624 123.072 104.203 122.888 103.669 123.022C103.135 123.155 102.836 123.509 102.894 123.559Z" fill="#263238"/>
<path d="M150.764 116.806L149.905 125.459C149.905 125.459 158.433 129.241 158.429 130.867L141.559 129.811L142.337 116.247L150.764 116.806Z" fill="#01818C"/>
<path d="M144.735 124.424C144.569 124.464 144.424 124.563 144.327 124.703C144.23 124.842 144.188 125.013 144.208 125.182C144.243 125.347 144.339 125.494 144.478 125.591C144.616 125.689 144.787 125.731 144.955 125.708C145.13 125.667 145.285 125.562 145.387 125.413C145.489 125.264 145.532 125.083 145.506 124.904C145.455 124.733 145.339 124.588 145.182 124.502C145.026 124.416 144.842 124.394 144.67 124.442" fill="white"/>
<path d="M141.559 129.825L141.631 128.592L157.874 129.988C158.165 130.205 158.363 130.525 158.429 130.882L141.559 129.825Z" fill="#263238"/>
<path d="M150.188 125.412C150.188 125.495 149.766 125.506 149.344 125.744C148.922 125.982 148.684 126.317 148.623 126.281C148.561 126.245 148.702 125.776 149.218 125.495C149.733 125.214 150.209 125.337 150.188 125.412Z" fill="#263238"/>
<path d="M151.908 126.256C151.908 126.335 151.547 126.454 151.251 126.786C150.956 127.118 150.848 127.478 150.765 127.471C150.682 127.464 150.66 126.991 151.042 126.588C151.425 126.184 151.911 126.18 151.908 126.256Z" fill="#263238"/>
<path d="M152.785 128.437C152.709 128.437 152.619 128.03 152.857 127.594C153.095 127.157 153.495 126.999 153.524 127.071C153.553 127.143 153.304 127.366 153.109 127.731C152.915 128.095 152.857 128.434 152.785 128.437Z" fill="#263238"/>
<path d="M150.161 123.415C150.122 123.487 149.75 123.35 149.285 123.354C148.82 123.357 148.445 123.48 148.405 123.408C148.366 123.335 148.733 123.047 149.285 123.065C149.837 123.083 150.204 123.354 150.161 123.415Z" fill="#263238"/>
<path d="M154.058 85.3907C154.058 85.3907 155.926 87.9975 155.771 90.9432C155.616 93.8889 151.913 121.832 151.913 121.832L141.5 119.578L142.088 96.0306L147.496 87.0672L154.058 85.3907Z" fill="#263238"/>
<path d="M118.168 25.1059C119.118 24.2376 120.263 23.6107 121.507 23.2779C122.754 22.9966 124.171 23.2202 125.112 24.0927C125.833 24.7706 126.252 25.7909 127.128 26.2561C128.332 26.9051 129.792 26.2344 131.159 26.2164C131.295 26.1976 131.433 26.2155 131.56 26.2681C131.687 26.3207 131.797 26.4061 131.88 26.5157C131.917 26.6304 131.93 26.7518 131.917 26.8717C131.903 26.9916 131.865 27.1074 131.804 27.2115L130.86 29.465C131.154 29.5822 131.471 29.6311 131.787 29.6079C132.103 29.5848 132.41 29.4904 132.684 29.3316C132.686 30.7877 132.175 32.198 131.242 33.3157C131.305 33.2797 131.376 33.2573 131.449 33.25C131.521 33.2427 131.595 33.2507 131.665 33.2735C131.734 33.2962 131.798 33.3332 131.853 33.382C131.907 33.4309 131.951 33.4906 131.981 33.5573C132.09 33.8363 132.1 34.1442 132.01 34.4298C131.814 35.3234 131.43 36.1646 130.881 36.8967C130.333 37.6288 129.634 38.2347 128.832 38.6736C128.029 39.1124 127.142 39.374 126.23 39.4405C125.317 39.5071 124.402 39.3771 123.544 39.0594" fill="#263238"/>
<path d="M118.896 24.7814C118.132 24.3675 117.253 24.216 116.394 24.3502C115.536 24.4844 114.745 24.8968 114.144 25.5241C113.336 26.4111 112.99 27.6081 112.539 28.7186C112.089 29.8292 111.429 30.9685 110.315 31.4156C109.413 31.7762 108.342 31.6247 107.502 32.1079C106.59 32.6307 106.201 33.788 106.291 34.8373C106.381 35.8865 106.86 36.8528 107.333 37.7938C107.092 38.067 106.799 38.2891 106.47 38.447C106.142 38.6049 105.786 38.6954 105.422 38.7132C105.81 39.4037 106.414 39.9473 107.142 40.26C107.62 40.3974 108.073 40.6118 108.483 40.8946C108.825 41.2521 109.054 41.7022 109.143 42.189C109.215 42.4663 109.35 42.7237 109.536 42.9417C109.722 43.1597 109.955 43.3328 110.218 43.448C110.48 43.5631 110.766 43.6174 111.052 43.6066C111.339 43.5959 111.619 43.5205 111.872 43.386C112.414 43.1046 112.927 42.7687 113.401 42.3837C113.401 42.3837 112.986 43.2562 114.025 43.9233C114.37 43.8151 114.685 43.6253 114.942 43.3699C115.198 43.1144 115.39 42.8009 115.499 42.4558" fill="#263238"/>
<path d="M127.525 31.6031C127.367 29.7887 126.531 28.1005 125.184 26.8745C123.837 25.6485 122.078 24.9746 120.257 24.9869H119.896C115.851 25.2501 113.813 28.8304 114.188 32.8687L115.061 51.5454L124.338 51.4625L124.205 45.3907C124.205 45.3907 128.091 44.7598 128.113 40.8694C128.124 38.9765 127.832 35.1041 127.525 31.6031Z" fill="#AA6550"/>
<path d="M126.576 34.8048C126.579 34.9497 126.525 35.09 126.426 35.1957C126.327 35.3015 126.19 35.3643 126.046 35.3709C125.975 35.3768 125.904 35.3685 125.836 35.3466C125.769 35.3247 125.707 35.2895 125.653 35.2432C125.599 35.1969 125.555 35.1403 125.524 35.0768C125.492 35.0133 125.473 34.9441 125.469 34.8733C125.467 34.7281 125.521 34.5879 125.621 34.4822C125.721 34.3766 125.857 34.3138 126.002 34.3073C126.073 34.3014 126.144 34.3096 126.211 34.3316C126.278 34.3536 126.341 34.3888 126.394 34.4352C126.447 34.4815 126.491 34.5381 126.522 34.6016C126.553 34.6651 126.572 34.7342 126.576 34.8048Z" fill="#263238"/>
<path d="M126.701 33.6474C126.633 33.7195 126.211 33.4131 125.619 33.4167C125.028 33.4203 124.585 33.7231 124.52 33.651C124.455 33.5789 124.556 33.4888 124.747 33.3482C125.004 33.1666 125.312 33.0696 125.627 33.0705C125.938 33.0676 126.242 33.1636 126.496 33.3446C126.672 33.4852 126.733 33.615 126.701 33.6474Z" fill="#263238"/>
<path d="M123.021 38.0822C123.335 37.982 123.661 37.9215 123.991 37.902C124.146 37.902 124.29 37.8515 124.315 37.7469C124.324 37.5893 124.287 37.4326 124.207 37.2962C124.063 36.9357 123.911 36.5427 123.749 36.1389C123.111 34.4875 122.667 33.1282 122.714 33.103C122.761 33.0777 123.353 34.3974 123.991 36.0487C124.146 36.4525 124.29 36.8419 124.431 37.2133C124.529 37.3966 124.558 37.6088 124.513 37.8118C124.493 37.8664 124.46 37.9153 124.417 37.9542C124.373 37.9931 124.321 38.021 124.265 38.0354C124.181 38.061 124.093 38.0744 124.005 38.075C123.679 38.1203 123.348 38.1227 123.021 38.0822Z" fill="#263238"/>
<path d="M126.634 32.5802C126.508 32.7208 125.999 32.5802 125.394 32.5802C124.788 32.5802 124.276 32.6919 124.157 32.5513C124.103 32.4828 124.182 32.3458 124.402 32.2124C124.711 32.0462 125.058 31.9641 125.408 31.9744C125.756 31.9701 126.098 32.0585 126.4 32.2304C126.616 32.3747 126.688 32.5153 126.634 32.5802Z" fill="#263238"/>
<path d="M114.78 35.7494C114.712 35.7206 112.101 34.9742 112.202 37.6351C112.303 40.296 114.953 39.6398 114.957 39.5641C114.96 39.4884 114.78 35.7494 114.78 35.7494Z" fill="#AA6550"/>
<path d="M114.342 38.587C114.342 38.587 114.295 38.6231 114.219 38.6591C114.163 38.6872 114.103 38.7036 114.041 38.7073C113.979 38.711 113.917 38.702 113.858 38.6808C113.682 38.5783 113.537 38.4307 113.437 38.2533C113.336 38.0758 113.285 37.8749 113.289 37.6712C113.272 37.4438 113.308 37.2156 113.393 37.0042C113.415 36.9216 113.456 36.8455 113.514 36.7826C113.572 36.7198 113.644 36.6721 113.725 36.6436C113.778 36.627 113.835 36.6295 113.886 36.6506C113.938 36.6716 113.98 36.71 114.006 36.759C114.042 36.8311 114.028 36.8852 114.042 36.8888C114.057 36.8924 114.096 36.8419 114.071 36.7338C114.053 36.6685 114.014 36.6112 113.959 36.5715C113.923 36.5454 113.881 36.5268 113.837 36.5169C113.793 36.507 113.748 36.506 113.703 36.5138C113.594 36.5392 113.494 36.5924 113.412 36.6682C113.33 36.7441 113.269 36.84 113.235 36.9465C113.13 37.1806 113.084 37.4369 113.101 37.6928C113.141 38.2265 113.433 38.7168 113.822 38.8142C113.895 38.8323 113.97 38.8339 114.043 38.8189C114.116 38.8039 114.185 38.7727 114.244 38.7276C114.338 38.6519 114.349 38.5906 114.342 38.587Z" fill="#894536"/>
<path d="M117.159 27.6622C117.937 27.4752 118.756 27.5751 119.466 27.9435L119.928 28.1814L126.887 28.9025C128.491 28.0336 127.384 26.5697 125.906 26.1118C124.172 25.5854 122.207 24.3884 120.404 24.3704C118.601 24.3523 115.504 25.5061 114.274 27.5432C113.847 28.221 113.556 28.9753 113.416 29.7643C113.263 31.6837 113.353 33.615 113.687 35.5115C113.884 36.0904 114.19 36.6263 114.588 37.0907C115.201 37.0907 115.425 36.5968 115.309 36.0091L115.176 33.6366C115.784 33.1496 116.217 32.4769 116.408 31.7212C116.599 30.9654 116.537 30.168 116.232 29.4506C116.14 29.2756 116.091 29.0808 116.09 28.8828C116.09 28.6849 116.137 28.4897 116.228 28.314C116.319 28.1383 116.451 27.9872 116.613 27.8737C116.775 27.7602 116.963 27.6876 117.159 27.6622Z" fill="#263238"/>
<path d="M116.124 28.5852C116.257 27.7271 117.627 27.143 118.46 27.399C119.293 27.655 119.924 28.2932 120.573 28.8701C121.222 29.447 122.015 29.9878 122.873 29.9157C123.732 29.8436 124.611 29.1044 125.477 29.3604C125.859 29.4722 126.162 29.7679 126.529 29.9157C126.819 30.0158 127.128 30.0491 127.433 30.0128C127.738 29.9766 128.03 29.8719 128.289 29.7066C128.803 29.3727 129.264 28.9631 129.655 28.4915C127.939 28.56 126.313 27.792 124.784 27.0168C123.256 26.2416 121.666 25.4196 119.949 25.3799C118.233 25.3402 116.344 26.3354 116.016 28.0192" fill="#263238"/>
<path d="M109.131 40.7792C109.213 40.7966 109.296 40.8087 109.38 40.8153C109.619 40.8132 109.85 40.7219 110.025 40.5593C110.16 40.4293 110.261 40.2685 110.319 40.0906C110.378 39.9128 110.392 39.7234 110.361 39.5389C110.274 39.0418 110.05 38.5786 109.715 38.2013C109.302 37.7272 108.948 37.204 108.662 36.6437C108.493 36.3106 108.398 35.9453 108.381 35.5721C108.365 35.199 108.429 34.8267 108.569 34.4803C108.742 34.1092 109.029 33.8025 109.387 33.6042C109.752 33.4067 110.149 33.2738 110.559 33.2112C111.367 33.0525 112.243 33.0345 112.993 32.6487C113.356 32.4583 113.645 32.1526 113.815 31.7798C113.966 31.4056 114.038 31.0042 114.027 30.6008C114.027 29.7931 113.811 29.0179 113.793 28.2463C113.778 27.8681 113.821 27.4897 113.923 27.125C114.027 26.7759 114.222 26.461 114.489 26.2128C114.737 26.0038 115.024 25.8466 115.334 25.7506C115.643 25.6546 115.969 25.6217 116.292 25.6539C116.816 25.6974 117.323 25.8575 117.777 26.1227C118.116 26.3196 118.436 26.5452 118.736 26.7969C118.981 26.9988 119.165 27.1575 119.288 27.2837C119.354 27.3372 119.414 27.399 119.465 27.4675C119.39 27.4253 119.321 27.3745 119.259 27.3161L118.682 26.8618C118.379 26.6248 118.057 26.4126 117.72 26.2272C117.276 25.9809 116.784 25.8356 116.277 25.8018C115.671 25.7536 115.071 25.9481 114.608 26.3426C114.373 26.5953 114.195 26.8961 114.088 27.2243C113.981 27.5524 113.947 27.9 113.988 28.2427C114.006 28.9638 114.229 29.7571 114.233 30.5972C114.248 31.0315 114.17 31.4641 114.006 31.8663C113.819 32.2827 113.496 32.6233 113.09 32.8326C112.272 33.2544 111.388 33.2581 110.595 33.4131C110.208 33.4725 109.833 33.5942 109.484 33.7736C109.171 33.956 108.92 34.2286 108.763 34.556C108.634 34.8762 108.575 35.2202 108.588 35.5651C108.602 35.91 108.689 36.2482 108.843 36.5571C109.115 37.1097 109.454 37.6267 109.852 38.0967C110.197 38.4987 110.421 38.9899 110.498 39.5137C110.524 39.7129 110.501 39.9155 110.431 40.104C110.362 40.2925 110.247 40.4611 110.097 40.5953C109.903 40.7637 109.651 40.8492 109.394 40.8333C109.303 40.8376 109.213 40.819 109.131 40.7792Z" fill="#455A64"/>
<path d="M129.592 26.9591C129.592 26.9591 129.571 26.9988 129.506 27.0601C129.419 27.1542 129.321 27.2377 129.214 27.3089C128.819 27.5781 128.363 27.7431 127.887 27.7884C127.173 27.8691 126.453 27.6997 125.85 27.3089C125.501 27.0703 125.205 26.7622 124.981 26.4039C124.766 26.0271 124.525 25.6657 124.26 25.3222C123.985 25.0207 123.639 24.793 123.254 24.66C122.868 24.5271 122.455 24.4932 122.053 24.5614C121.724 24.6174 121.411 24.7453 121.137 24.936C120.863 25.1267 120.634 25.3755 120.467 25.6647C120.233 26.0562 120.109 26.5032 120.106 26.9591C120.106 27.2872 120.153 27.4639 120.131 27.4675C120.11 27.4711 120.11 27.4278 120.085 27.3413C120.051 27.2237 120.031 27.1028 120.023 26.9807C119.997 26.5012 120.11 26.0242 120.348 25.607C120.519 25.2906 120.759 25.0167 121.051 24.8058C121.342 24.5948 121.677 24.4521 122.032 24.3884C122.467 24.3089 122.917 24.342 123.336 24.4846C123.756 24.6272 124.132 24.8745 124.429 25.2032C124.705 25.5441 124.955 25.9057 125.176 26.2849C125.382 26.6231 125.655 26.9152 125.98 27.143C126.454 27.4545 127.005 27.6282 127.573 27.6448C128.14 27.6613 128.7 27.5201 129.192 27.2367C129.452 27.0745 129.578 26.9375 129.592 26.9591Z" fill="#455A64"/>
<path d="M110.434 30.2402C110.434 30.2402 110.459 30.1897 110.477 30.0924C110.499 29.9512 110.467 29.8068 110.387 29.6886C110.33 29.595 110.246 29.5213 110.146 29.478C110.046 29.4347 109.935 29.4238 109.828 29.447C109.69 29.487 109.568 29.567 109.476 29.6768C109.384 29.7866 109.327 29.9212 109.312 30.0635C109.31 30.2394 109.359 30.4121 109.453 30.5607C109.547 30.7093 109.682 30.8272 109.842 30.9C110.031 30.9828 110.235 31.0256 110.441 31.0256C110.647 31.0256 110.851 30.9828 111.039 30.9C111.471 30.7237 111.835 30.4159 112.081 30.0203C112.319 29.5751 112.453 29.0822 112.474 28.578C112.507 28.0487 112.618 27.5273 112.806 27.0313C112.993 26.5705 113.26 26.1468 113.596 25.7801C114.069 25.2607 114.671 24.8745 115.34 24.6601C116.009 24.4456 116.723 24.4103 117.41 24.5579C117.558 24.59 117.704 24.6321 117.847 24.684C117.944 24.7237 117.994 24.7453 117.991 24.7526C117.987 24.7598 117.778 24.6985 117.396 24.6372C116.856 24.5526 116.305 24.5747 115.773 24.7021C114.987 24.8861 114.277 25.3079 113.74 25.9099C113.424 26.264 113.173 26.6703 112.997 27.1106C112.819 27.5884 112.715 28.0905 112.687 28.5997C112.661 29.1363 112.515 29.6602 112.258 30.132C111.988 30.5647 111.586 30.8987 111.111 31.0839C110.899 31.1786 110.669 31.2275 110.437 31.2275C110.205 31.2275 109.975 31.1786 109.763 31.0839C109.576 30.9918 109.421 30.848 109.314 30.6696C109.207 30.4912 109.154 30.2858 109.161 30.078C109.18 29.906 109.252 29.7442 109.367 29.6149C109.482 29.4857 109.634 29.3955 109.803 29.3568C109.943 29.3269 110.089 29.3501 110.214 29.4217C110.314 29.4827 110.397 29.5683 110.455 29.6705C110.497 29.7384 110.524 29.814 110.535 29.8928C110.546 29.9715 110.541 30.0517 110.52 30.1284C110.484 30.2078 110.437 30.2438 110.434 30.2402Z" fill="#263238"/>
<path d="M124.23 45.3691C122.426 45.3867 120.654 44.8862 119.125 43.9268C119.125 43.9268 120.34 46.7175 124.22 46.3426L124.23 45.3691Z" fill="#894536"/>
<path d="M120.646 34.9238C120.648 35.0686 120.593 35.2085 120.493 35.3136C120.394 35.4187 120.257 35.4806 120.112 35.4863C120.042 35.4927 119.971 35.4849 119.903 35.4634C119.836 35.4419 119.773 35.407 119.719 35.361C119.666 35.315 119.622 35.2586 119.59 35.1953C119.558 35.132 119.54 35.0629 119.535 34.9923C119.533 34.8471 119.588 34.7068 119.687 34.6012C119.787 34.4955 119.924 34.4328 120.069 34.4262C120.14 34.4203 120.211 34.4286 120.278 34.4505C120.346 34.4724 120.408 34.5076 120.462 34.5539C120.515 34.6002 120.559 34.6568 120.591 34.7203C120.623 34.7838 120.641 34.853 120.646 34.9238Z" fill="#263238"/>
<path d="M120.631 33.9431C120.559 34.0152 120.137 33.7087 119.549 33.7123C118.961 33.7159 118.518 34.0224 118.467 33.9467C118.417 33.871 118.503 33.7844 118.694 33.6438C118.95 33.4617 119.257 33.3645 119.571 33.3662C119.882 33.3638 120.186 33.4597 120.44 33.6402C120.598 33.7808 120.663 33.9106 120.631 33.9431Z" fill="#263238"/>
<path d="M120.823 33.1967C120.744 33.3482 120.163 33.1967 119.457 33.1679C118.75 33.1391 118.162 33.258 118.09 33.0994C118.061 33.0273 118.18 32.8903 118.429 32.7641C118.758 32.6144 119.118 32.5452 119.478 32.5622C119.839 32.5706 120.193 32.6658 120.51 32.8398C120.766 32.9768 120.859 33.1246 120.823 33.1967Z" fill="#263238"/>
<path d="M114.734 47.3701C114.734 47.3701 106.044 49.6056 104.75 51.2245L107.047 77.4008C107.047 77.4008 105.147 81.9257 105.01 82.6469C104.746 84.0061 106.344 84.6551 106.344 84.6551L136.692 82.4918C136.692 82.4918 138.116 80.5051 135.931 79.2468L132.924 73.0525L132.394 49.3063L124.429 47.5937C121.815 51.5454 116.519 50.8603 114.734 47.3701Z" fill="#01818C"/>
<path d="M107.064 83.1733C107.064 83.1733 94.8051 88.048 92.4219 91.9492L104.32 98.0786L124.043 95.5115C124.043 95.5115 128.914 95.0319 130.756 95.0752C132.721 95.1221 141.742 96.0379 142.096 96.0379C142.449 96.0379 150.331 88.935 150.331 88.935L154.055 85.3907C154.055 85.3907 152.815 83.8836 150.154 83.1733C147.493 82.463 142.882 80.6891 134.106 81.7527L107.064 83.1733Z" fill="#263238"/>
<path d="M122.142 93.8024C122.184 93.1364 122.167 92.468 122.092 91.8049C121.993 91.0915 121.792 90.3958 121.497 89.7389C121.133 88.9362 120.63 88.2039 120.011 87.5756C118.849 86.4621 117.509 85.5516 116.045 84.8823L114.722 84.2405C114.556 84.1725 114.397 84.0892 114.246 83.9917C114.42 84.0387 114.59 84.1003 114.754 84.1756C115.075 84.3054 115.54 84.5001 116.103 84.7597C117.603 85.4043 118.975 86.3142 120.152 87.4458C120.786 88.0896 121.298 88.8434 121.663 89.6704C121.955 90.3455 122.147 91.0598 122.232 91.7905C122.285 92.2831 122.285 92.7798 122.232 93.2724C122.214 93.4455 122.193 93.5789 122.175 93.669C122.171 93.7149 122.16 93.76 122.142 93.8024Z" fill="#455A64"/>
<path d="M133.766 82.7478C133.618 82.8665 133.46 82.9726 133.294 83.0651C133.139 83.1624 132.951 83.2814 132.742 83.4256C132.533 83.5699 132.281 83.7321 132.021 83.934C131.412 84.3917 130.831 84.8866 130.283 85.4159C128.94 86.7136 127.806 88.2121 126.923 89.8579C126.561 90.5291 126.243 91.2228 125.971 91.9347C125.845 92.234 125.758 92.5188 125.672 92.7604C125.585 93.002 125.52 93.2183 125.473 93.395C125.429 93.5801 125.368 93.761 125.293 93.9358C125.313 93.7468 125.349 93.5598 125.401 93.377C125.441 93.1967 125.495 92.9804 125.574 92.7316C125.654 92.4828 125.726 92.1943 125.845 91.8879C126.104 91.1646 126.412 90.4598 126.768 89.7786C127.212 88.946 127.718 88.1481 128.282 87.3918C128.854 86.6434 129.483 85.9406 130.164 85.2897C130.723 84.7617 131.318 84.2737 131.945 83.8295C132.205 83.6312 132.461 83.4689 132.666 83.3355C132.872 83.2021 133.077 83.0831 133.24 82.9966C133.407 82.8976 133.583 82.8143 133.766 82.7478Z" fill="#455A64"/>
<path d="M123.871 94.812C123.885 94.6353 123.915 94.4602 123.961 94.2892C124.037 93.9539 124.134 93.4707 124.242 92.8722C124.808 89.7453 124.877 86.5489 124.448 83.4004C124.369 82.7983 124.293 82.3188 124.232 81.9762C124.193 81.8032 124.17 81.627 124.163 81.4498C124.224 81.6163 124.271 81.7875 124.304 81.9618C124.387 82.2935 124.484 82.7803 124.581 83.3824C125.085 86.542 125.014 89.7666 124.372 92.9011C124.246 93.4996 124.131 93.9827 124.033 94.3072C123.993 94.4797 123.939 94.6486 123.871 94.812Z" fill="#455A64"/>
<path d="M128.119 91.0261C127.517 91.1174 126.903 91.0793 126.316 90.9144C126.613 90.8412 126.92 90.8289 127.221 90.8783C127.528 90.8668 127.833 90.9171 128.119 91.0261Z" fill="#455A64"/>
<path d="M131.717 91.1631C131.118 91.2692 130.504 91.2495 129.914 91.1054C130.208 91.0201 130.516 90.998 130.819 91.0405C131.124 91.0201 131.429 91.0618 131.717 91.1631Z" fill="#455A64"/>
<path d="M135.322 91.2713C134.724 91.3755 134.111 91.3571 133.52 91.2172C134.118 91.1084 134.732 91.1268 135.322 91.2713Z" fill="#455A64"/>
<path d="M138.928 91.4264C138.632 91.5021 138.325 91.5192 138.023 91.4768C137.717 91.4904 137.412 91.4426 137.125 91.3362C137.421 91.2604 137.728 91.2445 138.03 91.2893C138.335 91.273 138.641 91.3196 138.928 91.4264Z" fill="#455A64"/>
<path d="M142.453 92.0934C142.152 92.0723 141.856 92.0079 141.573 91.9023C141.274 91.8519 140.985 91.752 140.719 91.6066C141.024 91.5719 141.333 91.6102 141.62 91.7184C141.925 91.7698 142.212 91.899 142.453 92.0934Z" fill="#455A64"/>
<path d="M143.186 95.2266C143.073 94.6297 143.085 94.0158 143.222 93.4238C143.306 93.7178 143.331 94.0251 143.298 94.3288C143.321 94.6326 143.283 94.9379 143.186 95.2266Z" fill="#455A64"/>
<path d="M143.119 98.8321C143.001 98.2356 143.014 97.6207 143.155 97.0294C143.239 97.3233 143.264 97.6306 143.231 97.9344C143.254 98.2381 143.216 98.5433 143.119 98.8321Z" fill="#455A64"/>
<path d="M143.041 102.438C142.923 101.841 142.936 101.226 143.077 100.635C143.161 100.929 143.187 101.236 143.153 101.54C143.176 101.844 143.138 102.149 143.041 102.438Z" fill="#455A64"/>
<path d="M142.973 106.043C142.889 105.749 142.863 105.442 142.897 105.138C142.874 104.835 142.912 104.529 143.009 104.24C143.095 104.533 143.121 104.839 143.085 105.142C143.112 105.447 143.074 105.754 142.973 106.043Z" fill="#455A64"/>
<path d="M142.904 109.649C142.818 109.355 142.792 109.047 142.828 108.744C142.803 108.44 142.841 108.134 142.94 107.846C143.026 108.138 143.052 108.445 143.016 108.747C143.038 109.052 143 109.359 142.904 109.649Z" fill="#455A64"/>
<path d="M142.835 113.251C142.747 112.959 142.721 112.652 142.76 112.349C142.734 112.046 142.771 111.74 142.868 111.452C142.956 111.743 142.983 112.05 142.947 112.353C142.97 112.657 142.932 112.962 142.835 113.251Z" fill="#455A64"/>
<path d="M142.756 116.856C142.643 116.259 142.655 115.645 142.792 115.054C142.878 115.347 142.904 115.655 142.868 115.959C142.896 116.262 142.857 116.569 142.756 116.856Z" fill="#455A64"/>
<path d="M142.086 96.0306C142.092 95.8895 142.112 95.7493 142.147 95.6124C142.169 95.479 142.212 95.3203 142.263 95.1328C142.313 94.9206 142.374 94.7111 142.446 94.5055C142.847 93.3027 143.398 92.1555 144.087 91.091C144.748 90.0066 145.604 89.0532 146.611 88.2787C146.784 88.1432 146.969 88.0226 147.163 87.9181C147.304 87.8315 147.452 87.7567 147.606 87.6946C147.733 87.634 147.868 87.5892 148.006 87.5612C147.547 87.8002 147.107 88.0738 146.69 88.3796C145.72 89.1727 144.889 90.122 144.231 91.1884C143.556 92.244 142.996 93.3694 142.562 94.5451C142.241 95.4501 142.118 96.0378 142.086 96.0306Z" fill="#455A64"/>
<path d="M93.4858 90.817C92.6416 91.5328 91.9806 92.4399 91.5579 93.4628C91.1352 94.4857 90.963 95.5948 91.0556 96.6977C91.2143 99.4163 100.466 121.832 100.466 121.832L111.701 120.689L104.31 98.057L103.542 93.9286L93.4858 90.817Z" fill="#263238"/>
<g opacity="0.3">
<path opacity="0.3" d="M125.485 74.7038C122.207 74.2676 118.879 75.0247 115.75 76.0631C112.204 77.224 108.814 78.8138 105.654 80.7972L105.207 82.0231C107.634 83.0723 109.501 82.4413 112.058 81.7274C114.614 81.0135 116.979 79.8057 119.435 78.843C120.996 78.2228 122.636 77.6892 124.313 77.7613C126.368 77.8407 128.279 78.8106 130.255 79.3442C132.257 79.8635 134.348 79.9434 136.384 79.5785C132.981 77.39 129.462 75.2339 125.485 74.7038Z" fill="black"/>
</g>
<path d="M110.266 68.0624C110.266 68.0624 115.411 66.6815 116.352 66.6418C117.293 66.6022 122.121 67.8677 123.148 68.0624C124.176 68.2571 129.797 68.1273 129.797 68.1273L136.345 66.6418L138.659 72.1403L134.333 78.5474L118.241 72.8867L114.942 71.5526L110.442 71.2209L110.266 68.0624Z" fill="#AA6550"/>
<path d="M102.379 79.2252C102.379 79.2252 102.739 80.3465 105.314 80.8585C106.917 81.11 108.558 80.9866 110.106 80.498L125.267 75.3528L114.937 71.5454L107.365 71.0334L102.574 73.7844L102.379 79.2252Z" fill="#AA6550"/>
<path d="M102.376 79.3514C101.745 78.3048 101.268 77.1731 100.959 75.991C100.382 73.9106 101.68 57.0294 101.918 55.6232C102.075 54.6785 102.428 53.777 102.954 52.9771C103.481 52.1772 104.17 51.4966 104.975 50.9793C106.075 50.2906 107.553 52.6306 108.776 56.5066C109.998 60.3826 110.427 71.2209 110.427 71.2209C110.427 71.2209 101.947 70.9288 102.376 79.3514Z" fill="#01818C"/>
<path d="M132.393 49.3208C132.393 49.3208 135.451 49.5732 137.596 54.657C139.013 58.0138 140.87 69.8508 140.571 72.3025C140.304 74.5164 140.131 78.212 136.857 79.0846C136.199 79.25 135.504 79.1891 134.885 78.9115L132.873 78.039C132.873 78.039 135.188 78.2337 135.689 73.0309C136.19 67.8281 132.916 68.0516 131.362 68.0516L129.805 68.1273C129.805 68.1273 130.472 55.4178 131.067 53.4131C131.662 51.4084 130.324 49.4398 132.393 49.3208Z" fill="#01818C"/>
<path d="M110.105 57.3143C110.173 57.4853 110.227 57.6613 110.268 57.8407C110.369 58.1832 110.473 58.6844 110.585 59.3081C110.703 60.0433 110.775 60.785 110.801 61.5292C110.829 62.4381 110.811 63.3478 110.747 64.255C110.61 66.1839 110.462 67.9218 110.448 69.1837C110.448 69.8147 110.448 70.3267 110.448 70.68C110.462 70.8625 110.462 71.0457 110.448 71.2281C110.409 71.0491 110.389 70.8667 110.387 70.6836C110.354 70.3231 110.336 69.8147 110.325 69.1837C110.325 67.9146 110.434 66.1659 110.571 64.2441C110.632 63.2815 110.661 62.3656 110.639 61.5328C110.623 60.7956 110.564 60.0601 110.462 59.3298C110.369 58.706 110.286 58.2048 110.206 57.8587C110.156 57.6807 110.122 57.4984 110.105 57.3143Z" fill="#263238"/>
<path d="M133.288 65.4015C133.288 65.4303 133.039 65.4664 132.664 65.5962C132.173 65.7644 131.719 66.0251 131.327 66.3642C130.935 66.7059 130.611 67.118 130.371 67.5793C130.288 67.7802 130.194 67.9764 130.09 68.167C130.093 67.9421 130.148 67.7211 130.252 67.5216C130.467 67.0223 130.792 66.5782 131.203 66.2223C131.614 65.8664 132.1 65.608 132.625 65.4664C132.838 65.3933 133.065 65.371 133.288 65.4015Z" fill="#263238"/>
<path d="M130.475 55.5115C130.512 55.6481 130.535 55.7883 130.543 55.9298C130.576 56.2038 130.615 56.5968 130.655 57.0835C130.742 58.0606 130.832 59.4055 130.922 60.8946C131.012 62.3837 131.102 63.7322 131.178 64.7057C131.214 65.16 131.243 65.5458 131.268 65.8594C131.285 66.0008 131.285 66.1436 131.268 66.2849C131.223 66.1495 131.195 66.009 131.185 65.8666C131.142 65.5962 131.088 65.2032 131.037 64.7165C130.925 63.7466 130.817 62.3981 130.724 60.909C130.63 59.4199 130.569 58.1111 130.514 57.0943C130.493 56.6376 130.475 56.2518 130.46 55.937C130.447 55.7951 130.452 55.6521 130.475 55.5115Z" fill="#263238"/>
<path d="M132.871 78.0389C132.792 78.0245 132.715 78.0027 132.64 77.974L131.984 77.7577L129.583 76.9212L121.69 74.0945L114.912 71.6211H114.934L111.552 71.4155L110.621 71.3506C110.512 71.3473 110.404 71.334 110.297 71.311C110.406 71.3 110.516 71.3 110.625 71.311L111.559 71.3362L114.941 71.4768H114.962L121.752 73.9142L129.63 76.7986L132.009 77.6892L132.651 77.9416C132.728 77.9655 132.802 77.9982 132.871 78.0389Z" fill="#894536"/>
<g opacity="0.3">
<path opacity="0.3" d="M137.458 65.4159C136.469 64.8552 135.327 64.6255 134.199 64.7604C133.071 64.8954 132.016 65.3879 131.188 66.1659C132.99 65.2969 135.204 65.0842 136.913 66.0973C137.061 66.2013 137.228 66.2771 137.403 66.3209C137.492 66.3418 137.585 66.335 137.669 66.3015C137.754 66.268 137.826 66.2093 137.876 66.1334C138.016 65.863 137.714 65.5673 137.458 65.4159Z" fill="black"/>
</g>
<g opacity="0.3">
<path opacity="0.3" d="M111.963 62.2142C111.754 59.6651 111.044 58.5257 110.16 57.3972L110.117 57.307C111.001 61.1758 110.77 63.6131 110.46 68.0119L111.79 67.6874C111.79 67.6874 111.869 66.9843 111.913 66.5192C112.11 65.092 112.126 63.6457 111.963 62.2142Z" fill="black"/>
</g>
<path d="M105.308 83.8691C107.63 82.9137 108.704 82.975 110.885 83.6492C111.881 83.9593 112.742 84.5975 113.683 85.0373C114.624 85.4772 115.688 85.7873 116.708 85.5854C117.891 85.3474 118.825 84.4749 119.899 83.9232C120.666 83.5356 121.503 83.3096 122.36 83.2593C123.218 83.2091 124.076 83.3357 124.882 83.6312C126.018 84.0602 127.071 84.8282 128.282 84.8499C129.652 84.8715 130.831 83.934 132.14 83.5266C133.07 83.2382 134.073 83.2201 134.989 82.892C135.904 82.5639 137.231 81.9726 137.094 80.6422C137.047 80.2131 123.552 79.8309 123.552 79.8309L117.559 80.945C112.67 81.9474 107.803 82.9353 105.203 82.7478L105.308 83.8691Z" fill="#01818C"/>
<path d="M110.168 55.2735C110.135 55.2735 110.045 54.8805 109.731 54.3109C109.33 53.5626 108.734 52.9362 108.007 52.4972C107.28 52.0582 106.449 51.8229 105.599 51.8158C104.947 51.8158 104.55 51.9096 104.543 51.8771C104.628 51.8305 104.721 51.7988 104.817 51.7834C105.074 51.725 105.336 51.6924 105.599 51.686C106.48 51.656 107.35 51.8824 108.104 52.3374C108.858 52.7925 109.463 53.4568 109.847 54.2496C109.966 54.4852 110.059 54.733 110.124 54.9887C110.168 55.169 110.182 55.2735 110.168 55.2735Z" fill="#263238"/>
<path d="M130.746 80.8801C129.932 80.4969 129.088 80.181 128.222 79.9355C127.281 79.681 126.312 79.5394 125.338 79.5136C124.149 79.4837 122.962 79.6196 121.811 79.9175C120.66 80.2161 119.561 80.6852 118.548 81.3092C117.629 81.8969 116.825 82.5135 116.024 82.7983C115.398 83.0489 114.707 83.0894 114.056 82.9137C113.882 82.8615 113.716 82.7864 113.562 82.6901C113.508 82.6569 113.458 82.6169 113.414 82.5711C113.623 82.6865 113.845 82.7784 114.074 82.8452C114.711 82.9855 115.376 82.925 115.978 82.6721C116.753 82.3837 117.535 81.7671 118.465 81.1614C119.488 80.5202 120.603 80.0398 121.772 79.7372C122.94 79.4327 124.146 79.2991 125.352 79.3406C126.335 79.3756 127.31 79.5318 128.255 79.8057C128.662 79.9103 129.012 80.0617 129.336 80.1662C129.661 80.2708 129.906 80.4078 130.115 80.5268L130.587 80.7864C130.644 80.8104 130.697 80.8419 130.746 80.8801Z" fill="#263238"/>
<path d="M126.317 79.2324C125.986 79.2165 125.656 79.1816 125.329 79.1278C124.542 79.0367 123.749 79.0077 122.957 79.0413C122.165 79.0806 121.377 79.1782 120.599 79.3333C120.28 79.4182 119.956 79.4832 119.629 79.528C119.927 79.3806 120.244 79.2727 120.57 79.2071C122.131 78.8078 123.757 78.7353 125.347 78.9944C125.679 79.033 126.005 79.1129 126.317 79.2324Z" fill="#263238"/>
<path d="M99.3984 91.5057C99.5136 91.4632 99.6377 91.4508 99.759 91.4696C100.084 91.5008 100.396 91.6123 100.668 91.7941C101.064 92.0556 101.427 92.3643 101.749 92.7135C102.15 93.1327 102.513 93.5877 102.831 94.0728C103.414 94.9559 103.845 95.9311 104.104 96.9573C104.18 97.2672 104.238 97.5815 104.277 97.8983C104.295 98.0178 104.295 98.1394 104.277 98.2589C104.244 98.2589 104.179 97.7685 103.963 97.0005C103.67 96.0031 103.231 95.0543 102.661 94.1846C102.346 93.7074 101.992 93.2576 101.601 92.8397C101.29 92.4944 100.942 92.1837 100.563 91.9131C100.311 91.7307 100.022 91.6075 99.7157 91.5525C99.5246 91.5057 99.3984 91.5237 99.3984 91.5057Z" fill="#455A64"/>
<path d="M121.199 91.6679C121.199 91.6174 121.379 91.5381 121.625 91.4912C121.87 91.4444 122.075 91.4444 122.086 91.4912C122.097 91.5381 121.906 91.621 121.661 91.6715C121.416 91.722 121.21 91.722 121.199 91.6679Z" fill="#455A64"/>
<path d="M117.438 92.4179C117.724 92.2644 118.037 92.1688 118.361 92.1367C118.671 92.0455 118.997 92.0137 119.32 92.0429C118.721 92.2822 118.082 92.4046 117.438 92.4035V92.4179Z" fill="#455A64"/>
<path d="M113.676 93.1642C113.962 93.0107 114.276 92.9152 114.599 92.883C114.91 92.7918 115.235 92.76 115.558 92.7893C115.271 92.9402 114.958 93.0345 114.635 93.0669C114.324 93.1607 113.999 93.1937 113.676 93.1642Z" fill="#455A64"/>
<path d="M109.91 93.9106C110.197 93.7578 110.51 93.6623 110.833 93.6294C111.144 93.5382 111.47 93.5064 111.792 93.5356C111.505 93.6866 111.192 93.7809 110.869 93.8133C110.559 93.907 110.233 93.9401 109.91 93.9106Z" fill="#455A64"/>
<path d="M106.148 94.6569C106.434 94.5027 106.748 94.4071 107.071 94.3757C107.382 94.2845 107.708 94.2527 108.031 94.2819C107.432 94.5212 106.793 94.6436 106.148 94.6425V94.6569Z" fill="#455A64"/>
<path d="M103.156 96.0775C103.168 95.7778 103.212 95.4803 103.29 95.1905L103.365 95.1112H103.409H103.452H103.542L103.708 95.0824L103.993 95.0463C104.159 95.0463 104.26 95.0463 104.267 95.0463C104.274 95.0463 104.177 95.1148 104.022 95.1617L103.744 95.2374L103.578 95.2771L103.488 95.2951H103.445H103.401L103.474 95.2194C103.456 95.5307 103.345 95.8296 103.156 96.0775Z" fill="#455A64"/>
<path d="M103.41 99.6362C103.118 99.0637 102.942 98.4385 102.895 97.7974C103.071 98.0695 103.193 98.3731 103.255 98.6915C103.366 98.9939 103.418 99.3144 103.41 99.6362Z" fill="#455A64"/>
<path d="M104.516 103.292C104.344 103.021 104.222 102.72 104.156 102.405C104.032 102.108 103.967 101.79 103.965 101.468C104.142 101.736 104.265 102.036 104.325 102.351C104.45 102.649 104.515 102.969 104.516 103.292Z" fill="#455A64"/>
<path d="M105.674 106.937C105.493 106.67 105.365 106.37 105.296 106.054C105.171 105.757 105.103 105.439 105.094 105.117C105.277 105.382 105.407 105.681 105.476 105.996C105.602 106.294 105.669 106.614 105.674 106.937Z" fill="#455A64"/>
<path d="M106.846 110.575C106.533 110.013 106.333 109.394 106.258 108.755C106.441 109.022 106.57 109.322 106.64 109.638C106.769 109.934 106.839 110.253 106.846 110.575Z" fill="#455A64"/>
<path d="M108.025 114.21C107.844 113.943 107.713 113.644 107.639 113.33C107.511 113.034 107.441 112.715 107.434 112.393C107.617 112.658 107.748 112.957 107.819 113.272C107.948 113.569 108.018 113.887 108.025 114.21Z" fill="#455A64"/>
<path d="M109.227 117.841C108.911 117.285 108.707 116.672 108.629 116.038C108.814 116.303 108.945 116.602 109.015 116.918C109.142 117.21 109.214 117.522 109.227 117.841Z" fill="#455A64"/>
<path d="M110.106 120.512C110.056 120.512 109.955 120.35 109.875 120.116C109.796 119.881 109.775 119.676 109.821 119.658C109.868 119.64 109.976 119.82 110.052 120.054C110.128 120.289 110.153 120.494 110.106 120.512Z" fill="#455A64"/>
<path d="M97.8711 95.8936C97.9588 95.8615 98.0517 95.8457 98.1451 95.8467C98.3966 95.8209 98.6497 95.8137 98.9023 95.8251C99.7354 95.8522 100.56 96.0053 101.347 96.2794C102.135 96.5551 102.877 96.9463 103.55 97.4404C103.752 97.5912 103.944 97.7537 104.127 97.9272C104.257 98.0497 104.321 98.1255 104.311 98.1327C104.3 98.1399 103.993 97.9019 103.471 97.5522C102.791 97.1006 102.057 96.7372 101.286 96.4705C100.511 96.2066 99.7069 96.0383 98.8915 95.9693C98.2677 95.8936 97.8747 95.8936 97.8711 95.8936Z" fill="#455A64"/>
<path d="M123.383 39.5858C123.372 39.4995 123.341 39.4169 123.293 39.3442C123.269 39.3122 123.237 39.2877 123.2 39.2736C123.163 39.2595 123.123 39.2565 123.084 39.2649C122.942 39.2206 122.79 39.2188 122.647 39.2598C122.504 39.3008 122.377 39.3828 122.28 39.4956C122.184 39.6159 122.114 39.7553 122.076 39.9046C122.038 40.0538 122.033 40.2094 122.06 40.361C122.07 40.4701 122.102 40.5759 122.156 40.6715C122.209 40.7672 122.282 40.8505 122.37 40.9162C122.582 41.0233 122.825 41.0489 123.055 40.9883C123.109 40.9922 123.163 40.9839 123.214 40.9639C123.264 40.944 123.309 40.9129 123.346 40.8731C123.383 40.8332 123.41 40.7856 123.426 40.7338C123.441 40.682 123.445 40.6272 123.437 40.5737C123.457 40.2434 123.439 39.9119 123.383 39.5858Z" fill="#894536"/>
<path d="M123.379 41.0064C123.208 41.0945 123.016 41.1332 122.824 41.1181C122.602 41.122 122.386 41.0436 122.218 40.8982C122.031 40.7017 121.917 40.4473 121.894 40.1771C121.872 40.0358 121.883 39.8915 121.926 39.7552C121.974 39.628 122.056 39.5168 122.164 39.4343C122.34 39.3051 122.551 39.2321 122.77 39.2252C122.961 39.2021 123.155 39.2295 123.332 39.3045C123.151 39.3356 122.968 39.3537 122.784 39.3586C122.598 39.3816 122.421 39.4538 122.272 39.5677C122.191 39.6393 122.13 39.731 122.096 39.8336C122.062 39.9362 122.056 40.046 122.078 40.1518C122.097 40.3784 122.188 40.5928 122.337 40.7648C122.472 40.8903 122.647 40.9654 122.831 40.9775C123.014 40.9769 123.197 40.9866 123.379 41.0064Z" fill="#263238"/>
<path d="M73.4319 33.5464C73.2888 32.6369 72.8499 31.7999 72.1831 31.1651C71.5163 30.5302 70.6588 30.1329 69.7434 30.0346C69.2578 30.0454 68.7728 29.992 68.3012 29.876C67.9463 29.7048 67.6041 29.5084 67.2772 29.2883C66.71 29.0036 66.063 28.9198 65.442 29.0509C64.821 29.1819 64.263 29.5198 63.8591 30.0094C63.138 30.9468 62.8243 29.6488 61.0937 30.6728C59.6515 31.5237 60.4086 32.7099 60.4086 32.7099C59.6684 32.6994 58.9473 32.9448 58.3671 33.4047C57.787 33.8646 57.3835 34.5107 57.2249 35.2338C57.0519 36.1569 57.2249 37.2818 56.5038 37.8875C56.1433 38.1796 55.6673 38.2481 55.3068 38.5401C54.6361 39.0557 54.6109 40.0581 54.7623 40.8909C54.9138 41.7238 55.1734 42.6036 54.8633 43.3932C54.3585 44.684 52.5161 45.196 52.2889 46.5697C52.1808 47.2151 52.4548 47.9903 52.0041 48.4662C51.8029 48.6377 51.5736 48.7731 51.3262 48.8664C50.8432 49.1019 50.4345 49.4659 50.1448 49.9185C49.8552 50.3711 49.6958 50.8947 49.6843 51.4319C49.6727 51.9691 49.8094 52.4991 50.0794 52.9638C50.3493 53.4284 50.742 53.8096 51.2145 54.0656C51.4777 54.2098 51.7878 54.3396 51.8887 54.6209C51.9897 54.9021 51.7914 55.2591 51.6435 55.5547C51.3685 56.1034 51.2802 56.7268 51.3921 57.3303C51.504 57.9337 51.81 58.4841 52.2635 58.8976C52.7171 59.3111 53.2932 59.5651 53.9044 59.621C54.5156 59.6769 55.1283 59.5315 55.6493 59.2071C56.2117 60.2017 57.1387 60.9387 58.2345 61.2623C58.7326 61.4266 59.2681 61.4404 59.774 61.302C60.167 61.1587 60.5265 60.9366 60.8305 60.6494C62.3268 59.3478 64.436 57.3503 64.5658 55.3672" fill="#263238"/>
<path d="M59.6566 40.7864C59.4273 40.8363 59.19 40.8363 58.9608 40.7864C58.4034 40.6962 57.8708 40.4913 57.3966 40.1847C56.9225 39.8781 56.5171 39.4765 56.2061 39.0052C56.0643 38.8185 55.9647 38.6032 55.9141 38.3743C56.0587 38.5497 56.1924 38.734 56.3143 38.9259C56.6439 39.3576 57.0451 39.7296 57.5005 40.0256C57.957 40.3173 58.4591 40.5306 58.986 40.6566C59.2122 40.6845 59.4363 40.7278 59.6566 40.7864Z" fill="#455A64"/>
<path d="M60.6602 36.2362C60.6602 36.2362 60.5232 36.4417 60.2095 36.6833C59.7948 36.9926 59.3231 37.2168 58.8214 37.3431C58.3211 37.4714 57.8006 37.5008 57.289 37.4296C57.0754 37.4135 56.8677 37.3521 56.6797 37.2493C57.3749 37.3648 58.0865 37.3343 58.7693 37.1599C59.4521 36.9855 60.0911 36.6709 60.6458 36.2362H60.6602Z" fill="#455A64"/>
<path d="M53.2987 58.7781C53.2987 58.7781 53.2771 58.7781 53.2374 58.7781C53.177 58.7671 53.1178 58.7502 53.0607 58.7276C52.8353 58.6486 52.6246 58.5329 52.437 58.3851C52.1316 58.1547 51.8845 57.8559 51.7159 57.5125C51.5512 57.1472 51.4789 56.7469 51.5053 56.3471C51.5317 55.9472 51.656 55.5599 51.8673 55.2194C52.0387 54.9475 52.2516 54.7042 52.4983 54.4983C52.7521 54.2923 52.9733 54.0492 53.1545 53.7772C53.2363 53.6361 53.2817 53.4769 53.2868 53.3139C53.2918 53.1509 53.2562 52.9892 53.1833 52.8433C53.0028 52.5294 52.7875 52.2367 52.5415 51.9708C52.4136 51.8208 52.3001 51.659 52.2026 51.4877C52.1063 51.3052 52.0417 51.1077 52.0115 50.9036C51.9528 50.4791 52.0288 50.0469 52.2286 49.6679C52.4285 49.2889 52.7422 48.9821 53.1256 48.7907C53.5222 48.6592 53.9302 48.5651 54.3443 48.5095C54.5296 48.4729 54.7052 48.398 54.8599 48.2895C55.0042 48.1818 55.1093 48.0299 55.1592 47.8569C55.2376 47.4929 55.1959 47.1134 55.0402 46.7752C54.9032 46.4363 54.7085 46.1118 54.5787 45.7656C54.4313 45.424 54.4059 45.0421 54.5066 44.684C54.6222 44.3529 54.8376 44.0657 55.1231 43.8619C55.6253 43.5187 56.1881 43.274 56.7817 43.1408C57.2545 43.0324 57.7008 42.8301 58.0941 42.5459C58.3724 42.3106 58.5651 41.9899 58.6421 41.6337C58.6943 41.4091 58.6715 41.1735 58.5772 40.9631C58.5087 40.8224 58.4438 40.7648 58.4546 40.7539C58.5194 40.8058 58.5722 40.871 58.6097 40.945C58.7292 41.1653 58.7663 41.421 58.7142 41.6661C58.6475 42.0453 58.4528 42.3902 58.1626 42.6432C57.7646 42.9474 57.3079 43.1659 56.8213 43.285C56.2473 43.4154 55.703 43.6527 55.2169 43.9845C54.9609 44.1733 54.7675 44.4346 54.6616 44.7345C54.577 45.0598 54.605 45.4042 54.7409 45.7116C54.8635 46.0397 55.0546 46.3534 55.206 46.7139C55.3794 47.0853 55.4251 47.5037 55.3358 47.9037C55.2755 48.1144 55.1491 48.3002 54.9753 48.4338C54.7997 48.5566 54.601 48.6424 54.3912 48.6861C53.9898 48.7431 53.5941 48.8347 53.2086 48.9602C52.8617 49.1344 52.5777 49.4124 52.3961 49.7556C52.2145 50.0987 52.1444 50.4899 52.1954 50.8747C52.2239 51.0569 52.2811 51.2333 52.3649 51.3975C52.4565 51.5584 52.5627 51.7104 52.6822 51.8518C52.9379 52.1297 53.1594 52.4371 53.342 52.7676C53.4247 52.9375 53.4641 53.1251 53.4565 53.3139C53.449 53.5027 53.3947 53.6866 53.2987 53.8493C53.1081 54.1314 52.8745 54.3821 52.6064 54.592C52.3698 54.7824 52.1632 55.0072 51.9935 55.2591C51.7912 55.5784 51.6695 55.9422 51.6387 56.319C51.6079 56.6958 51.669 57.0744 51.8168 57.4224C51.9661 57.7565 52.1907 58.0514 52.473 58.2841C52.7212 58.4903 52.9997 58.6569 53.2987 58.7781Z" fill="#455A64"/>
<path d="M63.7016 49.1873L58.25 50.3375C58.6718 61.7851 57.9832 71.6463 60.7523 75.3456L63.3302 79.6722L61.6789 84.1575L78.4483 81.7454L91.01 90.3194C91.01 90.3194 93.3572 85.6611 89.8815 79.2071C89.4885 78.486 86.997 74.7254 86.997 74.7254C86.997 74.7254 87.9273 57.8478 85.4863 54.2459C83.0454 50.6439 79.5732 47.8821 73.5339 48.0516C67.4946 48.221 63.7016 49.1873 63.7016 49.1873Z" fill="#01818C"/>
<path d="M80.293 51.9239C80.293 51.9239 74.1636 65.7404 74.1636 67.7343V72.0213C74.1636 72.0213 72.8332 73.4238 73.1288 76.0126L73.3992 77.5414H84.3529C84.3529 77.5414 85.6833 68.5491 85.979 64.4099C86.2746 60.2708 85.7627 51.7761 80.293 51.9239Z" fill="#01818C"/>
<path d="M73.3242 77.4188L63.3332 77.5413L62.457 81.7346C62.457 81.7346 76.4646 82.8667 78.4224 82.4233C80.5569 81.9401 81.5592 77.4188 81.5592 77.4188H73.3242Z" fill="#FFBE9D"/>
<path d="M58.2492 50.3375C58.2492 50.3375 54.9465 50.5719 53.7747 55.9694C52.6029 61.3669 53.7747 77.5414 53.7747 77.5414L61.0219 77.1448L58.2492 50.3375Z" fill="#01818C"/>
<path d="M82.1897 62.4774C82.1819 62.6492 82.1553 62.8197 82.1104 62.9858C82.0743 63.148 82.0419 63.3463 81.9806 63.5735C81.9193 63.8006 81.8364 64.0638 81.757 64.3414C81.2737 65.8161 80.4946 67.1767 79.4675 68.34C78.4306 69.4915 77.1945 70.4466 75.8187 71.1595C75.2923 71.4372 74.856 71.6283 74.5495 71.7545C74.394 71.8264 74.2323 71.8843 74.0664 71.9275C74.209 71.8314 74.3613 71.7505 74.5207 71.686C74.8164 71.5417 75.2418 71.3254 75.7538 71.0442C77.0931 70.3062 78.3005 69.3509 79.3269 68.2174C80.3359 67.0685 81.1177 65.7386 81.6308 64.2982L81.8796 63.5446C81.9517 63.3247 81.9914 63.1264 82.0383 62.9677C82.0755 62.8005 82.1262 62.6365 82.1897 62.4774Z" fill="#263238"/>
<path d="M59.7027 63.4184C59.6558 63.4401 58.8662 61.7995 57.9396 59.7588C57.013 57.718 56.2991 56.0415 56.3459 56.0198C56.3928 55.9982 57.1824 57.6387 58.109 59.6795C59.0357 61.7202 59.7496 63.3968 59.7027 63.4184Z" fill="#263238"/>
<g opacity="0.3">
<path opacity="0.3" d="M72.6133 58.7889C73.6172 59.3944 74.4567 60.2377 75.0578 61.2442C75.4941 61.9654 75.8258 62.7946 76.4676 63.3463C76.7553 63.5718 77.0856 63.7368 77.4387 63.8315C77.7918 63.9262 78.1603 63.9487 78.5223 63.8975C78.8842 63.8463 79.2321 63.7226 79.5451 63.5337C79.858 63.3448 80.1296 63.0946 80.3436 62.7982C80.7979 62.106 80.9277 61.1866 81.5623 60.6529C81.9841 60.2924 82.5538 60.1842 83.0441 59.9318C84.1691 59.3477 84.7856 58.0533 84.8938 56.7878C85.002 55.5222 84.6883 54.2639 84.3746 53.038H77.1382L74.2538 55.6593L72.6133 58.7889Z" fill="black"/>
</g>
<path d="M60.9778 76.6869C60.9778 76.6869 60.9778 76.6436 60.9417 76.5571L60.8768 76.1713C60.8191 75.8107 60.7434 75.3167 60.6497 74.7074V74.7254C60.1217 73.6958 59.795 72.5748 59.687 71.4228C59.5854 69.9049 59.5951 68.3817 59.7158 66.8653C59.7699 65.488 59.806 64.1756 59.7627 62.9858C59.7339 61.9317 59.6133 60.8821 59.4021 59.8489C59.2576 59.1527 59.0439 58.4727 58.764 57.819C58.5693 57.3539 58.4359 57.0979 58.4503 57.0979C58.4946 57.1507 58.5321 57.2089 58.5621 57.271C58.6233 57.3863 58.7315 57.5558 58.8325 57.7866C59.1383 58.4359 59.3728 59.1166 59.5319 59.8165C59.7649 60.8555 59.8989 61.9143 59.9322 62.9786C59.9862 64.1756 59.9574 65.5024 59.9033 66.8726C59.7852 68.3804 59.7683 69.8946 59.8528 71.4047C59.9509 72.5399 60.2539 73.6478 60.747 74.675L60.9201 76.1424C60.9201 76.3011 60.9489 76.4273 60.9597 76.5354C60.9729 76.5848 60.979 76.6358 60.9778 76.6869Z" fill="#263238"/>
<path d="M86.1868 61.3957C86.1868 61.3957 86.1868 61.421 86.1868 61.475C86.1868 61.5291 86.1868 61.6121 86.1868 61.7094C86.1868 61.9149 86.1868 62.2214 86.1868 62.618C86.1868 63.4076 86.1399 64.5614 86.0534 66.0036C85.9792 67.7134 85.8107 69.4178 85.5486 71.1091C85.1864 73.2306 84.6817 75.3254 84.0379 77.3791L84.0162 77.444H73.2717L73.2464 77.3972C72.7392 76.4345 72.5861 75.3243 72.8138 74.2603C72.9192 73.7656 73.1056 73.2917 73.3654 72.8578C73.6351 72.4784 73.8398 72.0568 73.9712 71.6102C74.1761 70.7843 74.2068 69.9248 74.0613 69.0864C74.0104 68.3434 74.0443 67.597 74.1623 66.8617C74.3565 65.8293 74.4639 64.7825 74.4832 63.7321C74.4764 63.4518 74.4499 63.1722 74.4038 62.8956L74.3642 62.6829C74.3624 62.6577 74.3624 62.6324 74.3642 62.6072C74.4775 62.9707 74.5405 63.3479 74.5517 63.7285C74.5567 64.7837 74.4662 65.8372 74.2812 66.8762C74.175 67.6042 74.1485 68.3417 74.2019 69.0755C74.3592 69.9342 74.3334 70.8163 74.1262 71.6643C73.9941 72.1253 73.787 72.5614 73.5133 72.9551C73.2636 73.3733 73.0857 73.8303 72.9868 74.3072C72.7716 75.3323 72.9235 76.4005 73.4159 77.325L73.3366 77.2782H83.9549L83.8684 77.3431C84.5157 75.2976 85.0264 73.2114 85.3972 71.0983C85.6685 69.4144 85.8514 67.7174 85.9452 66.0144C86.0462 64.5722 86.1002 63.4256 86.1327 62.6324C86.1327 62.2502 86.1579 61.9474 86.1651 61.7274V61.4931C86.1796 61.421 86.1832 61.3957 86.1868 61.3957Z" fill="#263238"/>
<g opacity="0.3">
<path opacity="0.3" d="M85.8527 67.7703C85.6282 70.6155 85.1357 73.4331 84.3816 76.1856C84.2951 76.4993 83.9562 77.3466 83.9562 77.3466C83.9562 77.3466 83.2351 77.4043 82.7844 77.4223C82.3337 77.4404 81.609 77.4223 81.5585 77.4223C81.1547 78.7816 80.5561 80.6313 79.6367 81.6553C80.134 81.7092 80.637 81.6496 81.1079 81.481C81.5788 81.3124 82.0053 81.0391 82.3553 80.6818C82.7772 80.1914 83.0476 79.5568 83.5776 79.1855C83.9994 78.8934 84.5294 78.8033 84.9801 78.5581C85.5601 78.2122 86.0003 77.6737 86.2241 77.0366C86.4433 76.4024 86.5648 75.7386 86.5846 75.0679C86.721 72.6121 86.4741 70.1501 85.8527 67.7703Z" fill="black"/>
</g>
<g opacity="0.3">
<path opacity="0.3" d="M59.7017 68.5744C59.7907 67.3928 59.8183 66.2073 59.7847 65.0229C59.7486 63.9412 60.1849 64.0999 58.9698 61.8031C59.6909 63.303 59.0924 65.5204 58.9121 66.768C58.6129 68.8159 57.8881 69.9877 57.9855 71.6463C58.0828 73.3048 59.114 75.0679 60.7546 75.3456C59.8277 73.2164 59.4651 70.8844 59.7017 68.5744Z" fill="black"/>
</g>
<path d="M52.8238 117.484L53.343 125.549C53.343 125.549 45.3242 128.794 45.2773 130.298L60.9507 129.825L60.6334 117.228L52.8238 117.484Z" fill="#01818C"/>
<path d="M58.1845 124.738C58.3378 124.779 58.4704 124.875 58.5564 125.009C58.6424 125.142 58.6756 125.303 58.6497 125.459C58.6134 125.615 58.5179 125.751 58.3833 125.838C58.2487 125.925 58.0856 125.956 57.9285 125.924C57.7674 125.88 57.6283 125.778 57.5378 125.638C57.4473 125.497 57.4118 125.328 57.4382 125.163C57.4925 125.007 57.6049 124.878 57.752 124.803C57.8991 124.728 58.0695 124.712 58.2278 124.76" fill="white"/>
<path d="M60.9663 129.825L60.9374 128.679L45.8374 129.487C45.8374 129.487 45.3146 129.847 45.293 130.298L60.9663 129.825Z" fill="#263238"/>
<path d="M53.1062 125.477C53.1062 125.553 53.492 125.574 53.8778 125.809C54.2636 126.043 54.4727 126.36 54.5412 126.328C54.6097 126.296 54.4835 125.856 54.0148 125.582C53.5461 125.308 53.0846 125.405 53.1062 125.477Z" fill="#263238"/>
<path d="M51.4766 126.205C51.4766 126.281 51.7975 126.4 52.0679 126.717C52.3383 127.035 52.4284 127.37 52.5005 127.366C52.5726 127.363 52.6123 126.927 52.2662 126.541C51.92 126.155 51.4766 126.133 51.4766 126.205Z" fill="#263238"/>
<path d="M50.605 128.199C50.6735 128.199 50.7708 127.839 50.5617 127.417C50.3526 126.995 49.9884 126.847 49.9596 126.912C49.9307 126.977 50.1543 127.193 50.3201 127.536C50.486 127.878 50.5292 128.196 50.605 128.199Z" fill="#263238"/>
<path d="M53.1827 123.624C53.2187 123.692 53.5649 123.577 54.0012 123.595C54.4374 123.613 54.7727 123.736 54.8124 123.671C54.8521 123.606 54.5167 123.339 54.0084 123.31C53.5 123.281 53.143 123.566 53.1827 123.624Z" fill="#263238"/>
<g opacity="0.3">
<path opacity="0.3" d="M52.8238 117.484L53.343 125.549C53.343 125.549 45.3242 128.794 45.2773 130.298L60.9507 129.825L60.6334 117.228L52.8238 117.484Z" fill="black"/>
</g>
<path d="M64.5984 117.484L65.132 125.549C65.132 125.549 57.1133 128.794 57.0664 130.298L72.7397 129.825L72.4224 117.228L64.5984 117.484Z" fill="#01818C"/>
<path d="M69.958 124.738C70.1113 124.779 70.2438 124.875 70.3298 125.009C70.4158 125.142 70.4491 125.303 70.4231 125.459C70.3868 125.615 70.2913 125.751 70.1567 125.838C70.0221 125.925 69.859 125.956 69.702 125.924C69.5409 125.88 69.4017 125.778 69.3112 125.638C69.2207 125.497 69.1853 125.328 69.2116 125.163C69.266 125.007 69.3784 124.878 69.5255 124.803C69.6725 124.728 69.8429 124.712 70.0012 124.76" fill="white"/>
<path d="M72.7397 129.825L72.7109 128.679L57.6108 129.487C57.6108 129.487 57.088 129.847 57.0664 130.298L72.7397 129.825Z" fill="#263238"/>
<path d="M64.8841 125.477C64.8841 125.553 65.2735 125.574 65.6593 125.809C66.0451 126.043 66.2542 126.36 66.3227 126.328C66.3912 126.296 66.265 125.856 65.7927 125.582C65.3204 125.308 64.8552 125.405 64.8841 125.477Z" fill="#263238"/>
<path d="M63.25 126.205C63.25 126.281 63.5709 126.4 63.8413 126.717C64.1117 127.035 64.2019 127.37 64.2704 127.366C64.3389 127.363 64.3821 126.927 64.0396 126.541C63.6971 126.155 63.25 126.133 63.25 126.205Z" fill="#263238"/>
<path d="M62.3747 128.199C62.4432 128.199 62.5406 127.839 62.3315 127.417C62.1223 126.995 61.7582 126.847 61.7257 126.912C61.6933 126.977 61.924 127.193 62.0863 127.536C62.2485 127.878 62.299 128.196 62.3747 128.199Z" fill="#263238"/>
<path d="M64.9562 123.624C64.9922 123.692 65.3384 123.577 65.771 123.595C66.2037 123.613 66.5462 123.736 66.5859 123.671C66.6256 123.606 66.2902 123.339 65.7783 123.31C65.2663 123.281 64.9165 123.566 64.9562 123.624Z" fill="#263238"/>
<path d="M87.6167 87.7559C87.7032 87.983 84.3717 89.3062 80.0198 89.8074C75.6679 90.3086 72.1272 89.8074 72.1525 89.5767C72.1777 89.3459 75.6643 89.3892 79.9116 88.8772C84.159 88.3652 87.5374 87.489 87.6167 87.7559Z" fill="#263238"/>
<path d="M64.588 51.0838C64.3609 53.6978 64.1445 56.402 64.981 58.8898C65.3668 60.0328 66.1348 61.219 67.3282 61.3885C68.0017 61.4542 68.6739 61.2521 69.1995 60.826C69.7331 60.4186 72.0335 57.0907 72.3868 56.521C72.6716 56.0631 72.3219 53.3878 72.5635 50.031L64.588 51.0838Z" fill="#FFBE9D"/>
<path d="M73.6868 36.5967L73.658 35.187L65.1309 33.9214C62.5132 33.752 59.7983 36.4814 59.7406 39.1062C59.6757 42.0195 59.7081 45.5962 60.1408 47.7379C61.0133 52.0645 64.3809 52.4936 64.3809 52.4936L64.572 56.8203L74.2277 56.5499L73.6868 36.5967Z" fill="#FFBE9D"/>
<path d="M60.8164 42.1709C60.8202 42.3172 60.8812 42.4562 60.9864 42.5581C61.0916 42.6599 61.2325 42.7163 61.3789 42.7153C61.4503 42.7177 61.5215 42.7059 61.5883 42.6804C61.6551 42.6549 61.7162 42.6164 61.7679 42.567C61.8196 42.5177 61.8609 42.4585 61.8895 42.3929C61.918 42.3274 61.9332 42.2568 61.9341 42.1853C61.9303 42.0393 61.8692 41.9007 61.7639 41.7995C61.6586 41.6982 61.5177 41.6425 61.3717 41.6445C61.3003 41.6411 61.2289 41.6522 61.1619 41.677C61.0949 41.7019 61.0336 41.7401 60.9818 41.7893C60.9299 41.8384 60.8885 41.8976 60.8601 41.9632C60.8317 42.0288 60.8168 42.0994 60.8164 42.1709Z" fill="#263238"/>
<path d="M60.7407 40.9198C60.8128 40.9919 61.2239 40.6602 61.8224 40.6385C62.4209 40.6169 62.8752 40.8981 62.9401 40.8224C63.005 40.7467 62.8932 40.6602 62.6949 40.5268C62.4281 40.3551 62.114 40.2719 61.7971 40.2888C61.4837 40.3014 61.1822 40.4124 60.9354 40.6061C60.7624 40.7539 60.7047 40.8909 60.7407 40.9198Z" fill="#263238"/>
<path d="M66.5234 42.1709C66.5272 42.3172 66.5882 42.4562 66.6934 42.5581C66.7986 42.6599 66.9395 42.7163 67.0859 42.7153C67.1574 42.7177 67.2286 42.7059 67.2954 42.6804C67.3622 42.6549 67.4232 42.6164 67.4749 42.567C67.5266 42.5177 67.568 42.4585 67.5965 42.3929C67.6251 42.3274 67.6402 42.2568 67.6412 42.1853C67.6365 42.0396 67.575 41.9015 67.4699 41.8005C67.3649 41.6995 67.2245 41.6435 67.0787 41.6445C67.0073 41.6411 66.936 41.6522 66.8689 41.677C66.8019 41.7019 66.7407 41.7401 66.6888 41.7893C66.6369 41.8384 66.5955 41.8976 66.5671 41.9632C66.5387 42.0288 66.5238 42.0994 66.5234 42.1709Z" fill="#263238"/>
<path d="M66.661 40.7936C66.7367 40.8621 67.1477 40.534 67.7426 40.5088C68.3376 40.4835 68.7955 40.7684 68.8604 40.6926C68.9253 40.6169 68.8135 40.5304 68.6152 40.397C68.3472 40.2284 68.0337 40.1466 67.7174 40.1626C67.404 40.1724 67.102 40.2824 66.8557 40.4763C66.6862 40.6277 66.6285 40.7611 66.661 40.7936Z" fill="#263238"/>
<path d="M64.6567 45.3474C64.3339 45.263 64.0023 45.217 63.6688 45.2104C63.5137 45.2104 63.3695 45.1779 63.337 45.0734C63.3187 44.9143 63.3488 44.7535 63.4236 44.6119L63.831 43.422C64.3935 41.731 64.7937 40.3429 64.7288 40.3177C64.6639 40.2924 64.1447 41.6517 63.5822 43.3427C63.4452 43.761 63.319 44.1576 63.1928 44.5398C63.1049 44.7292 63.0858 44.9434 63.1387 45.1455C63.1636 45.199 63.2001 45.2462 63.2457 45.2837C63.2912 45.3211 63.3447 45.3478 63.4019 45.3618C63.4885 45.3801 63.5767 45.3886 63.6652 45.3871C63.996 45.4164 64.3292 45.4031 64.6567 45.3474Z" fill="#263238"/>
<path d="M64.3828 52.5044C66.4873 52.4558 68.5384 51.8324 70.3139 50.7016C70.3139 50.7016 68.9619 53.8168 64.4297 53.5861L64.3828 52.5044Z" fill="#EB996E"/>
<path d="M64.971 46.7896C65.0792 46.6404 65.2238 46.5213 65.3911 46.4437C65.5583 46.3661 65.7426 46.3325 65.9264 46.3461C66.0598 46.353 66.1904 46.3865 66.3105 46.4448C66.4306 46.503 66.5379 46.5847 66.6259 46.6851C66.7111 46.7829 66.7641 46.9046 66.7777 47.0336C66.7912 47.1627 66.7647 47.2928 66.7016 47.4062C66.6098 47.5191 66.4858 47.6016 66.3462 47.6428C66.2065 47.684 66.0577 47.6819 65.9192 47.6369C65.6325 47.55 65.3655 47.4079 65.1332 47.2187C65.0632 47.1737 65.0021 47.1163 64.9529 47.0492C64.9302 47.0157 64.918 46.9761 64.918 46.9356C64.918 46.8951 64.9302 46.8556 64.9529 46.8221" fill="#EB996E"/>
<path d="M69.4329 39.4523C69.4041 39.2829 68.8019 39.2432 68.1241 39.0233C67.4462 38.8033 66.9234 38.5005 66.8009 38.6267C66.7468 38.6879 66.8008 38.8574 67.01 39.0593C67.2752 39.3085 67.5931 39.4946 67.9402 39.6039C68.2873 39.7131 68.6546 39.7426 69.0147 39.6903C69.2887 39.647 69.4437 39.5353 69.4329 39.4523Z" fill="#263238"/>
<path d="M62.4641 38.7637C62.3127 38.6807 61.9918 38.98 61.5375 39.1927C61.0832 39.4055 60.6614 39.4884 60.6289 39.6578C60.6289 39.7408 60.7371 39.8381 60.957 39.8778C61.2473 39.9195 61.5434 39.8731 61.807 39.7445C62.0706 39.6159 62.2895 39.4111 62.4353 39.1567C62.5398 38.9584 62.5326 38.8033 62.4641 38.7637Z" fill="#263238"/>
<path d="M58.6172 33.8168C59.3167 35.3456 60.8923 37.6171 62.5833 37.7829C63.4231 37.8564 64.2678 37.7133 65.0366 37.3674C65.8054 37.0215 66.4727 36.4843 66.9748 35.8071C67.2561 37.0438 68.6514 37.6748 69.9062 37.8514C70.7951 38.0114 71.7108 37.9279 72.5562 37.6099C72.9753 37.446 73.3457 37.1779 73.6321 36.8309C73.9186 36.4838 74.1117 36.0694 74.1932 35.6268C74.3085 34.7363 72.9961 32.5837 72.1092 32.4395" fill="#263238"/>
<path d="M72.2351 56.1208C72.2903 56.8273 72.5624 57.4995 73.0141 58.0455C73.4659 58.5914 74.0753 58.9846 74.7589 59.1711C74.7356 59.7506 74.9196 60.3194 75.278 60.7754C75.6364 61.2313 76.1456 61.5446 76.7142 61.6588C77.2828 61.7731 77.8735 61.6808 78.3802 61.3986C78.8869 61.1165 79.2763 60.6629 79.4786 60.1193C79.5557 59.8273 79.6773 59.5488 79.8392 59.2937C80.2682 58.7528 81.1011 58.861 81.7573 58.6483C82.9399 58.2661 83.4519 56.8167 83.3185 55.58C83.2748 55.3422 83.2627 55.0998 83.2825 54.8588C83.3546 54.3613 83.744 53.9827 84.0324 53.5753C85.2222 51.8879 84.7247 49.4433 83.4087 47.8569C82.9688 47.3305 82.4135 46.7752 82.4532 46.0901C82.5175 45.7133 82.6391 45.3485 82.8137 45.0085C83.0307 44.4228 83.0665 43.7855 82.9167 43.1792C82.7669 42.5729 82.4383 42.0257 81.9736 41.6084C81.8132 41.5016 81.6878 41.3499 81.6131 41.1722C81.5897 41.0531 81.5897 40.9307 81.6131 40.8116C81.6856 39.8937 81.408 38.9823 80.8362 38.2607C80.2643 37.539 79.4405 37.0605 78.5303 36.9212C78.4198 36.9174 78.311 36.893 78.2094 36.8491C77.9282 36.7049 77.921 36.3155 77.8849 36.0018C77.7876 35.1725 77.1458 33.6222 76.5112 33.0813C74.7481 31.5742 73.0427 32.8001 72.4334 33.3734C72.4334 33.3734 71.2255 39.3514 71.4599 40.4619C71.6942 41.5724 72.5127 44.3523 72.181 45.6142C71.8493 46.8762 71.3265 49.4541 71.8204 50.5935C72.3144 51.7328 72.2351 56.1208 72.2351 56.1208Z" fill="#263238"/>
<path d="M78.8218 36.8924C78.8218 36.8924 78.746 36.9681 78.591 37.0799C78.368 37.2355 78.1342 37.3753 77.8915 37.4981C76.282 38.3333 74.4486 38.6351 72.6563 38.3598C72.3872 38.3177 72.1211 38.2587 71.8595 38.1832C71.6756 38.1291 71.5746 38.093 71.5782 38.0786C71.5818 38.0642 72.0001 38.1507 72.6599 38.2264C74.425 38.4279 76.2114 38.1345 77.8194 37.3791C78.4504 37.0943 78.8073 36.8635 78.8218 36.8924Z" fill="#455A64"/>
<path d="M79.3977 37.3142C79.3687 37.4391 79.3252 37.5601 79.2679 37.6748C79.2157 37.8134 79.1517 37.9473 79.0768 38.075C78.9897 38.2513 78.8921 38.4223 78.7847 38.587C78.5112 39.0183 78.196 39.4216 77.8437 39.7913C76.9742 40.7007 75.9106 41.402 74.7321 41.8428C74.2522 42.0212 73.7558 42.1516 73.2502 42.2322C73.0572 42.2681 72.8621 42.2921 72.6661 42.3043C72.5199 42.3184 72.3731 42.3244 72.2262 42.3223C72.0995 42.3316 71.9721 42.3231 71.8477 42.2971C71.8477 42.2611 72.3849 42.2683 73.2286 42.1024C73.7207 42.0041 74.2033 41.863 74.6708 41.6806C75.2396 41.4517 75.7853 41.1692 76.3005 40.8369C76.8082 40.4937 77.2826 40.1039 77.7175 39.6723C78.0694 39.314 78.3891 38.9255 78.673 38.5113C79.1597 37.7974 79.3616 37.2998 79.3977 37.3142Z" fill="#455A64"/>
<path d="M76.2727 59.5208C76.2727 59.5208 76.3485 59.5208 76.4819 59.4956C76.6773 59.4537 76.8534 59.3485 76.983 59.1963C77.1948 58.9607 77.3117 58.655 77.3111 58.3382C77.2997 57.9155 77.2231 57.4972 77.084 57.0979C76.8969 56.5961 76.8643 56.0499 76.9903 55.5295C77.1741 54.9598 77.632 54.5235 78.0359 54.0584C78.2512 53.8315 78.4278 53.5709 78.5587 53.2868C78.619 53.1433 78.6476 52.9885 78.6427 52.833C78.6377 52.6774 78.5992 52.5248 78.5298 52.3854C78.3676 52.0934 78.1361 51.8458 77.8556 51.6643C77.5707 51.4624 77.2607 51.2821 76.965 51.0622C76.6465 50.8537 76.3959 50.5567 76.2439 50.2077C76.1856 50.0295 76.1658 49.8409 76.1856 49.6545C76.2055 49.468 76.2647 49.2879 76.3593 49.126C76.6946 48.5059 77.221 48.0443 77.3472 47.4602C77.3906 47.1767 77.3736 46.8871 77.2972 46.6106C77.2207 46.334 77.0866 46.0768 76.9037 45.8558C76.5942 45.4463 76.2425 45.0705 75.8545 44.7344C75.5323 44.4467 75.2367 44.1305 74.9711 43.7898C74.7712 43.5282 74.6176 43.2343 74.5168 42.9209C74.4563 42.7213 74.4319 42.5125 74.4447 42.3043C74.4495 42.2333 74.4628 42.163 74.4844 42.0952C74.4708 42.367 74.505 42.6392 74.5853 42.8992C74.8866 43.5817 75.3524 44.1788 75.941 44.6371C76.3429 44.9714 76.7058 45.3499 77.0227 45.7656C77.2005 46.0046 77.3427 46.2681 77.4445 46.548C77.5529 46.8521 77.5754 47.1803 77.5095 47.4963C77.3652 48.1669 76.8172 48.632 76.5143 49.2125C76.4319 49.352 76.3802 49.5075 76.3628 49.6685C76.3454 49.8296 76.3626 49.9925 76.4134 50.1464C76.554 50.4579 76.7804 50.723 77.066 50.9108C77.3508 51.1235 77.6609 51.3038 77.9529 51.5129C78.254 51.715 78.5014 51.9872 78.674 52.3061C78.7542 52.4679 78.7984 52.6452 78.8033 52.8257C78.8083 53.0063 78.774 53.1857 78.7029 53.3517C78.564 53.6551 78.3751 53.933 78.144 54.1738C77.7144 54.5708 77.3655 55.047 77.1164 55.5763C76.996 56.0695 77.0223 56.5871 77.1922 57.0654C77.3266 57.4788 77.3947 57.9108 77.3941 58.3454C77.39 58.6802 77.2614 59.0015 77.0335 59.2468C76.889 59.4018 76.6954 59.5024 76.4855 59.5316C76.4147 59.5441 76.3419 59.5404 76.2727 59.5208Z" fill="#455A64"/>
<path d="M66.8839 46.6995C66.9056 46.804 66.4152 46.9771 65.8347 47.1826C65.2542 47.3881 64.7531 47.5684 64.7206 47.4711C64.6882 47.3737 65.0812 47.0528 65.7085 46.8257C66.3359 46.5985 66.8659 46.6021 66.8839 46.6995Z" fill="#263238"/>
<path d="M90.7626 90.3158C90.7626 90.3158 88.7903 95.2446 84.9937 95.3636C82.4482 95.4393 72.8358 96.0126 72.8358 96.0126C72.8358 96.0126 73.5569 100.801 73.3946 103.584C73.2324 106.368 73.0846 121.9 73.0846 121.9L64.3988 121.655C64.3988 121.655 60.6382 100.815 60.0505 98.2192C59.4815 95.2715 59.1978 92.2759 59.2032 89.2738C59.2897 87.6766 60.9375 85.0084 62.5924 84.0169C64.2474 83.0254 78.2044 81.7707 78.2044 81.7707C78.2044 81.7707 83.5226 81.1108 90.7626 90.3158Z" fill="#263238"/>
<path d="M69.7266 87.7559C69.8459 87.791 69.959 87.8446 70.0619 87.9145C70.3537 88.0923 70.6215 88.3068 70.8587 88.5527C71.2122 88.9164 71.5077 89.3323 71.7349 89.7858C71.9925 90.347 72.1965 90.9313 72.3442 91.5309C72.5961 92.6177 72.7446 93.726 72.7877 94.8408C72.8093 95.2662 72.8165 95.6088 72.8201 95.8504C72.8357 95.97 72.8357 96.0912 72.8201 96.2109C72.7454 95.7561 72.696 95.2975 72.6723 94.8372C72.5912 93.7349 72.4261 92.6405 72.1783 91.5633C72.0341 90.9769 71.8399 90.404 71.5978 89.8507C71.385 89.4073 71.1093 88.9968 70.7794 88.632C70.4554 88.3091 70.103 88.0158 69.7266 87.7559Z" fill="#455A64"/>
<path d="M55.3209 83.1516C55.3209 83.1516 51.7153 83.7645 49.552 86.5047C47.3887 89.2449 48.4703 93.3553 48.629 96.2397C48.7588 98.5869 52.6528 121.277 52.6528 121.277H61.6162L62.1967 101.807L61.3385 93.705L69.195 84.8137C69.195 84.8137 61.6666 82.5026 55.3209 83.1516Z" fill="#263238"/>
<path d="M64.19 83.5662C64.1036 83.6055 64.0144 83.638 63.9231 83.6636C63.7465 83.7285 63.4833 83.815 63.1552 83.952C62.2206 84.3168 61.3863 84.8989 60.7214 85.6502C60.2739 86.172 59.9091 86.7593 59.6398 87.3917C59.3408 88.1229 59.1676 88.8995 59.1278 89.6885C58.9944 91.365 59.4883 93.1822 59.7804 95.0968C60.4366 98.9223 61.0279 102.387 61.457 104.918C61.6625 106.162 61.8175 107.175 61.9437 107.896C61.9978 108.235 62.0374 108.506 62.0699 108.711C62.0886 108.805 62.0983 108.901 62.0987 108.996C62.068 108.906 62.045 108.813 62.0302 108.719C61.9906 108.517 61.9401 108.246 61.8752 107.911C61.7418 107.19 61.5543 106.18 61.3272 104.94C60.8801 102.416 60.2707 98.9511 59.5965 95.1256C59.4306 94.1641 59.2696 93.2315 59.1133 92.3277C58.9527 91.4529 58.8995 90.5617 58.9547 89.674C59.0021 88.8668 59.1849 88.0734 59.4955 87.3268C59.7778 86.681 60.1598 86.0836 60.6277 85.5565C61.3114 84.799 62.1724 84.2229 63.1335 83.8799C63.4688 83.7537 63.7321 83.6744 63.9159 83.6239C64.0052 83.596 64.097 83.5767 64.19 83.5662Z" fill="#455A64"/>
<path d="M72.7732 88.8159C72.7732 88.8159 72.8345 88.9024 72.9102 89.0755C73.0182 89.3182 73.1109 89.5675 73.1878 89.8218C73.7038 91.5102 73.7325 93.3099 73.2707 95.0138C73.2033 95.2703 73.119 95.5221 73.0183 95.7674C72.9462 95.9405 72.903 96.0342 72.8885 96.0306C72.8741 96.027 72.9967 95.6304 73.1409 94.9814C73.524 93.2916 73.4956 91.5344 73.058 89.8579C72.8921 89.2161 72.7443 88.8267 72.7732 88.8159Z" fill="#455A64"/>
<path d="M57.8767 76.5534C57.8767 76.5534 56.3659 75.0752 55.9513 74.9057C55.5367 74.7362 54.9922 74.5956 54.6136 74.9057C54.2028 75.3466 53.8402 75.8301 53.532 76.3479C53.532 76.3479 51.4047 77.069 51.0261 77.4801C50.8981 77.6153 50.8133 77.7856 50.7825 77.9693C50.7516 78.1529 50.7762 78.3416 50.853 78.5113C50.9216 78.7528 51.4372 79.0629 51.4372 79.0629C51.1523 79.3076 50.9686 79.6494 50.9216 80.022C50.9216 80.5376 50.8891 80.8477 51.1271 81.1036C51.4588 81.3069 51.8257 81.4463 52.2087 81.5147L57.8767 76.5534Z" fill="#FFBE9D"/>
<path d="M61.5409 78.7528C61.2236 78.0317 60.434 77.6712 59.7093 77.3395L59.5542 77.1051C59.3857 76.7824 59.1502 76.4994 58.8636 76.275C58.577 76.0505 58.2458 75.8898 57.8921 75.8035C57.1838 75.6366 56.4553 75.5722 55.7288 75.6124C55.2468 75.585 54.7642 75.6524 54.3082 75.8107C53.6556 76.0847 53.2265 76.6977 52.8155 77.2782C52.3504 77.956 51.8708 78.6771 51.8203 79.4956C51.8183 80.0213 51.9074 80.5434 52.0835 81.0387C52.4561 82.3031 52.8263 83.5686 53.1941 84.8354C53.2643 85.2004 53.4427 85.5358 53.706 85.7981C54.1856 86.1586 54.9247 85.9675 55.3538 85.5385C55.7404 85.0776 56.0486 84.5562 56.266 83.9953C56.4853 83.4213 56.9199 82.9556 57.4775 82.6973C58.112 82.4774 58.8223 82.7514 59.4821 82.6144C60.2357 82.4557 60.7765 81.7959 61.1587 81.1253C61.5409 80.4547 61.869 79.5064 61.5409 78.7528Z" fill="#E0E0E0"/>
<path d="M57.895 78.0461L59.7627 76.9392C59.7627 76.9392 61.4789 76.521 61.8214 76.6363C62.3455 76.9025 62.8503 77.2049 63.3322 77.5413L63.1627 81.7346L60.866 83.7609H59.9141C59.9141 83.7609 57.7039 85.3257 57.3614 85.2861C57.0188 85.2464 55.5586 83.4833 55.5586 83.1516C55.5586 82.8199 56.0165 82.5242 56.0165 82.5242C55.9177 82.3683 55.8825 82.1805 55.918 81.9994C55.9536 81.8183 56.0572 81.6577 56.2076 81.5507C56.4996 81.3452 57.6931 82.7333 57.6931 82.7333L58.4142 82.5242C58.4142 82.5242 56.9287 80.4474 56.8494 80.332C56.7701 80.2167 56.3158 79.3045 56.8133 79.0737C57.3109 78.8429 57.895 79.1494 58.2555 79.647C58.806 80.2992 59.3973 80.9158 60.0259 81.493L60.9813 80.6349L60.7578 79.0376C60.7578 79.0376 58.5332 79.0737 58.2555 78.9583C57.9779 78.8429 57.7039 78.6158 57.895 78.0461Z" fill="#FFBE9D"/>
<path d="M63.9698 80.8477C63.5252 81.3995 63.0317 81.91 62.4951 82.3728C62.0033 82.8819 61.4663 83.3453 60.8906 83.7573C61.34 83.2097 61.8345 82.7008 62.3689 82.2358C62.8617 81.728 63.3973 81.2636 63.9698 80.8477Z" fill="#EB996E"/>
<path d="M60.864 83.7609C60.864 83.7898 60.7017 83.8222 60.4385 83.8439C60.2792 83.86 60.1191 83.866 59.959 83.8619H59.9157C59.8941 83.8569 59.8734 83.8483 59.8544 83.8367L59.7967 83.797L59.6814 83.7177L59.4398 83.5374C58.7944 83.0362 58.3581 82.5279 58.4014 82.4882C58.8021 82.769 59.1883 83.0699 59.5588 83.3896L59.7895 83.5699L59.9013 83.6528L59.9554 83.6924L59.9157 83.7501C59.923 83.7414 59.9291 83.7317 59.9337 83.7213C59.9337 83.6852 59.9337 83.7213 59.9337 83.7033H59.959C60.1212 83.7213 60.2835 83.7213 60.4169 83.7285C60.6981 83.7213 60.864 83.7357 60.864 83.7609Z" fill="#EB996E"/>
<path d="M58.1465 84.9075C58.1465 84.9075 58.1104 84.9544 58.0131 84.9616C57.8799 84.9598 57.7518 84.9099 57.6525 84.821C57.3641 84.5514 57.0999 84.257 56.8629 83.9412C56.4918 83.5245 56.1899 83.051 55.9688 82.5387C56.3442 82.9442 56.6923 83.3742 57.0108 83.8258C57.292 84.1864 57.548 84.5181 57.7319 84.72C57.785 84.7773 57.8491 84.8233 57.9203 84.8555C57.9915 84.8877 58.0684 84.9054 58.1465 84.9075Z" fill="#EB996E"/>
</svg>
