<svg width="15" height="15" viewBox="0 0 15 15" fill="none" xmlns="http://www.w3.org/2000/svg">
<path fill-rule="evenodd" clip-rule="evenodd" d="M4.32605 1.93683C4.87282 1.89317 5.39188 1.67811 5.8093 1.32228C6.28076 0.920729 6.87981 0.700195 7.4991 0.700195C8.11839 0.700195 8.71744 0.920729 9.1889 1.32228C9.60633 1.67811 10.1254 1.89317 10.6722 1.93683C11.2896 1.98617 11.8693 2.25384 12.3073 2.69185C12.7453 3.12986 13.013 3.70956 13.0624 4.32703C13.1057 4.87358 13.3208 5.39293 13.6769 5.81028C14.0784 6.28174 14.299 6.88079 14.299 7.50008C14.299 8.11936 14.0784 8.71841 13.6769 9.18988C13.3211 9.6073 13.106 10.1264 13.0624 10.6731C13.013 11.2906 12.7453 11.8703 12.3073 12.3083C11.8693 12.7463 11.2896 13.014 10.6722 13.0633C10.1254 13.107 9.60633 13.322 9.1889 13.6779C8.71744 14.0794 8.11839 14.3 7.4991 14.3C6.87981 14.3 6.28076 14.0794 5.8093 13.6779C5.39188 13.322 4.87282 13.107 4.32605 13.0633C3.70858 13.014 3.12888 12.7463 2.69088 12.3083C2.25287 11.8703 1.9852 11.2906 1.93585 10.6731C1.89219 10.1264 1.67714 9.6073 1.3213 9.18988C0.919752 8.71841 0.699219 8.11936 0.699219 7.50008C0.699219 6.88079 0.919752 6.28174 1.3213 5.81028C1.67714 5.39285 1.89219 4.8738 1.93585 4.32703C1.9852 3.70956 2.25287 3.12986 2.69088 2.69185C3.12888 2.25384 3.70858 1.98617 4.32605 1.93683ZM10.6501 6.40103C10.8049 6.24071 10.8906 6.026 10.8886 5.80314C10.8867 5.58027 10.7973 5.36708 10.6397 5.20948C10.4821 5.05188 10.2689 4.96249 10.046 4.96055C9.82317 4.95862 9.60846 5.04429 9.44815 5.19913L6.6491 7.99818L5.55005 6.89913C5.38974 6.74429 5.17503 6.65862 4.95216 6.66055C4.72929 6.66249 4.5161 6.75188 4.3585 6.90948C4.20091 7.06708 4.11151 7.28027 4.10958 7.50314C4.10764 7.726 4.19332 7.94071 4.34815 8.10103L6.04815 9.80103C6.20755 9.96038 6.42371 10.0499 6.6491 10.0499C6.87449 10.0499 7.09065 9.96038 7.25005 9.80103L10.6501 6.40103Z" fill="#01818C"/>
</svg>
