<svg width="1152" height="729" viewBox="0 0 1152 729" fill="none" xmlns="http://www.w3.org/2000/svg">
<path d="M1152 0L1113.53 4.85C1075.07 9.7 998.133 19.4 921.2 33.95C844.267 48.5 767.333 67.9 690.4 69.5066C613.467 71.2344 536.533 54.8656 459.6 56.5934C382.667 58.2 305.733 77.6 228.8 85.6934C151.867 93.6656 74.9334 90.6344 36.4667 88.9066L-1.99996 87.3V97H36.4667C74.9334 97 151.867 97 228.8 97C305.733 97 382.667 97 459.6 97C536.533 97 613.467 97 690.4 97C767.333 97 844.267 97 921.2 97C998.133 97 1075.07 97 1113.53 97H1152V0Z" fill="#EBF7FC"/>
<rect x="-1" y="97" width="1152" height="516" fill="#EBF7FC"/>
<path d="M1150 613H1111.6C1073.2 613 996.4 613 919.6 617.848C842.8 622.516 766 632.484 689.2 646.848C612.4 661.484 535.6 680.516 458.8 675.848C382 671 305.2 642 228.4 646.848C151.6 651.516 74.8 690.484 36.4 709.652L-2.00002 729V613H36.4C74.8 613 151.6 613 228.4 613C305.2 613 382 613 458.8 613C535.6 613 612.4 613 689.2 613C766 613 842.8 613 919.6 613C996.4 613 1073.2 613 1111.6 613H1150Z" fill="#EBF7FC"/>
</svg>
