<svg width="129" height="65" viewBox="0 0 129 65" fill="none" xmlns="http://www.w3.org/2000/svg">
<path d="M22.7873 27.1293C30.2481 27.1293 36.352 21.0255 36.352 13.5647C36.352 6.10386 30.2481 0 22.7873 0C15.3265 0 9.22266 6.10386 9.22266 13.5647C9.22266 21.0255 15.3265 27.1293 22.7873 27.1293Z" fill="#043953"/>
<path d="M34.7253 56.4289C34.7253 49.2396 37.438 42.5927 41.7792 37.574C39.8802 34.7249 37.3028 32.2838 34.3184 30.6562C31.0626 32.9621 26.9939 34.1828 22.6527 34.1828C18.3116 34.1828 14.3783 32.826 10.9871 30.6562C4.47634 34.319 0 41.3719 0 49.3757V52.2248C0 55.209 2.44115 57.6502 5.42538 57.6502L34.7251 57.6492L34.7253 56.4289Z" fill="#043953"/>
<path d="M92.7812 13.5647C92.7812 21.0255 98.8851 27.1293 106.346 27.1293C113.807 27.1293 119.911 21.0255 119.911 13.5647C119.911 6.10386 113.807 0 106.346 0C98.8851 0 92.7812 6.10483 92.7812 13.5647Z" fill="#043953"/>
<path d="M118.015 30.7917C114.624 33.0976 110.69 34.3183 106.349 34.3183C102.008 34.3183 98.0746 32.9615 94.6835 30.7917C91.6992 32.4192 89.1217 34.8614 87.2227 37.7095C91.699 42.5928 94.4119 49.2399 94.4119 56.429V57.7858H123.576C126.56 57.7858 129.001 55.3447 129.001 52.3604V49.5114C129.002 41.3721 124.526 34.4546 118.015 30.7919L118.015 30.7917Z" fill="#043953"/>
<path d="M64.5686 34.183C72.0294 34.183 78.1332 28.0792 78.1332 20.6184C78.1332 13.1576 72.0294 7.05371 64.5686 7.05371C57.1078 7.05371 51.0039 13.1576 51.0039 20.6184C51.0039 28.0792 57.1078 34.183 64.5686 34.183Z" fill="#043953"/>
<path d="M41.9141 56.4289V59.278C41.9141 62.2622 44.3552 64.7034 47.3395 64.7034H81.6581C84.6423 64.7034 87.0834 62.2622 87.0834 59.278L87.0844 56.4289C87.0844 48.426 82.608 41.3722 76.0973 37.7095C72.7061 40.0153 68.7728 41.236 64.4316 41.236C60.0905 41.236 56.1572 39.8792 52.766 37.7095C46.3906 41.3722 41.9141 48.426 41.9141 56.4289H41.9141Z" fill="#043953"/>
</svg>
