<svg width="64" height="64" viewBox="0 0 64 64" fill="none" xmlns="http://www.w3.org/2000/svg">
<path d="M62.9333 0H1.06667C0.477623 0 0 0.477623 0 1.06667V5.33333C0 5.61619 0.112382 5.88762 0.312381 6.08762C0.51238 6.28762 0.783811 6.4 1.06667 6.4H2.13333V57.6H1.06667C0.477623 57.6 0 58.0776 0 58.6667V62.9333C0 63.2162 0.112382 63.4876 0.312381 63.6876C0.51238 63.8876 0.783811 64 1.06667 64H62.9333C63.2162 64 63.4876 63.8876 63.6876 63.6876C63.8876 63.4876 64 63.2162 64 62.9333V58.6667C64 58.3838 63.8876 58.1124 63.6876 57.9124C63.4876 57.7124 63.2162 57.6 62.9333 57.6H61.8667V6.4H62.9333C63.2162 6.4 63.4876 6.28762 63.6876 6.08762C63.8876 5.88762 64 5.61619 64 5.33333V1.06667C64 0.783811 63.8876 0.512378 63.6876 0.312381C63.4876 0.112384 63.2162 0 62.9333 0ZM6.4 6.4V12.8H4.26667V6.4H6.4ZM17.0667 6.4V12.8H8.53333V6.4H17.0667ZM21.3333 6.4V12.8H19.2V6.4H21.3333ZM40.5333 6.4V12.8H23.4667V6.4H40.5333ZM44.8 6.4V12.8H42.6667V6.4H44.8ZM55.4667 6.4V12.8H46.9333V6.4H55.4667ZM46.9333 57.6V51.2H55.4667V57.6H46.9333ZM42.6667 57.6V51.2H44.8V57.6H42.6667ZM36.6933 57.6C38.031 57.3157 39.3228 56.849 40.5333 56.2133V57.6H36.6933ZM19.2 57.6V51.2H21.3333V57.6H19.2ZM8.53333 57.6V51.2H17.0667V57.6H8.53333ZM40.5333 53.7257C37.9795 55.3138 35.0039 56.0881 32 55.9467C28.9961 56.0882 26.0204 55.3139 23.4667 53.7257V51.2H40.5333V53.7257ZM23.4667 49.0667V33.0667H40.5333V49.0667H23.4667ZM32 28.2136C34.4386 28.327 36.7605 29.2889 38.5643 30.9336H25.4352C27.2395 29.2893 29.5614 28.3274 31.9995 28.2136H32ZM40.5333 29.8394C39.6052 28.9751 38.5791 28.2231 37.4752 27.5994C38.6271 27.1841 39.672 26.5175 40.5333 25.6474V29.8394ZM35.9095 25.8203V25.8198C36.2447 25.1946 36.4223 24.4965 36.4266 23.7869C36.4266 23.1979 35.949 22.7203 35.36 22.7203C34.7709 22.7203 34.2933 23.1979 34.2933 23.7869C34.2933 24.6065 33.8562 25.3631 33.1466 25.7731C32.4371 26.1826 31.5628 26.1826 30.8534 25.7731C30.1438 25.3631 29.7067 24.6065 29.7067 23.7869C29.7067 23.1979 29.2291 22.7203 28.64 22.7203C28.051 22.7203 27.5734 23.1979 27.5734 23.7869C27.5777 24.4964 27.7553 25.1946 28.0905 25.8198C26.8762 25.5893 25.7701 24.9693 24.939 24.0546C24.1076 23.1394 23.5971 21.979 23.4837 20.748C23.4261 20.0365 23.6652 19.3328 24.1437 18.8037C24.5214 18.3808 25.0599 18.1375 25.6266 18.1337H25.6385C26.1437 18.1232 26.6323 18.318 26.9919 18.6732C27.3762 19.0694 27.5857 19.6027 27.5733 20.1541C27.5733 20.7432 28.0509 21.2208 28.64 21.2208C29.229 21.2208 29.7066 20.7432 29.7066 20.1541C29.8038 19.4046 30.2609 18.7498 30.9309 18.4008C31.6009 18.0512 32.399 18.0512 33.069 18.4008C33.739 18.7498 34.1962 19.4046 34.2933 20.1541C34.2933 20.7432 34.7709 21.2208 35.36 21.2208C35.949 21.2208 36.4266 20.7432 36.4266 20.1541C36.4143 19.6027 36.6238 19.0694 37.0081 18.6732C37.3676 18.318 37.8562 18.1232 38.3614 18.1337H38.3743C38.941 18.1375 39.4791 18.3808 39.8562 18.8037C40.3348 19.3327 40.5738 20.0365 40.5162 20.748C40.4028 21.979 39.8924 23.1394 39.0609 24.0546C38.2299 24.9694 37.1237 25.5894 35.9094 25.8198L35.9095 25.8203ZM26.5228 27.5974V27.5969C25.4195 28.2217 24.3933 28.9741 23.4667 29.8394V25.6474C24.329 26.5165 25.3739 27.1827 26.5257 27.5969L26.5228 27.5974ZM21.3333 49.0673H19.2V33.0673H21.3333V49.0673ZM42.6667 33.0673H44.8V49.0673H42.6667V33.0673ZM42.6667 30.9339V14.9339H44.8V30.9339H42.6667ZM40.5333 16.6406C39.891 16.2306 39.1467 16.0092 38.3853 16.0006H38.3614C37.2924 15.992 36.2638 16.4092 35.5029 17.1601C35.4305 17.2339 35.36 17.3082 35.2896 17.3863C34.4205 16.5039 33.2344 16.0069 31.9957 16.0069C30.757 16.0069 29.5709 16.504 28.7018 17.3863C28.6356 17.3082 28.5652 17.2339 28.4885 17.1601C27.7294 16.4111 26.7047 15.9939 25.6385 16.0006H25.6161C24.8537 16.0087 24.109 16.2306 23.4666 16.6406V14.9339H40.5332L40.5333 16.6406ZM21.3333 30.9339H19.2V14.9339H21.3333V30.9339ZM17.0667 30.9339H8.53333V14.9339H17.0667V30.9339ZM6.4 30.9339H4.26667V14.9339H6.4V30.9339ZM4.26667 33.0673H6.4V49.0673H4.26667V33.0673ZM8.53333 33.0673H17.0667V49.0673H8.53333V33.0673ZM23.4667 56.2146C24.6771 56.8503 25.969 57.3169 27.3067 57.6012H23.4667V56.2146ZM46.9333 49.0679V33.0679H55.4667V49.0679H46.9333ZM57.6 33.0679H59.7333V49.0679H57.6V33.0679ZM59.7333 30.9346H57.6V14.9346H59.7333V30.9346ZM55.4667 30.9346H46.9333V14.9346H55.4667V30.9346ZM4.26667 51.2012H6.4V57.6012H4.26667V51.2012ZM61.8667 61.8679H2.13333V59.7346H61.8667V61.8679ZM57.6 57.6012V51.2012H59.7333V57.6012H57.6ZM59.7333 12.8012H57.6V6.40122H59.7333V12.8012ZM61.8667 4.26789H2.13333V2.13455H61.8667V4.26789Z" fill="#043953"/>
<path d="M51.9701 34.5929L51.8496 34.4672C51.4448 34.0391 50.7696 34.0205 50.3415 34.4257C49.9134 34.8305 49.8948 35.5057 50.2996 35.9338L50.4296 36.0705C50.8905 36.5495 51.0929 36.7843 51.0929 37.3333H51.0934C51.0934 37.9223 51.571 38.4 52.1601 38.4C52.7491 38.4 53.2267 37.9223 53.2267 37.3333C53.2196 36.2819 52.7625 35.2842 51.97 34.5929L51.9701 34.5929Z" fill="#043953"/>
<path d="M50.4334 28.0673C50.8929 28.5454 51.0957 28.7797 51.0957 29.3268V29.3273C51.0957 29.9163 51.5734 30.394 52.1624 30.394C52.7514 30.394 53.2291 29.9163 53.2291 29.3273C53.2224 28.2763 52.7643 27.2787 51.9715 26.5887C51.512 26.1106 51.3091 25.8763 51.3091 25.3292C51.3091 24.782 51.512 24.5482 51.9715 24.0706C52.7644 23.3811 53.2225 22.384 53.2291 21.3335C53.2291 20.7445 52.7514 20.2668 52.1624 20.2668C51.5734 20.2668 51.0957 20.7445 51.0957 21.3335C51.0957 21.8797 50.8929 22.1145 50.4334 22.5921C49.6353 23.2778 49.1758 24.2773 49.1758 25.3297C49.1758 26.3821 49.6353 27.3816 50.4334 28.0673V28.0673Z" fill="#043953"/>
<path d="M13.5716 34.5929L13.4511 34.4672C13.0464 34.0391 12.3711 34.0205 11.9431 34.4257C11.515 34.8305 11.4964 35.5057 11.9012 35.9338L12.0312 36.0705C12.4921 36.5495 12.6945 36.7843 12.6945 37.3333H12.695C12.695 37.9223 13.1726 38.4 13.7616 38.4C14.3507 38.4 14.8283 37.9223 14.8283 37.3333C14.8212 36.2819 14.364 35.2842 13.5716 34.5929L13.5716 34.5929Z" fill="#043953"/>
<path d="M12.031 28.0673C12.4905 28.5454 12.6934 28.7797 12.6934 29.3268V29.3273C12.6934 29.9163 13.171 30.394 13.7601 30.394C14.3491 30.394 14.8267 29.9163 14.8267 29.3273C14.8201 28.2763 14.362 27.2787 13.5692 26.5887C13.1096 26.1106 12.9068 25.8763 12.9068 25.3292C12.9068 24.782 13.1096 24.5482 13.5692 24.0706C14.362 23.3811 14.8201 22.384 14.8267 21.3335C14.8267 20.7445 14.3491 20.2668 13.7601 20.2668C13.171 20.2668 12.6934 20.7445 12.6934 21.3335C12.6934 21.8797 12.4905 22.1145 12.031 22.5921C11.2329 23.2778 10.7734 24.2773 10.7734 25.3297C10.7734 26.3821 11.233 27.3816 12.031 28.0673V28.0673Z" fill="#043953"/>
<path d="M32.0007 40.5333C31.5693 40.5333 31.1803 40.2733 31.0155 39.8747C30.8503 39.4762 30.9412 39.0176 31.2465 38.7124C31.5517 38.4071 32.0103 38.3162 32.4088 38.4814C32.8074 38.6462 33.0674 39.0352 33.0674 39.4666C33.0674 40.0557 33.545 40.5333 34.1341 40.5333C34.7231 40.5333 35.2007 40.0557 35.2007 39.4666C35.1979 38.8071 34.9917 38.1647 34.6098 37.6271C34.2279 37.0895 33.6893 36.6828 33.0674 36.4628V36.2666C33.0674 35.6776 32.5898 35.2 32.0008 35.2C31.4117 35.2 30.9341 35.6776 30.9341 36.2666V36.4628C29.9784 36.7995 29.2389 37.57 28.9422 38.539C28.6455 39.508 28.8265 40.5604 29.4298 41.3747C30.0331 42.189 30.9874 42.6685 32.0008 42.6667C32.4322 42.6667 32.8213 42.9267 32.986 43.3252C33.1513 43.7238 33.0603 44.1824 32.7551 44.4876C32.4498 44.7929 31.9913 44.8838 31.5927 44.7186C31.1941 44.5538 30.9341 44.1648 30.9341 43.7333C30.9341 43.1443 30.4565 42.6667 29.8674 42.6667C29.2784 42.6667 28.8008 43.1443 28.8008 43.7333C28.8036 44.3929 29.0098 45.0353 29.3917 45.5729C29.7736 46.1105 30.3122 46.5172 30.9341 46.7372V46.9334C30.9341 47.5224 31.4117 48 32.0007 48C32.5898 48 33.0674 47.5224 33.0674 46.9334V46.7372C34.0231 46.4005 34.7626 45.63 35.0593 44.661C35.3561 43.692 35.175 42.6396 34.5717 41.8253C33.9684 41.011 33.0141 40.5315 32.0007 40.5333Z" fill="#043953"/>
</svg>
