<svg width="70" height="70" viewBox="0 0 70 70" fill="none" xmlns="http://www.w3.org/2000/svg">
<path d="M44.0293 0.842267C44.0291 0.842091 44.0288 0.841915 44.0285 0.841738V0.842039C44.0288 0.842115 44.0291 0.842191 44.0293 0.842267Z" fill="#043953"/>
<path d="M50.7389 22.4815L55.9304 18.5C54.2779 16.3486 52.3103 14.4601 50.0957 12.895L46.3281 18.2394C48.0031 19.4241 49.49 20.8534 50.7389 22.4815Z" fill="#043953"/>
<path d="M60.4268 27.3353L54.1477 29.1727L54.1487 29.1738C55.5845 34.1036 55.1006 39.3947 52.7953 43.9838C50.489 48.5718 46.5312 52.1173 41.7176 53.9055C36.904 55.6948 31.5919 55.5955 26.8488 53.6278C22.1047 51.659 18.2827 47.9683 16.1504 43.2969C14.0182 38.6255 13.733 33.3197 15.3525 28.4462C16.973 23.573 20.3775 19.4945 24.8834 17.0289C25.7305 19.7753 27.5957 22.0935 30.0954 23.5109C32.5962 24.9274 35.5435 25.3355 38.3348 24.6518C41.1261 23.9681 43.551 22.244 45.1127 19.8319H36.9814L33.4433 13.7067L36.9814 7.58157H45.1127V7.58051C43.5958 5.23146 41.2585 3.5307 38.5569 2.80765C35.8553 2.08553 32.9816 2.39318 30.4939 3.67187C28.006 4.94949 26.0831 7.10718 25.0973 9.72456C18.5531 12.2103 13.2388 17.152 10.284 23.4973C7.32916 29.8437 6.96817 37.0917 9.2777 43.6998C11.5883 50.3079 16.3857 55.7527 22.6509 58.8751C28.9161 61.9987 36.1523 62.5519 42.8192 60.4198C49.4861 58.2865 55.057 53.6353 58.346 47.4557C61.635 41.277 62.3818 34.0579 60.4269 27.3355L60.4268 27.3353Z" fill="#043953"/>
<path d="M53.4448 27.1658L59.5699 24.6853L59.571 24.6843C58.977 23.3159 58.2699 21.9998 57.4569 20.7488L51.8828 24.195C52.4842 25.1404 53.0077 26.1339 53.4446 27.1657L53.4448 27.1658Z" fill="#043953"/>
<path d="M47.5025 45.376C47.9309 44.8451 47.87 44.0728 47.3647 43.6156L40.918 36.4327H40.9169C41.4254 34.4297 40.9799 32.3049 39.7098 30.6748C38.4407 29.0446 36.4892 28.0928 34.4231 28.095C32.3571 28.0971 30.4075 29.0532 29.1419 30.6865C27.876 32.3188 27.4348 34.4456 27.9476 36.4463C28.4603 38.4482 29.8683 40.1007 31.7633 40.9244C33.6583 41.748 35.8268 41.6497 37.6396 40.6595L45.725 45.6363H45.726C46.2911 46.0455 47.0784 45.9301 47.5025 45.3757L47.5025 45.376Z" fill="#043953"/>
</svg>
