<svg width="85" height="64" viewBox="0 0 85 64" fill="none" xmlns="http://www.w3.org/2000/svg">
<path d="M71.2685 42.9922C69.1409 42.9922 67.4571 44.6766 67.4571 46.8036V49.7288H41.307V46.8036C41.307 44.676 39.6226 42.9922 37.4956 42.9922C35.368 42.9922 33.6842 44.6766 33.6842 46.8036V49.7288H7.62279V46.8036C7.62279 44.676 5.93838 42.9922 3.81139 42.9922C1.68377 42.9922 0 44.6766 0 46.8036V60.1887C0 62.3164 1.6844 64.0001 3.81139 64.0001C5.93902 64.0001 7.62279 62.3157 7.62279 60.1887V57.2635H33.7729V60.1887C33.7729 62.3164 35.4573 64.0001 37.5843 64.0001C39.7119 64.0001 41.3957 62.3157 41.3957 60.1887V57.2635H67.5458V60.1887C67.5458 62.3164 69.2302 64.0001 71.3572 64.0001C73.4848 64.0001 75.1686 62.3157 75.1686 60.1887L75.1698 46.8036C75.0814 44.676 73.3971 42.9922 71.2693 42.9922H71.2685Z" fill="#043953"/>
<path d="M83.0578 21.2742C81.5509 19.7673 79.1573 19.7673 77.6505 21.2742L74.991 23.9337L74.9916 3.81139C74.9916 1.68377 73.3072 0 71.1802 0C69.0526 0 67.3688 1.6844 67.3688 3.81139V23.845L64.7093 21.1855C63.2025 19.6787 60.8088 19.6787 59.302 21.1855C57.7952 22.6924 57.7952 25.0861 59.302 26.5929L68.4324 35.7232C69.1416 36.4325 70.1168 36.8758 71.0919 36.8758C72.067 36.8758 73.0421 36.5215 73.7514 35.7232L82.8818 26.5929C84.5649 25.1744 84.5649 22.6923 83.058 21.2739L83.0578 21.2742Z" fill="#043953"/>
</svg>
