<svg width="64" height="64" viewBox="0 0 64 64" fill="none" xmlns="http://www.w3.org/2000/svg">
<path d="M32 64C14.3273 64 0 49.6727 0 32C0 14.3273 14.3273 0 32 0C49.6727 0 64 14.3273 64 32C64 49.6727 49.6727 64 32 64ZM32 2.90909C15.9273 2.90909 2.90909 15.9273 2.90909 32C2.90909 48.0727 15.9273 61.0909 32 61.0909C48.0727 61.0909 61.0909 48.0727 61.0909 32C61.0909 15.9273 48.0727 2.90909 32 2.90909ZM46.5455 42.1818H17.4545V45.0906H46.5455V42.1818ZM21.8182 21.8182C20.2182 21.8182 18.9093 23.127 18.9093 24.727C18.9093 26.327 20.2182 27.6358 21.8182 27.6358C23.4182 27.6358 24.727 26.327 24.727 24.727C24.727 23.127 23.4182 21.8182 21.8182 21.8182ZM42.1818 21.8182C40.5818 21.8182 39.273 23.127 39.273 24.727C39.273 26.327 40.5818 27.6358 42.1818 27.6358C43.7818 27.6358 45.0906 26.327 45.0906 24.727C45.0912 23.127 43.7818 21.8182 42.1818 21.8182Z" fill="#043953"/>
</svg>
