<svg width="64" height="64" viewBox="0 0 64 64" fill="none" xmlns="http://www.w3.org/2000/svg">
<path d="M63.0304 40.9211H60.1211V36.0727C60.1211 31.612 56.3394 28.0243 51.7817 28.412V14.739C51.7817 14.3512 51.6846 14.0601 51.3939 13.8664L37.4301 0.291158C37.236 0.0970606 36.9453 0 36.7512 0H0.969593C0.388207 0 0 0.388207 0 0.969593V63.0304C0 63.6123 0.387747 64 0.969593 64H50.8116C51.3934 64 51.7812 63.6123 51.7812 63.0304V59.7334H60.7996C62.5451 59.7334 63.9995 58.279 63.9995 56.5335L64 41.8914C64 41.3096 63.6118 40.9218 63.0304 40.9218L63.0304 40.9211ZM58.1815 36.0727V40.9211H46.6421V36.0727C46.6421 32.8727 49.2601 30.2547 52.46 30.2547C55.6605 30.2542 58.1815 32.8722 58.1815 36.0727ZM48.4846 13.6721H37.8177V3.29637L48.4846 13.6721ZM49.8424 62.0599H1.93968V1.93837H35.7819V14.6411C35.7819 15.223 36.1697 15.6107 36.7515 15.6107H49.8429V28.7986C46.6429 29.9623 44.7034 32.8716 44.7034 36.0715V40.92H41.7941C41.2123 40.92 40.8245 41.3077 40.8245 41.8896V56.5316C40.8245 58.2772 42.279 59.7316 44.0245 59.7316H49.9395L49.94 62.059L49.8424 62.0599ZM62.06 56.5326C62.06 57.2115 61.4781 57.7934 60.7993 57.7934H44.0236C43.3447 57.7934 42.7628 57.2115 42.7628 56.5326V42.8596H62.0595L62.06 56.5326Z" fill="#043953"/>
<path d="M51.3926 52.9444V54.4959C51.3926 55.0777 51.7803 55.4655 52.3621 55.4655C52.944 55.4655 53.3317 55.0777 53.3317 54.4959V52.9444C54.4954 52.5567 55.368 51.393 55.368 50.1322C55.368 48.4837 54.0102 47.126 52.3617 47.126C50.7132 47.126 49.3555 48.4837 49.3555 50.1322C49.453 51.393 50.2289 52.5567 51.3926 52.9444H51.3926ZM52.3621 49.0657C52.944 49.0657 53.4288 49.5505 53.4288 50.1323C53.4288 50.7141 52.944 51.1989 52.3621 51.1989C51.7803 51.1989 51.2955 50.7141 51.2955 50.1323C51.3926 49.5505 51.7803 49.0657 52.3621 49.0657Z" fill="#043953"/>
<path d="M6.49648 15.611H31.1272C31.7091 15.611 32.0968 15.2233 32.0968 14.6415L32.0973 5.81722C32.0973 5.23538 31.7095 4.84763 31.1277 4.84763L6.49694 4.84717C5.91509 4.84717 5.52734 5.23492 5.52734 5.81676V14.641C5.52734 15.1263 6.01214 15.611 6.49694 15.611L6.49648 15.611ZM7.46653 6.78681H30.158V13.6715H7.46653V6.78681Z" fill="#043953"/>
<path d="M6.49694 23.7568H41.7946C42.3764 23.7568 42.7642 23.3691 42.7642 22.7872C42.7642 22.2054 42.3764 21.8176 41.7946 21.8176H6.49694C5.91509 21.8176 5.52734 22.2054 5.52734 22.7872C5.52734 23.3691 6.01214 23.7568 6.49694 23.7568Z" fill="#043953"/>
<path d="M6.49694 31.8049H41.7946C42.3764 31.8049 42.7642 31.4172 42.7642 30.8353C42.7642 30.2535 42.3764 29.8657 41.7946 29.8657H6.49694C5.91509 29.8657 5.52734 30.2535 5.52734 30.8353C5.52734 31.3201 6.01214 31.8049 6.49694 31.8049Z" fill="#043953"/>
<path d="M6.49694 39.7565H41.7946C42.3764 39.7565 42.7642 39.3688 42.7642 38.7869C42.7642 38.2051 42.3764 37.8174 41.7946 37.8174L6.49694 37.8169C5.91509 37.8169 5.52734 38.2046 5.52734 38.7865C5.52734 39.3688 6.01214 39.7565 6.49694 39.7565Z" fill="#043953"/>
<path d="M36.9457 45.8667H6.49694C5.91509 45.8667 5.52734 46.2544 5.52734 46.8363C5.52734 47.4181 5.91509 47.8059 6.49694 47.8059H36.9457C37.5275 47.8059 37.9153 47.4181 37.9153 46.8363C37.9153 46.3515 37.4305 45.8667 36.9457 45.8667Z" fill="#043953"/>
<path d="M36.9457 53.9146H6.49694C5.91509 53.9146 5.52734 54.3023 5.52734 54.8841C5.52734 55.466 5.91509 55.8537 6.49694 55.8537H36.9457C37.5275 55.8537 37.9153 55.466 37.9153 54.8841C37.9153 54.3023 37.4305 53.9146 36.9457 53.9146Z" fill="#043953"/>
</svg>
