<svg width="1152" height="544" viewBox="0 0 1152 544" fill="none" xmlns="http://www.w3.org/2000/svg">
<path opacity="0.15" fill-rule="evenodd" clip-rule="evenodd" d="M1152 0H0V428V430H172.152C191.141 430.687 210.77 431.609 230.4 432.848C307.2 437.516 384 447.484 460.8 461.848C472.816 464.138 484.831 466.536 496.847 468.933C561.631 481.859 626.416 494.785 691.2 490.848C723.18 488.83 755.16 482.623 787.14 476.416C831.96 467.718 876.78 459.019 921.6 461.848C997.03 466.432 1072.46 504.105 1111.51 523.607C1112.22 523.961 1112.91 524.31 1113.6 524.652L1152 544V430V428V0Z" fill="#F7CF6A"/>
<path d="M250.572 139.477C247.302 135.157 243.242 130.987 242.512 125.627C241.822 120.697 244.092 115.367 241.992 110.867C239.412 105.317 231.652 104.067 228.382 98.8665C226.802 96.3565 226.492 93.2165 224.932 90.6965C222.282 86.3965 216.662 84.9065 211.622 85.0865C206.582 85.2665 201.622 86.7165 196.572 86.7065C189.642 86.7065 182.692 83.9465 175.932 85.4465C168.472 87.1165 163.542 93.2565 158.342 99.1765L151.572 106.017C150.218 107.176 148.754 108.201 147.202 109.077C144.482 110.577 141.412 111.527 139.022 113.517C133.902 117.767 133.672 126.637 138.572 131.147C135.872 131.875 133.475 133.448 131.734 135.636C129.992 137.824 128.996 140.512 128.892 143.307C128.892 146.387 129.892 149.307 130.622 152.307C131.352 155.307 131.622 158.587 130.232 161.307C128.842 164.027 125.082 165.697 122.512 164.007C122.863 166.026 123.658 167.943 124.841 169.617C126.024 171.291 127.565 172.681 129.352 173.687C127.784 175.068 125.751 175.804 123.662 175.747C128.322 189.267 143.042 197.247 157.312 198.327C171.582 199.407 185.622 194.957 199.232 190.557L238.362 183.307C241.792 182.767 243.482 178.767 243.682 175.307C243.882 171.847 243.252 168.177 244.682 165.037C246.682 160.717 252.002 158.727 254.082 154.447C256.482 149.587 253.802 143.787 250.572 139.477Z" fill="#263238"/>
<path d="M157.161 168.167C154.981 159.287 152.851 150.347 152.231 141.167C151.611 131.987 152.591 122.667 156.401 114.357C156.981 113.097 161.721 104.707 163.091 104.947C164.091 105.117 160.941 113.037 161.371 113.947C165.511 122.447 166.071 132.337 164.621 141.677C163.123 150.746 160.621 159.621 157.161 168.137" fill="#263238"/>
<path d="M199.47 93.7265L197.36 93.4565C174.49 91.8665 160.36 110.407 159.42 133.317L151.9 211.867C151.244 218.709 153.239 225.543 157.474 230.958C161.709 236.372 167.861 239.955 174.66 240.967C178.18 241.49 181.77 241.308 185.219 240.431C188.668 239.555 191.909 238.001 194.753 235.861C197.596 233.721 199.986 231.037 201.783 227.965C203.58 224.893 204.748 221.494 205.22 217.967C205.76 213.857 206.16 210.967 206.17 210.967C206.18 210.967 228.43 210.377 231.5 188.587C232.98 178.067 234.27 156.147 235.2 136.297C235.678 126.01 232.269 115.921 225.649 108.034C219.029 100.146 209.683 95.039 199.47 93.7265V93.7265Z" fill="#FFBE9D"/>
<path d="M206.17 210.967C206.17 210.967 192.31 209.967 178.84 198.967C178.84 198.967 183.37 215.787 205.4 216.607L206.17 210.967Z" fill="#EB996E"/>
<path d="M226.819 152.747C226.723 153.558 226.314 154.3 225.679 154.814C225.043 155.328 224.232 155.573 223.419 155.497C223.021 155.477 222.631 155.379 222.272 155.208C221.912 155.037 221.591 154.796 221.325 154.499C221.06 154.202 220.857 153.855 220.727 153.479C220.597 153.102 220.543 152.704 220.569 152.307C220.662 151.493 221.07 150.749 221.706 150.233C222.341 149.717 223.154 149.471 223.969 149.547C224.367 149.566 224.758 149.664 225.118 149.836C225.478 150.008 225.801 150.25 226.066 150.548C226.331 150.846 226.535 151.194 226.664 151.571C226.793 151.949 226.846 152.348 226.819 152.747V152.747Z" fill="#263238"/>
<path d="M228.8 144.757C228.36 145.107 226.23 143.057 222.87 142.637C219.51 142.217 216.87 143.577 216.53 143.127C216.38 142.917 216.87 142.237 218.04 141.597C219.62 140.775 221.416 140.464 223.18 140.707C224.923 140.924 226.552 141.691 227.83 142.897C228.76 143.817 229.01 144.597 228.8 144.757Z" fill="#263238"/>
<path d="M196.081 150.217C195.983 151.029 195.571 151.771 194.935 152.284C194.298 152.798 193.485 153.043 192.671 152.967C192.27 152.948 191.878 152.849 191.516 152.675C191.155 152.502 190.832 152.258 190.566 151.958C190.3 151.658 190.098 151.308 189.97 150.928C189.842 150.548 189.791 150.146 189.821 149.747C189.919 148.935 190.328 148.194 190.963 147.679C191.597 147.164 192.407 146.916 193.221 146.987C193.623 147.004 194.018 147.102 194.381 147.276C194.744 147.449 195.069 147.693 195.336 147.995C195.603 148.296 195.806 148.648 195.934 149.03C196.062 149.412 196.112 149.815 196.081 150.217V150.217Z" fill="#263238"/>
<path d="M195.781 141.897C195.341 142.257 193.201 140.207 189.851 139.787C186.501 139.367 183.851 140.727 183.511 140.267C183.361 140.067 183.841 139.387 185.021 138.737C186.603 137.92 188.397 137.609 190.161 137.847C191.903 138.069 193.53 138.835 194.811 140.037C195.741 140.967 195.991 141.747 195.781 141.897Z" fill="#263238"/>
<path d="M204.512 169.207C204.512 169.017 206.652 168.927 210.082 168.927C210.952 168.927 211.782 168.877 212.002 168.317C212.187 167.438 212.1 166.524 211.752 165.697C211.212 163.53 210.648 161.25 210.062 158.857C207.732 149.127 206.162 141.167 206.552 141.077C206.942 140.987 209.152 148.797 211.482 158.537C212.035 160.93 212.562 163.22 213.062 165.407C213.461 166.508 213.461 167.715 213.062 168.817C212.898 169.103 212.672 169.348 212.4 169.535C212.128 169.722 211.818 169.846 211.492 169.897C211 169.956 210.503 169.956 210.012 169.897C206.572 169.657 204.502 169.397 204.512 169.207Z" fill="#263238"/>
<path d="M197.339 128.307C196.889 129.177 193.599 128.307 189.609 128.307C185.619 128.307 182.289 128.937 181.879 128.057C181.689 127.637 182.359 126.847 183.749 126.127C185.597 125.25 187.625 124.822 189.669 124.877C191.722 124.875 193.745 125.365 195.569 126.307C196.899 127.047 197.569 127.857 197.339 128.307Z" fill="#263238"/>
<path d="M228.841 133.427C228.161 134.117 225.951 133.027 223.181 132.637C220.411 132.247 217.981 132.487 217.541 131.637C217.351 131.217 217.821 130.507 218.941 129.917C220.432 129.227 222.094 128.997 223.717 129.255C225.339 129.514 226.848 130.248 228.051 131.367C228.931 132.307 229.151 133.097 228.841 133.427Z" fill="#263238"/>
<path d="M158.569 149.697C158.219 149.487 144.149 143.347 142.709 158.317C141.269 173.287 156.609 171.657 156.709 171.227C156.809 170.797 158.569 149.697 158.569 149.697Z" fill="#FFBE9D"/>
<path d="M152.618 165.117C152.558 165.057 152.338 165.267 151.878 165.427C151.235 165.633 150.536 165.583 149.928 165.287C148.398 164.547 147.308 161.907 147.498 159.207C147.581 157.917 147.953 156.662 148.588 155.537C148.772 155.082 149.064 154.68 149.438 154.364C149.813 154.049 150.259 153.83 150.738 153.727C151.045 153.675 151.361 153.733 151.629 153.89C151.898 154.048 152.103 154.294 152.208 154.587C152.368 155.027 152.208 155.317 152.328 155.347C152.448 155.377 152.668 155.127 152.608 154.497C152.562 154.115 152.386 153.762 152.108 153.497C151.724 153.147 151.218 152.96 150.698 152.977C150.072 153.041 149.473 153.266 148.958 153.628C148.444 153.99 148.03 154.479 147.758 155.047C146.996 156.28 146.547 157.68 146.448 159.127C146.258 162.127 147.528 165.127 149.638 165.967C150.029 166.12 150.449 166.184 150.868 166.155C151.286 166.126 151.693 166.003 152.058 165.797C152.568 165.467 152.668 165.147 152.618 165.117Z" fill="#EB996E"/>
<path d="M227.652 110.427C230.192 109.297 223.032 100.997 217.312 97.7766C208.652 92.9066 195.112 89.1866 186.602 90.8266C176.352 92.8266 167.602 97.0466 161.792 105.717C155.982 114.387 153.162 124.827 152.552 135.237C152.372 138.417 152.412 141.757 153.872 144.587C155.672 148.077 159.512 150.517 158.942 155.077C158.686 156.737 159.099 158.431 160.092 159.787C162.582 162.947 166.182 160.497 167.962 157.877C171.762 152.297 172.742 145.317 173.622 138.617C174.242 133.847 174.862 128.987 173.912 124.277C173.392 121.717 172.422 119.277 172.052 116.657C171.682 114.037 172.052 111.207 173.762 109.267C174.169 108.856 174.61 108.482 175.082 108.147C177.331 106.504 179.978 105.49 182.749 105.207C185.52 104.924 188.316 105.383 190.852 106.537C199.032 110.257 213.062 115.977 217.082 113.437C222.852 109.787 224.382 107.217 224.382 107.217L227.652 110.427Z" fill="#263238"/>
<path d="M187.57 88.8565C196.04 86.8565 205.41 87.7765 212.77 92.4465C216.68 94.9265 220.08 98.6465 220.94 103.187C221.8 107.727 219.43 113.037 215.01 114.407L214.7 114.567C208.12 116.157 204.04 114.937 197.85 112.177C192.65 109.857 188.16 106.127 182.95 103.827C177.358 101.381 171.164 100.661 165.16 101.757C171.45 95.7365 179.08 90.8965 187.57 88.8565Z" fill="#263238"/>
<path d="M194.881 171.307C193.947 172.777 193.315 174.419 193.021 176.137C192.878 176.995 192.911 177.874 193.117 178.719C193.323 179.565 193.699 180.36 194.221 181.057C195.385 182.351 197.005 183.146 198.741 183.277H198.791C199.837 183.376 200.886 183.13 201.78 182.578C202.673 182.025 203.362 181.196 203.741 180.217L205.381 176.067C202.571 174.837 197.721 172.547 194.881 171.307Z" fill="#EB996E"/>
<path d="M202.778 182.667C202.407 182.843 202.018 182.981 201.618 183.077C201.158 183.242 200.687 183.376 200.208 183.477C199.547 183.596 198.87 183.596 198.208 183.477C197.414 183.372 196.641 183.142 195.918 182.797C195.06 182.403 194.312 181.806 193.738 181.057C193.137 180.166 192.743 179.153 192.585 178.09C192.428 177.027 192.511 175.943 192.828 174.917C193.208 173.573 193.777 172.29 194.518 171.107L194.698 170.807L194.998 170.947C197.998 172.347 200.628 173.587 202.468 174.497C203.477 174.925 204.441 175.451 205.348 176.067C204.284 175.802 203.251 175.424 202.268 174.937C200.378 174.157 197.738 173.007 194.698 171.647L195.178 171.497C194.491 172.628 193.956 173.845 193.588 175.117C193.301 176.033 193.219 177.002 193.347 177.954C193.474 178.906 193.81 179.818 194.328 180.627C195.326 181.868 196.754 182.689 198.328 182.927C198.926 183.054 199.539 183.091 200.148 183.037C200.678 182.977 201.148 182.847 201.538 182.767C201.939 182.643 202.362 182.609 202.778 182.667V182.667Z" fill="#263238"/>
<path d="M268.23 261.017L274.97 251.897C274.97 251.897 274.28 249.317 275.83 243.777C277.38 238.237 281.28 227.557 284.77 224.477C288.26 221.397 293.6 215.847 293.6 215.847C293.6 215.847 297.5 216.257 296.48 220.987C295.46 225.717 291.14 230.227 291.14 230.227L289.49 234.537L297.49 233.537L308.79 227.997C308.79 227.997 325.79 209.717 328.91 215.877C329.221 216.406 329.384 217.008 329.384 217.622C329.384 218.235 329.221 218.837 328.91 219.367L318.85 229.427L312.69 235.177L334.86 222.657C334.86 222.657 338.86 221.217 338.91 225.117L336.51 228.197C336.74 228.826 336.822 229.5 336.749 230.166C336.676 230.832 336.451 231.472 336.09 232.037C334.86 233.947 321.72 245.857 321.72 245.857C321.72 245.857 307.09 258.177 304.65 260.647C302.21 263.117 295.91 264.647 295.91 264.647L292.57 271.657L268.23 261.017Z" fill="#FFBE9D"/>
<path d="M330.57 237.187C330.68 236.769 330.714 236.336 330.67 235.907C330.577 235.334 330.327 234.799 329.947 234.361C329.567 233.923 329.073 233.599 328.52 233.427C327.678 233.231 326.801 233.238 325.962 233.444C325.123 233.651 324.344 234.053 323.69 234.617C322.863 235.26 322.082 235.958 321.35 236.707C320.55 237.467 319.73 238.257 318.86 239.037C315.42 242.197 312.11 244.847 309.66 246.677C308.43 247.597 307.42 248.307 306.66 248.787C306.304 249.055 305.922 249.286 305.52 249.477C305.826 249.16 306.161 248.873 306.52 248.617L309.36 246.387C311.75 244.487 315.01 241.807 318.44 238.657L320.92 236.337C321.676 235.582 322.481 234.877 323.33 234.227C324.047 233.63 324.898 233.214 325.81 233.014C326.721 232.814 327.668 232.836 328.57 233.077C329.261 233.311 329.856 233.768 330.26 234.377C330.564 234.823 330.753 235.339 330.81 235.877C330.841 236.216 330.793 236.559 330.67 236.877C330.57 237.097 330.57 237.197 330.57 237.187Z" fill="#EB996E"/>
<path d="M335.93 228.227C335.537 227.987 335.077 227.885 334.62 227.937C333.542 228.316 332.55 228.904 331.7 229.667C329.54 231.337 328.22 233.157 328.09 233.067C328.856 231.545 329.986 230.236 331.38 229.257C331.895 228.846 332.439 228.475 333.01 228.147C333.483 227.837 334.019 227.639 334.58 227.567C334.975 227.535 335.368 227.645 335.69 227.877C335.9 228.057 335.95 228.207 335.93 228.227Z" fill="#EB996E"/>
<path d="M309.319 244.507C309.179 244.557 308.149 242.187 306.739 239.347C305.804 237.668 304.956 235.943 304.199 234.177C306.484 237.302 308.215 240.796 309.319 244.507V244.507Z" fill="#EB996E"/>
<path d="M292.381 251.567C292.291 251.567 292.561 250.567 292.751 249.027C292.992 246.999 292.904 244.946 292.491 242.947C292.064 240.945 291.322 239.025 290.291 237.257C289.491 235.907 288.861 235.147 288.931 235.087C289.592 235.659 290.156 236.334 290.601 237.087C292.926 240.625 293.826 244.912 293.121 249.087C293.009 249.948 292.759 250.785 292.381 251.567V251.567Z" fill="#EB996E"/>
<path d="M153.45 195.617L146.45 204.527C146.45 204.527 110.98 218.157 103.45 236.157C97.45 250.437 76.07 346.797 72.69 360.367C67.69 380.367 56 429.497 56 429.497L185.07 429.797L204.51 314.307L211.44 237.987L204.96 226.717L205.03 219.157L198.97 224.607L193.51 216.557L153.45 195.617Z" fill="#455A64"/>
<path opacity="0.3" d="M115.172 282.307C115.172 282.307 126.912 344.557 133.772 365.407C140.632 386.257 149.422 396.457 165.392 392.257C181.362 388.057 192.872 383.797 192.872 383.797L196.142 364.367L115.172 282.307Z" fill="black"/>
<path d="M137.46 222.547C137.46 222.547 101.96 227.747 112.7 272.697C123.44 317.647 146.5 377.297 157.24 384.057C167.98 390.817 274.97 355.057 274.97 355.057L267.81 326.817L190.04 329.697L173.15 264.907C171.233 253.465 166.187 242.777 158.57 234.027C152.88 227.537 145.57 222.037 137.46 222.547Z" fill="#455A64"/>
<path d="M211.439 237.997L230.979 304.187L265.819 259.967L294.059 272.307C294.059 272.307 258.269 343.107 250.709 349.867C243.149 356.627 234.399 360.207 221.279 354.637C208.159 349.067 187.469 325.207 187.469 325.207L211.439 237.997Z" fill="#455A64"/>
<path d="M171.201 257.387C171.201 257.387 171.331 257.817 171.561 258.657L172.561 262.417C173.431 265.727 174.721 270.587 176.371 276.837C179.661 289.357 184.371 307.417 190.221 329.617L190.021 329.467L267.791 326.537H267.991L268.041 326.737L275.211 354.977L275.271 355.207L275.041 355.277C265.731 358.377 255.931 361.507 245.921 364.617C231.921 368.957 218.201 373.027 204.851 376.617C198.181 378.417 191.601 380.087 185.111 381.557C178.778 383.074 172.36 384.209 165.891 384.957C164.309 385.116 162.719 385.176 161.131 385.137C160.338 385.115 159.549 385.028 158.771 384.877C157.968 384.742 157.216 384.397 156.591 383.877C155.371 382.903 154.288 381.769 153.371 380.507C152.441 379.287 151.591 378.027 150.791 376.747C149.171 374.197 147.791 371.587 146.411 368.997C145.031 366.407 143.831 363.807 142.621 361.247C137.901 350.977 134.061 341.177 130.741 332.157C124.131 314.157 119.661 299.217 116.741 288.867C113.821 278.517 112.641 272.707 112.641 272.707C112.641 272.707 112.741 273.057 112.921 273.767C113.101 274.477 113.371 275.517 113.711 276.877C114.431 279.617 115.471 283.657 116.941 288.817C119.861 299.147 124.381 314.027 131.041 332.037C134.371 341.037 138.231 350.827 142.971 361.037C144.171 363.587 145.401 366.177 146.751 368.757C148.101 371.337 149.521 373.937 151.121 376.477C151.921 377.737 152.771 378.997 153.691 380.197C154.581 381.423 155.634 382.523 156.821 383.467C157.389 383.951 158.082 384.266 158.821 384.377C159.572 384.529 160.334 384.616 161.101 384.637C162.666 384.668 164.233 384.604 165.791 384.447C172.24 383.697 178.638 382.562 184.951 381.047C191.431 379.577 198.001 377.897 204.671 376.097C218.011 372.497 231.731 368.427 245.721 364.097C255.721 360.997 265.531 357.857 274.831 354.767L274.661 355.077L267.571 326.847L267.821 327.037L190.041 329.867H189.891V329.717C184.131 307.497 179.451 289.417 176.211 276.887C174.601 270.637 173.351 265.767 172.501 262.447L171.501 258.677C171.291 257.827 171.201 257.387 171.201 257.387Z" fill="#263238"/>
<path d="M121.078 235.037C121.078 235.037 121.208 234.897 121.488 234.677C121.768 234.457 122.158 234.127 122.718 233.767C124.293 232.7 125.967 231.789 127.718 231.047C133.498 228.553 139.887 227.829 146.078 228.967C152.251 230.196 157.924 233.219 162.388 237.657C163.731 238.989 164.94 240.449 165.998 242.017C166.378 242.557 166.628 243.017 166.808 243.317C166.909 243.467 166.992 243.628 167.058 243.797C167.058 243.797 166.618 243.207 165.828 242.137C161.646 236.308 155.61 232.071 148.707 230.119C141.805 228.166 134.444 228.613 127.828 231.387C126.091 232.091 124.418 232.944 122.828 233.937C121.708 234.647 121.108 235.067 121.078 235.037Z" fill="#263238"/>
<path d="M198.971 224.617C198.787 224.48 198.619 224.322 198.471 224.147L197.131 222.737L192.251 217.477H192.551L186.701 229.037L186.581 229.287L186.351 229.137C183.351 227.137 180.101 224.927 176.671 222.687C168.721 217.497 161.391 212.987 156.061 209.777L149.741 205.987L148.021 204.987C147.814 204.879 147.619 204.748 147.441 204.597C147.663 204.679 147.877 204.779 148.081 204.897L149.841 205.897C151.361 206.737 153.561 207.967 156.251 209.537C161.631 212.667 168.991 217.137 176.951 222.327C180.391 224.577 183.661 226.767 186.621 228.807L186.271 228.897C188.541 224.517 190.561 220.597 192.271 217.387L192.391 217.147L192.561 217.347L197.321 222.727L198.591 224.197C198.729 224.326 198.856 224.466 198.971 224.617V224.617Z" fill="#263238"/>
<path d="M209.569 258.907C209.709 258.907 207.769 274.697 205.239 294.127C202.709 313.557 200.569 329.307 200.369 329.307C200.169 329.307 202.169 313.516 204.699 294.076C207.229 274.636 209.389 258.887 209.569 258.907Z" fill="#263238"/>
<path d="M204.96 226.367C204.72 226.794 204.424 227.187 204.08 227.537C203.48 228.237 202.61 229.227 201.57 230.377L201.07 230.937L201.17 230.187C201.33 228.937 201.5 227.557 201.69 226.087C201.92 224.457 202.13 222.927 202.33 221.547L202.7 221.747C201.538 222.839 200.294 223.842 198.98 224.747C200.035 223.54 201.178 222.413 202.4 221.377L202.85 220.957L202.78 221.567C202.6 222.947 202.41 224.487 202.2 226.117C202 227.577 201.81 228.957 201.63 230.217L201.23 230.027C202.3 228.897 203.23 227.957 203.87 227.307C204.196 226.952 204.562 226.636 204.96 226.367Z" fill="#263238"/>
<path d="M228.57 317.247C228.675 315.025 229.011 312.819 229.57 310.667C229.941 308.483 230.425 306.32 231.02 304.187C230.932 306.406 230.617 308.611 230.08 310.767C229.694 312.952 229.19 315.115 228.57 317.247V317.247Z" fill="#263238"/>
<path d="M188.159 327.537C188.15 327.447 188.15 327.356 188.159 327.267C188.159 327.067 188.159 326.807 188.229 326.497C188.309 325.767 188.409 324.767 188.549 323.497C188.849 320.857 189.269 317.117 189.789 312.497C190.789 303.227 192.199 290.407 193.509 276.227C194.819 262.047 195.829 249.227 196.509 239.877C196.849 235.257 197.119 231.497 197.319 228.877C197.409 227.607 197.489 226.607 197.549 225.877C197.549 225.557 197.549 225.307 197.619 225.097C197.609 225.01 197.609 224.923 197.619 224.837C197.637 224.926 197.637 225.017 197.619 225.107C197.619 225.307 197.619 225.567 197.619 225.887C197.619 226.607 197.539 227.617 197.489 228.887C197.359 231.497 197.149 235.267 196.849 239.887C196.259 249.197 195.309 262.067 193.999 276.257C192.689 290.447 191.259 303.257 190.129 312.527C189.559 317.157 189.129 320.907 188.719 323.527C188.539 324.787 188.399 325.787 188.299 326.527C188.249 326.837 188.209 327.097 188.179 327.297C188.182 327.377 188.175 327.458 188.159 327.537Z" fill="#263238"/>
<path d="M171.572 428.307C171.432 428.307 172.932 418.377 174.922 406.177C176.912 393.977 178.652 384.107 178.792 384.177C178.932 384.247 177.432 394.107 175.442 406.297C173.452 418.487 171.692 428.357 171.572 428.307Z" fill="#263238"/>
<path d="M276.33 325.857C276.33 325.857 280.13 312.367 283.02 310.247C286.379 308.065 289.851 306.062 293.42 304.247L303.42 301.547C303.42 301.547 305.54 306.547 303.42 308.287C301.903 309.38 300.09 309.987 298.22 310.027L293.98 313.687L307.66 311.757C307.66 311.757 328.28 303.087 331.74 303.087C335.2 303.087 335.21 305.597 333.48 307.327C331.75 309.057 315.95 318.117 315.95 318.117C315.95 318.117 314.95 319.657 317.1 319.857C319.25 320.057 325.39 317.157 327.1 318.697C328.81 320.237 330.95 322.337 328.64 324.857C327.32 326.313 325.833 327.608 324.21 328.717C324.21 328.717 328.06 328.527 328.26 331.607C328.278 332.525 328.034 333.43 327.556 334.215C327.077 334.999 326.385 335.631 325.56 336.037L321.9 337.577C322.114 338.23 322.155 338.928 322.02 339.602C321.885 340.277 321.579 340.905 321.13 341.427C319.59 343.547 306.87 349.137 306.87 349.137C306.87 349.137 295.7 352.217 292.61 352.217C289.52 352.217 274.71 354.137 274.71 354.137L268.07 328.137L276.33 325.857Z" fill="#FFBE9D"/>
<path d="M882.193 200.627C882.193 200.627 878.923 204.627 878.593 207.517C878.263 210.407 874.663 226.787 875.973 232.027C877.283 237.267 878.973 238.617 878.973 238.617L905.773 240.527L912.313 236.277L914.923 220.577L882.193 200.627Z" fill="#9D6054"/>
<path d="M878.945 238.617C879.585 240.117 859.495 293.217 856.895 300.727C854.295 308.237 850.535 325.187 853.135 338.177C855.735 351.167 870.585 357.547 883.575 352.637C896.565 347.727 912.195 319.637 912.195 319.637L914.895 243.917C914.895 243.917 911.055 241.917 905.565 251.417C900.075 260.917 897.055 274.417 897.055 274.417L906.415 238.617H878.945Z" fill="#9D6054"/>
<path d="M906.063 240.317C906.063 240.317 906.063 240.517 905.933 240.907C905.803 241.297 905.683 241.907 905.493 242.637C905.103 244.167 904.493 246.407 903.773 249.327C902.243 255.177 900.013 263.707 897.213 274.457L896.903 274.387C898.207 268.781 899.963 263.29 902.153 257.967C903.373 254.936 904.876 252.026 906.643 249.277C907.568 247.803 908.685 246.458 909.963 245.277C910.637 244.677 911.399 244.185 912.223 243.817C913.088 243.4 914.083 243.339 914.993 243.647H915.113V243.797C914.343 265.537 913.433 291.467 912.453 319.527V319.707V319.757C909.305 325.289 905.835 330.631 902.063 335.757C898.734 340.424 894.901 344.71 890.633 348.537C888.532 350.437 886.111 351.951 883.483 353.007C880.856 353.936 878.098 354.443 875.313 354.507C869.856 354.724 864.492 353.053 860.123 349.777C858.064 348.184 856.342 346.199 855.055 343.937C853.767 341.675 852.941 339.18 852.623 336.597C852.247 334.138 852.054 331.655 852.043 329.167C852.018 326.754 852.115 324.341 852.333 321.937C852.745 317.34 853.483 312.779 854.543 308.287C855.053 306.107 855.623 303.987 856.273 301.937C856.923 299.887 857.693 297.937 858.403 295.937C859.836 292.057 861.213 288.337 862.533 284.777C867.813 270.577 872.063 259.067 874.903 251.087C876.323 247.087 877.403 243.987 878.083 241.867C878.503 240.813 878.791 239.712 878.943 238.587C879.233 238.587 877.893 243.157 875.093 251.157C872.293 259.157 868.093 270.687 862.883 284.907L858.773 296.067C858.073 298.017 857.323 299.987 856.673 302.067C856.023 304.147 855.473 306.227 854.963 308.387C853.919 312.864 853.19 317.408 852.783 321.987C852.572 324.378 852.482 326.777 852.513 329.177C852.522 331.639 852.719 334.096 853.103 336.527C853.409 339.051 854.213 341.488 855.47 343.697C856.727 345.907 858.41 347.844 860.423 349.397C864.71 352.597 869.968 354.222 875.313 353.997C878.044 353.913 880.744 353.396 883.313 352.467C885.885 351.43 888.255 349.947 890.313 348.087C894.549 344.278 898.358 340.02 901.673 335.387C905.428 330.287 908.881 324.972 912.013 319.467V319.587C913.013 291.537 914.013 265.587 914.763 243.867L914.873 244.057C914.074 243.821 913.215 243.889 912.463 244.247C911.683 244.595 910.961 245.06 910.323 245.627C909.071 246.771 907.972 248.072 907.053 249.497C905.3 252.223 903.803 255.105 902.583 258.107C900.39 263.409 898.621 268.876 897.293 274.457L896.983 274.377C899.853 263.647 902.123 255.127 903.683 249.277C904.473 246.377 905.083 244.137 905.493 242.607C905.703 241.867 905.853 241.297 905.963 240.897C906.073 240.497 906.063 240.317 906.063 240.317Z" fill="#724A44"/>
<path d="M886.445 306.267C886.575 305.571 886.759 304.885 886.995 304.217C887.425 302.817 887.995 300.987 888.675 298.807L889.075 298.947C888.865 299.527 888.645 300.137 888.425 300.767L887.995 300.597C888.995 298.207 890.105 295.397 891.215 292.387C892.995 287.587 894.425 283.177 895.405 279.967L896.565 276.167C896.681 275.694 896.838 275.232 897.035 274.787C896.996 275.272 896.905 275.751 896.765 276.217C896.545 277.137 896.215 278.457 895.765 280.077C894.865 283.307 893.485 287.757 891.705 292.567C890.585 295.567 889.445 298.397 888.415 300.777L887.995 300.607L888.685 298.797L889.075 298.937L887.225 304.287C887.015 304.966 886.754 305.628 886.445 306.267V306.267Z" fill="#724A44"/>
<path d="M896.185 233.707C896.095 233.707 895.745 232.707 894.995 231.127C893.036 227.003 890.093 223.424 886.425 220.707C885.015 219.707 884.075 219.137 884.115 219.057C884.365 219.116 884.605 219.214 884.825 219.347C885.45 219.662 886.054 220.016 886.635 220.407C888.555 221.689 890.279 223.241 891.755 225.017C893.222 226.8 894.428 228.783 895.335 230.907C895.607 231.559 895.837 232.227 896.025 232.907C896.127 233.162 896.181 233.433 896.185 233.707Z" fill="#724A44"/>
<path d="M903.035 231.217C903.035 231.407 901.315 231.147 899.485 231.967C898.702 232.342 897.937 232.756 897.195 233.207C896.605 233.547 896.195 233.727 896.195 233.667C896.195 233.607 896.465 233.317 897.005 232.907C897.707 232.346 898.472 231.87 899.285 231.487C900.121 231.116 901.032 230.945 901.945 230.987C902.635 231.027 903.045 231.147 903.035 231.217Z" fill="#724A44"/>
<path d="M871.995 131.317C868.485 125.617 870.175 117.697 874.815 112.867C879.455 108.037 886.395 105.977 893.085 105.867C899.775 105.757 906.365 107.437 912.855 109.087C915.127 105.852 918.252 103.31 921.882 101.745C925.512 100.18 929.506 99.6532 933.418 100.223C937.33 100.793 941.007 102.438 944.04 104.974C947.072 107.51 949.342 110.838 950.595 114.587C952.852 113.581 955.34 113.21 957.792 113.514C960.244 113.817 962.566 114.784 964.51 116.309C966.453 117.835 967.943 119.862 968.82 122.171C969.697 124.481 969.927 126.986 969.485 129.417L941.765 144.877L919.315 207.157C911.315 216.827 895.835 219.267 885.205 212.557C874.575 205.847 870.205 190.837 875.455 179.427C873.371 178.136 871.513 176.511 869.955 174.617C867.116 173.54 864.519 171.909 862.315 169.82C860.111 167.731 858.343 165.225 857.115 162.447C852.175 150.467 859.565 134.997 871.995 131.317Z" fill="#263238"/>
<path d="M911.946 246.137C912.186 236.597 912.375 230.057 912.365 230.137C912.355 230.217 893.796 226.377 890.796 201.857C889.306 189.667 890.626 169.857 892.226 153.607C893.676 139.027 904.006 121.427 918.516 123.487L963.596 136.617C968.006 137.237 969.415 141.037 969.165 145.487L969.466 147.577L964.846 217.307L963.185 248.397C962.776 254.783 959.995 260.784 955.388 265.225C950.782 269.665 944.682 272.223 938.285 272.397V272.397C934.807 272.492 931.347 271.878 928.113 270.593C924.88 269.308 921.942 267.378 919.478 264.922C917.014 262.465 915.076 259.533 913.781 256.304C912.486 253.074 911.861 249.615 911.946 246.137Z" fill="#9D6054"/>
<path d="M896.804 174.377C896.766 175.192 897.048 175.989 897.59 176.598C898.132 177.208 898.891 177.581 899.704 177.637C900.1 177.681 900.501 177.646 900.883 177.534C901.265 177.422 901.621 177.235 901.93 176.983C902.239 176.732 902.495 176.422 902.683 176.07C902.871 175.719 902.987 175.334 903.024 174.937C903.063 174.123 902.781 173.325 902.239 172.716C901.697 172.107 900.938 171.734 900.124 171.677C899.728 171.633 899.328 171.668 898.945 171.78C898.563 171.893 898.207 172.08 897.898 172.331C897.589 172.582 897.333 172.893 897.145 173.244C896.958 173.595 896.842 173.981 896.804 174.377V174.377Z" fill="#263238"/>
<path d="M896.863 166.527C897.233 166.947 899.663 165.277 903.023 165.407C906.383 165.537 908.793 167.307 909.173 166.907C909.363 166.727 908.993 165.977 907.943 165.157C906.524 164.099 904.813 163.505 903.043 163.457C901.292 163.382 899.563 163.873 898.113 164.857C897.053 165.607 896.673 166.337 896.863 166.527Z" fill="#263238"/>
<path d="M926.695 175.207C926.656 176.022 926.938 176.819 927.48 177.428C928.022 178.038 928.781 178.411 929.595 178.467C929.991 178.511 930.391 178.476 930.774 178.364C931.156 178.252 931.512 178.065 931.821 177.813C932.13 177.562 932.386 177.252 932.574 176.9C932.762 176.549 932.878 176.164 932.915 175.767C932.953 174.953 932.672 174.155 932.13 173.546C931.588 172.937 930.828 172.564 930.015 172.507C929.619 172.463 929.218 172.498 928.836 172.61C928.454 172.723 928.098 172.91 927.789 173.161C927.48 173.412 927.224 173.723 927.036 174.074C926.848 174.425 926.732 174.811 926.695 175.207Z" fill="#263238"/>
<path d="M929.004 167.027C929.374 167.447 931.814 165.787 935.174 165.907C938.534 166.027 940.934 167.807 941.314 167.407C941.504 167.237 941.134 166.487 940.084 165.667C938.667 164.604 936.955 164.007 935.184 163.957C933.434 163.894 931.709 164.384 930.254 165.357C929.194 166.117 928.814 166.837 929.004 167.027Z" fill="#263238"/>
<path d="M916.112 190.397C916.112 190.207 914.052 189.777 910.682 189.217C909.822 189.097 909.022 188.897 908.892 188.307C908.851 187.418 909.085 186.538 909.562 185.787L912.332 179.337C916.192 170.147 919.022 162.587 918.652 162.437C918.282 162.287 914.842 169.607 910.982 178.787C910.056 181.054 909.169 183.217 908.322 185.277C907.745 186.296 907.543 187.485 907.752 188.637C907.865 188.945 908.048 189.222 908.285 189.447C908.523 189.673 908.809 189.84 909.122 189.937C909.592 190.087 910.08 190.174 910.572 190.197C913.972 190.497 916.092 190.597 916.112 190.397Z" fill="#263238"/>
<path d="M912.363 230.117C923.85 230.713 935.275 228.103 945.363 222.577C945.363 222.577 936.513 239.487 912.203 236.337L912.363 230.117Z" fill="#724A44"/>
<path d="M929.313 157.897C929.693 158.797 933.023 158.197 936.993 158.477C940.963 158.757 944.203 159.677 944.683 158.827C944.903 158.427 944.303 157.587 942.973 156.767C941.202 155.77 939.227 155.189 937.199 155.068C935.17 154.946 933.14 155.288 931.263 156.067C929.833 156.707 929.133 157.477 929.313 157.897Z" fill="#263238"/>
<path d="M897.105 156.707C897.785 157.487 900.555 156.797 903.845 156.877C907.135 156.957 909.915 157.607 910.595 156.877C910.885 156.497 910.475 155.717 909.275 154.947C907.627 153.988 905.752 153.488 903.845 153.497C901.946 153.443 900.068 153.91 898.415 154.847C897.225 155.547 896.815 156.317 897.105 156.707Z" fill="#263238"/>
<path d="M950.663 122.707C950.592 125.156 949.981 127.56 948.875 129.746C947.769 131.932 946.195 133.848 944.264 135.357C942.334 136.865 940.094 137.93 937.705 138.474C935.317 139.019 932.837 139.03 930.443 138.507C926.743 137.707 922.723 135.687 919.443 137.567C915.983 139.567 915.673 144.637 912.573 147.147C908.153 150.737 901.433 147.007 895.933 148.447C891.673 149.547 888.933 153.447 885.993 156.787C883.053 160.127 878.783 163.157 874.613 161.787C874.849 157.996 875.52 154.245 876.613 150.607C877.736 146.924 880.1 143.744 883.303 141.607C885.083 140.527 887.133 139.907 888.793 138.657C892.383 135.947 893.363 131.067 895.653 127.197C897.156 124.708 899.231 122.614 901.706 121.088C904.181 119.563 906.985 118.651 909.883 118.427C914.693 118.097 919.583 119.697 924.303 118.677C927.783 117.927 930.873 115.777 934.403 115.237C941.263 114.167 947.403 119.237 952.213 124.307" fill="#263238"/>
<path d="M928.524 131.707C931.614 130.937 937.934 129.167 939.654 126.567C943.414 120.927 949.814 117.207 956.214 117.777C959.526 118.146 962.63 119.578 965.06 121.858C967.49 124.139 969.116 127.145 969.694 130.427C977.444 130.747 984.854 135.867 988.334 143.327C990.036 147.131 990.789 151.291 990.53 155.451C990.27 159.61 989.005 163.644 986.844 167.207C985.812 169.078 984.913 171.02 984.154 173.017C985.95 174.594 987.591 176.338 989.054 178.227C995.954 188.417 983.144 194.987 983.144 194.987C984.384 202.417 977.534 203.557 973.144 204.297C968.914 205.007 968.344 217.157 964.844 217.297L962.074 180.537C961.594 180.815 961.07 181.008 960.524 181.107C952.264 182.687 951.724 166.657 953.704 162.107C950.699 159.48 948.035 156.487 945.774 153.197C943.624 149.777 941.944 140.597 942.564 136.517C939.604 136.607 927.174 132.037 928.524 131.707Z" fill="#263238"/>
<path d="M961.164 182.707C961.594 177.527 967.364 174.257 971.774 177.007C974.194 178.517 975.984 181.447 975.574 186.947C974.474 201.607 959.984 197.487 959.984 197.057C959.994 196.707 960.654 188.707 961.164 182.707Z" fill="#9D6054"/>
<path d="M964.883 191.787C964.953 191.787 965.123 191.987 965.543 192.217C966.128 192.524 966.809 192.592 967.443 192.407C969.033 191.947 970.523 189.587 970.793 186.947C970.924 185.693 970.773 184.426 970.353 183.237C970.245 182.77 970.028 182.336 969.718 181.971C969.408 181.606 969.016 181.32 968.573 181.137C968.285 181.039 967.971 181.044 967.687 181.152C967.402 181.26 967.164 181.463 967.013 181.727C966.793 182.117 966.863 182.417 966.783 182.437C966.703 182.457 966.483 182.167 966.653 181.567C966.768 181.214 967.001 180.91 967.313 180.707C967.739 180.431 968.256 180.334 968.753 180.437C969.347 180.599 969.889 180.912 970.327 181.344C970.765 181.777 971.084 182.315 971.253 182.907C971.782 184.226 971.981 185.654 971.833 187.067C971.523 190.007 969.833 192.667 967.633 193.117C967.23 193.202 966.814 193.195 966.414 193.099C966.015 193.002 965.642 192.817 965.323 192.557C964.883 192.147 964.823 191.817 964.883 191.787Z" fill="#263238"/>
<path d="M981.574 151.627C981.806 151.486 982.018 151.314 982.204 151.117C982.763 150.588 983.287 150.023 983.774 149.427C985.607 147.219 986.855 144.584 987.404 141.767C987.757 139.802 987.668 137.784 987.144 135.857C986.55 133.621 985.329 131.601 983.624 130.037C982.673 129.17 981.559 128.501 980.347 128.068C979.135 127.636 977.849 127.448 976.564 127.517C975.172 127.549 973.806 127.903 972.574 128.552C971.342 129.201 970.278 130.127 969.464 131.257L970.154 131.577V131.417C971.734 126.127 971.484 120.417 969.094 116.137C966.704 111.857 962.614 109.287 958.934 109.037C957.492 108.922 956.041 109.096 954.668 109.549C953.294 110.002 952.024 110.726 950.934 111.677C950.359 112.203 949.855 112.801 949.434 113.457C949.286 113.686 949.166 113.931 949.074 114.187C949.674 113.353 950.365 112.588 951.134 111.907C953.32 110.144 956.109 109.307 958.904 109.577C960.94 109.871 962.875 110.651 964.544 111.853C966.214 113.054 967.569 114.64 968.494 116.477C970.734 120.567 970.964 126.047 969.434 131.207V131.357L968.794 133.657L970.124 131.657C970.875 130.63 971.851 129.788 972.978 129.197C974.105 128.605 975.352 128.281 976.624 128.247C977.812 128.178 979.001 128.345 980.123 128.738C981.246 129.131 982.279 129.742 983.164 130.537C984.785 132.001 985.957 133.894 986.544 135.997C987.073 137.832 987.189 139.762 986.884 141.647C986.395 144.397 985.253 146.99 983.554 149.207C982.314 150.827 981.524 151.577 981.574 151.627Z" fill="#263238"/>
<path d="M972.653 194.797C973.28 195.033 973.878 195.341 974.433 195.717C975.848 196.883 976.874 198.453 977.373 200.217C977.765 201.413 977.948 202.669 977.913 203.927C977.846 205.363 977.412 206.757 976.653 207.977C975.809 209.327 974.644 210.447 973.263 211.237C971.802 212.119 970.106 212.534 968.403 212.427C966.699 212.332 965.06 211.745 963.683 210.737C962.4 209.797 961.404 208.52 960.803 207.047C960.263 205.812 959.992 204.476 960.008 203.128C960.023 201.779 960.325 200.45 960.893 199.227C961.701 197.582 963.091 196.296 964.793 195.617C965.44 195.396 966.111 195.255 966.793 195.197C966.62 195.176 966.445 195.176 966.273 195.197C965.765 195.227 965.264 195.324 964.783 195.487C962.998 196.126 961.527 197.426 960.673 199.117C960.066 200.376 959.737 201.751 959.706 203.148C959.674 204.545 959.943 205.932 960.493 207.217C961.117 208.756 962.156 210.092 963.493 211.077C964.927 212.14 966.641 212.758 968.423 212.857C970.208 212.966 971.984 212.526 973.513 211.597C974.946 210.772 976.152 209.603 977.023 208.197C977.808 206.919 978.246 205.457 978.293 203.957C978.326 202.661 978.123 201.37 977.693 200.147C977.153 198.345 976.062 196.757 974.573 195.607C974.151 195.324 973.694 195.099 973.213 194.937L972.653 194.797Z" fill="#455A64"/>
<path d="M918.505 199.117C919.14 198.323 919.968 197.703 920.909 197.317C921.85 196.93 922.874 196.789 923.885 196.907C924.615 196.972 925.324 197.182 925.972 197.526C926.619 197.869 927.192 198.339 927.655 198.907C928.106 199.465 928.374 200.149 928.421 200.866C928.467 201.582 928.29 202.295 927.915 202.907C927.015 204.167 925.135 204.457 923.545 203.997C921.977 203.44 920.536 202.577 919.305 201.457C918.908 201.194 918.568 200.854 918.305 200.457C918.18 200.274 918.113 200.058 918.113 199.837C918.113 199.616 918.18 199.4 918.305 199.217" fill="#724A44"/>
<path d="M926.904 193.417C926.354 193.417 926.344 196.997 923.244 199.557C920.144 202.117 916.304 201.707 916.244 202.217C916.194 202.437 917.104 202.917 918.724 202.967C920.839 203.005 922.899 202.297 924.544 200.967C926.122 199.689 927.138 197.844 927.374 195.827C927.544 194.297 927.144 193.397 926.904 193.417Z" fill="#263238"/>
<path d="M918.164 230.237C917.774 230.354 917.371 230.418 916.964 230.427C915.863 230.522 914.755 230.522 913.654 230.427C909.977 230.109 906.44 228.868 903.371 226.819C900.301 224.771 897.798 221.98 896.094 218.707C895.578 217.728 895.143 216.708 894.794 215.657C894.65 215.277 894.552 214.881 894.504 214.477C894.594 214.477 895.054 216.117 896.414 218.527C898.178 221.672 900.663 224.352 903.665 226.348C906.668 228.344 910.102 229.598 913.684 230.007C916.434 230.367 918.164 230.137 918.164 230.237Z" fill="#724A44"/>
<path d="M964.905 223.327L966.475 231.387C974.475 235.967 993.475 249.807 1001.57 269.157C1012.32 294.957 1025.22 370.647 1025.22 370.647C1025.22 370.647 1049.84 402.787 1055.14 430.197H937.975L933.065 382.787C933.065 382.787 913.415 369.167 907.395 349.147C905.785 343.797 904.455 338.707 903.395 334.097C900.433 321.466 900.066 308.365 902.315 295.587L904.095 285.457L912.245 244.557V238.617L964.905 223.327Z" fill="#01818C"/>
<path opacity="0.3" d="M913.434 360.897C913.654 360.997 954.514 391.437 968.034 395.627C979.754 399.247 992.444 395.627 999.334 384.857C1002.33 380.197 990.804 304.237 990.804 304.237L975.004 363.627L913.434 360.897Z" fill="black"/>
<path d="M893.484 319.267C893.484 319.267 866.694 296.267 865.384 296.117C864.074 295.967 842.384 296.817 842.384 296.817C842.384 296.817 835.834 298.557 836.074 301.217C836.22 302.812 836.972 304.29 838.174 305.347C837.109 306.707 836.169 308.159 835.364 309.687C834.854 311.027 836.614 313.687 836.614 313.687C836.614 313.687 834.444 315.797 834.714 318.027C834.836 319.301 835.361 320.503 836.214 321.457C836.214 321.457 833.434 322.837 834.104 325.617C834.774 328.397 838.104 333.947 838.104 333.947C838.104 333.947 841.004 333.517 841.174 331.327C841.31 330.219 841.252 329.096 841.004 328.007L852.514 330.007C852.514 330.007 859.044 334.057 862.714 334.797C866.384 335.537 878.984 340.517 878.984 340.517L893.484 319.267Z" fill="#9D6054"/>
<path d="M838.195 305.897C838.824 305.296 839.514 304.763 840.255 304.307C842.132 303.361 844.229 302.94 846.325 303.087C848.795 303.207 851.025 303.647 852.675 303.747C853.552 303.872 854.443 303.859 855.315 303.707C855.315 303.627 854.315 303.617 852.685 303.407C851.055 303.197 848.855 302.727 846.325 302.597C844.141 302.443 841.96 302.937 840.055 304.017C839.492 304.359 838.988 304.792 838.565 305.297C838.407 305.474 838.282 305.677 838.195 305.897Z" fill="#724A44"/>
<path d="M836.004 313.567C836.815 313.473 837.62 313.329 838.414 313.137C842.277 312.414 846.232 312.323 850.124 312.867C850.926 313.028 851.738 313.132 852.554 313.177C851.791 312.859 850.992 312.637 850.174 312.517C848.22 312.149 846.232 311.985 844.244 312.027C842.255 312.074 840.278 312.332 838.344 312.797C837.531 312.942 836.743 313.201 836.004 313.567V313.567Z" fill="#724A44"/>
<path d="M835.363 322.147C836.065 321.798 836.808 321.536 837.573 321.367C839.474 321.17 841.391 321.204 843.283 321.467C845.543 321.647 847.583 321.767 849.063 321.837C849.861 321.922 850.666 321.922 851.463 321.837C850.688 321.634 849.894 321.513 849.093 321.477C847.613 321.327 845.573 321.137 843.323 320.967C841.392 320.688 839.429 320.705 837.503 321.017C836.682 321.14 835.928 321.539 835.363 322.147V322.147Z" fill="#724A44"/>
<path d="M959.853 235.647C959.853 235.647 977.493 234.647 983.083 251.057C988.673 267.467 1001.57 369.827 998.993 376.707C996.413 383.587 983.993 393.477 970.183 387.887C956.373 382.297 876.613 342.787 876.613 342.787L890.313 318.057L952.543 337.837C952.543 337.837 937.703 292.517 937.543 270.607C937.313 250.457 945.233 234.787 959.853 235.647Z" fill="#9D6054"/>
<path d="M971.135 344.357C971.026 344.342 970.919 344.315 970.815 344.277L969.875 343.997L966.315 342.887L953.225 338.707L910.115 324.637L891.665 318.577H891.615L867.125 297.847C865.688 296.837 863.96 296.325 862.205 296.387L858.205 296.477H855.725H854.875H855.085H855.725L858.195 296.357L862.195 296.187C864.012 296.095 865.808 296.604 867.305 297.637C873.455 302.637 881.975 309.887 891.935 318.237H891.845L910.315 324.237L953.315 338.337L966.315 342.687L969.855 343.897L970.765 344.227L971.135 344.357Z" fill="#724A44"/>
<path d="M852.523 330.067C852.711 330.124 852.892 330.201 853.063 330.297L854.543 331.027L859.953 333.787L877.903 342.787L895.783 351.927L901.173 354.747L902.633 355.537C902.812 355.614 902.977 355.719 903.123 355.847C902.937 355.792 902.756 355.718 902.583 355.627L901.083 354.927L895.623 352.257L877.673 343.257L859.793 334.117C857.523 332.917 855.703 331.897 854.443 331.207L853.003 330.387C852.829 330.303 852.668 330.196 852.523 330.067V330.067Z" fill="#724A44"/>
<path d="M938 430H1055L1069 502.5L938 464V430Z" fill="#01818C"/>
<path d="M1142.84 391.518C1138.7 383.992 1137.47 375.204 1139.38 366.829C1147.6 375.494 1142.84 391.518 1142.84 391.518Z" fill="#01818C"/>
<path d="M1151.3 379.106C1156.55 372.293 1164.11 367.643 1172.56 366.038C1167.92 377.043 1151.3 379.106 1151.3 379.106Z" fill="#01818C"/>
<path d="M1148.89 371.858C1144.44 366.736 1142.04 360.155 1142.14 353.371C1149.9 358.666 1148.89 371.858 1148.89 371.858Z" fill="#01818C"/>
<path d="M1089.98 374.463C1109.75 369.137 1127.53 378.719 1127.53 378.719C1112.89 387.183 1089.98 374.463 1089.98 374.463Z" fill="#01818C"/>
<path d="M1121.41 365.686C1109.88 347.722 1115.83 316.433 1115.83 316.433C1126.34 340.924 1121.41 365.686 1121.41 365.686Z" fill="#01818C"/>
<path d="M1090.95 313.169C1096.64 322.209 1099.69 332.669 1099.73 343.354C1090.31 332.934 1090.95 313.169 1090.95 313.169Z" fill="#01818C"/>
<path d="M1105.65 354.692C1091.31 361.027 1076.22 351.844 1076.22 351.844C1095.18 346.991 1105.65 354.692 1105.65 354.692Z" fill="#01818C"/>
<path d="M1109.12 427.936C1113.2 420.368 1119.92 414.565 1128 411.633C1125.18 423.214 1109.12 427.936 1109.12 427.936Z" fill="#01818C"/>
<path d="M1147.59 413.8C1148.39 419.164 1147.27 424.64 1144.42 429.254C1141.4 422.692 1147.59 413.8 1147.59 413.8Z" fill="#01818C"/>
<path d="M1144.71 412.816C1139.76 421.971 1130.25 425.001 1130.25 425.001C1132.32 416.589 1144.71 412.816 1144.71 412.816Z" fill="#01818C"/>
<path d="M1165.96 433.676C1165.96 433.676 1165.91 433.581 1165.8 433.399C1165.7 433.217 1165.53 432.923 1165.34 432.594C1164.9 431.841 1164.31 430.81 1163.55 429.502C1162.8 428.195 1161.83 426.514 1160.73 424.609C1159.63 422.704 1158.37 420.53 1156.85 418.211C1153.96 413.484 1150.32 407.971 1146.18 401.934C1142.04 395.897 1137.13 389.481 1131.88 382.833C1121.35 369.595 1111 358.299 1103.3 350.329C1099.43 346.35 1096.27 343.166 1094.05 341.006L1091.52 338.483C1091.26 338.216 1091.05 337.991 1090.87 337.818C1090.79 337.742 1090.73 337.658 1090.67 337.566C1090.76 337.623 1090.85 337.69 1090.92 337.766C1091.11 337.934 1091.34 338.135 1091.61 338.383C1092.26 338.981 1093.15 339.805 1094.24 340.806C1096.53 342.944 1099.73 346.05 1103.65 349.977C1113.85 360.245 1123.47 371.066 1132.47 382.39C1137.72 389.038 1142.49 395.557 1146.66 401.588C1150.83 407.618 1154.38 413.216 1157.21 417.988C1158.68 420.342 1159.91 422.539 1161.01 424.444C1162.11 426.349 1163.06 427.995 1163.76 429.391C1164.47 430.787 1165.03 431.766 1165.44 432.543C1165.63 432.863 1165.78 433.123 1165.87 433.373C1165.91 433.471 1165.94 433.572 1165.96 433.676Z" fill="#01818C"/>
<path d="M1118.66 408.941C1118.68 408.748 1126.22 409.2 1135.46 409.891C1144.7 410.582 1152.21 411.35 1152.2 411.543C1152.18 411.737 1144.66 411.279 1135.4 410.593C1126.15 409.908 1118.61 409.102 1118.66 408.941Z" fill="#01818C"/>
<path d="M1143.78 397.004C1143.84 396.52 1143.95 396.044 1144.12 395.586L1145.2 391.842L1148.91 379.559L1152.63 367.261L1153.76 363.538C1153.88 363.072 1154.04 362.62 1154.26 362.191C1154.25 362.672 1154.17 363.149 1154.02 363.607C1153.84 364.51 1153.52 365.801 1153.12 367.398C1152.29 370.58 1151.05 374.955 1149.59 379.76C1148.12 384.566 1146.76 388.864 1145.67 391.998C1145.14 393.553 1144.7 394.812 1144.34 395.698C1144.22 396.157 1144.03 396.597 1143.78 397.004Z" fill="#01818C"/>
<path d="M1096.27 410.15C1096.27 410.15 1110.07 401.827 1122.3 409.403C1118.32 411.549 1113.9 412.734 1109.38 412.864C1104.86 412.993 1100.37 412.064 1096.27 410.15V410.15Z" fill="#01818C"/>
<path d="M1112.09 393.547C1112.09 393.547 1128.12 395.098 1133.42 408.485C1128.94 407.83 1124.68 406.138 1120.98 403.544C1117.28 400.95 1114.23 397.527 1112.09 393.547V393.547Z" fill="#01818C"/>
<path d="M1160.32 339.094C1160.32 339.094 1164.85 357.267 1152.24 368.31C1151.22 363.147 1151.41 357.816 1152.82 352.743C1154.22 347.671 1156.79 342.996 1160.32 339.094Z" fill="#01818C"/>
<path d="M1060.84 319.134C1060.84 319.134 1085.32 320.469 1094.26 340.492C1087.41 339.783 1080.82 337.483 1075.02 333.774C1069.21 330.066 1064.36 325.053 1060.84 319.134V319.134Z" fill="#01818C"/>
<path d="M14.8957 157.924C19.1074 150.307 20.3704 141.407 18.4441 132.918C10.0873 141.673 14.8957 157.924 14.8957 157.924Z" fill="#01818C"/>
<path d="M6.35473 145.338C1.05026 138.435 -6.60872 133.725 -15.1624 132.106C-10.4639 143.248 6.35473 145.338 6.35473 145.338Z" fill="#01818C"/>
<path d="M8.83058 137.923C13.3241 132.734 15.755 126.075 15.6615 119.212C7.77477 124.612 8.83058 137.923 8.83058 137.923Z" fill="#01818C"/>
<path d="M68.4085 140.635C48.423 135.251 30.4045 144.939 30.4045 144.939C45.2172 153.503 68.4085 140.635 68.4085 140.635Z" fill="#01818C"/>
<path d="M36.6255 131.752C48.2766 113.572 42.2617 81.89 42.2617 81.89C31.6293 106.686 36.6255 131.752 36.6255 131.752Z" fill="#01818C"/>
<path d="M67.427 78.5923C61.667 87.7446 58.5887 98.3286 58.5415 109.142C68.0623 98.6121 67.427 78.5923 67.427 78.5923Z" fill="#01818C"/>
<path d="M52.5522 120.615C67.0544 127.037 82.3386 117.744 82.3386 117.744C63.1448 112.828 52.5522 120.615 52.5522 120.615Z" fill="#01818C"/>
<path d="M49.0396 194.749C44.9219 187.081 38.1284 181.194 29.9521 178.21C32.7465 189.95 49.0396 194.749 49.0396 194.749Z" fill="#01818C"/>
<path d="M10.1055 180.446C9.2939 185.875 10.4311 191.416 13.3153 196.086C16.3664 189.441 10.1055 180.446 10.1055 180.446Z" fill="#01818C"/>
<path d="M13.0231 179.452C18.0573 188.733 27.6763 191.792 27.6763 191.792C25.5845 183.275 13.0231 179.452 13.0231 179.452Z" fill="#01818C"/>
<path d="M-8.48918 200.565C-8.48918 200.565 -8.43417 200.469 -8.32917 200.288C-8.22417 200.106 -8.04417 199.794 -7.85917 199.474C-7.41417 198.703 -6.80917 197.655 -6.04917 196.339C-5.28917 195.022 -4.30417 193.316 -3.18917 191.385C-2.07417 189.454 -0.809166 187.263 0.734398 184.909C3.66064 180.121 7.34203 174.544 11.5307 168.429C15.7193 162.314 20.6094 155.785 25.9296 149.03C36.5696 135.601 47.0841 124.189 54.912 116.111C58.8271 112.089 62.0267 108.868 64.2729 106.677C65.3543 105.604 66.2077 104.746 66.8319 104.125C67.0948 103.849 67.3141 103.63 67.4861 103.452C67.5667 103.378 67.638 103.295 67.6981 103.205C67.6981 103.205 67.5961 103.261 67.4355 103.399L66.7393 104.025C66.0805 104.626 65.2024 105.447 64.0877 106.478C61.7823 108.611 58.5184 111.784 54.5563 115.767C44.2435 126.183 34.5134 137.161 25.4103 148.649C20.1001 155.387 15.278 161.979 11.0547 168.074C6.83144 174.169 3.23896 179.831 0.333696 184.643C-1.14059 187.037 -2.3846 189.251 -3.4996 191.183C-4.6146 193.114 -5.57461 194.777 -6.28166 196.181C-6.98872 197.586 -7.56872 198.59 -7.98774 199.376C-8.17774 199.705 -8.33276 199.974 -8.41445 200.215C-8.45202 200.329 -8.47707 200.446 -8.48918 200.565V200.565Z" fill="#01818C"/>
<path d="M39.4186 175.489C39.4033 175.296 31.8067 175.713 22.4214 176.449C13.036 177.185 5.46032 177.927 5.47558 178.12C5.49084 178.314 13.0961 177.901 22.4728 177.16C31.8495 176.419 39.4338 175.683 39.4186 175.489Z" fill="#01818C"/>
<path d="M13.9503 163.442C13.9503 163.442 13.8869 162.932 13.6193 162.015C13.3517 161.098 12.9561 159.704 12.5298 158.222C11.5078 154.872 10.2035 150.551 8.76486 145.783L5.00093 133.402L3.85177 129.633C3.74068 129.161 3.57407 128.705 3.35547 128.272C3.37049 128.757 3.45012 129.238 3.59223 129.702C3.77916 130.619 4.09957 131.924 4.51782 133.539C5.34566 136.765 6.60353 141.187 8.08149 146.047C9.55944 150.907 10.9813 155.284 12.0513 158.431C12.5839 160.008 13.0172 161.298 13.3644 162.156C13.5037 162.608 13.7006 163.04 13.9503 163.442V163.442Z" fill="#01818C"/>
<path d="M62.075 176.746C62.075 176.746 48.1138 168.327 35.7319 175.993C39.76 178.164 44.2401 179.363 48.8142 179.494C53.3883 179.624 57.9295 178.683 62.075 176.746V176.746Z" fill="#01818C"/>
<path d="M46.0571 159.97C46.0571 159.97 29.8349 161.527 24.4572 175.062C28.985 174.404 33.2962 172.697 37.0467 170.077C40.7971 167.456 43.8827 163.995 46.0571 159.97V159.97Z" fill="#01818C"/>
<path d="M-2.82031 104.81C-2.82031 104.81 -7.40234 123.226 5.36832 134.387C6.40494 129.16 6.2043 123.763 4.78245 118.627C3.3606 113.491 0.756962 108.759 -2.82031 104.81V104.81Z" fill="#01818C"/>
<path d="M97.9101 84.6334C97.9101 84.6334 73.1118 85.9853 64.0823 106.245C71.0149 105.528 77.6839 103.2 83.5573 99.4479C89.4306 95.6957 94.3456 90.6225 97.9101 84.6334Z" fill="#01818C"/>
<path d="M-22.3789 154.544C-22.2204 155.099 -22.0098 155.639 -21.7498 156.154C-21.2953 157.167 -20.6718 158.647 -19.9358 160.493C-18.0503 165.294 -16.5582 170.242 -15.4744 175.285C-14.4222 180.335 -13.7874 185.464 -13.5767 190.618C-13.4987 192.603 -13.4699 194.213 -13.4636 195.302C-13.4955 195.88 -13.4702 196.459 -13.3882 197.032C-13.2602 196.467 -13.194 195.889 -13.1907 195.31C-13.1064 194.204 -13.0496 192.585 -13.0643 190.591C-13.2044 180.178 -15.3879 169.894 -19.491 160.322C-20.2817 158.492 -20.9735 157.03 -21.5062 156.053C-21.7381 155.518 -22.0309 155.012 -22.3789 154.544V154.544Z" fill="#01818C"/>
<path d="M-13.4686 175.312C-7.87889 168.642 -4.93596 160.149 -5.19957 151.45C-14.8695 163.719 -13.4686 175.312 -13.4686 175.312Z" fill="#01818C"/>
</svg>
