<svg width="375" height="332" viewBox="0 0 375 332" fill="none" xmlns="http://www.w3.org/2000/svg">
<path opacity="0.15" fill-rule="evenodd" clip-rule="evenodd" d="M375 0H0V275H1H13.5C26 275 51 275 76 277.382C101 279.676 126 284.574 151 291.632C154.911 292.758 158.823 293.936 162.734 295.114C183.823 301.465 204.911 307.817 226 305.882C236.41 304.89 246.82 301.841 257.23 298.791C271.82 294.516 286.41 290.242 301 291.632C325.554 293.885 350.108 312.396 362.819 321.979C363.05 322.153 363.277 322.325 363.5 322.493L376 332V275H375V0Z" fill="#F7CF6A"/>
<path d="M333.918 115.677C333.918 115.677 332.498 117.413 332.355 118.667C332.212 119.921 330.649 127.031 331.218 129.305C331.786 131.58 332.52 132.166 332.52 132.166L344.152 132.995L346.991 131.15L348.124 124.336L333.918 115.677Z" fill="#9D6054"/>
<path d="M332.505 132.166C332.783 132.817 324.063 155.864 322.935 159.124C321.806 162.384 320.174 169.741 321.303 175.379C322.431 181.017 328.877 183.786 334.515 181.655C340.153 179.524 346.937 167.332 346.937 167.332L348.109 134.466C348.109 134.466 346.442 133.598 344.059 137.722C341.676 141.845 340.366 147.704 340.366 147.704L344.428 132.166H332.505Z" fill="#9D6054"/>
<path d="M344.281 132.904C344.281 132.904 344.281 132.99 344.224 133.16C344.168 133.329 344.116 133.594 344.033 133.911C343.864 134.575 343.599 135.547 343.287 136.814C342.623 139.353 341.655 143.056 340.439 147.722L340.305 147.691C340.871 145.258 341.633 142.875 342.584 140.564C343.113 139.249 343.766 137.986 344.532 136.793C344.934 136.153 345.419 135.569 345.973 135.056C346.266 134.796 346.597 134.582 346.954 134.423C347.33 134.242 347.762 134.215 348.157 134.349H348.209V134.414C347.875 143.85 347.48 155.105 347.054 167.284V167.362V167.384C345.688 169.785 344.182 172.104 342.544 174.329C341.1 176.354 339.436 178.215 337.583 179.876C336.672 180.7 335.621 181.357 334.48 181.816C333.34 182.219 332.143 182.439 330.934 182.467C328.565 182.561 326.237 181.836 324.341 180.414C323.447 179.723 322.7 178.861 322.141 177.879C321.582 176.897 321.223 175.814 321.085 174.693C320.922 173.626 320.838 172.548 320.834 171.468C320.823 170.421 320.865 169.373 320.96 168.33C321.138 166.335 321.459 164.355 321.919 162.405C322.14 161.459 322.388 160.539 322.67 159.649C322.952 158.76 323.286 157.913 323.594 157.045C324.216 155.361 324.814 153.746 325.387 152.201C327.679 146.038 329.523 141.042 330.756 137.578C331.372 135.842 331.841 134.497 332.136 133.576C332.318 133.119 332.444 132.641 332.509 132.153C332.635 132.153 332.054 134.136 330.838 137.609C329.623 141.081 327.8 146.085 325.539 152.258L323.755 157.101C323.451 157.948 323.125 158.803 322.843 159.706C322.561 160.609 322.322 161.511 322.101 162.449C321.648 164.392 321.332 166.364 321.155 168.352C321.063 169.389 321.024 170.431 321.038 171.473C321.041 172.541 321.127 173.608 321.294 174.663C321.427 175.758 321.776 176.816 322.321 177.775C322.867 178.734 323.597 179.575 324.471 180.249C326.332 181.638 328.614 182.343 330.934 182.246C332.119 182.209 333.291 181.985 334.406 181.581C335.523 181.131 336.551 180.488 337.444 179.68C339.283 178.027 340.936 176.179 342.375 174.168C344.005 171.955 345.504 169.647 346.863 167.258V167.31C347.297 155.135 347.731 143.872 348.057 134.444L348.105 134.527C347.758 134.425 347.385 134.454 347.059 134.609C346.72 134.76 346.407 134.962 346.13 135.208C345.586 135.705 345.109 136.269 344.71 136.888C343.949 138.071 343.3 139.322 342.77 140.625C341.818 142.926 341.05 145.299 340.474 147.722L340.34 147.687C341.585 143.03 342.571 139.332 343.248 136.793C343.591 135.534 343.855 134.562 344.033 133.898C344.124 133.576 344.19 133.329 344.237 133.155C344.285 132.982 344.281 132.904 344.281 132.904Z" fill="#724A44"/>
<path d="M335.766 161.529C335.822 161.226 335.902 160.929 336.004 160.639C336.191 160.031 336.438 159.237 336.734 158.291L336.907 158.352C336.816 158.603 336.721 158.868 336.625 159.142L336.438 159.068C336.872 158.03 337.354 156.811 337.836 155.504C338.609 153.421 339.229 151.507 339.655 150.113L340.158 148.464C340.208 148.259 340.277 148.058 340.362 147.865C340.345 148.076 340.306 148.284 340.245 148.486C340.149 148.885 340.006 149.458 339.811 150.161C339.42 151.563 338.821 153.495 338.049 155.582C337.563 156.885 337.068 158.113 336.621 159.146L336.438 159.072L336.738 158.286L336.907 158.347L336.104 160.669C336.013 160.964 335.9 161.251 335.766 161.529Z" fill="#724A44"/>
<path d="M339.989 130.035C339.95 130.035 339.798 129.601 339.473 128.915C338.623 127.125 337.346 125.571 335.753 124.392C335.141 123.958 334.733 123.711 334.751 123.676C334.859 123.701 334.963 123.744 335.059 123.802C335.33 123.938 335.592 124.092 335.844 124.262C336.678 124.818 337.426 125.492 338.067 126.263C338.704 127.037 339.227 127.897 339.62 128.819C339.739 129.102 339.839 129.392 339.92 129.687C339.964 129.798 339.988 129.916 339.989 130.035Z" fill="#724A44"/>
<path d="M342.965 128.954C342.965 129.036 342.218 128.923 341.424 129.279C341.084 129.442 340.752 129.622 340.43 129.818C340.174 129.965 339.996 130.043 339.996 130.017C339.996 129.991 340.113 129.865 340.348 129.687C340.652 129.444 340.984 129.237 341.337 129.071C341.7 128.91 342.095 128.836 342.492 128.854C342.791 128.871 342.969 128.923 342.965 128.954Z" fill="#724A44"/>
<path d="M329.494 85.593C327.971 83.1189 328.704 79.6813 330.718 77.5849C332.732 75.4885 335.744 74.5944 338.648 74.5466C341.552 74.4989 344.412 75.2281 347.229 75.9442C348.215 74.5398 349.571 73.4366 351.147 72.7573C352.723 72.0781 354.456 71.8495 356.154 72.0969C357.852 72.3444 359.448 73.0582 360.764 74.1589C362.081 75.2597 363.066 76.7041 363.61 78.3315C364.589 77.8949 365.669 77.7338 366.734 77.8655C367.798 77.9973 368.806 78.4168 369.649 79.079C370.493 79.7411 371.14 80.6208 371.52 81.6234C371.901 82.6259 372.001 83.7132 371.809 84.7683L359.777 91.4786L350.033 118.511C346.561 122.708 339.842 123.767 335.228 120.855C330.614 117.942 328.717 111.427 330.996 106.475C330.091 105.914 329.285 105.209 328.609 104.387C327.376 103.919 326.249 103.212 325.292 102.305C324.336 101.398 323.569 100.31 323.036 99.1047C320.891 93.9049 324.099 87.1903 329.494 85.593Z" fill="#263238"/>
<path d="M346.834 135.43C346.938 131.289 347.02 128.45 347.016 128.485C347.012 128.52 338.956 126.853 337.654 116.21C337.007 110.919 337.58 102.321 338.274 95.2679C338.904 88.9395 343.387 81.3004 349.685 82.1945L369.252 87.8935C371.166 88.1626 371.778 89.8119 371.67 91.7434L371.8 92.6506L369.795 122.916L369.074 136.411C368.896 139.182 367.689 141.787 365.69 143.715C363.69 145.642 361.042 146.752 358.266 146.828C356.757 146.869 355.255 146.602 353.851 146.045C352.448 145.487 351.173 144.649 350.103 143.583C349.034 142.517 348.192 141.244 347.63 139.843C347.068 138.441 346.797 136.94 346.834 135.43Z" fill="#9D6054"/>
<path d="M340.259 104.283C340.243 104.636 340.365 104.983 340.6 105.247C340.835 105.511 341.165 105.673 341.518 105.698C341.69 105.717 341.864 105.702 342.03 105.653C342.196 105.604 342.35 105.523 342.484 105.414C342.618 105.305 342.729 105.17 342.811 105.018C342.893 104.865 342.943 104.698 342.959 104.526C342.976 104.172 342.853 103.826 342.618 103.562C342.383 103.297 342.053 103.136 341.7 103.111C341.529 103.092 341.355 103.107 341.189 103.156C341.023 103.204 340.868 103.286 340.734 103.395C340.6 103.504 340.489 103.639 340.407 103.791C340.326 103.944 340.276 104.111 340.259 104.283Z" fill="#263238"/>
<path d="M340.286 100.876C340.447 101.058 341.501 100.333 342.96 100.39C344.418 100.446 345.464 101.214 345.629 101.041C345.712 100.962 345.551 100.637 345.095 100.281C344.479 99.8218 343.736 99.5641 342.968 99.5431C342.208 99.5103 341.458 99.7234 340.829 100.151C340.368 100.476 340.204 100.793 340.286 100.876Z" fill="#263238"/>
<path d="M353.232 104.643C353.215 104.997 353.338 105.343 353.573 105.607C353.808 105.872 354.138 106.034 354.491 106.058C354.663 106.077 354.836 106.062 355.002 106.013C355.168 105.965 355.323 105.883 355.457 105.774C355.591 105.665 355.702 105.53 355.784 105.378C355.865 105.225 355.915 105.058 355.932 104.886C355.948 104.533 355.826 104.187 355.591 103.922C355.356 103.658 355.026 103.496 354.673 103.471C354.501 103.452 354.327 103.467 354.161 103.516C353.995 103.565 353.841 103.646 353.707 103.755C353.573 103.864 353.462 103.999 353.38 104.151C353.299 104.304 353.248 104.471 353.232 104.643Z" fill="#263238"/>
<path d="M354.235 101.093C354.396 101.275 355.455 100.554 356.913 100.607C358.372 100.659 359.413 101.431 359.578 101.258C359.661 101.184 359.5 100.858 359.044 100.502C358.429 100.041 357.686 99.7818 356.918 99.7602C356.158 99.7328 355.409 99.9454 354.778 100.368C354.318 100.698 354.153 101.01 354.235 101.093Z" fill="#263238"/>
<path d="M348.64 111.236C348.64 111.154 347.746 110.967 346.283 110.724C345.91 110.672 345.563 110.585 345.506 110.329C345.488 109.943 345.59 109.561 345.797 109.235L346.999 106.436C348.675 102.447 349.903 99.1655 349.743 99.1004C349.582 99.0353 348.089 102.212 346.413 106.197C346.011 107.181 345.626 108.12 345.259 109.014C345.008 109.456 344.921 109.972 345.012 110.472C345.061 110.606 345.14 110.726 345.243 110.824C345.346 110.922 345.47 110.995 345.606 111.037C345.81 111.102 346.022 111.139 346.236 111.149C347.711 111.28 348.631 111.323 348.64 111.236Z" fill="#263238"/>
<path d="M347.015 128.476C352 128.735 356.96 127.602 361.338 125.204C361.338 125.204 357.497 132.543 346.945 131.176L347.015 128.476Z" fill="#724A44"/>
<path d="M354.371 97.1298C354.536 97.5205 355.982 97.2601 357.705 97.3816C359.428 97.5031 360.834 97.9024 361.043 97.5335C361.138 97.3599 360.878 96.9953 360.3 96.6394C359.532 96.2066 358.675 95.9544 357.794 95.9017C356.914 95.8491 356.033 95.9974 355.218 96.3355C354.597 96.6133 354.293 96.9475 354.371 97.1298Z" fill="#263238"/>
<path d="M340.39 96.6133C340.686 96.9519 341.888 96.6524 343.316 96.6871C344.744 96.7218 345.95 97.0039 346.246 96.6871C346.371 96.5222 346.194 96.1836 345.673 95.8494C344.957 95.4331 344.144 95.2158 343.316 95.22C342.491 95.1966 341.676 95.3992 340.959 95.806C340.442 96.1098 340.264 96.444 340.39 96.6133Z" fill="#263238"/>
<path d="M363.638 81.8559C363.607 82.9189 363.342 83.962 362.862 84.911C362.382 85.8599 361.698 86.6914 360.86 87.3462C360.022 88.001 359.05 88.463 358.014 88.6994C356.977 88.9358 355.9 88.9407 354.862 88.7137C353.256 88.3665 351.511 87.4897 350.087 88.3057C348.585 89.1738 348.451 91.3744 347.105 92.4639C345.187 94.0221 342.27 92.4031 339.883 93.0281C338.034 93.5056 336.844 95.1983 335.568 96.648C334.292 98.0977 332.439 99.4129 330.629 98.8182C330.731 97.1728 331.023 95.5445 331.497 93.9656C331.984 92.3671 333.01 90.9867 334.401 90.0593C335.173 89.5905 336.063 89.3214 336.784 88.7788C338.342 87.6026 338.767 85.4845 339.761 83.8047C340.413 82.7243 341.314 81.8153 342.388 81.1532C343.463 80.4911 344.679 80.0951 345.938 79.9982C348.025 79.8549 350.148 80.5494 352.196 80.1067C353.707 79.7811 355.048 78.8479 356.58 78.6136C359.558 78.1491 362.223 80.3497 364.311 82.5503" fill="#263238"/>
<path d="M354.029 85.7623C355.37 85.4281 358.113 84.6598 358.86 83.5313C360.492 81.0833 363.269 79.4687 366.047 79.7161C367.485 79.8761 368.832 80.4976 369.887 81.4874C370.942 82.4772 371.647 83.7822 371.898 85.2067C375.262 85.3456 378.478 87.5679 379.989 90.8058C380.727 92.457 381.054 94.2627 380.942 96.068C380.829 97.8733 380.28 99.6243 379.342 101.171C378.894 101.983 378.504 102.826 378.174 103.693C378.954 104.377 379.666 105.134 380.301 105.954C383.296 110.377 377.736 113.228 377.736 113.228C378.274 116.453 375.301 116.948 373.396 117.269C371.56 117.578 371.312 122.851 369.793 122.912L368.591 106.957C368.383 107.077 368.155 107.161 367.918 107.204C364.333 107.89 364.098 100.932 364.958 98.9572C363.653 97.8169 362.497 96.5177 361.516 95.0899C360.583 93.6054 359.854 89.6209 360.123 87.85C358.838 87.8891 353.443 85.9055 354.029 85.7623Z" fill="#263238"/>
<path d="M368.196 107.898C368.382 105.65 370.887 104.231 372.801 105.424C373.851 106.08 374.628 107.352 374.45 109.739C373.973 116.102 367.684 114.314 367.684 114.127C367.688 113.975 367.974 110.503 368.196 107.898Z" fill="#9D6054"/>
<path d="M369.809 111.84C369.84 111.84 369.913 111.926 370.096 112.026C370.35 112.159 370.645 112.189 370.92 112.109C371.611 111.909 372.257 110.885 372.374 109.739C372.431 109.194 372.366 108.644 372.183 108.128C372.137 107.926 372.042 107.737 371.908 107.579C371.773 107.42 371.603 107.296 371.411 107.217C371.286 107.174 371.15 107.177 371.026 107.223C370.903 107.27 370.799 107.358 370.734 107.473C370.638 107.642 370.669 107.773 370.634 107.781C370.599 107.79 370.504 107.664 370.578 107.404C370.628 107.25 370.729 107.118 370.864 107.03C371.049 106.911 371.273 106.869 371.489 106.913C371.747 106.983 371.982 107.119 372.172 107.307C372.362 107.495 372.501 107.728 372.574 107.985C372.804 108.558 372.89 109.177 372.826 109.791C372.691 111.067 371.958 112.221 371.003 112.417C370.828 112.454 370.648 112.451 370.474 112.409C370.301 112.367 370.139 112.286 370 112.174C369.809 111.996 369.783 111.853 369.809 111.84Z" fill="#263238"/>
<path d="M377.052 94.4084C377.152 94.3469 377.244 94.2725 377.325 94.187C377.568 93.9573 377.795 93.7123 378.007 93.4535C378.802 92.4948 379.344 91.3515 379.582 90.1287C379.735 89.2759 379.697 88.3996 379.469 87.5635C379.212 86.5929 378.681 85.7164 377.941 85.0374C377.529 84.6611 377.045 84.3707 376.519 84.1829C375.993 83.9951 375.435 83.9138 374.877 83.9436C374.273 83.9574 373.68 84.1111 373.145 84.3928C372.611 84.6745 372.149 85.0764 371.795 85.5669L372.095 85.7058V85.6364C372.781 83.3403 372.672 80.8619 371.635 79.0042C370.597 77.1465 368.822 76.031 367.225 75.9225C366.599 75.8724 365.969 75.9479 365.373 76.1447C364.777 76.3415 364.226 76.6555 363.753 77.0684C363.503 77.2966 363.284 77.5564 363.102 77.841C363.037 77.9402 362.985 78.0465 362.945 78.1578C363.206 77.7957 363.506 77.4638 363.839 77.1682C364.788 76.4028 365.999 76.0397 367.212 76.1569C368.096 76.2843 368.935 76.6231 369.66 77.1445C370.385 77.6659 370.973 78.3545 371.374 79.1518C372.347 80.927 372.446 83.3056 371.782 85.5452V85.6103L371.505 86.6086L372.082 85.7406C372.408 85.2945 372.831 84.9292 373.321 84.6726C373.81 84.416 374.351 84.275 374.903 84.2605C375.419 84.2304 375.935 84.3027 376.422 84.4733C376.909 84.6439 377.358 84.9094 377.742 85.2544C378.445 85.8897 378.954 86.7115 379.209 87.6243C379.438 88.4208 379.489 89.2583 379.356 90.0766C379.144 91.2702 378.648 92.3955 377.911 93.358C377.373 94.0612 377.03 94.3867 377.052 94.4084Z" fill="#263238"/>
<path d="M373.179 113.146C373.452 113.248 373.711 113.382 373.952 113.545C374.566 114.051 375.012 114.733 375.228 115.499C375.398 116.018 375.478 116.563 375.462 117.109C375.433 117.732 375.245 118.337 374.915 118.867C374.549 119.452 374.044 119.939 373.444 120.282C372.81 120.664 372.074 120.845 371.335 120.798C370.595 120.757 369.883 120.502 369.286 120.065C368.729 119.656 368.297 119.102 368.036 118.463C367.802 117.927 367.684 117.347 367.691 116.762C367.698 116.177 367.828 115.6 368.075 115.069C368.426 114.355 369.029 113.797 369.768 113.502C370.049 113.406 370.34 113.345 370.636 113.32C370.561 113.31 370.485 113.31 370.41 113.32C370.19 113.332 369.972 113.375 369.763 113.445C368.989 113.723 368.35 114.287 367.979 115.021C367.716 115.568 367.573 116.164 367.56 116.77C367.546 117.377 367.663 117.979 367.901 118.537C368.172 119.205 368.623 119.785 369.203 120.212C369.826 120.673 370.57 120.942 371.343 120.985C372.118 121.032 372.889 120.841 373.553 120.438C374.175 120.08 374.698 119.573 375.076 118.962C375.417 118.407 375.607 117.773 375.627 117.122C375.642 116.559 375.554 115.999 375.367 115.468C375.133 114.686 374.659 113.997 374.013 113.498C373.83 113.375 373.631 113.277 373.422 113.207L373.179 113.146Z" fill="#455A64"/>
<path d="M349.678 115.021C349.954 114.676 350.313 114.407 350.721 114.24C351.13 114.072 351.574 114.011 352.013 114.062C352.33 114.09 352.638 114.181 352.919 114.33C353.2 114.479 353.448 114.683 353.649 114.93C353.845 115.172 353.961 115.469 353.982 115.78C354.002 116.091 353.925 116.401 353.762 116.666C353.371 117.213 352.555 117.339 351.865 117.139C351.185 116.897 350.559 116.523 350.025 116.037C349.853 115.922 349.705 115.775 349.591 115.603C349.537 115.523 349.508 115.43 349.508 115.334C349.508 115.238 349.537 115.144 349.591 115.064" fill="#724A44"/>
<path d="M353.323 112.547C353.084 112.547 353.08 114.101 351.734 115.212C350.389 116.323 348.722 116.145 348.696 116.367C348.674 116.462 349.069 116.67 349.773 116.692C350.69 116.709 351.585 116.401 352.299 115.824C352.984 115.269 353.424 114.469 353.527 113.593C353.601 112.929 353.427 112.538 353.323 112.547Z" fill="#263238"/>
<path d="M349.531 128.528C349.362 128.579 349.187 128.607 349.01 128.611C348.532 128.652 348.052 128.652 347.574 128.611C345.978 128.473 344.443 127.934 343.11 127.045C341.778 126.156 340.692 124.945 339.952 123.524C339.728 123.099 339.539 122.656 339.388 122.2C339.325 122.035 339.283 121.863 339.262 121.688C339.301 121.688 339.5 122.4 340.091 123.446C340.856 124.811 341.935 125.974 343.238 126.841C344.541 127.707 346.032 128.251 347.587 128.429C348.78 128.585 349.531 128.485 349.531 128.528Z" fill="#724A44"/>
<path d="M369.816 125.529L370.498 129.028C373.97 131.016 382.217 137.023 385.733 145.421C390.399 156.62 395.998 189.472 395.998 189.472C395.998 189.472 406.684 203.423 408.984 215.32H358.127L355.996 194.742C355.996 194.742 347.467 188.83 344.854 180.14C344.156 177.818 343.578 175.609 343.118 173.608C341.833 168.126 341.673 162.439 342.649 156.893L343.422 152.496L346.96 134.744V132.166L369.816 125.529Z" fill="#01818C"/>
<path opacity="0.3" d="M347.477 185.24C347.572 185.284 365.307 198.496 371.175 200.315C376.262 201.886 381.77 200.315 384.761 195.64C386.063 193.618 381.058 160.648 381.058 160.648L374.201 186.425L347.477 185.24Z" fill="black"/>
<path d="M338.819 167.171C338.819 167.171 327.191 157.188 326.622 157.123C326.053 157.058 316.639 157.427 316.639 157.427C316.639 157.427 313.796 158.182 313.9 159.337C313.964 160.029 314.29 160.67 314.812 161.129C314.35 161.719 313.941 162.35 313.592 163.013C313.371 163.595 314.135 164.749 314.135 164.749C314.135 164.749 313.193 165.665 313.31 166.633C313.363 167.186 313.591 167.708 313.961 168.122C313.961 168.122 312.754 168.721 313.045 169.927C313.336 171.134 314.781 173.543 314.781 173.543C314.781 173.543 316.04 173.356 316.114 172.406C316.173 171.925 316.148 171.437 316.04 170.965L321.036 171.833C321.036 171.833 323.87 173.591 325.463 173.912C327.056 174.233 332.525 176.395 332.525 176.395L338.819 167.171Z" fill="#9D6054"/>
<path d="M314.82 161.368C315.093 161.107 315.393 160.876 315.714 160.678C316.529 160.267 317.439 160.085 318.349 160.148C319.421 160.201 320.389 160.391 321.105 160.435C321.486 160.489 321.872 160.483 322.251 160.418C322.251 160.383 321.817 160.378 321.11 160.287C320.402 160.196 319.447 159.992 318.349 159.936C317.401 159.869 316.454 160.083 315.628 160.552C315.383 160.7 315.164 160.888 314.981 161.108C314.912 161.184 314.858 161.272 314.82 161.368Z" fill="#724A44"/>
<path d="M313.871 164.697C314.223 164.656 314.573 164.594 314.917 164.511C316.594 164.197 318.31 164.157 320 164.393C320.348 164.463 320.7 164.508 321.054 164.528C320.723 164.39 320.376 164.293 320.021 164.242C319.173 164.082 318.311 164.01 317.448 164.029C316.585 164.049 315.726 164.161 314.887 164.363C314.534 164.426 314.192 164.538 313.871 164.697Z" fill="#724A44"/>
<path d="M313.59 168.421C313.895 168.27 314.217 168.156 314.549 168.083C315.374 167.997 316.206 168.012 317.027 168.126C318.008 168.204 318.894 168.256 319.536 168.287C319.882 168.324 320.232 168.324 320.578 168.287C320.242 168.198 319.897 168.146 319.549 168.131C318.907 168.065 318.021 167.983 317.045 167.909C316.207 167.788 315.355 167.795 314.519 167.931C314.162 167.984 313.835 168.157 313.59 168.421Z" fill="#724A44"/>
<path d="M367.626 130.877C367.626 130.877 375.282 130.443 377.709 137.565C380.135 144.688 385.734 189.116 384.614 192.103C383.494 195.089 378.104 199.382 372.109 196.955C366.115 194.529 331.496 177.38 331.496 177.38L337.442 166.646L364.453 175.231C364.453 175.231 358.012 155.561 357.942 146.051C357.842 137.305 361.28 130.503 367.626 130.877Z" fill="#9D6054"/>
<path d="M372.52 178.061C372.473 178.055 372.426 178.043 372.381 178.027L371.973 177.905L370.428 177.423L364.747 175.609L346.035 169.502L338.027 166.872H338.005L327.376 157.874C326.752 157.436 326.002 157.213 325.24 157.24L323.504 157.279H322.428H322.059H322.15H322.428L323.5 157.227L325.236 157.154C326.024 157.113 326.804 157.335 327.454 157.783C330.123 159.953 333.821 163.1 338.144 166.724H338.105L346.122 169.329L364.786 175.449L370.428 177.337L371.965 177.862L372.36 178.005L372.52 178.061Z" fill="#724A44"/>
<path d="M321.039 171.859C321.121 171.884 321.199 171.917 321.273 171.959L321.916 172.276L324.264 173.474L332.055 177.38L339.816 181.347L342.155 182.571L342.789 182.914C342.866 182.947 342.938 182.993 343.002 183.049C342.921 183.024 342.842 182.992 342.767 182.953L342.116 182.649L339.746 181.49L331.955 177.584L324.195 173.617C323.209 173.096 322.419 172.653 321.872 172.354L321.247 171.998C321.172 171.961 321.102 171.915 321.039 171.859Z" fill="#724A44"/>
<path d="M358.141 215.234H408.924L415 246.702L358.141 229.991V215.234Z" fill="#01818C"/>
<path d="M36.4867 92.8555C35.2348 91.2016 33.6805 89.6052 33.4011 87.5532C33.1369 85.6659 34.006 83.6254 33.202 81.9026C32.2143 79.7779 29.2435 79.2993 27.9916 77.3086C27.3867 76.3477 27.2681 75.1456 26.6708 74.1808C25.6563 72.5346 23.5048 71.9642 21.5753 72.0331C19.6458 72.102 17.747 72.6571 15.8137 72.6533C13.1606 72.6533 10.4999 71.5967 7.91195 72.1709C5.05601 72.8103 3.16864 75.1609 1.1779 77.4273L-1.41389 80.0459C-1.93218 80.4898 -2.49249 80.8821 -3.08688 81.2173C-4.12819 81.7916 -5.30349 82.1553 -6.21847 82.9171C-8.17858 84.5442 -8.26663 87.9399 -6.39074 89.6665C-7.42446 89.9452 -8.34183 90.5475 -9.00864 91.3852C-9.67544 92.2228 -10.0567 93.2518 -10.0966 94.3217C-10.0966 95.5009 -9.71374 96.6188 -9.43427 97.7673C-9.15481 98.9158 -9.05144 100.171 -9.58358 101.213C-10.1157 102.254 -11.5552 102.893 -12.5391 102.246C-12.4048 103.02 -12.1001 103.753 -11.6472 104.394C-11.1943 105.035 -10.6045 105.567 -9.92048 105.952C-10.5207 106.481 -11.2991 106.763 -12.0988 106.741C-10.3148 111.917 -4.67947 114.972 0.783578 115.385C6.24663 115.799 11.6216 114.095 16.832 112.411L31.8123 109.635C33.1254 109.428 33.7724 107.897 33.849 106.572C33.9256 105.248 33.6844 103.843 34.2318 102.641C34.9975 100.987 37.0342 100.225 37.8305 98.5865C38.7493 96.7259 37.7233 94.5055 36.4867 92.8555Z" fill="#263238"/>
<path d="M0.7267 103.839C-0.107879 100.439 -0.923314 97.017 -1.16067 93.5025C-1.39803 89.9881 -1.02285 86.4201 0.435748 83.2387C0.657792 82.7564 2.47243 79.5444 2.99691 79.6363C3.37975 79.7014 2.17382 82.7334 2.33844 83.0818C3.92337 86.3359 4.13776 90.1221 3.58265 93.6978C3.00944 97.1699 2.05156 100.567 0.7267 103.828" fill="#263238"/>
<path d="M16.9264 75.3409L16.1186 75.2375C7.36316 74.6288 1.95371 81.7265 1.59385 90.4973L-1.28507 120.569C-1.53637 123.189 -0.772568 125.805 0.848747 127.878C2.47006 129.951 4.82519 131.322 7.42824 131.709C8.77595 131.91 10.15 131.84 11.4706 131.505C12.7911 131.169 14.0318 130.574 15.1204 129.755C16.2091 128.936 17.124 127.908 17.8119 126.732C18.4998 125.556 18.9471 124.255 19.1277 122.904C19.3344 121.331 19.4875 120.224 19.4914 120.224C19.4952 120.224 28.0133 119.999 29.1886 111.657C29.7551 107.629 30.249 99.2374 30.605 91.6381C30.7882 87.7003 29.4828 83.8377 26.9484 80.8181C24.4141 77.7986 20.8363 75.8433 16.9264 75.3409Z" fill="#FFBE9D"/>
<path d="M19.4902 120.224C19.4902 120.224 14.1841 119.842 9.02734 115.63C9.02734 115.63 10.7616 122.07 19.1954 122.384L19.4902 120.224Z" fill="#EB996E"/>
<path d="M27.3951 97.9357C27.3585 98.2464 27.2018 98.5304 26.9586 98.7271C26.7154 98.9239 26.4049 99.0177 26.0935 98.9885C25.9412 98.9812 25.7919 98.9437 25.6543 98.8781C25.5168 98.8125 25.3936 98.7202 25.292 98.6065C25.1905 98.4929 25.1126 98.3601 25.0628 98.216C25.0131 98.0719 24.9926 97.9194 25.0024 97.7673C25.0381 97.4559 25.1943 97.171 25.4377 96.9734C25.681 96.7759 25.992 96.6816 26.304 96.7107C26.4566 96.718 26.6062 96.7556 26.7441 96.8214C26.882 96.8873 27.0053 96.9799 27.1069 97.094C27.2085 97.2081 27.2863 97.3413 27.3358 97.4858C27.3853 97.6304 27.4055 97.7833 27.3951 97.9357Z" fill="#263238"/>
<path d="M28.1528 94.8769C27.9843 95.0109 27.1689 94.2261 25.8826 94.0653C24.5962 93.9045 23.5855 94.4252 23.4554 94.2529C23.398 94.1725 23.5855 93.9122 24.0335 93.6671C24.6383 93.3526 25.3258 93.2335 26.0012 93.3264C26.6686 93.4097 27.2921 93.7034 27.7814 94.1648C28.1374 94.517 28.2332 94.8157 28.1528 94.8769Z" fill="#263238"/>
<path d="M15.6263 96.9672C15.5887 97.2782 15.4313 97.5623 15.1875 97.7589C14.9436 97.9555 14.6327 98.0492 14.3208 98.02C14.1675 98.0128 14.0173 97.9749 13.8789 97.9086C13.7405 97.8423 13.6168 97.7489 13.515 97.634C13.4133 97.5191 13.3357 97.385 13.2867 97.2395C13.2377 97.0941 13.2183 96.9403 13.2297 96.7873C13.2673 96.4767 13.4241 96.1929 13.6669 95.9958C13.9098 95.7986 14.2197 95.7036 14.5314 95.7307C14.6854 95.7374 14.8364 95.775 14.9755 95.8414C15.1146 95.9077 15.239 96.0013 15.3411 96.1167C15.4433 96.2321 15.5212 96.3669 15.5702 96.513C15.6192 96.6591 15.6383 96.8136 15.6263 96.9672Z" fill="#263238"/>
<path d="M15.5123 93.782C15.3438 93.9198 14.5246 93.135 13.2421 92.9742C11.9596 92.8134 10.9451 93.3341 10.8149 93.158C10.7575 93.0814 10.9412 92.8211 11.393 92.5722C11.9984 92.2596 12.6854 92.1407 13.3607 92.2315C14.0276 92.3166 14.6506 92.61 15.1409 93.0699C15.497 93.426 15.5927 93.7246 15.5123 93.782Z" fill="#263238"/>
<path d="M18.8555 104.237C18.8555 104.164 19.6747 104.13 20.9879 104.13C21.3209 104.13 21.6387 104.111 21.7229 103.896C21.7938 103.56 21.7605 103.21 21.6272 102.893C21.4205 102.064 21.2048 101.191 20.9802 100.275C20.0882 96.5499 19.4872 93.5025 19.6365 93.4681C19.7858 93.4336 20.6318 96.4235 21.5238 100.152C21.7357 101.069 21.9373 101.945 22.1287 102.782C22.2817 103.204 22.2817 103.666 22.1287 104.088C22.0659 104.197 21.9793 104.292 21.8753 104.363C21.7712 104.435 21.6524 104.482 21.5277 104.501C21.3395 104.524 21.1492 104.524 20.9611 104.501C19.6441 104.409 18.8517 104.31 18.8555 104.237Z" fill="#263238"/>
<path d="M16.1104 88.5792C15.9382 88.9123 14.6786 88.5792 13.1511 88.5792C11.6236 88.5792 10.3488 88.8204 10.1918 88.4835C10.1191 88.3227 10.3756 88.0203 10.9077 87.7447C11.615 87.4091 12.3915 87.2452 13.1741 87.2661C13.9599 87.2654 14.7345 87.4532 15.4328 87.8136C15.942 88.0969 16.1985 88.407 16.1104 88.5792Z" fill="#263238"/>
<path d="M28.1699 90.5393C27.9095 90.8035 27.0635 90.3862 26.003 90.2369C24.9426 90.0876 24.0123 90.1795 23.8438 89.8541C23.7711 89.6933 23.951 89.4215 24.3798 89.1956C24.9506 88.9317 25.587 88.8436 26.2081 88.9425C26.8291 89.0413 27.4067 89.3227 27.8674 89.7507C28.2043 90.1106 28.2886 90.413 28.1699 90.5393Z" fill="#263238"/>
<path d="M1.26452 96.7681C1.13053 96.6877 -4.25595 94.3371 -4.80723 100.068C-5.35852 105.799 0.514165 105.175 0.552448 105.01C0.590732 104.846 1.26452 96.7681 1.26452 96.7681Z" fill="#FFBE9D"/>
<path d="M27.7132 81.7342C28.6856 81.3016 25.9445 78.1241 23.7547 76.8913C20.4393 75.0269 15.2558 73.6028 11.9978 74.2306C8.07378 74.9963 4.72398 76.6119 2.49971 79.931C0.275444 83.2502 -0.804151 87.247 -1.03768 91.2323C-1.10659 92.4497 -1.09127 93.7284 -0.532336 94.8118C0.156766 96.1479 1.62685 97.082 1.40863 98.8278C1.31069 99.4634 1.46904 100.112 1.84889 100.631C2.80215 101.841 4.18036 100.903 4.8618 99.8997C6.31657 97.7635 6.69175 95.0913 7.02864 92.5263C7.266 90.7002 7.50336 88.8396 7.13966 87.0365C6.94059 86.0564 6.56924 85.1223 6.42759 84.1193C6.28594 83.1162 6.42759 82.0328 7.08224 81.2901C7.23814 81.133 7.40721 80.9896 7.58758 80.8613C8.4489 80.2326 9.46191 79.8442 10.5228 79.7359C11.5837 79.6275 12.6543 79.8032 13.6249 80.245C16.7565 81.6691 22.1276 83.8589 23.6666 82.8865C25.8756 81.4892 26.4613 80.5053 26.4613 80.5053L27.7132 81.7342Z" fill="#263238"/>
<path d="M12.3684 73.4764C15.611 72.7107 19.1982 73.0629 22.0158 74.8508C23.5127 75.8002 24.8143 77.2243 25.1436 78.9624C25.4728 80.7005 24.5655 82.7333 22.8734 83.2578L22.7547 83.3191C20.2356 83.9278 18.6737 83.4607 16.3039 82.4041C14.3132 81.5159 12.5943 80.0879 10.5997 79.2074C8.45895 78.2713 6.08754 77.9954 3.78906 78.4149C6.19709 76.1103 9.11812 74.2574 12.3684 73.4764Z" fill="#263238"/>
<path d="M15.1713 105.041C14.8138 105.604 14.5717 106.233 14.4592 106.89C14.4045 107.219 14.417 107.555 14.496 107.879C14.575 108.203 14.7187 108.507 14.9186 108.774C15.3644 109.269 15.9843 109.574 16.649 109.624H16.6682C17.0685 109.662 17.4703 109.568 17.8124 109.356C18.1545 109.145 18.4181 108.827 18.5632 108.452L19.191 106.863C18.1153 106.393 16.2585 105.516 15.1713 105.041Z" fill="#EB996E"/>
<path d="M18.1897 109.39C18.0475 109.458 17.8987 109.51 17.7456 109.547C17.5694 109.611 17.389 109.662 17.2058 109.7C16.9526 109.746 16.6933 109.746 16.4401 109.7C16.136 109.66 15.8401 109.572 15.5634 109.44C15.235 109.289 14.9485 109.061 14.7288 108.774C14.4986 108.433 14.3478 108.045 14.2875 107.638C14.2272 107.231 14.259 106.816 14.3805 106.423C14.5259 105.909 14.7437 105.418 15.0274 104.965L15.0964 104.85L15.2112 104.903C16.3597 105.439 17.3666 105.914 18.071 106.262C18.4571 106.427 18.8263 106.628 19.1735 106.863C18.766 106.762 18.3706 106.617 17.9944 106.431C17.2709 106.132 16.2602 105.692 15.0964 105.171L15.2801 105.114C15.017 105.547 14.8123 106.013 14.6714 106.5C14.5616 106.851 14.53 107.221 14.5789 107.586C14.6279 107.95 14.7562 108.3 14.9547 108.609C15.3367 109.084 15.8832 109.399 16.486 109.49C16.7149 109.538 16.9498 109.553 17.1828 109.532C17.3857 109.509 17.5656 109.459 17.7149 109.428C17.8685 109.381 18.0305 109.368 18.1897 109.39Z" fill="#263238"/>
<path d="M43.25 139.385L45.8303 135.894C45.8303 135.894 45.5662 134.906 46.1595 132.785C46.7529 130.664 48.246 126.576 49.5821 125.396C50.9182 124.217 52.9625 122.093 52.9625 122.093C52.9625 122.093 54.4556 122.25 54.0651 124.06C53.6746 125.871 52.0207 127.598 52.0207 127.598L51.3891 129.248L54.4517 128.865L58.7778 126.744C58.7778 126.744 65.286 119.746 66.4804 122.104C66.5992 122.307 66.6618 122.537 66.6618 122.772C66.6618 123.007 66.5992 123.238 66.4804 123.44L62.6291 127.291L60.2708 129.493L68.7583 124.7C68.7583 124.7 70.2896 124.148 70.3087 125.641L69.3899 126.821C69.4779 127.062 69.5091 127.319 69.4812 127.574C69.4533 127.829 69.3671 128.074 69.2291 128.291C68.7583 129.022 63.7278 133.581 63.7278 133.581C63.7278 133.581 58.1269 138.298 57.1928 139.244C56.2587 140.189 53.8469 140.775 53.8469 140.775L52.5682 143.459L43.25 139.385Z" fill="#FFBE9D"/>
<path d="M67.1134 130.262C67.1557 130.103 67.1687 129.937 67.1517 129.772C67.1163 129.553 67.0205 129.348 66.8751 129.181C66.7297 129.013 66.5405 128.889 66.3286 128.823C66.0063 128.748 65.6709 128.75 65.3496 128.83C65.0284 128.909 64.7303 129.062 64.4795 129.278C64.1633 129.525 63.864 129.792 63.5837 130.078C63.2774 130.369 62.9635 130.672 62.6304 130.97C61.3135 132.18 60.0463 133.195 59.1084 133.895C58.6375 134.248 58.2508 134.519 57.9599 134.703C57.8238 134.806 57.6776 134.894 57.5234 134.967C57.6409 134.846 57.769 134.736 57.9063 134.638L58.9935 133.784C59.9085 133.057 61.1565 132.031 62.4697 130.825L63.4191 129.937C63.7087 129.648 64.0169 129.378 64.3417 129.129C64.6166 128.901 64.9422 128.742 65.2912 128.665C65.6402 128.588 66.0025 128.597 66.3478 128.689C66.6126 128.779 66.8401 128.954 66.9948 129.186C67.1115 129.357 67.1838 129.555 67.2053 129.761C67.2174 129.891 67.199 130.022 67.1517 130.144C67.1134 130.228 67.1134 130.266 67.1134 130.262Z" fill="#EB996E"/>
<path d="M69.1655 126.832C69.0153 126.74 68.8388 126.701 68.664 126.721C68.2514 126.866 67.8716 127.091 67.5461 127.383C66.7192 128.023 66.2138 128.719 66.1641 128.685C66.4573 128.102 66.89 127.601 67.4236 127.226C67.6206 127.069 67.8292 126.927 68.0476 126.801C68.2286 126.683 68.4341 126.607 68.6487 126.579C68.7999 126.567 68.9505 126.609 69.0736 126.698C69.154 126.767 69.1731 126.824 69.1655 126.832Z" fill="#EB996E"/>
<path d="M58.9796 133.065C58.926 133.084 58.5317 132.176 57.9919 131.089C57.6339 130.447 57.3093 129.786 57.0195 129.11C57.8941 130.306 58.5571 131.644 58.9796 133.065Z" fill="#EB996E"/>
<path d="M52.4947 135.767C52.4602 135.767 52.5636 135.385 52.6363 134.795C52.7284 134.019 52.6948 133.233 52.5368 132.467C52.3734 131.701 52.0891 130.966 51.6946 130.289C51.3883 129.772 51.1471 129.481 51.1739 129.458C51.427 129.677 51.6429 129.936 51.8132 130.224C52.7032 131.579 53.0478 133.22 52.778 134.818C52.7351 135.148 52.6395 135.468 52.4947 135.767Z" fill="#EB996E"/>
<path d="M-0.692776 114.348L-3.37262 117.759C-3.37262 117.759 -16.9518 122.977 -19.8345 129.868C-22.1315 135.335 -30.3165 172.225 -31.6105 177.42C-33.5247 185.077 -38 203.885 -38 203.885L11.4125 204L18.8548 159.786L21.5078 130.569L19.027 126.254L19.0538 123.36L16.7339 125.446L14.6436 122.364L-0.692776 114.348Z" fill="#455A64"/>
<path opacity="0.3" d="M-15.3477 147.536C-15.3477 147.536 -10.8532 171.367 -8.22694 179.349C-5.60069 187.331 -2.23557 191.236 3.8783 189.628C9.99216 188.021 14.3986 186.39 14.3986 186.39L15.6505 178.951L-15.3477 147.536Z" fill="black"/>
<path d="M-6.81646 124.658C-6.81646 124.658 -20.4071 126.648 -16.2954 143.857C-12.1838 161.065 -3.35564 183.901 0.756001 186.489C4.86764 189.077 45.8271 175.387 45.8271 175.387L43.086 164.576L13.313 165.678L6.8469 140.874C6.11305 136.494 4.18116 132.403 1.26517 129.053C-0.913157 126.568 -3.71168 124.462 -6.81646 124.658Z" fill="#455A64"/>
<path d="M21.5086 130.572L28.9892 155.912L42.3271 138.983L53.1384 143.707C53.1384 143.707 39.4367 170.812 36.5425 173.4C33.6483 175.988 30.2985 177.359 25.2757 175.226C20.2529 173.094 12.332 163.959 12.332 163.959L21.5086 130.572Z" fill="#455A64"/>
<path d="M6.10238 137.996C6.10238 137.996 6.15215 138.16 6.2402 138.482L6.62304 139.921C6.9561 141.188 7.44996 143.049 8.08163 145.442C9.34116 150.235 11.1443 157.149 13.3839 165.648L13.3073 165.59L43.0804 164.469H43.1569L43.1761 164.545L45.921 175.356L45.944 175.444L45.8559 175.471C42.2917 176.658 38.5399 177.856 34.7078 179.047C29.3481 180.708 24.0956 182.267 18.9848 183.641C16.4313 184.33 13.9122 184.969 11.4276 185.532C9.00318 186.113 6.54607 186.548 4.06953 186.834C3.46415 186.895 2.85551 186.918 2.24724 186.903C1.94385 186.894 1.64167 186.861 1.34375 186.803C1.03659 186.752 0.748615 186.619 0.509171 186.42C0.0421963 186.048 -0.37244 185.614 -0.723557 185.13C-1.07959 184.663 -1.405 184.181 -1.71127 183.691C-2.33146 182.714 -2.85978 181.715 -3.38809 180.724C-3.9164 179.732 -4.3758 178.737 -4.83903 177.757C-6.64601 173.825 -8.11609 170.073 -9.3871 166.62C-11.9176 159.729 -13.6289 154.01 -14.7468 150.047C-15.8647 146.085 -16.3164 143.861 -16.3164 143.861C-16.3164 143.861 -16.2781 143.995 -16.2092 144.266C-16.1403 144.538 -16.0369 144.936 -15.9068 145.457C-15.6311 146.506 -15.233 148.053 -14.6702 150.028C-13.5523 153.983 -11.8219 159.679 -9.27225 166.574C-7.99741 170.02 -6.51967 173.768 -4.70504 177.676C-4.24564 178.653 -3.77475 179.644 -3.25793 180.632C-2.7411 181.62 -2.19747 182.615 -1.58494 183.587C-1.27867 184.07 -0.953261 184.552 -0.601053 185.011C-0.260187 185.481 0.142929 185.902 0.597221 186.263C0.814919 186.449 1.08015 186.569 1.36289 186.612C1.65039 186.67 1.94245 186.704 2.23575 186.711C2.83517 186.723 3.43476 186.699 4.03125 186.639C6.5001 186.352 8.94953 185.917 11.3664 185.337C13.8471 184.774 16.3623 184.131 18.9159 183.442C24.0229 182.064 29.2753 180.505 34.6312 178.848C38.4595 177.661 42.2152 176.459 45.7755 175.276L45.7104 175.395L42.9961 164.587L43.0918 164.66L13.315 165.743H13.2576V165.686C11.0524 157.179 9.26077 150.258 8.02038 145.461C7.40402 143.068 6.92547 141.204 6.60006 139.933L6.21723 138.489C6.13683 138.164 6.10238 137.996 6.10238 137.996Z" fill="#263238"/>
<path d="M-13.0859 129.439C-13.0859 129.439 -13.0362 129.386 -12.929 129.301C-12.8218 129.217 -12.6725 129.091 -12.4581 128.953C-11.8553 128.545 -11.2142 128.196 -10.5439 127.912C-8.33125 126.957 -5.88522 126.68 -3.51508 127.115C-1.15184 127.586 1.0201 128.743 2.72896 130.442C3.24296 130.952 3.70584 131.511 4.11098 132.111C4.25646 132.318 4.35217 132.494 4.42109 132.609C4.45957 132.667 4.49166 132.728 4.51679 132.793C4.51679 132.793 4.34834 132.567 4.0459 132.157C2.44481 129.926 0.134059 128.304 -2.50851 127.556C-5.15109 126.809 -7.96911 126.98 -10.5018 128.042C-11.1668 128.312 -11.8072 128.638 -12.416 129.018C-12.8448 129.29 -13.0745 129.451 -13.0859 129.439Z" fill="#263238"/>
<path d="M16.7353 125.45C16.6646 125.398 16.6003 125.337 16.5439 125.27L16.0309 124.73L14.1626 122.717H14.2775L12.0379 127.142L11.992 127.238L11.9039 127.18C10.7554 126.415 9.51119 125.569 8.19807 124.711C5.15453 122.724 2.34836 120.998 0.30785 119.769L-2.11167 118.318L-2.77014 117.935C-2.8496 117.894 -2.9241 117.844 -2.99219 117.786C-2.90754 117.817 -2.82559 117.856 -2.74717 117.901L-2.07338 118.283C-1.49147 118.605 -0.649241 119.076 0.380584 119.677C2.44023 120.875 5.2579 122.586 8.30526 124.573C9.62221 125.435 10.8741 126.273 12.0073 127.054L11.8733 127.089C12.7423 125.412 13.5156 123.911 14.1703 122.682L14.2162 122.59L14.2813 122.667L16.1036 124.727L16.5898 125.289C16.6426 125.339 16.6912 125.393 16.7353 125.45Z" fill="#263238"/>
<path d="M20.793 138.577C20.8466 138.577 20.1039 144.622 19.1353 152.061C18.1667 159.499 17.3475 165.529 17.2709 165.529C17.1943 165.529 17.96 159.484 18.9286 152.042C19.8972 144.599 20.7241 138.57 20.793 138.577Z" fill="#263238"/>
<path d="M19.0276 126.12C18.9355 126.284 18.8222 126.434 18.6907 126.568C18.461 126.836 18.128 127.215 17.7298 127.655L17.5384 127.87L17.5767 127.582C17.6379 127.104 17.703 126.576 17.7758 126.013C17.8638 125.389 17.9442 124.803 18.0208 124.275L18.1624 124.351C17.7174 124.77 17.2413 125.153 16.7383 125.5C17.142 125.038 17.5797 124.607 18.0476 124.21L18.2198 124.049L18.1931 124.282C18.1241 124.811 18.0514 125.4 17.971 126.024C17.8944 126.583 17.8217 127.112 17.7528 127.594L17.5997 127.521C18.0093 127.089 18.3653 126.729 18.6103 126.48C18.7349 126.344 18.8749 126.223 19.0276 126.12Z" fill="#263238"/>
<path d="M28.0664 160.912C28.1067 160.061 28.235 159.217 28.4492 158.393C28.5912 157.557 28.7765 156.729 29.0043 155.912C28.9706 156.762 28.85 157.606 28.6445 158.431C28.4967 159.268 28.3037 160.096 28.0664 160.912Z" fill="#263238"/>
<path d="M12.5924 164.851C12.589 164.817 12.589 164.782 12.5924 164.748C12.5924 164.671 12.5924 164.572 12.6192 164.453C12.6498 164.174 12.6881 163.791 12.7417 163.305C12.8566 162.294 13.0173 160.862 13.2164 159.094C13.5993 155.545 14.139 150.637 14.6406 145.208C15.1421 139.78 15.5287 134.872 15.7891 131.292C15.9192 129.523 16.0226 128.084 16.0992 127.081C16.1336 126.595 16.1642 126.212 16.1872 125.932C16.1872 125.81 16.1872 125.714 16.214 125.634C16.2101 125.601 16.2101 125.567 16.214 125.534C16.2207 125.568 16.2207 125.603 16.214 125.638C16.214 125.714 16.214 125.814 16.214 125.936C16.214 126.212 16.1834 126.599 16.1642 127.085C16.1145 128.084 16.0341 129.527 15.9192 131.296C15.6934 134.86 15.3297 139.787 14.8281 145.22C14.3266 150.652 13.7792 155.556 13.3466 159.105C13.1284 160.878 12.9637 162.313 12.8068 163.316C12.7379 163.799 12.6843 164.181 12.646 164.465C12.6269 164.583 12.6115 164.683 12.6001 164.759C12.6012 164.79 12.5986 164.821 12.5924 164.851Z" fill="#263238"/>
<path d="M6.24565 203.43C6.19206 203.43 6.76631 199.628 7.52815 194.957C8.28999 190.287 8.95612 186.508 9.00972 186.535C9.06332 186.562 8.48906 190.337 7.72722 195.003C6.96538 199.67 6.29159 203.449 6.24565 203.43Z" fill="#263238"/>
<path d="M46.3497 164.208C46.3497 164.208 47.8045 159.044 48.9109 158.232C50.1968 157.397 51.5258 156.63 52.8924 155.935L56.7207 154.901C56.7207 154.901 57.5323 156.816 56.7207 157.482C56.1399 157.9 55.4457 158.133 54.73 158.148L53.1067 159.549L58.3439 158.81C58.3439 158.81 66.238 155.491 67.5626 155.491C68.8872 155.491 68.891 156.452 68.2287 157.114C67.5664 157.777 61.5176 161.245 61.5176 161.245C61.5176 161.245 61.1348 161.835 61.9579 161.911C62.781 161.988 65.1316 160.878 65.7862 161.467C66.4409 162.057 67.2601 162.861 66.3758 163.825C65.8704 164.383 65.3012 164.879 64.6798 165.303C64.6798 165.303 66.1537 165.23 66.2303 166.409C66.2372 166.761 66.1436 167.108 65.9605 167.408C65.7774 167.708 65.5124 167.95 65.1967 168.105L63.7955 168.695C63.8772 168.945 63.893 169.212 63.8414 169.471C63.7897 169.729 63.6724 169.969 63.5007 170.169C62.9111 170.981 58.0415 173.121 58.0415 173.121C58.0415 173.121 53.7652 174.3 52.5823 174.3C51.3993 174.3 45.7295 175.035 45.7295 175.035L43.1875 165.081L46.3497 164.208Z" fill="#FFBE9D"/>
</svg>
