<svg width="196" height="197" viewBox="0 0 196 197" fill="none" xmlns="http://www.w3.org/2000/svg">
<path d="M196 98.0039C196 152.128 152.124 196.003 98 196.003C43.8761 196.003 0 152.128 0 98.0039C0 43.8803 43.8761 0.00439453 98 0.00439453C152.124 0.00439453 196 43.8803 196 98.0039Z" fill="#AED5E8"/>
<path fill-rule="evenodd" clip-rule="evenodd" d="M192.077 121.936C193.999 114.276 195.02 106.259 195.02 98.0029C195.02 43.8793 151.144 0.00341797 97.02 0.00341797C49.8427 0.00341797 10.4515 33.3394 1.11719 77.7407C5.58605 79.0401 10.0674 80.9456 14.4996 83.5834C32.2053 94.115 46.1144 110.669 59.1114 126.137L59.1115 126.137L59.1115 126.137C76.4109 146.725 92.0944 165.39 112.964 165.372C139.233 165.372 174.379 136.855 192.077 120.816V121.936ZM97.5672 196.001H96.4728C96.6551 196.002 96.8375 196.002 97.02 196.002C97.2025 196.002 97.3849 196.002 97.5672 196.001Z" fill="#043953"/>
</svg>
