<svg width="32" height="32" viewBox="0 0 32 32" fill="none" xmlns="http://www.w3.org/2000/svg">
<circle cx="16" cy="16" r="16" fill="url(#paint0_linear_18246_3541)"/>
<path d="M22.0876 13.7784C21.235 13.1336 20.2013 12.7731 19.1326 12.7479C18.0646 12.7735 17.0316 13.1339 16.1796 13.7784C15.6024 14.1959 15.0803 14.6847 14.6257 15.2332C14.5795 15.2889 14.5542 15.359 14.5544 15.4314V24.3935V24.5481C14.5405 24.6861 14.6223 24.8159 14.7526 24.8633C14.9767 24.9512 15.2153 24.9963 15.4562 24.996H22.8211C23.2896 24.9971 23.7429 24.8289 24.0974 24.5224C25.2291 23.5314 25.9226 22.2055 25.9226 20.7567C25.9226 18.5589 24.357 15.3918 22.0876 13.7783L22.0876 13.7784ZM20.2761 21.1295C20.0964 21.3232 19.8644 21.4609 19.6083 21.5259L19.5588 21.5397V22.0589C19.5588 22.1473 19.5237 22.232 19.4612 22.2944C19.3987 22.3569 19.3141 22.392 19.2257 22.392H19.0831C18.8992 22.392 18.75 22.2428 18.75 22.0589V21.5675L18.7005 21.5496C18.3748 21.4531 18.0687 21.2994 17.7968 21.0958C17.649 20.9911 17.6128 20.7871 17.7155 20.6379L17.8225 20.4793C17.8727 20.4064 17.9497 20.3565 18.0368 20.3405C18.1238 20.3245 18.2135 20.3438 18.2863 20.3941C18.5244 20.5816 18.8098 20.6997 19.1109 20.7351C19.2823 20.7487 19.4507 20.6839 19.5686 20.5587C19.6369 20.463 19.6705 20.347 19.6637 20.2296C19.6637 19.8471 19.3684 19.6766 18.8888 19.4369C18.6206 19.319 18.371 19.1628 18.1476 18.9731C18.0292 18.8611 17.9348 18.7264 17.8701 18.5768C17.7988 18.4103 17.763 18.2308 17.765 18.0495C17.7584 17.7228 17.8727 17.4052 18.0862 17.1577C18.2495 16.9693 18.4633 16.8317 18.7025 16.7614L18.75 16.7475V16.2362C18.75 16.0523 18.8992 15.9033 19.0831 15.9033H19.2257C19.3141 15.9033 19.3987 15.9382 19.4612 16.0007C19.5237 16.0632 19.5588 16.1478 19.5588 16.2362V16.7435H19.6142C19.9005 16.8005 20.1646 16.938 20.3753 17.1399L20.395 17.1596V17.1598C20.521 17.2845 20.5262 17.4863 20.4069 17.6175L20.2643 17.7761C20.1466 17.9063 19.948 17.9228 19.8104 17.8137C19.6391 17.664 19.4232 17.5748 19.1961 17.56C19.0686 17.544 18.9406 17.5853 18.8468 17.6731C18.753 17.7608 18.7029 17.8857 18.7105 18.0139C18.7105 18.3191 18.978 18.4658 19.4121 18.6779C19.7009 18.8008 19.9686 18.9688 20.2048 19.1753C20.331 19.2957 20.4321 19.4398 20.502 19.5995C20.5802 19.7879 20.6186 19.9903 20.6151 20.1941C20.6237 20.5375 20.5027 20.8715 20.2761 21.1296L20.2761 21.1295ZM13.0262 14.5574H7.10634C6.94556 14.5574 6.79128 14.6214 6.67751 14.735C6.56387 14.8488 6.5 15.0031 6.5 15.1638V24.3935C6.5 24.5543 6.56387 24.7086 6.67751 24.8224C6.79128 24.9361 6.94557 25 7.10634 25H13.0262C13.1873 25 13.3417 24.9361 13.4558 24.8225C13.5698 24.7089 13.6341 24.5546 13.6347 24.3935V15.1638C13.6341 15.0028 13.5698 14.8486 13.4558 14.7349C13.3417 14.6212 13.1873 14.5574 13.0262 14.5574V14.5574ZM7.53847 16.0637C7.54054 15.9733 7.57842 15.8873 7.64382 15.8249C7.70921 15.7624 7.79685 15.7286 7.88727 15.7306H12.2634C12.3535 15.7286 12.4409 15.7626 12.506 15.8251C12.5711 15.8876 12.6086 15.9734 12.6101 16.0637V17.4074C12.6086 17.4976 12.5711 17.5836 12.506 17.6461C12.4409 17.7085 12.3535 17.7424 12.2634 17.7403H7.88727C7.79685 17.7424 7.70921 17.7086 7.64382 17.6462C7.57842 17.5837 7.54054 17.4979 7.53847 17.4074V16.0637ZM8.25985 23.8108H7.8635C7.69595 23.8108 7.56019 23.6751 7.56019 23.5076V23.1113C7.55756 23.0304 7.58729 22.952 7.64272 22.8931C7.69816 22.8344 7.77475 22.8001 7.85548 22.798H8.25197C8.33229 22.798 8.40943 22.8301 8.46639 22.8869C8.52321 22.9437 8.55515 23.0209 8.55515 23.1013V23.4977C8.55777 23.5784 8.52819 23.6569 8.47275 23.7157C8.41732 23.7746 8.34059 23.8087 8.25985 23.8108H8.25985ZM8.25985 21.7873H7.8635C7.69595 21.7873 7.56019 21.6515 7.56019 21.4841V21.0878C7.55978 21.0069 7.59143 20.9293 7.64839 20.872C7.70521 20.8147 7.78277 20.7825 7.8635 20.7825H8.25985C8.34058 20.7825 8.41801 20.8147 8.47496 20.872C8.53192 20.9293 8.56358 21.0069 8.56303 21.0878V21.4841C8.56303 21.5644 8.53109 21.6416 8.47427 21.6985C8.41745 21.7554 8.34031 21.7873 8.25985 21.7873ZM10.2834 23.8108H9.88703C9.71948 23.8108 9.58372 23.6751 9.58372 23.5076V23.1113C9.58372 22.9437 9.71948 22.808 9.88703 22.808H10.2834C10.3638 22.808 10.441 22.8399 10.4978 22.8969C10.5546 22.9537 10.5866 23.0308 10.5866 23.1113V23.5076C10.5866 23.588 10.5546 23.6651 10.4978 23.7221C10.441 23.7789 10.3638 23.8108 10.2834 23.8108ZM10.2834 21.7873H9.88703C9.71948 21.7873 9.58372 21.6515 9.58372 21.4841V21.0878C9.5833 21.0069 9.61496 20.9293 9.67192 20.872C9.72888 20.8147 9.8063 20.7825 9.88703 20.7825H10.2834C10.3641 20.7825 10.4415 20.8147 10.4985 20.872C10.5554 20.9293 10.5871 21.0069 10.5866 21.0878V21.4841C10.5866 21.5644 10.5546 21.6416 10.4978 21.6985C10.441 21.7554 10.3638 21.7873 10.2834 21.7873ZM10.2834 19.7638H7.85547C7.68805 19.7638 7.55229 19.628 7.55229 19.4606V19.0641C7.55174 18.9834 7.58354 18.9058 7.64036 18.8484C7.69732 18.7912 7.77474 18.759 7.85547 18.759H10.2834C10.3641 18.759 10.4415 18.7912 10.4985 18.8484C10.5554 18.9058 10.5871 18.9834 10.5866 19.0641V19.4606C10.5871 19.5413 10.5554 19.6189 10.4985 19.6763C10.4415 19.7335 10.3641 19.7657 10.2834 19.7657V19.7638ZM12.3069 23.8107H11.9106C11.743 23.8107 11.6072 23.675 11.6072 23.5076V23.1112C11.6072 22.9437 11.743 22.8079 11.9106 22.8079H12.3069C12.3874 22.8079 12.4645 22.8398 12.5213 22.8968C12.5781 22.9536 12.6101 23.0308 12.6101 23.1112V23.5076C12.6101 23.5879 12.5781 23.665 12.5213 23.722C12.4645 23.7788 12.3874 23.8107 12.3069 23.8107ZM11.5994 21.4841V21.0877C11.5988 21.0068 11.6306 20.9293 11.6874 20.8719C11.7444 20.8147 11.8218 20.7825 11.9027 20.7825H12.299C12.3798 20.7825 12.4572 20.8147 12.5141 20.8719C12.5711 20.9293 12.6028 21.0068 12.6022 21.0877V21.4841C12.6023 21.6484 12.4713 21.7829 12.3069 21.7872H11.9106C11.8287 21.7894 11.7496 21.7583 11.691 21.7012C11.6324 21.6441 11.5994 21.5659 11.5994 21.4841ZM12.6101 19.4605C12.6107 19.5413 12.579 19.6188 12.522 19.6762C12.4651 19.7334 12.3877 19.7656 12.3069 19.7656H11.9106C11.743 19.7656 11.6073 19.6299 11.6073 19.4625V19.0661C11.6069 18.9854 11.6385 18.9077 11.6955 18.8505C11.7524 18.7931 11.8298 18.7609 11.9106 18.7609H12.3069C12.3877 18.7609 12.4651 18.7931 12.522 18.8505C12.579 18.9077 12.6107 18.9854 12.6101 19.0661V19.4605ZM15.6524 12.2524C15.5929 12.1318 15.5832 11.9928 15.6255 11.8652C15.6679 11.7376 15.7587 11.6317 15.8784 11.5706C16.1102 11.4477 16.3441 11.3387 16.58 11.2415H16.5799C16.718 11.1858 16.7946 11.0376 16.7603 10.8928L16.2113 8.52044C16.1646 8.31362 16.2288 8.09741 16.3809 7.94962C16.5331 7.80197 16.7511 7.74418 16.9564 7.79699L17.4836 7.93372H17.4837C17.6859 7.98528 17.9004 7.92999 18.0525 7.78718L18.7124 7.16479C18.8255 7.05889 18.9747 7 19.1297 7C19.2847 7 19.4337 7.05889 19.5468 7.16479L20.2067 7.78718C20.3588 7.92999 20.5734 7.98529 20.7756 7.93372L21.3028 7.79699C21.5081 7.74418 21.7262 7.80197 21.8783 7.94962C22.0305 8.0974 22.0948 8.31362 22.0481 8.52044L21.5031 10.8987H21.503C21.4716 11.0439 21.5507 11.1903 21.6893 11.2436C21.9311 11.3427 22.171 11.4557 22.4107 11.5825C22.6575 11.7132 22.7516 12.0195 22.6208 12.2662C22.4899 12.513 22.1838 12.6071 21.9371 12.4764C20.1996 11.4984 18.0777 11.4984 16.3403 12.4764C16.2196 12.539 16.0788 12.5505 15.9495 12.5084C15.8202 12.4663 15.7132 12.3741 15.6525 12.2524L15.6524 12.2524Z" fill="white"/>
<defs>
<linearGradient id="paint0_linear_18246_3541" x1="16" y1="0" x2="16" y2="32" gradientUnits="userSpaceOnUse">
<stop stop-color="#32959D"/>
<stop offset="1" stop-color="#036696" stop-opacity="0.8"/>
</linearGradient>
</defs>
</svg>
