<svg width="32" height="32" viewBox="0 0 32 32" fill="none" xmlns="http://www.w3.org/2000/svg">
<circle cx="16" cy="16" r="16" fill="url(#paint0_linear_18246_3511)"/>
<path d="M12.3086 12.0656C12.3086 12.8143 12.9155 13.4213 13.6642 13.4213C14.4131 13.4213 15.0199 12.8143 15.0199 12.0656C15.0199 11.3169 14.4131 10.71 13.6642 10.71C12.9155 10.71 12.3086 11.3169 12.3086 12.0656ZM13.6641 13.0597C13.3068 13.0597 12.9938 12.8694 12.8185 12.5857H14.5096C14.3346 12.8694 14.0215 13.0597 13.6641 13.0597H13.6641Z" fill="white"/>
<path d="M18.043 24.3778C18.043 24.7106 18.3127 24.9804 18.6455 24.9804C18.9783 24.9804 19.2481 24.7107 19.2481 24.3778V21.3979C18.7865 21.3922 18.3844 21.3484 18.0431 21.2871L18.043 24.3778Z" fill="white"/>
<path d="M19.4492 24.3778C19.4492 24.7106 19.7189 24.9804 20.0518 24.9804C20.3843 24.9804 20.6543 24.7107 20.6543 24.3778V21.2871C20.3131 21.3484 19.9109 21.3922 19.4493 21.3979L19.4492 24.3778Z" fill="white"/>
<path d="M20.8837 14.4817C20.6259 14.3167 20.4215 14.2657 20.3313 14.2503C20.2281 14.2246 19.7917 14.1224 19.3485 14.1224C18.9053 14.1224 18.4688 14.2244 18.3656 14.2503C18.2755 14.2656 18.071 14.3167 17.8133 14.4817C17.4436 14.7181 16.9639 15.1894 16.5523 16.1269C16.4014 15.1995 16.1161 14.5348 15.6972 14.1413C15.3584 13.8229 15.0274 13.7688 14.8582 13.7651C14.8489 13.7646 14.8396 13.7637 14.8302 13.7637H12.5026C12.493 13.7637 12.4837 13.7646 12.4744 13.7652C12.3215 13.7689 12.0347 13.8141 11.7304 14.0589C11.1866 14.4961 10.845 15.3581 10.7145 16.6216C10.6372 16.6506 10.4972 16.6659 10.3338 16.6671L10.3356 16.6561L10.2759 16.3451C10.2743 16.2705 10.212 16.2109 10.1375 16.2125C10.0629 16.2142 10.0032 16.2764 10.0049 16.351L10.0628 16.6566C9.97386 16.6495 9.88433 16.6386 9.79896 16.6237C9.53667 16.5778 9.36979 17.527 9.63184 17.5732C9.75589 17.5951 10.0145 17.6331 10.3068 17.6331C10.6609 17.6331 11.0643 17.5773 11.3378 17.3692C11.5306 17.2225 11.6445 17.02 11.6673 16.7837C11.7404 16.0208 11.8851 15.527 12.037 15.215V24.2545C12.037 24.6659 12.3706 24.9993 12.7818 24.9993C13.1932 24.9993 13.5268 24.6659 13.5268 24.2545V18.8156H13.806V24.2545C13.806 24.6659 14.1396 24.9993 14.5508 24.9993C14.9622 24.9993 15.2958 24.6659 15.2958 24.2545L15.296 15.2153C15.5653 15.7755 15.8053 16.904 15.6813 19.021C15.6658 19.2867 15.8686 19.5147 16.1344 19.5303C16.1439 19.5309 16.1535 19.5311 16.163 19.5311C16.4162 19.5311 16.6287 19.3335 16.6438 19.0773C16.6509 18.9546 16.6567 18.8345 16.6617 18.7159C16.8642 17.3796 17.1887 16.5235 17.5093 15.9766C17.5984 15.8248 17.687 15.697 17.7726 15.5891L16.7379 20.6751C16.7379 20.6751 17.6425 21.2174 19.3487 21.2174C21.0549 21.2174 21.9595 20.6751 21.9595 20.6751L20.9252 15.5914C21.0109 15.6998 21.0997 15.8287 21.189 15.9812C21.5312 16.5666 21.8787 17.5033 22.0758 18.9986C22.1018 19.1958 22.27 19.3392 22.4636 19.3392C22.4806 19.3392 22.4979 19.338 22.5152 19.3358C22.7297 19.3074 22.8805 19.1108 22.8523 18.8963C22.4668 15.9726 21.5148 14.8855 20.8837 14.4818L20.8837 14.4817Z" fill="white"/>
<path d="M19.3462 13.8525C20.0616 13.8525 20.6416 13.2725 20.6416 12.5571C20.6416 11.8417 20.0616 11.2617 19.3462 11.2617C18.6307 11.2617 18.0508 11.8417 18.0508 12.5571C18.0508 13.2725 18.6307 13.8525 19.3462 13.8525ZM20.1583 13.0963C19.99 13.3689 19.6895 13.5515 19.3463 13.5515C19.0031 13.5515 18.7026 13.369 18.5343 13.0963H20.1583Z" fill="white"/>
<path d="M15.1827 7.44868C14.8046 7.65396 14.8462 8.0079 14.8462 8.0079C14.8462 8.0079 14.5719 7.78026 14.1939 7.98542C13.8156 8.19071 13.1741 9.36756 15.6988 9.57848C16.897 7.34646 15.5607 7.24337 15.1827 7.44864L15.1827 7.44868Z" fill="white"/>
<path d="M19.2508 7.33827C18.8639 7.22451 18.6481 7.4642 18.6224 7.49459C18.6173 7.45516 18.567 7.13648 18.1806 7.02112C17.7682 6.89795 16.4817 7.27362 18.1133 9.21172C20.5377 8.47581 19.6637 7.45968 19.2508 7.33828L19.2508 7.33827Z" fill="white"/>
<path d="M17.3022 10.3111C17.0435 10.1934 16.8735 10.3562 16.8735 10.3562C16.8735 10.3562 16.8844 10.121 16.6257 10.0032C16.367 9.88546 15.4912 10.0154 16.3845 11.4306C18.0383 11.1744 17.5609 10.4289 17.3022 10.3111L17.3022 10.3111Z" fill="white"/>
<defs>
<linearGradient id="paint0_linear_18246_3511" x1="16" y1="0" x2="16" y2="32" gradientUnits="userSpaceOnUse">
<stop stop-color="#32959D"/>
<stop offset="1" stop-color="#036696" stop-opacity="0.8"/>
</linearGradient>
</defs>
</svg>
