<svg width="32" height="32" viewBox="0 0 32 32" fill="none" xmlns="http://www.w3.org/2000/svg">
<circle cx="16" cy="16" r="16" fill="url(#paint0_linear_18246_3562)"/>
<path d="M14.462 8.2897C14.462 9.00189 13.889 9.57926 13.1822 9.57926C12.4754 9.57926 11.9023 9.00189 11.9023 8.2897C11.9023 7.57737 12.4754 7 13.1822 7C13.889 7 14.462 7.57737 14.462 8.2897Z" fill="white"/>
<path d="M20.0167 8.2897C20.0167 9.00189 19.4437 9.57926 18.7369 9.57926C18.0301 9.57926 17.457 9.00189 17.457 8.2897C17.457 7.57737 18.0301 7 18.7369 7C19.4437 7 20.0167 7.57737 20.0167 8.2897Z" fill="white"/>
<path d="M13.2778 15.2298C13.2778 13.7939 14.4074 12.625 15.8259 12.555L15.4836 10.0324L10.6687 10.0273L10 17.355L10.7982 17.9824L11.1076 13.3115L11.3763 13.3184L10.7767 24.9995H11.9454L13.1142 17.5979L14.3192 24.9937H15.442L15.0519 17.7509C14.0183 17.3783 13.2778 16.3918 13.2778 15.2299L13.2778 15.2298Z" fill="white"/>
<path d="M20.8117 13.3115L21.1211 17.9824L21.9193 17.355L21.2506 10.0273L16.436 10.0324L16.0938 12.555C17.5124 12.625 18.6419 13.7939 18.6419 15.2298C18.6419 16.3917 17.9014 17.3781 16.8678 17.7505L16.4777 24.9934H17.6005L18.8055 17.5976L19.9743 24.9992H21.1429L20.5434 13.3181L20.8117 13.3115Z" fill="white"/>
<path d="M16.7677 13.751C15.9416 13.751 15.2695 14.4231 15.2695 15.2492C15.2695 15.553 15.361 15.8355 15.5171 16.0719C15.6504 16.0259 15.7705 15.948 15.8674 15.8446C15.7539 15.6736 15.6876 15.4691 15.6876 15.2492C15.6876 14.6535 16.1722 14.1689 16.7677 14.1689C17.3633 14.1689 17.8478 14.6535 17.8478 15.2492C17.8478 15.8448 17.3632 16.3293 16.7677 16.3293C16.6999 16.3293 16.6337 16.3223 16.5693 16.3102C16.4678 16.4379 16.3485 16.5483 16.2172 16.6413C16.3878 16.709 16.5731 16.7473 16.7677 16.7473C17.5938 16.7473 18.2658 16.0752 18.2658 15.2491C18.2658 14.4228 17.5938 13.751 16.7677 13.751L16.7677 13.751Z" fill="white"/>
<path d="M16.4845 14.4273C16.3512 14.4733 16.2309 14.5511 16.134 14.6544C16.2467 14.8249 16.3129 15.0291 16.3129 15.2484C16.3129 15.8441 15.8283 16.3286 15.2328 16.3286C14.6372 16.3286 14.1527 15.8439 14.1527 15.2484C14.1527 14.6528 14.6373 14.1682 15.2328 14.1682C15.301 14.1682 15.3673 14.1752 15.4319 14.1872C15.5329 14.0603 15.6507 13.9488 15.7817 13.8556C15.6114 13.7883 15.4265 13.75 15.2325 13.75C14.4064 13.75 13.7344 14.4221 13.7344 15.2482C13.7344 16.0743 14.4064 16.7463 15.2325 16.7463C16.0586 16.7463 16.7307 16.0743 16.7307 15.2482C16.7311 14.9453 16.64 14.6634 16.4845 14.4273L16.4845 14.4273Z" fill="white"/>
<defs>
<linearGradient id="paint0_linear_18246_3562" x1="16" y1="0" x2="16" y2="32" gradientUnits="userSpaceOnUse">
<stop stop-color="#32959D"/>
<stop offset="1" stop-color="#036696" stop-opacity="0.8"/>
</linearGradient>
</defs>
</svg>
