<svg width="32" height="32" viewBox="0 0 32 32" fill="none" xmlns="http://www.w3.org/2000/svg">
<circle cx="16" cy="16" r="16" fill="url(#paint0_linear_18246_3530)"/>
<path d="M20.6486 19.513L20.2334 19.9287L17.1836 22.9779L15.8497 21.6441L16.3658 21.128C16.7583 20.7358 16.9744 20.2141 16.9744 19.6595C16.9744 19.1048 16.7583 18.5834 16.366 18.1911C15.974 17.7986 15.4526 17.5827 14.898 17.5827C14.3433 17.5827 13.8219 17.7988 13.4296 18.191L13.2335 18.3869L13.107 18.2607C13.0262 17.6221 13.2285 16.9543 13.7189 16.4639C14.5607 15.6216 15.9262 15.6216 16.7676 16.4639L17.1837 16.8798L17.5994 16.4639C18.4413 15.6216 19.8068 15.6216 20.6486 16.4639C21.4904 17.306 21.4904 18.6712 20.6486 19.513H20.6486ZM16.5194 19.6596C16.5194 19.2265 16.3505 18.8192 16.0441 18.5131C15.738 18.2065 15.331 18.0378 14.8977 18.0378C14.4644 18.0378 14.0573 18.2065 13.7509 18.5128L13.3142 18.949L13.2332 19.0299L12.7156 18.5129C12.4093 18.2063 12.002 18.0376 11.5691 18.0376C11.136 18.0376 10.7287 18.2063 10.4221 18.5126C10.116 18.8189 9.94725 19.2262 9.94725 19.6594C9.94725 20.0927 10.116 20.4999 10.4221 20.8063L13.2333 23.6173L15.5278 21.3224L16.0438 20.8063C16.3506 20.5002 16.5195 20.0929 16.5195 19.6596L16.5194 19.6596ZM24.0702 24.5538V19.5517C24.0702 19.3053 23.8702 19.1055 23.624 19.1055C23.3777 19.1055 23.1778 19.3055 23.1778 19.5517V24.1076H9.17185V17.7648L16.1987 11.6363L23.3304 17.856C23.4194 17.9341 23.5352 17.9723 23.6541 17.9649C23.7721 17.9568 23.8821 17.9022 23.96 17.813L25.7398 15.7722C25.9018 15.5864 25.8826 15.3046 25.6967 15.1425L16.486 7.11003C16.3004 6.94802 16.0188 6.96716 15.8568 7.15267L12.7163 9.89693V8.17314C12.7163 7.92677 12.5163 7.72695 12.2701 7.72695H9.53102C9.28465 7.72695 9.08483 7.92694 9.08483 8.17314V13.0637L6.65293 15.1848C6.4671 15.3468 6.44796 15.6285 6.61013 15.8145C6.77121 16.0003 7.05337 16.0198 7.23919 15.8575L9.82425 13.6031C9.92152 13.5183 9.97723 13.3957 9.97723 13.267V8.61943H11.824V10.8783C11.824 11.0532 11.9262 11.2121 12.0854 11.2846C12.2451 11.3568 12.4319 11.3297 12.5635 11.2147L16.1989 8.04388L24.7741 15.5222L23.5812 16.8903L16.4921 10.7081C16.3239 10.5615 16.0738 10.5615 15.9055 10.7081L8.43243 17.2258C8.33516 17.3106 8.27944 17.4331 8.27944 17.562V24.5538C8.27944 24.8002 8.47943 25 8.72563 25H23.6237C23.87 25.0002 24.07 24.8002 24.07 24.5538L24.0702 24.5538Z" fill="white"/>
<defs>
<linearGradient id="paint0_linear_18246_3530" x1="16" y1="0" x2="16" y2="32" gradientUnits="userSpaceOnUse">
<stop stop-color="#32959D"/>
<stop offset="1" stop-color="#036696" stop-opacity="0.8"/>
</linearGradient>
</defs>
</svg>
