<svg width="32" height="32" viewBox="0 0 32 32" fill="none" xmlns="http://www.w3.org/2000/svg">
<circle cx="16" cy="16" r="16" fill="url(#paint0_linear_18246_3464)"/>
<path d="M12.2234 10.7149C12.157 10.4717 11.9801 10.2948 11.7369 10.2505L10.8302 10.1621C10.5427 10.339 10.189 10.4496 9.83516 10.4496C9.48131 10.4496 9.12746 10.339 8.84011 10.1621L7.93344 10.2505C7.69019 10.2948 7.49122 10.4717 7.44696 10.7149L6.00969 16.0884C5.96543 16.2874 6.07602 16.5086 6.275 16.5528L6.56252 16.6412C6.7615 16.7076 6.9827 16.5749 7.049 16.3759L7.88934 13.4128C7.88934 13.7667 7.86728 14.1205 7.84507 14.4742L7.6902 16.4423C7.6902 16.6412 7.84507 16.7961 8.04404 16.8182L8.22097 24.6683C8.24302 24.8452 8.37583 24.9999 8.5526 24.9999H9.17176C9.34868 24.9999 9.50339 24.845 9.50339 24.646L9.79091 17.7247C9.79091 17.6141 9.87929 17.6141 9.87929 17.7247L10.1668 24.646C10.1668 24.845 10.3217 24.9999 10.4984 24.9999H11.1176C11.2945 24.9999 11.4492 24.845 11.4492 24.6683L11.6262 16.8182C11.8251 16.8182 11.98 16.6412 11.98 16.4423L11.8251 14.4522C11.8031 14.1205 11.7809 13.7667 11.7809 13.4349L12.599 16.3759C12.6653 16.5971 12.8865 16.7076 13.0855 16.6412L13.373 16.5528C13.572 16.4865 13.6826 16.2875 13.6383 16.0884L12.2234 10.7149Z" fill="white"/>
<path d="M9.8149 10.0517C10.6552 10.0517 11.3407 9.3662 11.3407 8.52583C11.3407 7.68546 10.6553 7 9.8149 7C8.97452 7 8.28906 7.68546 8.28906 8.52583C8.28906 9.3662 8.97452 10.0517 9.8149 10.0517Z" fill="white"/>
<path d="M26.0676 16.1542L24.4534 10.7144C24.3871 10.4711 24.1881 10.2942 23.9448 10.2499L23.392 10.1836C23.1045 10.3385 22.7729 10.4489 22.4412 10.4489C22.0874 10.4489 21.7558 10.3605 21.4682 10.1836L20.9154 10.2499C20.6722 10.2942 20.4732 10.4711 20.4069 10.7144L18.7926 16.1542C18.7484 16.3311 18.8369 16.508 18.9916 16.5743L19.1906 16.6407C19.3675 16.707 19.5665 16.6186 19.6328 16.4195L20.8048 12.7046L20.7605 13.6554C20.7385 14.0092 20.6942 14.3631 20.6279 14.7167L19.7435 18.0779C19.6992 18.4538 19.9867 18.7856 20.3846 18.7856H20.8491L20.9818 24.6456C21.0038 24.8225 21.1587 24.9772 21.3356 24.9772H21.6009C21.7999 24.9772 21.9547 24.8223 21.9547 24.6234L22.2201 18.7855H22.5517L22.817 24.6234C22.817 24.8223 22.9719 24.9772 23.1708 24.9772H23.4361C23.6351 24.9772 23.7678 24.8223 23.79 24.6456L23.9226 18.7856H24.3871C24.763 18.7856 25.0726 18.454 25.0283 18.0779L24.1439 14.7389C24.0775 14.3851 24.0333 14.0312 24.0112 13.6776L23.9669 12.7268L25.1389 16.4417C25.2052 16.6186 25.4042 16.7292 25.5811 16.6629L25.7801 16.5965C26.0235 16.5078 26.1119 16.3309 26.0676 16.1542H26.0676Z" fill="white"/>
<path d="M22.4399 10.0517C23.2802 10.0517 23.9657 9.3662 23.9657 8.52583C23.9657 7.68546 23.2803 7 22.4399 7C21.5995 7 20.9141 7.68546 20.9141 8.52583C20.9142 9.36616 21.5775 10.0517 22.4399 10.0517Z" fill="white"/>
<path d="M17.7988 15.3588H16.6268C16.5384 15.3588 16.4941 15.2704 16.5384 15.2261L17.5777 12.9705C17.622 12.9263 17.5334 12.8379 17.4893 12.8379H15.5655C15.5213 12.8379 15.4772 12.8822 15.4772 12.9263L14.7031 16.3981C14.7031 16.4865 14.7474 16.5307 14.7915 16.5307H15.8308C15.8751 16.5307 15.9192 16.575 15.9192 16.6191L15.6317 19.0073C15.6096 19.14 15.7866 19.2063 15.8529 19.0737L17.8652 15.4914C17.9314 15.4471 17.8871 15.3587 17.7987 15.3587L17.7988 15.3588Z" fill="white"/>
<defs>
<linearGradient id="paint0_linear_18246_3464" x1="16" y1="0" x2="16" y2="32" gradientUnits="userSpaceOnUse">
<stop stop-color="#32959D"/>
<stop offset="1" stop-color="#036696" stop-opacity="0.8"/>
</linearGradient>
</defs>
</svg>
