<svg width="32" height="32" viewBox="0 0 32 32" fill="none" xmlns="http://www.w3.org/2000/svg">
<circle cx="16" cy="16" r="16" fill="url(#paint0_linear_18246_3475)"/>
<path d="M12.6481 9.98441C12.6481 11.0801 11.7598 11.9686 10.6639 11.9686C9.56819 11.9686 8.67969 11.0801 8.67969 9.98441C8.67969 8.8885 9.56819 8 10.6639 8C11.7598 8 12.6481 8.8885 12.6481 9.98441Z" fill="white"/>
<path d="M11.8351 23.8993H5.22102C4.53413 23.8993 4 23.3397 4 22.6783C4 21.9914 4.55965 21.4573 5.22102 21.4573H8.42627L7.1034 20.3635C6.69634 20.0328 6.54375 19.4986 6.72189 18.9899L8.68073 13.5206C8.78241 13.2153 9.03687 12.9609 9.3167 12.8337C9.62192 12.7064 9.95268 12.6811 10.2579 12.8083L13.4124 14.0548H16.3887C17.0756 14.0548 17.6097 14.6145 17.6097 15.2759C17.6097 15.9628 17.0501 16.4969 16.3887 16.4969H13.2088C13.0562 16.4969 12.9036 16.4715 12.751 16.4206L10.5633 15.5301L9.29136 19.0407L12.5985 21.7628C13.0055 22.0935 13.1581 22.6277 12.98 23.111C12.802 23.5942 12.344 23.8994 11.8353 23.8994L11.8351 23.8993Z" fill="white"/>
<path d="M25.5455 12.2737C25.5455 13.2011 24.7938 13.9527 23.8665 13.9527C22.9394 13.9527 22.1875 13.2011 22.1875 12.2737C22.1875 11.3464 22.9394 10.5947 23.8665 10.5947C24.7938 10.5947 25.5455 11.3464 25.5455 12.2737Z" fill="white"/>
<path d="M27.4781 22.8054L26.2316 21.279L25.3922 19.3457V19.2694L25.1633 15.25V15.2247V15.1993C25.1633 15.1739 25.1633 15.1484 25.1379 15.0976V15.0722V15.0469C25.1379 15.0215 25.1125 14.9959 25.1125 14.9452V14.9198C25.1125 14.8944 25.0871 14.8944 25.0871 14.8689C25.0618 14.8435 25.0618 14.8179 25.0362 14.7926V14.7672C25.0362 14.7418 25.0108 14.7418 25.0108 14.7163C24.9854 14.6909 24.9854 14.6909 24.9599 14.6653L24.9091 14.6146C24.8838 14.6146 24.8838 14.5892 24.8582 14.5892C24.8328 14.5892 24.8328 14.5638 24.8073 14.5638C24.7819 14.5385 24.7564 14.5385 24.7056 14.5129C24.7056 14.5129 24.6802 14.5129 24.6802 14.4875C24.6549 14.4875 24.6293 14.4622 24.6039 14.4622C24.5786 14.4622 24.553 14.4622 24.5276 14.4368H24.4767L21.9074 14.0043L20.4066 13.2411C19.9995 13.0376 19.5161 13.1902 19.3128 13.5973C19.1093 14.0043 19.2619 14.4877 19.6689 14.6911L21.2716 15.5052C21.3479 15.5306 21.4242 15.5561 21.5005 15.5815L22.6708 15.785L22.3401 16.1158H20.0251C19.5673 16.1158 19.2109 16.4719 19.2109 16.9299C19.2109 17.3877 19.5671 17.7441 20.0251 17.7441L22.6701 17.743C22.899 17.743 23.1026 17.6667 23.2552 17.5141L23.535 17.2342V18.8369L21.9069 23.0343C21.7543 23.4413 21.9578 23.9247 22.3647 24.0773C22.4664 24.1027 22.5683 24.1282 22.6446 24.1282C22.9753 24.1282 23.2805 23.9247 23.4078 23.5939L24.3745 21.101L24.756 21.9914C24.7814 22.0677 24.8323 22.1186 24.8577 22.1696L26.1806 23.7976C26.3332 24.0012 26.5876 24.1029 26.8165 24.1029C26.9947 24.1029 27.1727 24.0519 27.3253 23.9247C27.7069 23.6702 27.7579 23.1615 27.478 22.8053L27.4781 22.8054Z" fill="white"/>
<defs>
<linearGradient id="paint0_linear_18246_3475" x1="16" y1="0" x2="16" y2="32" gradientUnits="userSpaceOnUse">
<stop stop-color="#32959D"/>
<stop offset="1" stop-color="#036696" stop-opacity="0.8"/>
</linearGradient>
</defs>
</svg>
