<svg width="32" height="32" viewBox="0 0 32 32" fill="none" xmlns="http://www.w3.org/2000/svg">
<circle cx="16" cy="16" r="16" fill="url(#paint0_linear_18246_3484)"/>
<path d="M20.9762 21.7541C21.7782 21.7541 22.433 21.0881 22.433 20.2659V20.0863C23.2634 19.7186 23.8473 18.8703 23.8473 17.8859V14.9994C23.8473 14.9357 23.819 14.8719 23.7708 14.8314C23.7227 14.7909 23.6575 14.7736 23.5951 14.785C23.184 14.869 22.759 14.7705 22.6711 14.7474C20.9904 13.931 20.0806 15.2454 20.0636 15.2686C20.0466 15.2975 19.6441 15.9982 19.8708 16.8117C19.902 16.9246 19.9134 17.0115 19.9163 17.0723C19.8879 17.0173 19.8568 16.9651 19.8227 16.913C19.4685 16.3919 18.8959 16.192 18.5189 16.4556C18.1448 16.7219 18.1277 17.3416 18.4793 17.8598C18.7116 18.2044 19.0546 18.4156 19.3692 18.4331C19.3919 18.6445 19.4429 18.8442 19.5222 19.0296V20.2629C19.5222 21.0852 20.1741 21.7541 20.9762 21.7541L20.9762 21.7541ZM22.0078 20.2659C22.0078 20.8478 21.5457 21.3198 20.976 21.3198C20.4063 21.3198 19.9443 20.8478 19.9443 20.2659V19.6723C20.3099 20.0487 20.8143 20.2832 21.3727 20.2832H21.5002C21.6731 20.2832 21.8431 20.2629 22.0046 20.2253L22.005 20.2658L22.0078 20.2659ZM19.4768 17.9931C19.3124 18.0423 19.0318 17.9178 18.8277 17.6167C18.5982 17.278 18.6094 16.9219 18.7597 16.8147C18.9128 16.7075 19.2416 16.8233 19.4711 17.1622C19.5476 17.278 19.6015 17.3967 19.6271 17.5125C19.6327 17.5501 19.6525 17.5878 19.6752 17.6197C19.7149 17.666 19.7716 17.695 19.8339 17.695C19.8679 17.6979 20.0748 17.692 20.2222 17.4981C20.3583 17.3158 20.3781 17.0464 20.2788 16.6961C20.1031 16.0736 20.4205 15.509 20.4205 15.509C20.4489 15.4655 21.1462 14.4812 22.5037 15.1528C22.5151 15.1585 22.5264 15.1615 22.5378 15.1673C22.5576 15.1731 22.96 15.2861 23.4221 15.2513V17.8889C23.4221 18.743 22.8835 19.4697 22.1381 19.739H22.1352C21.9369 19.8114 21.7242 19.8519 21.5003 19.8519H21.3728C20.7322 19.8519 20.1795 19.4639 19.9273 18.9051C19.9273 18.9022 19.9244 18.9022 19.9244 18.8994C19.8366 18.7025 19.7827 18.4824 19.7799 18.2537C19.7827 18.2451 19.7855 18.2364 19.7883 18.2277C19.8026 18.1496 19.7741 18.0714 19.7146 18.0222C19.6551 17.973 19.5644 17.9614 19.4907 17.9903C19.4881 17.9873 19.4825 17.9902 19.4767 17.9931L19.4768 17.9931Z" fill="white" stroke="white" stroke-width="0.25"/>
<path d="M11.0254 21.7546C11.8275 21.7546 12.4823 21.0886 12.4823 20.2664V19.033C12.5616 18.8477 12.6155 18.645 12.6353 18.4365C12.9499 18.422 13.2901 18.2107 13.5252 17.8662C13.8795 17.345 13.8626 16.7284 13.4856 16.459C13.1086 16.1955 12.536 16.3953 12.1818 16.9165C12.1477 16.9686 12.1166 17.0207 12.0882 17.0758C12.0911 17.012 12.1025 16.9281 12.1336 16.8152C12.3604 16.0045 11.9579 15.301 11.9353 15.2605C11.9268 15.2459 11.0142 13.9345 9.33633 14.7509C9.24851 14.7741 8.82054 14.8724 8.41238 14.7885C8.35001 14.7739 8.2849 14.7914 8.23662 14.8349C8.18847 14.8783 8.16016 14.9391 8.16016 15.0028V17.8894C8.16016 18.8738 8.74405 19.7192 9.57447 20.0898V20.2693C9.56873 21.0857 10.2205 21.7546 11.0255 21.7546L11.0254 21.7546ZM11.0254 21.3203C10.4557 21.3203 9.9937 20.8483 9.9937 20.2663L9.99383 20.2258C10.1554 20.2634 10.3254 20.2837 10.4983 20.2837H10.6258C11.1841 20.2837 11.6885 20.0492 12.0542 19.6728V20.2664C12.0543 20.8483 11.5924 21.3203 11.0254 21.3203L11.0254 21.3203ZM8.57664 17.8865V15.2489C9.03868 15.2837 9.4411 15.1708 9.46094 15.165C9.47229 15.162 9.48364 15.1563 9.49499 15.1504C10.8526 14.4816 11.5499 15.4661 11.5725 15.495C11.5754 15.5007 11.8956 16.0683 11.72 16.6965C11.6208 17.0468 11.6407 17.316 11.7766 17.4985C11.9241 17.6954 12.1337 17.6983 12.1649 17.6954C12.2244 17.6954 12.2839 17.6635 12.3236 17.6173C12.349 17.5884 12.3633 17.5506 12.3718 17.513C12.3945 17.3972 12.4482 17.2757 12.5277 17.1627C12.7572 16.824 13.0889 16.7082 13.2391 16.8152C13.3921 16.9252 13.4006 17.2813 13.1711 17.6173C12.967 17.9184 12.6865 18.0399 12.5221 17.9937C12.5165 17.9907 12.5107 17.9879 12.5051 17.9879C12.4342 17.959 12.3407 17.9706 12.2812 18.0198C12.2217 18.069 12.1934 18.15 12.2075 18.2253C12.2103 18.234 12.2103 18.2426 12.216 18.2513C12.2131 18.483 12.1593 18.7001 12.0714 18.897C12.0714 18.8999 12.0685 18.8999 12.0685 18.9027C11.8163 19.4615 11.2635 19.8495 10.623 19.8495H10.4955C10.2745 19.8495 10.062 19.809 9.8606 19.7366H9.85773C9.11517 19.4673 8.57663 18.7406 8.57663 17.8865L8.57664 17.8865Z" fill="white" stroke="white" stroke-width="0.25"/>
<path d="M9.26284 16.4678C9.10417 16.4678 8.97656 16.598 8.97656 16.7602C8.97656 16.9223 9.10404 17.0527 9.26284 17.0527C9.42151 17.0527 9.54912 16.9224 9.54912 16.7602C9.54912 16.598 9.42151 16.4678 9.26284 16.4678Z" fill="white" stroke="white" stroke-width="0.25"/>
<path d="M10.3566 17.0527C10.5153 17.0527 10.6429 16.9224 10.6429 16.7602C10.6429 16.5981 10.5154 16.4678 10.3566 16.4678C10.1979 16.4678 10.0703 16.598 10.0703 16.7602C10.0704 16.9223 10.1979 17.0527 10.3566 17.0527Z" fill="white" stroke="white" stroke-width="0.25"/>
<path d="M9.92836 18.6766C9.9538 18.6882 9.98225 18.6939 10.0106 18.6939C10.0928 18.6939 10.1721 18.6447 10.2062 18.5607C10.2741 18.3957 10.4613 18.3175 10.6228 18.3871C10.7305 18.4335 10.8552 18.3813 10.9006 18.2712C10.946 18.1613 10.895 18.0338 10.7872 17.9875C10.4074 17.8254 9.97089 18.0107 9.8151 18.3957C9.76682 18.5029 9.81784 18.6303 9.92836 18.6766L9.92836 18.6766Z" fill="white" stroke="white" stroke-width="0.25"/>
<path d="M22.8058 17.0527C22.9645 17.0527 23.0921 16.9224 23.0921 16.7602C23.0921 16.5981 22.9646 16.4678 22.8058 16.4678C22.6471 16.4678 22.5195 16.598 22.5195 16.7602C22.5195 16.9223 22.6471 17.0527 22.8058 17.0527Z" fill="white" stroke="white" stroke-width="0.25"/>
<path d="M21.7082 17.0527C21.8668 17.0527 21.9944 16.9224 21.9944 16.7602C21.9944 16.5981 21.867 16.4678 21.7082 16.4678C21.5495 16.4678 21.4219 16.598 21.4219 16.7602C21.4219 16.9223 21.5494 17.0527 21.7082 17.0527Z" fill="white" stroke="white" stroke-width="0.25"/>
<path d="M21.4426 18.3848C21.522 18.35 21.6071 18.35 21.6864 18.3848C21.7657 18.4166 21.8252 18.4803 21.8593 18.5614C21.8933 18.6453 21.9727 18.6945 22.0549 18.6945C22.0832 18.6945 22.1088 18.6888 22.1371 18.6772C22.2447 18.6308 22.2957 18.5035 22.2505 18.3934C22.174 18.2052 22.0322 18.0605 21.8481 17.9823C21.6638 17.9042 21.4626 17.907 21.2784 17.9823C21.1707 18.0287 21.1197 18.156 21.165 18.2661C21.2102 18.379 21.3349 18.4311 21.4426 18.3848L21.4426 18.3848Z" fill="white" stroke="white" stroke-width="0.25"/>
<path d="M14.5599 12.9469C14.594 12.9701 14.6337 12.9817 14.6762 12.9817C14.6989 12.9817 14.7243 12.9788 14.747 12.9701C14.8094 12.9469 14.8576 12.8977 14.8774 12.8311L15.3705 11.2705C15.396 11.1924 15.3734 11.1026 15.3139 11.0475L14.5486 10.3035L15.1551 9.07294C15.1805 9.02082 15.1834 8.96297 15.1664 8.91085L14.8971 8.04806C14.8801 7.99594 14.8461 7.95249 14.8007 7.92357C14.4605 7.35027 13.8569 7 13.1965 7C12.1621 7 11.3203 7.85986 11.3203 8.91661C11.3261 10.7668 14.2283 12.7298 14.5599 12.9468L14.5599 12.9469ZM13.2022 7.43132C13.7492 7.43132 14.2425 7.74109 14.4947 8.23907C14.506 8.25933 14.5201 8.27959 14.5343 8.29692L14.7384 8.95699L14.1007 10.2511C14.0582 10.338 14.0753 10.4393 14.1433 10.5058L14.9255 11.2673L14.5599 12.4254C13.4744 11.6639 11.7511 10.141 11.7511 8.91347C11.7511 8.09733 12.4002 7.43139 13.2022 7.43139L13.2022 7.43132Z" fill="white" stroke="white" stroke-width="0.25"/>
<path d="M15.1285 10.1996C15.0774 10.2806 15.0831 10.3849 15.1427 10.4572L15.8371 11.3055L15.2249 12.675C15.1852 12.7619 15.2135 12.8718 15.2844 12.9355C15.3241 12.9703 15.3722 12.9877 15.4232 12.9877C15.4544 12.9877 15.4856 12.9819 15.5168 12.9645C15.6585 12.895 18.9774 11.2215 19.1899 9.33107C19.2465 8.82148 19.1077 8.32059 18.7959 7.92112C18.4842 7.52151 18.0391 7.26678 17.5404 7.20894C16.8573 7.1279 16.1829 7.4406 15.7888 8.01963C15.7547 8.06881 15.7434 8.1268 15.7547 8.18464L15.9078 8.98666L15.1285 10.1996ZM16.1912 8.19607C16.503 7.79366 16.9933 7.58227 17.4921 7.64025C17.8776 7.68664 18.2234 7.88058 18.4643 8.19034C18.7051 8.50011 18.8129 8.88812 18.7704 9.28186C18.6315 10.5181 16.8033 11.7342 15.8709 12.2784L16.2791 11.3605C16.3131 11.2852 16.3018 11.1955 16.2479 11.1318L15.5705 10.3038L16.3131 9.15441C16.3443 9.10802 16.3556 9.05017 16.3443 8.99232L16.1912 8.19607Z" fill="white" stroke="white" stroke-width="0.25"/>
<path d="M7.32467 14.4376C7.37281 14.5476 7.50043 14.5939 7.60808 14.5448C7.71573 14.4956 7.76113 14.3652 7.71298 14.2582C7.71011 14.2553 7.69028 14.2118 7.68754 14.209C7.5628 13.8819 7.59398 13.5315 7.77536 13.2709C8.03606 12.8917 8.51231 12.7902 9.19254 12.9698C10.0089 13.1869 10.638 13.2506 11.0632 13.158C11.3635 13.0914 11.8113 13.0595 12.228 13.2622C12.8799 13.5807 13.288 14.1656 13.4438 15.0022C13.492 15.2685 13.5004 15.535 13.4665 15.7926C13.4495 15.9114 13.5318 16.0214 13.6479 16.0359C13.6564 16.0359 13.6677 16.0388 13.6762 16.0388C13.7811 16.0388 13.8718 15.9607 13.8859 15.8506C13.9256 15.5466 13.9171 15.2339 13.8604 14.9212C13.6337 13.7022 12.9478 13.1348 12.4093 12.8713C11.9956 12.6687 11.4968 12.6223 10.9723 12.7352C10.7257 12.7873 10.2354 12.7989 9.29729 12.5499C8.21454 12.2634 7.68178 12.6484 7.42667 13.0219C7.16597 13.4011 7.11495 13.905 7.29058 14.3682C7.29906 14.3855 7.30754 14.403 7.32464 14.4376L7.32467 14.4376Z" fill="white" stroke="white" stroke-width="0.25"/>
<path d="M13.176 20.2779C13.0655 20.2403 12.9436 20.301 12.9067 20.4139C12.8699 20.5268 12.9294 20.6513 13.0399 20.6891C13.9866 21.0134 14.6243 21.9167 14.6243 22.9329V24.5629H13.0767V23.6944C13.0767 23.5757 12.9803 23.4773 12.8642 23.4773C12.7479 23.4773 12.6516 23.5758 12.6516 23.6944V24.5629L9.40075 24.5628V23.6943C9.40075 23.5755 9.30433 23.4772 9.1882 23.4772C9.07193 23.4772 8.97564 23.5757 8.97564 23.6943V24.5628H7.42811V22.9328C7.42811 21.9136 8.06305 21.0132 9.00958 20.6889C9.1201 20.6513 9.1796 20.5268 9.1428 20.4138C9.106 20.3009 8.98413 20.2401 8.87348 20.2777C7.75392 20.6628 7 21.7282 7 22.9326V24.7798C7 24.8986 7.09643 24.9969 7.21256 24.9969H14.834C14.9502 24.9969 15.0465 24.8984 15.0465 24.7798V22.9326C15.0496 21.7283 14.2986 20.66 13.1762 20.2779L13.176 20.2779Z" fill="white" stroke="white" stroke-width="0.25"/>
<path d="M17.8338 20.4198L17.9017 20.3387C18.2929 19.8783 18.633 19.4789 18.2306 17.9501C17.8195 16.3779 17.8281 15.854 17.8536 15.6917L18.2674 15.7729C18.3836 15.7961 18.4942 15.7179 18.5167 15.602C18.5394 15.4833 18.4628 15.3704 18.3494 15.3473L17.8704 15.2517C17.794 15.2258 17.6862 15.2286 17.5926 15.3068C17.3943 15.4718 17.2667 15.9293 17.825 18.0602C18.168 19.3631 17.9355 19.6381 17.5842 20.0521L17.5133 20.1361C17.1789 20.5357 16.6346 20.7151 16.1302 20.5935C15.7278 20.495 15.7079 20.2722 15.7419 20.0666C15.8326 19.5368 15.7673 19.1981 15.5435 19.0302C15.2969 18.8478 15.161 18.648 15.1354 18.4395C15.09 18.0515 15.2118 17.6983 15.4981 17.3856C16.1217 16.7081 16.1698 15.9784 16.1443 15.6021C16.1244 15.2837 16.1612 14.9999 16.2548 14.7654C16.4107 14.3804 16.6175 14.1487 16.8726 14.0822C17.3289 13.9634 17.8249 14.366 17.8306 14.3688L18.3181 14.7712C18.372 14.8146 18.4429 14.829 18.5109 14.8117C18.5761 14.7914 18.6299 14.7423 18.6526 14.6756C18.7858 14.2819 19.2138 13.3178 20.2964 12.8544C21.3536 12.3999 22.7055 12.5649 24.3155 13.3379C24.4998 13.4248 24.4544 13.8504 24.3184 14.2064C24.2901 14.2817 24.2504 14.3541 24.1937 14.4294C24.1228 14.525 24.1426 14.6611 24.2362 14.7335C24.3298 14.8058 24.463 14.7856 24.5338 14.69C24.6132 14.5828 24.6727 14.4758 24.7152 14.3657C24.9193 13.8302 24.9703 13.1758 24.4969 12.9471C22.7737 12.1191 21.3055 11.9511 20.132 12.4548C19.106 12.895 18.593 13.7259 18.3606 14.2528L18.097 14.0357C18.0716 14.0125 17.431 13.4942 16.7678 13.6651C16.3739 13.7664 16.0677 14.085 15.8579 14.606C15.7389 14.9042 15.6935 15.2488 15.7162 15.6368C15.7417 16.0073 15.6681 16.5633 15.1833 17.0931C14.8121 17.4985 14.6477 17.9819 14.7072 18.4973C14.7469 18.8303 14.9425 19.1314 15.2854 19.3891C15.291 19.392 15.4044 19.4846 15.3166 20.0029C15.2315 20.5211 15.4895 20.8946 16.028 21.025C16.1641 21.0568 16.3029 21.0741 16.4418 21.0741C16.9694 21.0653 17.4881 20.8337 17.8339 20.4197L17.8338 20.4198Z" fill="white" stroke="white" stroke-width="0.25"/>
<path d="M23.1263 20.2779C23.0157 20.2403 22.8939 20.301 22.8569 20.4139C22.8201 20.5268 22.8796 20.6513 22.9902 20.6891C23.9368 21.0134 24.5716 21.9167 24.5716 22.9329V24.5629H23.0241V23.6944C23.0241 23.5757 22.9277 23.4773 22.8115 23.4773C22.6953 23.4773 22.599 23.5758 22.599 23.6944V24.5629L19.351 24.5628V23.6943C19.351 23.5755 19.2546 23.4772 19.1384 23.4772C19.0222 23.4772 18.9259 23.5757 18.9259 23.6943V24.5628H17.3784V22.9328C17.3784 21.9136 18.016 21.0132 18.9627 20.6889C19.0732 20.6513 19.1327 20.5268 19.0959 20.4138C19.0591 20.3009 18.9373 20.2401 18.8266 20.2777C17.707 20.6599 16.9531 21.7282 16.9531 22.9356V24.7827C16.9531 24.9015 17.0496 24.9999 17.1657 24.9999L24.7871 25C24.9033 25 24.9996 24.9015 24.9996 24.7829V22.9357C24.9996 21.7283 24.2457 20.66 23.1262 20.2779H23.1263Z" fill="white" stroke="white" stroke-width="0.25"/>
<defs>
<linearGradient id="paint0_linear_18246_3484" x1="16" y1="0" x2="16" y2="32" gradientUnits="userSpaceOnUse">
<stop stop-color="#32959D"/>
<stop offset="1" stop-color="#036696" stop-opacity="0.8"/>
</linearGradient>
</defs>
</svg>
