<svg width="32" height="32" viewBox="0 0 32 32" fill="none" xmlns="http://www.w3.org/2000/svg">
<circle cx="16" cy="16" r="16" fill="url(#paint0_linear_18246_3546)"/>
<path d="M23.8966 21.751H22.6526C22.4865 21.751 22.3516 21.8855 22.3516 22.052V22.9552C22.3516 23.1217 22.4865 23.2562 22.6526 23.2562H23.3736C23.7773 23.2562 24.1518 23.0557 24.3751 22.7207L24.3974 22.6872C24.5208 22.5024 24.5324 22.2654 24.4273 22.0691C24.3222 21.8729 24.1187 21.751 23.8965 21.751L23.8966 21.751ZM23.8743 22.3859C23.7626 22.5538 23.5754 22.6541 23.3733 22.6541H22.9534V22.3531H23.8963L23.8743 22.3859Z" fill="white"/>
<path d="M8.84609 21.751H7.60252C7.38009 21.751 7.17648 21.8729 7.07151 22.0692C6.96641 22.2654 6.97783 22.5021 7.10134 22.6869L7.12338 22.72C7.34715 23.0557 7.72172 23.2562 8.12502 23.2562H8.84605C9.01216 23.2562 9.1471 23.1217 9.1471 22.9552V22.052C9.1471 21.8855 9.01216 21.751 8.84605 21.751L8.84609 21.751ZM8.54505 22.6541H8.12506C7.92333 22.6541 7.73611 22.5539 7.62416 22.3861L7.60037 22.3531H8.54503L8.54505 22.6541Z" fill="white"/>
<path d="M19.6229 17.718C20.2532 16.8791 20.5866 15.8796 20.5866 14.8275C20.5866 12.1717 18.4256 10.0107 15.7698 10.0107C13.1141 10.0107 10.9531 12.1717 10.9531 14.8275C10.9531 15.8796 11.286 16.8787 11.9165 17.7178L12.3979 17.3562C11.8466 16.6223 11.5552 15.7481 11.5552 14.8275C11.5552 12.5034 13.4457 10.6128 15.7698 10.6128C18.0939 10.6128 19.9845 12.5034 19.9845 14.8275C19.9845 15.7484 19.6931 16.6226 19.1418 17.3562L19.6229 17.718Z" fill="white"/>
<path d="M15.7686 7C11.4528 7 7.94141 10.511 7.94141 14.8272C7.94141 17.3123 9.08242 19.5947 11.0713 21.0889L11.4329 20.6072C9.59691 19.2278 8.54353 17.1213 8.54353 14.8272C8.54353 10.8434 11.7849 7.60209 15.7686 7.60209C19.7523 7.60209 22.9937 10.8434 22.9937 14.8272C22.9937 17.1212 21.94 19.2283 20.1034 20.6079L20.4649 21.0896C22.4545 19.595 23.5958 17.3123 23.5958 14.8272C23.5958 10.511 20.0844 7 15.7686 7H15.7686Z" fill="white"/>
<path d="M15.7675 14.8278L16.0688 14.451C16.5965 13.7914 16.5965 12.854 16.0688 12.1944L15.7675 11.8174L15.4661 12.1942C14.9384 12.8538 14.9384 13.7912 15.4661 14.4509L15.7675 14.8278Z" fill="white"/>
<path d="M17.8224 13.1779L17.8766 12.6992L17.3979 12.7534C17.1607 12.7796 16.9393 12.8548 16.7389 12.9641C16.8397 13.5422 16.6959 14.1511 16.3058 14.6388L16.1953 14.7767L16.2269 14.7731C17.0667 14.6801 17.729 14.0178 17.8224 13.178L17.8224 13.1779Z" fill="white"/>
<path d="M14.1428 12.7534L13.6641 12.6992L13.7182 13.1779C13.8115 14.0179 14.4738 14.6802 15.3138 14.7735L15.3453 14.7771L15.2349 14.6392C14.8447 14.1515 14.701 13.5421 14.8017 12.9645C14.6012 12.8548 14.38 12.7796 14.1428 12.7534L14.1428 12.7534Z" fill="white"/>
<path d="M23.5977 20.5469H24.1997V21.149H23.5977V20.5469Z" fill="white"/>
<path d="M7.33984 20.5469H7.94193V21.149H7.33984V20.5469Z" fill="white"/>
<path d="M14.5651 18.5902C14.3162 18.5902 14.1135 18.3876 14.1135 18.1387H13.8125C13.8125 18.5538 14.1502 18.8913 14.5651 18.8913C14.98 18.8913 15.3177 18.5538 15.3177 18.1387H15.0167C15.0167 18.3876 14.814 18.5902 14.5651 18.5902Z" fill="white"/>
<path d="M16.9714 18.8913C17.3863 18.8913 17.724 18.5538 17.724 18.1387H17.4229C17.4229 18.3876 17.2203 18.5902 16.9714 18.5902C16.7225 18.5902 16.5198 18.3876 16.5198 18.1387H16.2188C16.2188 18.5538 16.5565 18.8913 16.9714 18.8913Z" fill="white"/>
<path d="M18.632 21.3309L18.6065 21.3207C18.3216 21.207 18.0181 21.1486 17.7117 21.1486H17.0708C18.079 20.6615 18.7777 19.6316 18.7777 18.4392C18.7777 16.7793 17.4272 15.4287 15.7673 15.4287C14.1074 15.4287 12.7568 16.7793 12.7568 18.4392C12.7568 19.6316 13.4555 20.6615 14.4638 21.1486H13.8228C13.5164 21.1486 13.2129 21.207 12.9284 21.3207L12.9029 21.3309C12.2098 21.6082 11.4701 21.7506 10.7238 21.7506H9.44531V23.2559H10.9018C11.5322 23.2559 12.1586 23.1541 12.7568 22.9548V25.0621H18.7777V22.9548C19.3759 23.1541 20.0023 23.2559 20.6328 23.2559H22.0892V21.7506H20.8107C20.0644 21.7506 19.3247 21.6082 18.632 21.3309H18.632ZM13.3588 18.4392C13.3588 18.1158 13.4238 17.8072 13.5399 17.5255C14.1963 17.1504 14.9561 16.9339 15.7671 16.9339C16.5782 16.9339 17.3379 17.1504 17.9943 17.5255C18.1104 17.8072 18.1755 18.1158 18.1755 18.4392C18.1755 19.7671 17.0951 20.8475 15.7671 20.8475C14.4391 20.8475 13.3587 19.7671 13.3587 18.4392H13.3588ZM15.7671 24.4601L14.864 22.6538L15.7671 21.1486L16.6703 22.6538L15.7671 24.4601Z" fill="white"/>
<defs>
<linearGradient id="paint0_linear_18246_3546" x1="16" y1="0" x2="16" y2="32" gradientUnits="userSpaceOnUse">
<stop stop-color="#32959D"/>
<stop offset="1" stop-color="#036696" stop-opacity="0.8"/>
</linearGradient>
</defs>
</svg>
