<svg width="133" height="122" viewBox="0 0 133 122" fill="none" xmlns="http://www.w3.org/2000/svg">
<path d="M33.958 20.8651C35.3889 12.2033 29.527 4.02155 20.8652 2.5907C12.2034 1.15985 4.02164 7.02172 2.59078 15.6836C1.15993 24.3454 7.0218 32.5271 15.6836 33.958C24.3455 35.3888 32.5272 29.527 33.958 20.8651Z" fill="white"/>
<path d="M34.1702 18.2773C34.1525 18.1927 34.142 18.1067 34.1388 18.0202C34.1388 17.8353 34.1106 17.5844 34.0855 17.2646C34.0855 17.0984 34.0636 16.9135 34.051 16.7097C34.0385 16.5059 33.9852 16.2864 33.9476 16.0481C33.8752 15.4952 33.7631 14.9482 33.6121 14.4115C33.2391 12.928 32.6439 11.5094 31.8469 10.2038C29.9626 7.05824 27.0413 4.66739 23.5852 3.44231C20.1291 2.21723 16.3542 2.23447 12.9094 3.49107C12.2049 3.74557 11.5187 4.04832 10.8558 4.39718C10.182 4.76721 9.53651 5.1864 8.9244 5.65132C8.29613 6.11627 7.70009 6.62326 7.14039 7.16882C6.58552 7.7415 6.07014 8.35115 5.5978 8.99359C4.61916 10.3086 3.85901 11.7727 3.34663 13.3298C2.26384 16.5522 2.26384 20.0401 3.34663 23.2625C3.85919 24.8198 4.61818 26.2849 5.59467 27.6018C6.06795 28.2435 6.58327 28.8531 7.13726 29.4266C7.69949 29.9716 8.29645 30.4795 8.9244 30.9473C9.53803 31.41 10.1834 31.8291 10.8558 32.2014C11.5187 32.5493 12.2049 32.851 12.9094 33.1044C15.5569 34.0664 18.413 34.3055 21.1836 33.7973C23.3828 33.3828 25.4695 32.5078 27.3067 31.2299C29.1439 29.9519 30.6901 28.2999 31.8437 26.3822C32.6402 25.0774 33.2353 23.66 33.6089 22.1777C33.7596 21.6398 33.8717 21.0918 33.9444 20.5379C33.982 20.2996 34.0259 20.0802 34.0479 19.8764C34.0698 19.6726 34.073 19.4876 34.0824 19.3214C34.1075 19.0079 34.1231 18.7508 34.1357 18.5689C34.1385 18.4825 34.149 18.3964 34.167 18.3118C34.1726 18.3974 34.1726 18.4833 34.167 18.5689C34.167 18.7539 34.167 19.0047 34.1419 19.3245C34.1419 19.4938 34.1419 19.6788 34.1231 19.8826C34.1043 20.0864 34.0667 20.3122 34.0353 20.5536C33.9709 21.1112 33.8662 21.6635 33.7218 22.2059C33.3658 23.7087 32.781 25.1479 31.988 26.4731C30.8315 28.4207 29.2744 30.1004 27.4199 31.4008C25.5653 32.7013 23.4557 33.593 21.2306 34.0168C18.4136 34.5485 15.5056 34.3157 12.8091 33.3427C12.0908 33.0859 11.391 32.78 10.7147 32.4271C10.0308 32.0539 9.37301 31.6349 8.74569 31.173C8.1049 30.6987 7.49635 30.1823 6.92405 29.6273C6.36021 29.0435 5.83646 28.4224 5.35638 27.768C4.35843 26.427 3.58247 24.9344 3.05818 23.3472C1.95457 20.0606 1.95457 16.5035 3.05818 13.2169C3.58162 11.6287 4.35879 10.1358 5.35952 8.79606C5.83859 8.14092 6.3624 7.51968 6.92719 6.93681C7.49951 6.37961 8.10918 5.86213 8.75196 5.38795C9.37778 4.92383 10.0358 4.50473 10.721 4.13381C11.3966 3.77967 12.0965 3.47373 12.8154 3.21829C15.5102 2.2468 18.4163 2.01617 21.2306 2.55047C23.4604 2.97694 25.5737 3.87331 27.4302 5.17995C29.2866 6.48658 30.8435 8.17353 31.9974 10.1286C32.7904 11.4538 33.3752 12.893 33.7312 14.3958C33.8756 14.9393 33.9804 15.4926 34.0448 16.0512C34.0761 16.2927 34.1137 16.5121 34.1325 16.7191C34.1514 16.926 34.1325 17.1079 34.1514 17.2772C34.1514 17.5907 34.1702 17.8478 34.1764 18.0328C34.1792 18.1144 34.1771 18.196 34.1702 18.2773Z" fill="#263238"/>
<path d="M36.9225 31.2923C36.9225 31.7321 36.792 32.162 36.5476 32.5276C36.3032 32.8933 35.9559 33.1782 35.5495 33.3463C35.1431 33.5145 34.696 33.5583 34.2647 33.4723C33.8334 33.3863 33.4373 33.1742 33.1265 32.863C32.8158 32.5519 32.6043 32.1555 32.5189 31.724C32.4335 31.2926 32.4779 30.8456 32.6467 30.4394C32.8154 30.0333 33.1008 29.6863 33.4668 29.4424C33.8328 29.1986 34.2629 29.0687 34.7027 29.0693C34.9944 29.0693 35.2833 29.1269 35.5529 29.2386C35.8224 29.3504 36.0672 29.5142 36.2734 29.7206C36.4796 29.9271 36.643 30.1722 36.7544 30.4418C36.8658 30.7115 36.9229 31.0005 36.9225 31.2923Z" fill="white"/>
<path d="M36.9241 31.2919C36.8958 31.2919 36.8958 31.0944 36.7955 30.7651C36.6563 30.3031 36.3701 29.8991 35.9803 29.6145C35.6975 29.4091 35.3684 29.2768 35.0222 29.2292C34.676 29.1816 34.3233 29.2203 33.9956 29.3417C33.5983 29.4902 33.2557 29.7565 33.0139 30.105C32.772 30.4536 32.6424 30.8677 32.6424 31.2919C32.6424 31.7161 32.772 32.1302 33.0139 32.4787C33.2557 32.8272 33.5983 33.0936 33.9956 33.2421C34.3233 33.3635 34.676 33.4021 35.0222 33.3545C35.3684 33.307 35.6975 33.1746 35.9803 32.9693C36.3694 32.684 36.6554 32.2803 36.7955 31.8186C36.8958 31.5051 36.8958 31.2919 36.9241 31.2919C36.9735 31.4746 36.9735 31.6672 36.9241 31.85C36.8205 32.3631 36.537 32.8224 36.1245 33.1449C35.8164 33.3887 35.4515 33.5506 35.0638 33.6153C34.6762 33.68 34.2785 33.6454 33.9079 33.5148C33.4481 33.3523 33.0501 33.0513 32.7686 32.6532C32.4871 32.2551 32.3359 31.7795 32.3359 31.2919C32.3359 30.8043 32.4871 30.3287 32.7686 29.9306C33.0501 29.5325 33.4481 29.2314 33.9079 29.0689C34.2784 28.9375 34.6763 28.9024 35.0641 28.9672C35.4518 29.0319 35.8168 29.1942 36.1245 29.4389C36.537 29.7614 36.8205 30.2206 36.9241 30.7338C36.973 30.9166 36.973 31.1091 36.9241 31.2919Z" fill="#263238"/>
<path d="M12.6469 19.9041C13.4313 19.9041 14.0672 19.2682 14.0672 18.4838C14.0672 17.6994 13.4313 17.0635 12.6469 17.0635C11.8625 17.0635 11.2266 17.6994 11.2266 18.4838C11.2266 19.2682 11.8625 19.9041 12.6469 19.9041Z" fill="#263238"/>
<path d="M18.2758 19.9041C19.0602 19.9041 19.6961 19.2682 19.6961 18.4838C19.6961 17.6994 19.0602 17.0635 18.2758 17.0635C17.4914 17.0635 16.8555 17.6994 16.8555 18.4838C16.8555 19.2682 17.4914 19.9041 18.2758 19.9041Z" fill="#263238"/>
<path d="M23.9008 19.9041C24.6852 19.9041 25.3211 19.2682 25.3211 18.4838C25.3211 17.6994 24.6852 17.0635 23.9008 17.0635C23.1164 17.0635 22.4805 17.6994 22.4805 18.4838C22.4805 19.2682 23.1164 19.9041 23.9008 19.9041Z" fill="#263238"/>
<path d="M95.8197 90.6058C95.1174 90.1511 85.7521 88.2041 85.7521 88.2041L63.1777 88.7935L55.0916 90.2828C55.0916 90.2828 53.5929 115.366 53.8155 115.826C54.0381 116.287 70.6837 116.005 71.1257 116.454C71.5678 116.902 86.9373 118.557 86.9373 118.557L101.162 93.0325L95.8197 90.6058Z" fill="#AE7461"/>
<path d="M117.128 96.9898C112.002 92.6379 91.7316 88.957 90.5966 88.957C90.5966 88.957 89.0289 101.586 74.9199 101.586C62.9209 101.586 60.0552 89.3584 60.0552 89.3584L51.2951 90.7348C49.9469 90.9919 37.9668 93.798 36.0009 94.3561C31.9093 95.5162 23.5254 98.4853 21.0955 107.346C20.1988 110.625 20.2239 116.529 19.1484 121.239H40.4876C40.4876 121.239 109.38 121.298 109.387 121.239L132.551 121.257C132.551 121.257 122.565 101.602 117.128 96.9898Z" fill="#01818C"/>
<path d="M37.9663 121.295C37.9224 121.295 37.0257 118.959 35.9408 116.046C34.856 113.134 34.0251 110.757 34.0596 110.741C34.0941 110.726 35.0002 113.074 36.0851 115.99C37.1699 118.906 38.007 121.279 37.9663 121.295Z" fill="#263238"/>
<path d="M106.502 121.188C106.478 121.061 106.468 120.931 106.47 120.802C106.47 120.52 106.455 120.175 106.445 119.749C106.445 118.824 106.414 117.614 106.395 116.275C106.376 114.936 106.307 113.694 106.241 112.807C106.21 112.39 106.185 112.039 106.163 111.76C106.146 111.631 106.141 111.501 106.147 111.371C106.189 111.494 106.215 111.621 106.226 111.75C106.266 111.998 106.31 112.356 106.357 112.798C106.451 113.685 106.53 114.914 106.558 116.272C106.586 117.629 106.577 118.858 106.558 119.749C106.558 120.166 106.539 120.52 106.53 120.802C106.535 120.931 106.526 121.061 106.502 121.188Z" fill="#263238"/>
<g opacity="0.3">
<path opacity="0.3" d="M65.9664 121.307C66.9321 117.165 68.0107 113.058 68.2928 108.524C68.2955 107.749 68.4138 106.979 68.644 106.239C69.2084 104.753 70.7854 103.652 70.8387 102.062C70.8764 100.398 68.9575 99.156 67.3334 99.4695C65.7093 99.7831 64.474 101.238 63.919 102.809C63.3641 104.379 63.3515 106.079 63.292 107.744C63.1164 111.97 60.0563 117.19 59.0938 121.307" fill="black"/>
</g>
<path d="M60.1097 16.71C52.8702 18.4595 46.0759 25.4607 43.0378 32.139C39.9996 38.8172 39.8335 45.135 40.7615 52.3901C41.3228 56.7796 42.5549 61.2537 43.3545 65.4394C44.1853 69.7976 42.1003 75.8989 39.73 79.6676C38.827 81.091 37.6231 82.6305 38.0557 84.2515C38.4539 85.7533 40.1062 86.5654 41.6332 86.9636C44.7838 87.7806 48.1041 87.664 51.1897 86.6281C51.0538 87.7024 50.9179 88.7768 50.7821 89.8512C59.0249 89.685 66.9636 86.9635 74.7392 84.2734C77.3447 83.3736 80.0693 82.3922 81.8972 80.3668C82.9037 79.2475 83.5715 77.8805 84.208 76.526C86.7684 71.0694 89.0344 65.4795 90.996 59.7801" fill="#263238"/>
<path d="M97.1688 26.6423C90.8981 18.9952 82.5079 14.5932 72.6284 14.4302C67.0538 14.3361 64.7493 15.4962 60.733 16.5779C56.7166 17.6596 53.0984 19.8135 50.6999 23.2154C47.8561 27.2506 45.467 31.7717 44.9277 36.6974C44.3759 41.739 43.8241 46.8151 44.2034 51.8755C44.5828 56.936 45.9592 62.0278 48.9378 66.1319L61.7927 68.3706C68.9005 68.612 76.1055 68.844 83.0315 67.223C89.9575 65.6021 96.6859 61.8741 100.395 55.8073C105.556 47.3606 103.417 34.2926 97.1688 26.6423Z" fill="#263238"/>
<path d="M85.7056 26.5576L68.549 19.7383L64.0655 20.2587C53.9791 20.2964 47.0217 31.4174 46.9559 39.5881C46.8838 48.6618 47.1534 59.7452 48.5926 66.4361C51.4927 79.8867 62.9744 81.006 62.9744 81.006C62.9744 81.006 62.7392 88.1734 62.6608 92.6914L88.9318 90.7945L90.2518 31.1666C90.21 29.9682 89.7194 28.8293 88.8774 27.9757C88.0353 27.122 86.9033 26.6159 85.7056 26.5576Z" fill="#AE7461"/>
<path d="M53.7305 50.608C53.75 51.0623 53.9467 51.491 54.2784 51.8021C54.6101 52.1133 55.0504 52.2823 55.5051 52.2728C55.7274 52.2783 55.9485 52.2391 56.1554 52.1577C56.3624 52.0763 56.5509 51.9542 56.7099 51.7987C56.8689 51.6433 56.9951 51.4575 57.0811 51.2525C57.1671 51.0474 57.2112 50.8272 57.2107 50.6048C57.1903 50.1513 56.9939 49.7236 56.663 49.4126C56.3322 49.1017 55.8932 48.9321 55.4392 48.94C55.2168 48.9345 54.9955 48.9736 54.7884 49.055C54.5813 49.1364 54.3926 49.2584 54.2333 49.4138C54.0741 49.5693 53.9476 49.755 53.8612 49.9601C53.7749 50.1652 53.7304 50.3854 53.7305 50.608Z" fill="#263238"/>
<path d="M49.8259 46.2411C50.0547 46.4481 51.359 45.4573 53.2747 45.382C55.1904 45.3068 56.639 46.1439 56.8365 45.9151C56.9337 45.8147 56.6891 45.4322 56.0589 45.0403C55.1925 44.5326 54.196 44.2906 53.1932 44.3442C52.2077 44.3741 51.2545 44.7021 50.4592 45.2848C49.876 45.7457 49.6942 46.1471 49.8259 46.2411Z" fill="#263238"/>
<path d="M62.0514 58.8114C62.0514 58.7048 60.8788 58.5668 58.9819 58.4288C58.499 58.4069 58.0413 58.3379 57.9441 58.015C57.8469 57.692 57.9848 57.1496 58.1855 56.579L59.3989 52.8605C61.0794 47.568 62.2646 43.2287 62.0514 43.1629C61.8382 43.097 60.305 47.3329 58.6244 52.6253C58.2231 53.9296 57.8385 55.1754 57.4706 56.3627C57.3201 56.9145 57.0411 57.5478 57.3264 58.2439C57.4048 58.4087 57.5199 58.5534 57.6628 58.667C57.8057 58.7806 57.9727 58.86 58.151 58.8991C58.4198 58.9566 58.6947 58.9797 58.9693 58.9681C60.885 58.9869 62.0514 58.918 62.0514 58.8114Z" fill="#263238"/>
<path d="M62.9518 80.9898C62.9518 80.9898 72.1133 81.0776 80.8577 75.1455C80.8577 75.1455 76.5341 84.818 62.8828 84.2944L62.9518 80.9898Z" fill="#6F4439"/>
<path d="M50.2884 41.1966C50.627 41.6355 52.0442 41.253 53.7373 41.3C55.421 41.3 56.8319 41.7108 57.1862 41.2781C57.3398 41.068 57.1329 40.6322 56.5278 40.2058C55.6986 39.6864 54.7425 39.4052 53.7642 39.393C52.7859 39.3808 51.8231 39.6382 50.9813 40.1368C50.3511 40.5507 50.1379 40.9834 50.2884 41.1966Z" fill="#263238"/>
<path d="M75.416 50.2077C75.4281 50.6617 75.2625 51.1026 74.9545 51.4363C74.6465 51.7701 74.2203 51.9705 73.7668 51.9949C73.5454 52.0163 73.3219 51.9933 73.1095 51.9272C72.8971 51.861 72.7001 51.753 72.5301 51.6096C72.3601 51.4661 72.2204 51.2901 72.1194 51.0919C72.0185 50.8937 71.9581 50.6773 71.942 50.4554C71.9299 50.0014 72.0955 49.5606 72.4035 49.2268C72.7116 48.893 73.1377 48.6926 73.5912 48.6683C73.8127 48.6463 74.0364 48.669 74.2489 48.735C74.4615 48.801 74.6587 48.909 74.8288 49.0525C74.9989 49.196 75.1385 49.3722 75.2394 49.5706C75.3403 49.7691 75.4003 49.9857 75.416 50.2077Z" fill="#263238"/>
<path d="M76.4194 45.3977C76.1968 45.661 74.6949 44.6671 72.6413 44.7706C70.5876 44.8741 69.1391 45.9996 68.9008 45.7582C68.7848 45.6516 69.0043 45.1876 69.6314 44.6734C70.4866 44.0074 71.5272 43.623 72.6099 43.5729C73.6783 43.5109 74.7384 43.7921 75.6355 44.3755C76.294 44.8396 76.5322 45.2785 76.4194 45.3977Z" fill="#263238"/>
<path d="M73.63 38.8223C73.2694 39.255 71.8147 38.838 70.0745 38.8474C68.3344 38.8035 66.8671 39.1892 66.5191 38.7502C66.3654 38.537 66.5912 38.1043 67.2276 37.6905C68.0978 37.1761 69.0954 36.9175 70.1059 36.9443C71.1133 36.9355 72.1022 37.215 72.9559 37.7501C73.5798 38.1765 73.7899 38.606 73.63 38.8223Z" fill="#263238"/>
<path d="M103.079 35.5905C97.0126 23.2435 87.9107 15.0133 71.6445 14.4238L84.5527 45.8744C90.6228 54.6879 90.6196 65.3763 87.4153 75.5881C86.5186 78.4475 85.3083 81.7553 86.9889 84.2353C88.6694 86.7154 92.5573 86.7812 95.0906 85.1571C97.3825 83.6867 98.8342 81.2724 100.129 78.852C100.061 79.2973 100.141 79.7525 100.355 80.1486C100.57 80.5447 100.907 80.86 101.317 81.0467C102.44 81.4982 103.772 80.9526 104.575 80.0434C105.378 79.1341 105.751 77.9333 106.055 76.7607C107.121 72.6408 107.566 68.3862 107.77 64.1347C108.234 54.3963 107.372 44.3413 103.079 35.5905Z" fill="#263238"/>
<path d="M87.9121 53.97C87.8588 52.9573 88.8966 50.5211 89.8842 50.3017C92.5273 49.7404 97.3432 49.6746 97.7571 56.4563C98.3277 65.7024 88.9248 64.3668 88.8904 64.1034C88.8653 63.8965 88.094 57.4596 87.9121 53.97Z" fill="#AE7461"/>
<path d="M91.2358 60.5547C91.2735 60.5233 91.4052 60.6581 91.6842 60.7647C92.0774 60.9065 92.5103 60.8896 92.8913 60.7177C93.8319 60.2976 94.5719 58.6954 94.5154 57.0274C94.4903 56.2329 94.2879 55.4541 93.9228 54.748C93.6093 54.0896 93.1296 53.6412 92.6342 53.5848C92.4434 53.5436 92.2442 53.5713 92.0719 53.6632C91.8997 53.7551 91.7657 53.905 91.6936 54.0865C91.587 54.353 91.656 54.5317 91.609 54.5505C91.5619 54.5693 91.3989 54.4094 91.4522 54.0237C91.4837 53.7919 91.5944 53.5781 91.7657 53.4186C92.011 53.2142 92.3249 53.1111 92.6436 53.1302C93.3585 53.1302 94.042 53.7572 94.4151 54.4596C94.8561 55.2379 95.1025 56.1114 95.1331 57.0055C95.1864 58.871 94.3398 60.6738 93.0261 61.1441C92.7819 61.2305 92.5214 61.2612 92.2638 61.2341C92.0061 61.207 91.7578 61.1227 91.5368 60.9873C91.2672 60.7898 91.2108 60.586 91.2358 60.5547Z" fill="#6F4439"/>
<path d="M90.2688 50.3256L87.9142 53.1474C65.7504 39.7752 57.9403 18.7402 59.0471 20.1918C59.0471 20.1918 65.9981 17.3324 73.5418 18.6242C81.0854 19.9159 95.3982 23.6846 95.1756 32.5827C94.953 41.4808 90.2688 50.3256 90.2688 50.3256Z" fill="#263238"/>
<path d="M60.6746 63.1649C60.361 63.306 60.2137 64.325 60.3109 64.7326C60.3525 64.912 60.4365 65.0789 60.556 65.2191C60.6755 65.3593 60.8269 65.4688 60.9975 65.5383C61.3017 65.6366 61.627 65.6496 61.9381 65.576C62.71 65.4267 63.4629 65.1922 64.183 64.8768C64.948 64.5633 66.0297 63.8453 66.7759 63.4565C65.5751 62.8482 64.0294 62.5974 62.7533 62.45C62.3001 62.3647 61.8313 62.446 61.4333 62.6789" fill="#6F4439"/>
<path d="M60.9789 63.0906C60.8123 62.9801 60.6878 62.8165 60.6258 62.6264C60.5638 62.4363 60.5678 62.2309 60.6371 62.0434C60.7129 61.8582 60.8273 61.6914 60.9728 61.5541C61.1182 61.4167 61.2913 61.312 61.4805 61.247C61.8595 61.1219 62.2573 61.0636 62.6563 61.0745C63.5969 61.0745 64.2867 61.3442 65.1645 61.7016C66.0503 62.0506 66.8333 62.6179 67.4408 63.3508C65.2461 63.1658 63.2395 62.6892 60.9914 63.0968" fill="#6F4439"/>
<path d="M60.5006 65.2568C60.4818 65.2756 60.3345 65.1941 60.1871 64.9433C60.0999 64.7461 60.0536 64.5333 60.0509 64.3178C60.0482 64.1023 60.0892 63.8884 60.1714 63.6891C60.3006 63.403 60.4949 63.1511 60.7388 62.9535C60.9827 62.7559 61.2694 62.618 61.5761 62.551C62.2782 62.3885 63.0047 62.3598 63.7175 62.4663C64.9776 62.6056 66.2209 62.8681 67.4298 63.2502C68.3704 63.5418 68.9065 63.7769 68.8877 63.8396C68.8689 63.9023 68.2826 63.7895 67.342 63.5857C66.1308 63.3082 64.9051 63.0988 63.6705 62.9586C63.0138 62.8593 62.3453 62.8699 61.6921 62.9899C61.4435 63.0326 61.2072 63.129 60.9997 63.2725C60.7923 63.4161 60.6188 63.6032 60.4912 63.8208C60.3405 64.1382 60.3007 64.4971 60.3784 64.8398C60.4411 65.0938 60.5289 65.216 60.5006 65.2568Z" fill="#263238"/>
<path d="M68.2993 69.8662C68.2586 69.9038 67.9451 69.5244 67.3054 69.098C66.4828 68.5297 65.5118 68.2147 64.5123 68.1919C63.5127 68.169 62.5284 68.4393 61.6806 68.9694C61.0222 69.3708 60.693 69.7345 60.6522 69.6937C60.6115 69.6529 60.8968 69.2485 61.5521 68.7782C62.4164 68.1619 63.4568 67.8418 64.5181 67.8655C65.5793 67.8892 66.6044 68.2556 67.4403 68.9099C68.0767 69.4084 68.3213 69.8473 68.2993 69.8662Z" fill="#6F4439"/>
<path d="M91.1678 68.8375C92.9669 68.8375 94.4254 67.379 94.4254 65.5799C94.4254 63.7807 92.9669 62.3223 91.1678 62.3223C89.3686 62.3223 87.9102 63.7807 87.9102 65.5799C87.9102 67.379 89.3686 68.8375 91.1678 68.8375Z" fill="#455A64"/>
<path d="M59.8737 16.7094C59.6982 17.2079 68.289 15.4176 71.9291 17.6249C75.5693 19.8322 78.3911 23.1525 80.846 26.6265C85.7999 33.6402 89.81 41.7514 90.2521 50.3265C91.2177 49.9315 93.8671 50.1008 95.1651 50.9254C95.1651 50.9254 99.7177 23.2121 72.6064 14.43C72.6189 14.43 61.4728 12.1851 59.8737 16.7094Z" fill="#455A64"/>
<path d="M62.2227 14.9628C62.3852 14.8882 62.5542 14.8284 62.7274 14.7841C63.2172 14.6286 63.7183 14.5112 64.2261 14.4329C64.5585 14.3984 64.9253 14.3201 65.3329 14.3138L65.96 14.2793H66.6466C67.7249 14.3242 68.7961 14.4754 69.8447 14.7308C72.5661 15.4376 75.1361 16.6339 77.4291 18.2612C80.2747 20.2029 82.8079 22.5669 84.9413 25.2718C87.0815 27.961 88.818 30.948 90.0958 34.1385C90.3655 34.8816 90.6508 35.5965 90.8891 36.3082C91.1274 37.0199 91.3124 37.7191 91.5162 38.3932L91.9676 40.3779C92.1087 41.0049 92.1777 41.632 92.2812 42.2246C92.3219 42.5381 92.3815 42.8078 92.4066 43.0899C92.4317 43.3721 92.4567 43.648 92.4818 43.9177C92.5226 44.4538 92.5822 44.9586 92.601 45.432C92.601 46.3727 92.648 47.1972 92.6167 47.8619C92.5853 48.5266 92.5414 49.0377 92.5163 49.3951C92.5136 49.5741 92.4947 49.7525 92.4599 49.9281C92.4471 49.7496 92.4471 49.5705 92.4599 49.392C92.4599 49.0314 92.4818 48.5172 92.4975 47.8588C92.5132 47.2004 92.4505 46.3821 92.4254 45.4415C92.3972 44.9712 92.3313 44.4695 92.2812 43.9365C92.253 43.6731 92.2247 43.3972 92.1965 43.1182C92.1683 42.8391 92.1056 42.5538 92.0586 42.2591C91.952 41.6759 91.8736 41.0582 91.7294 40.428C91.5851 39.7978 91.4158 39.1426 91.2622 38.4653C91.1086 37.7881 90.8452 37.1077 90.6351 36.396C90.4251 35.6843 90.1084 34.9851 89.8356 34.2514C88.5525 31.0958 86.8253 28.1396 84.7062 25.4725C82.5984 22.8001 80.1046 20.4564 77.3068 18.5183C75.0473 16.8986 72.5172 15.6946 69.8353 14.9628C68.8082 14.6993 67.7583 14.5345 66.6999 14.4706L65.9725 14.4643L65.3455 14.4831C64.941 14.4831 64.5773 14.5489 64.2481 14.574C63.7431 14.6397 63.2426 14.736 62.7494 14.8625C62.5764 14.9083 62.4004 14.9418 62.2227 14.9628Z" fill="#263238"/>
<path d="M62.3263 121.189C62.3263 121.189 64.7374 111.814 65.7 107.961C65.9284 107.044 65.9731 106.092 65.8317 105.158L65.5777 103.474C66.5622 103.302 66.9761 103.11 67.879 102.342C68.2038 102.384 68.5335 102.322 68.8204 102.164C69.1073 102.006 69.3365 101.761 69.4749 101.464C69.8637 100.706 70.3497 99.4202 70.82 98.2225C71.6791 96.0277 71.9801 92.9802 71.9801 92.9802C71.9801 92.9802 73.4568 90.2242 73.369 89.0547C73.2812 87.8853 72.4535 85.9696 72.4535 85.9696C72.4535 85.9696 72.6636 84.0884 72.3124 83.3202C71.7763 82.1319 70.403 81.508 68.9764 81.9062C67.7599 82.2448 61.7933 83.4487 61.7933 83.4487L60.6803 82.2887L60.3918 78.1312L63.7623 76.9649C63.7623 76.9649 65.9571 77.9306 67.5592 77.3223C68.1247 77.1257 68.619 76.7656 68.9795 76.2876C69.0434 76.1964 69.0869 76.0925 69.1068 75.983C69.1267 75.8734 69.1227 75.7609 69.095 75.653C69.0673 75.5452 69.0165 75.4446 68.9463 75.3582C68.876 75.2719 68.7879 75.2017 68.688 75.1526C67.2865 74.4566 64.0602 72.8983 63.0193 72.798C61.6773 72.6663 56.4915 75.162 56.0745 75.9333C55.9867 76.0901 55.3502 85.2484 55.3502 85.2484C54.4971 86.2231 54.0065 87.4624 53.9613 88.7569C53.9613 90.7949 53.4439 106.001 53.4439 106.001L45.8125 121.183" fill="#AE7461"/>
<path d="M45.8125 121.182C45.8125 121.182 45.8501 121.091 45.9379 120.915L46.3204 120.135C46.6653 119.445 47.167 118.432 47.816 117.125L53.3938 105.969V105.991C53.4784 103.069 53.5725 99.8144 53.6759 96.2714C53.7261 94.5031 53.7794 92.6679 53.8358 90.7658C53.8358 90.2923 53.8641 89.8252 53.8797 89.3298C53.8755 88.8387 53.9101 88.3481 53.9832 87.8624C54.1803 86.8663 54.6343 85.939 55.3 85.1723L55.2812 85.2194C55.4275 83.1688 55.5801 81.0556 55.739 78.8797C55.7798 78.3373 55.8236 77.7917 55.8675 77.243C55.8926 76.9671 55.9146 76.6912 55.9397 76.4153C55.9553 76.2742 55.9647 76.1457 55.9867 75.992C55.9924 75.9505 56.0019 75.9096 56.0149 75.8698L56.087 75.7788C56.1311 75.7181 56.1839 75.6642 56.2438 75.6189C56.6903 75.2698 57.1678 74.9623 57.6704 74.7003C58.1657 74.4244 58.6768 74.1767 59.1941 73.9321C60.236 73.4339 61.3281 73.0481 62.4518 72.7815C62.7465 72.7109 63.0537 72.7109 63.3485 72.7815C63.6356 72.8537 63.9183 72.9427 64.195 73.048C64.75 73.2518 65.2955 73.4806 65.8379 73.7189C66.3803 73.9572 66.9196 74.2112 67.4589 74.4683L68.2678 74.8602L68.6691 75.0577C68.8214 75.125 68.9517 75.2336 69.0454 75.3712C69.1429 75.5078 69.1971 75.6705 69.201 75.8382C69.2049 76.0059 69.1583 76.1709 69.0673 76.3119C68.8883 76.5682 68.6667 76.7919 68.412 76.9734C68.1581 77.1533 67.882 77.2998 67.5906 77.4092C67.2965 77.5143 66.9896 77.5797 66.6782 77.6036C66.1715 77.6344 65.663 77.5954 65.167 77.4876C64.6747 77.3878 64.1928 77.2419 63.7278 77.0518H63.7874L60.4201 78.2181L60.4859 78.1115C60.5841 79.512 60.6792 80.8978 60.7712 82.269L60.7493 82.2188L61.8623 83.3789L61.7902 83.357C64.1793 82.8647 66.5277 82.4164 68.7914 81.8614C69.3581 81.6805 69.9621 81.6503 70.5441 81.7736C71.1203 81.9105 71.6378 82.228 72.0208 82.6797C72.2101 82.9047 72.3577 83.1616 72.4566 83.4385C72.5335 83.7146 72.5788 83.9986 72.5914 84.285C72.6173 84.8446 72.6005 85.4054 72.5413 85.9624V85.9248C72.7909 86.5143 73.0076 87.1172 73.1903 87.7308C73.2826 88.0344 73.3569 88.3433 73.4129 88.6557C73.4739 88.9663 73.4739 89.2857 73.4129 89.5963C73.2785 90.2 73.0853 90.7891 72.836 91.3552C72.5977 91.9164 72.3375 92.4557 72.0616 92.9856V92.9605C71.9304 94.1739 71.7146 95.3766 71.4157 96.5599C71.105 97.675 70.7184 98.7676 70.2588 99.83C70.0487 100.351 69.8386 100.865 69.5972 101.357C69.4807 101.611 69.3119 101.837 69.1018 102.022C68.8904 102.203 68.6334 102.322 68.3587 102.367C68.223 102.389 68.085 102.394 67.948 102.382H67.8978H67.9449L67.9261 102.398L67.8508 102.461L67.6972 102.586C67.4994 102.752 67.2898 102.902 67.0701 103.037C66.6262 103.289 66.1373 103.452 65.631 103.517L65.6749 103.454C65.7752 104.154 65.8912 104.828 65.9884 105.502C66.052 106.157 66.0266 106.817 65.9132 107.465C65.7909 108.092 65.5996 108.681 65.4711 109.264L65.0415 110.942C64.4835 113.105 64.0069 114.964 63.615 116.482L62.712 119.965C62.6054 120.36 62.527 120.661 62.4737 120.868C62.4204 121.075 62.3859 121.182 62.3859 121.182C62.3859 121.182 62.4079 121.075 62.458 120.868L62.6806 119.962L63.5554 116.469C63.9379 114.949 64.4082 113.089 64.9538 110.926C65.0917 110.383 65.2339 109.822 65.3802 109.245C65.5181 108.665 65.6937 108.07 65.8128 107.452C65.9242 106.812 65.9474 106.16 65.8818 105.514C65.8003 104.853 65.6812 104.172 65.5683 103.473V103.42H65.6216C66.1147 103.355 66.5906 103.195 67.0231 102.95C67.2422 102.816 67.4517 102.667 67.6502 102.504L67.7975 102.382L67.8728 102.319H67.8916L67.9417 102.304H67.9982C68.1237 102.316 68.2503 102.311 68.3744 102.288C68.6297 102.24 68.8689 102.129 69.0699 101.965C69.271 101.801 69.4275 101.588 69.5251 101.348C69.7634 100.862 69.9703 100.351 70.1772 99.83C70.6341 98.7729 71.0175 97.6855 71.3248 96.5756C71.614 95.3964 71.8235 94.1992 71.9518 92.9919C72.2278 92.4683 72.4848 91.9258 72.72 91.3709C72.9666 90.8155 73.1567 90.2367 73.2875 89.6433C73.3455 89.3451 73.3455 89.0385 73.2875 88.7403C73.231 88.4345 73.1578 88.132 73.068 87.8342C72.8868 87.2257 72.6712 86.628 72.4221 86.0439V86.0251V85.9499C72.4818 85.4012 72.4975 84.8487 72.4692 84.2976C72.4596 84.0227 72.4164 83.75 72.3406 83.4855C72.248 83.2286 72.1111 82.9898 71.9362 82.7801C71.5727 82.3542 71.0828 82.0555 70.5378 81.9272C69.9805 81.8088 69.4017 81.8401 68.8604 82.0182C66.5873 82.5606 64.2452 83.0246 61.8529 83.5169H61.809L61.7777 83.4855L60.6646 82.3223L60.6458 82.3035V82.2721C60.5517 80.9009 60.4566 79.5162 60.3605 78.1178V78.0551L60.4201 78.0363L63.7874 76.8668H63.8156H63.847C64.7528 77.2562 65.7336 77.4403 66.719 77.4061C67.0143 77.3829 67.3053 77.3207 67.5843 77.2211C67.8625 77.1179 68.126 76.9787 68.3681 76.8072C68.6121 76.6364 68.8243 76.4241 68.9952 76.1802C69.0689 76.0661 69.1068 75.9326 69.1041 75.7968C69.1013 75.661 69.0579 75.5292 68.9795 75.4183C68.9009 75.3067 68.7922 75.2197 68.666 75.1674L68.2647 74.9668L67.3836 74.6094C66.8475 74.3523 66.3082 74.1014 65.769 73.8632C65.2297 73.6249 64.6873 73.3928 64.1386 73.1922C63.5899 72.9915 63.0349 72.7815 62.4768 72.9225C61.3644 73.1953 60.284 73.5852 59.2537 74.0858C58.7395 74.3303 58.2285 74.5749 57.7362 74.8476C57.2444 75.104 56.7773 75.4052 56.341 75.7475C56.2883 75.785 56.2418 75.8305 56.203 75.8823L56.1434 75.9544C56.1417 75.9816 56.1417 76.0088 56.1434 76.0359C56.1278 76.1582 56.1121 76.3056 56.0996 76.4404C56.0745 76.7163 56.0494 76.9891 56.0274 77.265C55.9835 77.8147 55.9397 78.3603 55.8958 78.9016C55.7359 81.0713 55.5822 83.1877 55.4317 85.2382V85.2632L55.4129 85.2852C54.7634 86.0284 54.3202 86.9289 54.1274 87.8969C54.0568 88.3744 54.0222 88.8565 54.024 89.3392C54.024 89.822 53.9957 90.3017 53.9801 90.7752C53.9236 92.6794 53.8672 94.5156 53.8108 96.284C53.701 99.8175 53.5976 103.072 53.4972 106.004C51.1112 110.728 49.1987 114.522 47.8756 117.137C47.2171 118.441 46.7029 119.448 46.3549 120.135C46.1825 120.473 46.0414 120.733 45.9567 120.909C45.8721 121.085 45.8125 121.182 45.8125 121.182Z" fill="#6F4439"/>
<path d="M65.5225 103.477C65.8906 103.406 66.2493 103.294 66.5916 103.141C66.9845 102.948 67.3409 102.688 67.6451 102.373C68.0475 101.952 68.4125 101.496 68.7362 101.012C69.4918 99.9587 70.075 98.5039 70.6487 96.8986C70.9947 96.0754 71.2064 95.2021 71.2758 94.3119C71.2919 93.8474 71.1985 93.3855 71.003 92.9637C70.784 92.5359 70.4605 92.1703 70.0624 91.9009C69.2562 91.3857 68.3332 91.0816 67.3786 91.0167C66.4568 90.9164 65.5475 90.8976 64.6916 90.7282C63.892 90.5482 63.1164 90.2745 62.3809 89.9131C61.7469 89.6076 61.0686 89.4044 60.3711 89.3111C60.0685 89.2825 59.7634 89.2973 59.465 89.355C59.1996 89.417 58.9404 89.503 58.6906 89.6121C58.2875 89.7846 57.9065 90.0046 57.5556 90.2673C57.3318 90.4298 57.1431 90.6356 57.0006 90.8725C56.9652 90.9346 56.9378 91.001 56.9191 91.07C56.9191 91.117 56.8971 91.1421 56.8971 91.1421C56.8937 91.1172 56.8937 91.0918 56.8971 91.0669C56.9073 90.9937 56.9295 90.9227 56.963 90.8568C57.098 90.6112 57.284 90.3974 57.5085 90.2297C57.8576 89.954 58.24 89.7233 58.6467 89.5431C58.9005 89.4251 59.1651 89.3317 59.4368 89.264C59.7459 89.1997 60.0629 89.1817 60.3774 89.2107C61.0892 89.2953 61.7827 89.4944 62.431 89.8002C63.1593 90.1531 63.9264 90.4193 64.7167 90.5934C65.557 90.7533 66.4599 90.769 67.3943 90.8725C68.3763 90.9359 69.326 91.2489 70.1534 91.7817C70.5724 92.0657 70.9105 92.4535 71.1347 92.9073C71.3422 93.3512 71.441 93.838 71.4232 94.3276C71.3575 95.2346 71.1458 96.125 70.7961 96.9644C70.2161 98.5791 69.6141 100.031 68.8365 101.094C68.5041 101.578 68.1296 102.033 67.7172 102.451C67.4002 102.768 67.0298 103.026 66.623 103.213C66.3659 103.326 66.0965 103.408 65.8203 103.458L65.6008 103.486C65.5744 103.486 65.5481 103.483 65.5225 103.477Z" fill="#6F4439"/>
<path d="M65.6882 104.255C65.568 103.91 65.4686 103.558 65.3904 103.201C65.2179 102.549 64.9577 101.653 64.6222 100.693C64.2867 99.7338 63.9512 98.8496 63.7067 98.2163C63.5584 97.8812 63.4358 97.5353 63.3398 97.1816C63.5226 97.4994 63.6809 97.8306 63.8133 98.1724C64.0861 98.7995 64.4403 99.6586 64.779 100.64C65.0657 101.476 65.3075 102.327 65.5032 103.189C65.5753 103.521 65.6286 103.791 65.6569 103.976C65.6812 104.067 65.6918 104.161 65.6882 104.255Z" fill="#6F4439"/>
<path d="M63.0744 97.219C63.1231 97.2281 63.173 97.2281 63.2217 97.219C63.286 97.1879 63.3432 97.144 63.3901 97.0901C63.437 97.0363 63.4725 96.9735 63.4945 96.9055C63.602 96.7069 63.6862 96.4965 63.7453 96.2784C63.8268 96.0022 63.8268 95.7082 63.7453 95.4319L63.7014 95.2939L63.8362 95.3473C64.6484 95.6516 65.4763 95.9122 66.3163 96.1279L66.5922 96.2032L66.7208 96.2377L66.6298 96.338C66.4489 96.5388 66.3221 96.7822 66.2612 97.0455C66.2003 97.3088 66.2074 97.5832 66.2818 97.843L66.3006 97.9057L66.2411 97.9339C65.6382 98.2173 65.1495 98.6971 64.8552 99.2946C64.7511 99.5309 64.6601 99.7727 64.5825 100.019C64.5782 99.9494 64.5846 99.8796 64.6013 99.812C64.6361 99.6207 64.694 99.4343 64.7737 99.257C65.0535 98.6194 65.5515 98.1024 66.1783 97.7991L66.1407 97.8869C66.0533 97.6016 66.0415 97.2984 66.1063 97.0072C66.1712 96.7159 66.3105 96.4464 66.5107 96.2251L66.5483 96.36L66.2724 96.2847C65.4265 96.0695 64.5959 95.7982 63.7861 95.4727L63.877 95.3911C63.9611 95.6926 63.9546 96.0121 63.8582 96.3098C63.7896 96.5304 63.6926 96.7412 63.5697 96.9369C63.5403 97.0095 63.4957 97.0751 63.4389 97.1291C63.3822 97.1832 63.3145 97.2245 63.2405 97.2504C63.1214 97.2661 63.0712 97.2379 63.0744 97.219Z" fill="#6F4439"/>
<path d="M55.8789 88.0011C55.9217 87.9423 55.9711 87.8887 56.0263 87.8412C56.1795 87.7003 56.3489 87.5782 56.5311 87.4775C57.2127 87.1321 57.962 86.9405 58.7258 86.9163C60.6509 86.8191 63.3003 86.7627 66.2349 86.6749C66.9686 86.6749 67.6803 86.6279 68.3795 86.6341C69.0594 86.6172 69.7335 86.7634 70.3454 87.0605C70.8822 87.3673 71.3179 87.8238 71.5995 88.3743C71.8468 88.846 72.0092 89.3575 72.0792 89.8855C72.1633 90.6452 72.1465 91.4127 72.0291 92.168C71.9946 92.4345 71.9601 92.6383 71.9381 92.7794C71.928 92.8513 71.9133 92.9225 71.8942 92.9926C71.8859 92.9207 71.8859 92.8481 71.8942 92.7763C71.913 92.6164 71.9319 92.4126 71.9569 92.1492C72.0493 91.3995 72.0493 90.6414 71.9569 89.8918C71.8832 89.3791 71.7197 88.8835 71.4741 88.4275C71.1998 87.9007 70.7782 87.465 70.2607 87.1734C69.6736 86.8947 69.0292 86.7583 68.3795 86.7752C67.6929 86.7752 66.9749 86.8066 66.2412 86.8223C63.3128 86.9069 60.6509 86.9477 58.7352 87.0135C57.9762 87.0226 57.228 87.1936 56.5405 87.5152C56.3037 87.6538 56.082 87.8167 55.8789 88.0011Z" fill="#6F4439"/>
<path d="M67.3242 82.276C67.4149 82.2492 67.5087 82.2345 67.6033 82.2321C67.8585 82.2026 68.1162 82.2026 68.3714 82.2321C69.2207 82.3496 70.0173 82.7125 70.6634 83.2761C71.3082 83.8318 71.834 84.5123 72.2091 85.2765C72.2766 85.4049 72.3373 85.5367 72.3909 85.6715C72.4365 85.7737 72.4762 85.8784 72.5101 85.9851C72.5471 86.072 72.5714 86.1639 72.5822 86.2578C72.554 86.2578 72.4192 85.891 72.1088 85.3329C71.7116 84.6029 71.1871 83.9499 70.5599 83.4047C69.936 82.8624 69.1781 82.4975 68.3652 82.3481C67.7287 82.2571 67.3274 82.3136 67.3242 82.276Z" fill="#6F4439"/>
<path d="M55.3477 85.2199C55.3477 85.2199 55.4135 85.1384 55.5577 85.0161C55.7612 84.8441 55.9806 84.6918 56.213 84.5615C56.5584 84.3666 56.923 84.208 57.301 84.088C57.7653 83.9499 58.2389 83.8452 58.7181 83.7745C59.734 83.6271 60.6527 83.5581 61.3111 83.4609C61.9695 83.3638 62.3771 83.2822 62.3834 83.3073C62.297 83.3533 62.2039 83.3851 62.1075 83.4014C61.9256 83.4547 61.6622 83.5111 61.3299 83.577C60.6715 83.7024 59.7622 83.7933 58.7401 83.9407C58.2691 84.0083 57.803 84.1068 57.3449 84.2354C56.9741 84.3457 56.6142 84.4895 56.2694 84.6649C55.6831 84.9722 55.3665 85.245 55.3477 85.2199Z" fill="#6F4439"/>
</svg>
