<svg width="1152" height="818" viewBox="0 0 1152 818" fill="none" xmlns="http://www.w3.org/2000/svg">
<path fill-rule="evenodd" clip-rule="evenodd" d="M1154 0L1115.53 4.85C1077.07 9.7 1000.13 19.4 923.2 33.95C906.722 37.0665 890.243 40.4054 873.765 43.7444C813.31 55.9943 752.855 68.2441 692.4 69.5066C653.933 70.3705 615.467 66.7102 577 63.05C538.533 59.3898 500.067 55.7295 461.6 56.5934C414.558 57.5758 367.517 65.2108 320.475 72.8458C290.584 77.6973 260.692 82.5488 230.8 85.6934C153.867 93.6656 76.9334 90.6344 38.4667 88.9066L5.91278e-05 87.3V97H1.00003V784H0V900L38.4 880.652C39.0853 880.31 39.7828 879.961 40.4924 879.607C71.0543 864.343 123.901 837.949 181.592 825H325.114C338.362 827.274 351.611 829.845 364.86 832.416C396.84 838.623 428.82 844.83 460.8 846.848C525.473 850.779 590.145 837.904 654.818 825H1153V97H1154V0Z" fill="#EBF7FC"/>
</svg>
