<svg width="1152" height="894" viewBox="0 0 1152 894" fill="none" xmlns="http://www.w3.org/2000/svg">
<path d="M-1 32L37.4667 35.25C75.9333 38.5 152.867 45 229.8 54.75C306.733 64.5 383.667 77.5 460.6 78.5766C537.533 79.7344 614.467 68.7656 691.4 69.9234C768.333 71 845.267 84 922.2 89.4234C999.133 94.7656 1076.07 92.7344 1114.53 91.5766L1153 90.5V97H1114.53C1076.07 97 999.133 97 922.2 97C845.267 97 768.333 97 691.4 97C614.467 97 537.533 97 460.6 97C383.667 97 306.733 97 229.8 97C152.867 97 75.9333 97 37.4667 97H-1V32Z" fill="#F7CF6A" fill-opacity="0.15"/>
<rect x="-1" y="97" width="1152" height="681" fill="#F7CF6A" fill-opacity="0.15"/>
<path d="M1 778H39.4C77.8 778 154.6 778 231.4 782.848C308.2 787.516 385 797.484 461.8 811.848C538.6 826.484 615.4 845.516 692.2 840.848C769 836 845.8 807 922.6 811.848C999.4 816.516 1076.2 855.484 1114.6 874.652L1153 894V778H1114.6C1076.2 778 999.4 778 922.6 778C845.8 778 769 778 692.2 778C615.4 778 538.6 778 461.8 778C385 778 308.2 778 231.4 778C154.6 778 77.8 778 39.4 778H1Z" fill="#F7CF6A" fill-opacity="0.15"/>
</svg>
