<svg width="375" height="1048" viewBox="0 0 375 1048" fill="none" xmlns="http://www.w3.org/2000/svg">
<path d="M0 32L12.5 35.25C25 38.5 50 45 75 54.75C100 64.5 125 77.5 150 78.5766C175 79.7344 200 68.7656 225 69.9234C250 71 275 84 300 89.4234C325 94.7656 350 92.7344 362.5 91.5766L375 90.5V97H362.5C350 97 325 97 300 97C275 97 250 97 225 97C200 97 175 97 150 97C125 97 100 97 75 97C50 97 25 97 12.5 97H0V32Z" fill="#F7CF6A" fill-opacity="0.15"/>
<rect y="97" width="374.35" height="889" fill="#F7CF6A" fill-opacity="0.15"/>
<path d="M0 986H12.4667C24.9333 986 49.8667 986 74.8 988.591C99.7333 991.086 124.667 996.414 149.6 1004.09C174.533 1011.91 199.467 1022.09 224.4 1019.59C249.333 1017 274.267 1001.5 299.2 1004.09C324.133 1006.59 349.067 1027.41 361.533 1037.66L374 1048V986H361.533C349.067 986 324.133 986 299.2 986C274.267 986 249.333 986 224.4 986C199.467 986 174.533 986 149.6 986C124.667 986 99.7333 986 74.8 986C49.8667 986 24.9333 986 12.4667 986H0Z" fill="#F7CF6A" fill-opacity="0.15"/>
</svg>
