<svg width="24" height="24" viewBox="0 0 24 24" fill="none" xmlns="http://www.w3.org/2000/svg">
<circle cx="12" cy="12" r="12" fill="url(#paint0_linear_18242_2626)"/>
<path d="M10.0585 5.25002C9.11341 5.25002 8.34657 6.01673 8.34657 6.96196C8.34657 7.28287 8.43576 7.56822 8.57843 7.83576L8.2753 8.51329C8.20402 8.65596 8.36448 8.81642 8.50715 8.74514L9.2026 8.42423C9.45225 8.5669 9.75536 8.65608 10.0764 8.65608C11.0215 8.65608 11.7883 7.88937 11.7883 6.94414C11.7704 6.01672 11.0036 5.25 10.0585 5.25L10.0585 5.25002ZM10.6113 7.24718C10.5935 7.26497 10.5578 7.28288 10.54 7.28288L10.112 7.22939L10.2012 7.94261C10.2012 7.9961 10.1834 8.0318 10.1299 8.04958H10.0764C10.0586 8.04958 10.0407 8.0318 10.0229 7.9961L9.48794 6.78358C9.47016 6.74788 9.47016 6.71231 9.50573 6.69439C9.52352 6.64091 9.55922 6.64091 9.59492 6.64091L9.98722 6.67661L9.79106 5.99896C9.79106 5.96326 9.79106 5.92768 9.80885 5.90977C9.82664 5.89198 9.86234 5.87407 9.89804 5.87407L10.3795 5.92756C10.4152 5.92756 10.4508 5.96326 10.4687 5.99883L10.6471 7.14008C10.647 7.19369 10.647 7.22939 10.6113 7.24718L10.6113 7.24718Z" fill="white"/>
<path d="M8.95387 13.3279L8.20492 12.7217L7.65216 11.5982C7.52727 11.3308 7.29555 11.1346 7.02797 11.0454L6.35032 10.8136C6.11847 10.7244 5.85102 10.7244 5.61918 10.8136L4.42443 11.2237C4.31745 11.2594 4.22827 11.3307 4.157 11.4199L3.46155 12.4541C3.30109 12.686 3.37236 13.0248 3.60422 13.1853C3.83607 13.3457 4.17491 13.2744 4.33537 13.0426L4.94162 12.151L5.24475 12.044C5.0129 12.6682 4.1392 15.0934 4.1392 15.3251C4.1392 15.4321 4.46011 15.5213 4.90591 15.5925L4.76324 16.074L3.76468 17.8572C3.60422 18.1426 3.71119 18.4992 3.99653 18.6597C4.08572 18.7131 4.19269 18.7309 4.28187 18.7309C4.49582 18.7309 4.69198 18.624 4.79894 18.4278L5.8332 16.5911C5.85099 16.5554 5.8689 16.5198 5.88669 16.4662L6.01157 16.0561L6.15424 16.3058L6.42167 18.2317C6.45737 18.5349 6.7248 18.7488 7.01013 18.7488H7.09932C7.42023 18.6953 7.65208 18.3922 7.59861 18.0712L7.29549 16.0561C7.2777 15.9848 7.25979 15.9134 7.22421 15.8422L7.13503 15.6817C7.59863 15.646 7.90174 15.5568 7.83048 15.3964C7.38455 14.4335 7.20619 13.5954 7.1527 12.9534L7.31316 13.2922C7.34886 13.3635 7.40234 13.4171 7.45583 13.4706L8.29394 14.1483C8.38312 14.2195 8.50788 14.2731 8.61485 14.2731C8.77531 14.2731 8.91798 14.2019 9.02496 14.077C9.22124 13.845 9.18554 13.5241 8.95381 13.3279L8.95387 13.3279Z" fill="white"/>
<path d="M20.2781 14.4514C20.1711 14.2195 19.1368 11.9192 18.905 11.42C18.6731 10.9385 18.1203 10.6532 17.6033 10.8137C17.3358 10.9029 17.0862 11.1346 16.997 11.3308C16.89 11.5269 16.3016 12.7574 16.3016 12.7574L15.6953 13.114C15.9627 13.3458 16.0698 13.6847 15.9984 14.0056L16.9078 13.4885C16.9791 13.435 17.0505 13.3636 17.0862 13.2924L17.4071 12.6147C17.4428 13.0427 17.4249 13.8451 16.9791 14.7545C16.8365 15.0754 17.2466 15.236 17.835 15.2716L18.0134 18.2673C18.0312 18.517 18.2274 18.7131 18.477 18.7309C18.7444 18.7487 18.9941 18.5348 19.012 18.2673L19.333 15.1468C19.9572 15.0042 20.4387 14.7545 20.2781 14.4514L20.2781 14.4514Z" fill="white"/>
<path d="M15.3912 13.4171L14.6066 12.8109C14.6066 12.8109 14.0538 11.6696 13.929 11.4022C13.7863 11.1169 13.5723 10.9207 13.2692 10.8315C12.7521 10.6711 12.1992 10.9564 11.9853 11.4735L11.4146 12.8466C11.3076 13.0962 11.2541 13.6133 11.3254 13.8631C11.3967 14.1305 11.4859 14.3981 11.5038 14.6655L11.8604 18.2854C11.8782 18.5528 12.11 18.7669 12.3954 18.749C12.645 18.7312 12.8412 18.535 12.859 18.2854L13.0908 14.2907C13.0908 14.2015 13.1086 14.1123 13.1443 14.0233L13.5366 13.0604L13.6793 13.3635C13.715 13.4348 13.7685 13.5062 13.8398 13.5419L14.7314 14.2195C14.8206 14.2908 14.9453 14.3265 15.0523 14.3265C15.2127 14.3265 15.3732 14.2552 15.4803 14.1126C15.6587 13.9163 15.623 13.5952 15.3912 13.417L15.3912 13.4171Z" fill="white"/>
<path d="M13.9997 10.7423C14.5881 10.7423 15.0697 10.2608 15.0697 9.67228C15.0697 9.08379 14.5882 8.60229 13.9997 8.60229C13.4112 8.60229 12.9297 9.08379 12.9297 9.67228C12.9297 10.2608 13.4112 10.7423 13.9997 10.7423Z" fill="white"/>
<path d="M17.085 10.7245C17.6557 10.5996 18.0301 10.0468 17.9231 9.45834C17.8874 9.24439 17.7805 9.06603 17.6378 8.92334C17.7448 8.78067 17.9766 8.6737 18.262 9.17299C18.5829 9.74368 19.1536 9.4939 19.4567 9.33345C19.5102 9.29775 19.5102 9.20856 19.4389 9.19077C19.2428 9.13729 18.9396 8.97683 18.69 8.45963C18.1907 7.46106 17.4952 8.37044 17.2991 8.69148C17.1029 8.6023 16.889 8.58451 16.6571 8.62021C16.0864 8.74509 15.712 9.29786 15.819 9.88635C15.9438 10.457 16.5144 10.8316 17.085 10.7245L17.085 10.7245Z" fill="white"/>
<path d="M5.84992 9.20872C6.13526 8.70942 6.34922 8.81641 6.47411 8.95908C6.33144 9.10175 6.22447 9.27999 6.18877 9.49407C6.06388 10.0648 6.43841 10.6353 7.02687 10.7602C7.59756 10.8851 8.16813 10.5106 8.29301 9.9221C8.4179 9.35141 8.04337 8.78085 7.45491 8.65596C7.24096 8.60248 7.00911 8.63818 6.81295 8.72724C6.61679 8.42411 5.90355 7.49679 5.42205 8.49538C5.17241 8.99468 4.86929 9.15514 4.67311 9.22653C4.60183 9.24432 4.60183 9.3335 4.65532 9.3692C4.94054 9.52966 5.52903 9.77931 5.84994 9.20874L5.84992 9.20872Z" fill="white"/>
<defs>
<linearGradient id="paint0_linear_18242_2626" x1="12" y1="0" x2="12" y2="24" gradientUnits="userSpaceOnUse">
<stop stop-color="#32959D"/>
<stop offset="1" stop-color="#036696" stop-opacity="0.8"/>
</linearGradient>
</defs>
</svg>
