<svg width="24" height="24" viewBox="0 0 24 24" fill="none" xmlns="http://www.w3.org/2000/svg">
<circle cx="12" cy="12" r="12" fill="url(#paint0_linear_18242_2612)"/>
<path d="M16.9837 5.93667C17.8027 7.13755 18.283 8.53763 18.3728 9.98582C18.3892 10.2482 18.1895 10.4745 17.9265 10.4907C17.67 10.509 17.4382 10.3112 17.4216 10.0444C17.3424 8.76767 16.919 7.53279 16.1962 6.47383C16.0477 6.25654 16.1041 5.96016 16.3214 5.81155C16.5383 5.66408 16.8353 5.71948 16.9837 5.93676L16.9837 5.93667Z" fill="white"/>
<path d="M16.2868 12.0421C16.2198 12.2971 15.9589 12.4497 15.7051 12.3825C15.4505 12.3159 15.298 12.0556 15.3644 11.801C15.9204 9.67955 15.0833 7.38506 13.1855 6.12337C12.9663 5.97767 12.9067 5.68195 13.0524 5.46277C13.1975 5.24339 13.4945 5.184 13.7132 5.33003C15.9642 6.82675 16.9412 9.54341 16.2868 12.0418L16.2868 12.0421Z" fill="white"/>
<path d="M10.0046 6.21214C7.7591 6.35763 6 8.29489 6 10.6224V15.6314C6 17.1466 7.13316 18.4417 8.58002 18.5797C10.258 18.7381 11.7184 17.4365 11.7184 15.7137C11.7137 15.0404 12.0037 14.4629 12.4936 14.1689C13.7987 13.3859 14.5776 12.0114 14.5776 10.4919C14.5776 8.07529 12.5476 6.0476 10.0046 6.21212L10.0046 6.21214ZM12.0034 13.3517C11.221 13.8213 10.7585 14.707 10.7655 15.7337C10.7655 16.8273 9.83098 17.7406 8.67045 17.6308C7.70748 17.5389 6.95313 16.6608 6.95313 15.6313V10.6223C6.95313 8.79574 8.32031 7.27635 10.0659 7.16318C12.0144 7.03675 13.6246 8.575 13.6246 10.4916C13.6246 11.673 13.0187 12.7422 12.0034 13.3513L12.0034 13.3517Z" fill="white"/>
<path d="M12.6757 10.4919C12.6757 11.3353 12.2428 12.0991 11.5173 12.5343C11.4407 12.5804 11.3558 12.6023 11.2726 12.6023C11.1106 12.6023 10.9528 12.5199 10.8635 12.3711C10.728 12.1454 10.8011 11.8526 11.0268 11.7172C11.4624 11.4555 11.7225 10.9978 11.7225 10.4919C11.7225 9.67051 11.0176 9.0159 10.1934 9.06565C9.45998 9.11274 8.86329 9.81123 8.86329 10.6224C8.86329 10.8856 8.6501 11.099 8.38672 11.099C8.12334 11.099 7.91016 10.8857 7.91016 10.6224C7.91016 9.31861 8.90694 8.19364 10.1317 8.11419C11.4954 8.02566 12.6756 9.12436 12.6756 10.4919L12.6757 10.4919Z" fill="white"/>
<path d="M9.81254 13.3511C9.81254 13.9079 9.55526 14.4124 9.12423 14.7005C8.90584 14.8458 8.61022 14.7891 8.4634 14.5689C8.31681 14.3502 8.37587 14.0543 8.59459 13.9078C8.75791 13.7987 8.8594 13.5855 8.8594 13.3511C8.8594 13.1168 8.75791 12.9031 8.59459 12.794C8.37587 12.6477 8.31725 12.3515 8.46384 12.1328C8.61099 11.9141 8.9064 11.8555 9.12509 12.0017C9.55568 12.2904 9.8125 12.7945 9.8125 13.3511L9.81254 13.3511Z" fill="white"/>
<defs>
<linearGradient id="paint0_linear_18242_2612" x1="12" y1="0" x2="12" y2="24" gradientUnits="userSpaceOnUse">
<stop stop-color="#32959D"/>
<stop offset="1" stop-color="#036696" stop-opacity="0.8"/>
</linearGradient>
</defs>
</svg>
