<svg width="24" height="24" viewBox="0 0 24 24" fill="none" xmlns="http://www.w3.org/2000/svg">
<circle cx="12" cy="12" r="12" fill="url(#paint0_linear_18242_2519)"/>
<path d="M9.16752 8.03633C9.11777 7.85389 8.98508 7.72119 8.80265 7.68799L8.12265 7.6217C7.90701 7.7544 7.64175 7.83734 7.37637 7.83734C7.11099 7.83734 6.8456 7.75439 6.63009 7.6217L5.95008 7.68799C5.76764 7.72119 5.61842 7.85389 5.58522 8.03633L4.50727 12.0664C4.47407 12.2157 4.55702 12.3816 4.70625 12.4148L4.92189 12.481C5.07112 12.5308 5.23703 12.4313 5.28675 12.2821L5.917 10.0597C5.917 10.3251 5.90046 10.5905 5.8838 10.8558L5.76765 12.3318C5.76765 12.4811 5.8838 12.5972 6.03303 12.6137L6.16572 18.5013C6.18227 18.634 6.28187 18.75 6.41445 18.75H6.87882C7.01151 18.75 7.12754 18.6339 7.12754 18.4847L7.34318 13.2936C7.34318 13.2107 7.40947 13.2107 7.40947 13.2936L7.62511 18.4847C7.62511 18.6339 7.74126 18.75 7.87383 18.75H8.3382C8.47089 18.75 8.58692 18.6339 8.58692 18.5013L8.71962 12.6137C8.86885 12.6137 8.985 12.481 8.985 12.3318L8.86885 10.8393C8.85231 10.5905 8.83565 10.3252 8.83565 10.0763L9.44925 12.2821C9.499 12.448 9.66489 12.5308 9.81412 12.481L10.0298 12.4148C10.179 12.365 10.2619 12.2158 10.2287 12.0664L9.16752 8.03633Z" fill="white"/>
<path d="M7.35922 7.53875C7.98947 7.53875 8.50359 7.02465 8.50359 6.39437C8.50359 5.7641 7.9895 5.25 7.35922 5.25C6.72894 5.25 6.21484 5.7641 6.21484 6.39437C6.21484 7.02465 6.72894 7.53875 7.35922 7.53875Z" fill="white"/>
<path d="M19.5507 12.1161L18.3401 8.03627C18.2903 7.85383 18.1411 7.72113 17.9586 7.68793L17.544 7.63818C17.3284 7.75433 17.0796 7.83716 16.8309 7.83716C16.5656 7.83716 16.3168 7.77088 16.1012 7.63818L15.6866 7.68793C15.5041 7.72113 15.3549 7.85382 15.3051 8.03627L14.0945 12.1161C14.0613 12.2488 14.1277 12.3815 14.2437 12.4312L14.393 12.481C14.5256 12.5307 14.6749 12.4644 14.7246 12.3151L15.6036 9.52892L15.5704 10.242C15.5539 10.5074 15.5207 10.7728 15.4709 11.038L14.8076 13.559C14.7744 13.8409 14.99 14.0897 15.2885 14.0897H15.6368L15.7363 18.4847C15.7529 18.6174 15.869 18.7334 16.0017 18.7334H16.2007C16.3499 18.7334 16.4661 18.6172 16.4661 18.468L16.665 14.0896H16.9138L17.1127 18.468C17.1127 18.6172 17.2289 18.7334 17.3781 18.7334H17.5771C17.7263 18.7334 17.8258 18.6172 17.8425 18.4847L17.942 14.0897H18.2903C18.5722 14.0897 18.8044 13.841 18.7712 13.559L18.1079 11.0547C18.0581 10.7893 18.0249 10.5239 18.0084 10.2587L17.9752 9.54557L18.8542 12.3317C18.9039 12.4644 19.0532 12.5474 19.1859 12.4976L19.3351 12.4479C19.5176 12.3814 19.5839 12.2487 19.5507 12.1161H19.5507Z" fill="white"/>
<path d="M16.8319 7.53875C17.4621 7.53875 17.9763 7.02465 17.9763 6.39437C17.9763 5.7641 17.4622 5.25 16.8319 5.25C16.2016 5.25 15.6875 5.7641 15.6875 6.39437C15.6876 7.02462 16.1851 7.53875 16.8319 7.53875Z" fill="white"/>
<path d="M13.3491 11.5191H12.4701C12.4038 11.5191 12.3706 11.4528 12.4038 11.4196L13.1833 9.72791C13.2165 9.69471 13.1501 9.62842 13.117 9.62842H11.6742C11.641 9.62842 11.6079 9.66162 11.6079 9.69471L11.0273 12.2986C11.0273 12.3649 11.0605 12.3981 11.0936 12.3981H11.8731C11.9063 12.3981 11.9394 12.4313 11.9394 12.4643L11.7238 14.2555C11.7072 14.355 11.8399 14.4047 11.8897 14.3052L13.3989 11.6185C13.4485 11.5853 13.4153 11.5191 13.349 11.5191L13.3491 11.5191Z" fill="white"/>
<defs>
<linearGradient id="paint0_linear_18242_2519" x1="12" y1="0" x2="12" y2="24" gradientUnits="userSpaceOnUse">
<stop stop-color="#32959D"/>
<stop offset="1" stop-color="#036696" stop-opacity="0.8"/>
</linearGradient>
</defs>
</svg>
