<svg width="24" height="24" viewBox="0 0 24 24" fill="none" xmlns="http://www.w3.org/2000/svg">
<circle cx="12" cy="12" r="12" fill="url(#paint0_linear_18242_2540)"/>
<path d="M15.7302 16.3158C16.3317 16.3158 16.8228 15.8163 16.8228 15.1996V15.0649C17.4456 14.7891 17.8835 14.1529 17.8835 13.4147V11.2497C17.8835 11.202 17.8623 11.1542 17.8262 11.1238C17.7901 11.0934 17.7411 11.0804 17.6944 11.089C17.3861 11.152 17.0673 11.0781 17.0014 11.0608C15.7408 10.4485 15.0585 11.4343 15.0457 11.4517C15.033 11.4734 14.7311 11.9989 14.9012 12.609C14.9246 12.6937 14.9331 12.7589 14.9352 12.8044C14.914 12.7632 14.8906 12.7241 14.8651 12.685C14.5994 12.2941 14.17 12.1443 13.8872 12.3419C13.6067 12.5416 13.5938 13.0064 13.8575 13.3951C14.0318 13.6535 14.289 13.8119 14.5249 13.825C14.5419 13.9836 14.5802 14.1333 14.6397 14.2724V15.1974C14.6397 15.8141 15.1286 16.3158 15.7302 16.3158L15.7302 16.3158ZM16.5039 15.1996C16.5039 15.6361 16.1573 15.9901 15.7301 15.9901C15.3028 15.9901 14.9563 15.6361 14.9563 15.1996V14.7544C15.2305 15.0367 15.6088 15.2126 16.0276 15.2126H16.1232C16.2528 15.2126 16.3804 15.1974 16.5015 15.1692L16.5018 15.1996L16.5039 15.1996ZM14.6056 13.495C14.4823 13.5319 14.2719 13.4386 14.1188 13.2127C13.9467 12.9587 13.9551 12.6916 14.0679 12.6112C14.1826 12.5309 14.4293 12.6177 14.6014 12.8719C14.6588 12.9587 14.6992 13.0477 14.7183 13.1346C14.7226 13.1628 14.7374 13.1911 14.7545 13.215C14.7842 13.2497 14.8268 13.2714 14.8735 13.2714C14.899 13.2736 15.0541 13.2692 15.1647 13.1238C15.2668 12.987 15.2816 12.785 15.2072 12.5223C15.0754 12.0554 15.3135 11.6319 15.3135 11.6319C15.3347 11.5994 15.8577 10.8611 16.8758 11.3648C16.8843 11.3691 16.8928 11.3713 16.9014 11.3757C16.9162 11.38 17.2181 11.4648 17.5646 11.4387V13.4169C17.5646 14.0575 17.1607 14.6025 16.6016 14.8045H16.5995C16.4507 14.8587 16.2912 14.8891 16.1232 14.8891H16.0276C15.5472 14.8891 15.1327 14.5981 14.9435 14.1791C14.9435 14.1769 14.9414 14.1769 14.9414 14.1748C14.8755 14.0271 14.8351 13.862 14.8329 13.6905C14.8351 13.684 14.8372 13.6775 14.8393 13.671C14.85 13.6124 14.8286 13.5537 14.784 13.5169C14.7394 13.48 14.6714 13.4713 14.6161 13.493C14.6141 13.4907 14.6099 13.4929 14.6056 13.4951L14.6056 13.495Z" fill="white" stroke="white" stroke-width="0.1875"/>
<path d="M8.27005 16.3157C8.87162 16.3157 9.36268 15.8163 9.36268 15.1996V14.2746C9.42218 14.1356 9.4626 13.9836 9.47747 13.8272C9.71342 13.8163 9.96856 13.6579 10.1449 13.3995C10.4106 13.0086 10.3979 12.5461 10.1152 12.3441C9.83244 12.1464 9.40301 12.2963 9.13732 12.6872C9.11178 12.7263 9.08839 12.7653 9.06715 12.8066C9.06931 12.7589 9.07782 12.6959 9.10121 12.6112C9.2713 12.0032 8.96939 11.4755 8.95246 11.4452C8.9461 11.4343 8.26165 10.4507 7.00322 11.063C6.93736 11.0804 6.61638 11.1542 6.31026 11.0912C6.26348 11.0803 6.21465 11.0934 6.17844 11.126C6.14233 11.1586 6.12109 11.2041 6.12109 11.2519V13.4169C6.12109 14.1551 6.55902 14.7892 7.18183 15.0671V15.2018C7.17752 15.8141 7.66635 16.3157 8.27007 16.3157L8.27005 16.3157ZM8.27005 15.99C7.84278 15.99 7.49625 15.636 7.49625 15.1996L7.49635 15.1692C7.6175 15.1974 7.74502 15.2126 7.87469 15.2126H7.97031C8.38906 15.2126 8.76739 15.0367 9.04161 14.7544V15.1996C9.04171 15.6361 8.69528 15.9901 8.27006 15.9901L8.27005 15.99ZM6.43346 13.4147V11.4365C6.77999 11.4626 7.0818 11.3779 7.09668 11.3735C7.10519 11.3713 7.11371 11.367 7.12222 11.3626C8.14039 10.861 8.66337 11.5994 8.68038 11.6211C8.68254 11.6254 8.92269 12.051 8.79097 12.5222C8.71659 12.7849 8.73147 12.9868 8.83344 13.1237C8.94403 13.2714 9.10128 13.2736 9.12468 13.2714C9.1693 13.2714 9.21393 13.2475 9.24368 13.2128C9.26276 13.1911 9.27343 13.1628 9.27979 13.1346C9.29682 13.0477 9.33714 12.9566 9.39674 12.8719C9.56888 12.6178 9.81765 12.531 9.93029 12.6112C10.0451 12.6937 10.0514 12.9608 9.8793 13.2128C9.72624 13.4386 9.51583 13.5298 9.39252 13.4951C9.38832 13.4929 9.38401 13.4908 9.3798 13.4908C9.32666 13.4691 9.25649 13.4778 9.21187 13.5147C9.16725 13.5515 9.14601 13.6123 9.15658 13.6688C9.15873 13.6753 9.15873 13.6818 9.16294 13.6883C9.16079 13.862 9.12047 14.0249 9.05451 14.1726C9.05451 14.1748 9.05236 14.1748 9.05236 14.1769C8.86319 14.5959 8.44863 14.8869 7.96824 14.8869H7.87263C7.70685 14.8869 7.54745 14.8565 7.39643 14.8023H7.39428C6.83735 14.6003 6.43345 14.0553 6.43345 13.4147L6.43346 13.4147Z" fill="white" stroke="white" stroke-width="0.1875"/>
<path d="M6.94518 12.3508C6.82618 12.3508 6.73047 12.4484 6.73047 12.5701C6.73047 12.6917 6.82608 12.7894 6.94518 12.7894C7.06418 12.7894 7.15989 12.6918 7.15989 12.5701C7.15989 12.4484 7.06418 12.3508 6.94518 12.3508Z" fill="white" stroke="white" stroke-width="0.1875"/>
<path d="M7.7694 12.7894C7.8884 12.7894 7.98411 12.6918 7.98411 12.5701C7.98411 12.4485 7.8885 12.3508 7.7694 12.3508C7.6504 12.3508 7.55469 12.4484 7.55469 12.5701C7.55479 12.6917 7.6504 12.7894 7.7694 12.7894Z" fill="white" stroke="white" stroke-width="0.1875"/>
<path d="M7.44627 14.0074C7.46535 14.0161 7.48669 14.0204 7.50792 14.0204C7.56958 14.0204 7.62908 13.9835 7.65462 13.9205C7.70561 13.7967 7.84594 13.7381 7.9671 13.7902C8.04784 13.825 8.1414 13.7859 8.17545 13.7034C8.20951 13.6209 8.17124 13.5253 8.09041 13.4905C7.80554 13.369 7.47817 13.5079 7.36132 13.7967C7.32511 13.8771 7.36338 13.9727 7.44627 14.0074L7.44627 14.0074Z" fill="white" stroke="white" stroke-width="0.1875"/>
<path d="M17.1053 12.7894C17.2243 12.7894 17.32 12.6918 17.32 12.5701C17.32 12.4485 17.2244 12.3508 17.1053 12.3508C16.9863 12.3508 16.8906 12.4484 16.8906 12.5701C16.8906 12.6917 16.9863 12.7894 17.1053 12.7894Z" fill="white" stroke="white" stroke-width="0.1875"/>
<path d="M16.2811 12.7894C16.4001 12.7894 16.4958 12.6918 16.4958 12.5701C16.4958 12.4485 16.4002 12.3508 16.2811 12.3508C16.1621 12.3508 16.0664 12.4484 16.0664 12.5701C16.0664 12.6917 16.162 12.7894 16.2811 12.7894Z" fill="white" stroke="white" stroke-width="0.1875"/>
<path d="M16.0839 13.788C16.1434 13.7619 16.2072 13.7619 16.2667 13.788C16.3262 13.8119 16.3709 13.8597 16.3964 13.9205C16.422 13.9835 16.4815 14.0203 16.5431 14.0203C16.5643 14.0203 16.5835 14.016 16.6048 14.0073C16.6855 13.9726 16.7238 13.8771 16.6898 13.7945C16.6325 13.6534 16.5261 13.5448 16.388 13.4862C16.2498 13.4276 16.0989 13.4297 15.9607 13.4862C15.88 13.521 15.8417 13.6165 15.8757 13.699C15.9096 13.7837 16.0031 13.8228 16.0839 13.788L16.0839 13.788Z" fill="white" stroke="white" stroke-width="0.1875"/>
<path d="M10.9219 9.71019C10.9474 9.72758 10.9772 9.73628 11.0091 9.73628C11.0261 9.73628 11.0452 9.73408 11.0622 9.72758C11.109 9.71019 11.1451 9.6733 11.16 9.62331L11.5298 8.45289C11.5489 8.3943 11.532 8.32693 11.4874 8.28564L10.9134 7.7276L11.3683 6.8047C11.3873 6.76562 11.3895 6.72223 11.3768 6.68314L11.1748 6.03604C11.1621 5.99696 11.1365 5.96437 11.1025 5.94267C10.8473 5.5127 10.3946 5.25 9.89935 5.25C9.12349 5.25 8.49219 5.89489 8.49219 6.68745C8.49649 8.07513 10.6732 9.54737 10.9219 9.71013L10.9219 9.71019ZM9.90363 5.57349C10.3139 5.57349 10.6838 5.80581 10.873 6.1793C10.8815 6.1945 10.892 6.20969 10.9027 6.22269L11.0558 6.71774L10.5775 7.68835C10.5456 7.75353 10.5584 7.8295 10.6094 7.87938L11.1961 8.4505L10.9219 9.31904C10.1078 8.74793 8.81529 7.60578 8.81529 6.68511C8.81529 6.073 9.30207 5.57354 9.90361 5.57354L9.90363 5.57349Z" fill="white" stroke="white" stroke-width="0.1875"/>
<path d="M11.3463 7.64951C11.3081 7.71029 11.3123 7.78847 11.357 7.84275L11.8778 8.47894L11.4187 9.50603C11.3889 9.57121 11.4102 9.65368 11.4633 9.70147C11.493 9.72756 11.5292 9.74055 11.5674 9.74055C11.5908 9.74055 11.6142 9.73626 11.6376 9.72316C11.7439 9.67107 14.2331 8.41597 14.3924 6.99812C14.4349 6.61593 14.3307 6.24026 14.0969 5.94065C13.8632 5.64095 13.5294 5.4499 13.1553 5.40652C12.643 5.34574 12.1371 5.58027 11.8416 6.01454C11.8161 6.05143 11.8075 6.09491 11.8161 6.1383L11.9308 6.73982L11.3463 7.64951ZM12.1434 6.14687C12.3772 5.84507 12.745 5.68652 13.1191 5.73C13.4082 5.76479 13.6675 5.91025 13.8482 6.14257C14.0289 6.3749 14.1097 6.66591 14.0778 6.96121C13.9737 7.88841 12.6025 8.80044 11.9032 9.2086L12.2093 8.52023C12.2348 8.46375 12.2263 8.39647 12.1859 8.34868L11.6779 7.72767L12.2348 6.86562C12.2582 6.83083 12.2667 6.78745 12.2582 6.74406L12.1434 6.14687Z" fill="white" stroke="white" stroke-width="0.1875"/>
<path d="M5.4935 10.8286C5.52961 10.911 5.62532 10.9458 5.70606 10.9089C5.7868 10.8721 5.82085 10.7743 5.78474 10.694C5.78259 10.6918 5.76771 10.6592 5.76566 10.6571C5.6721 10.4118 5.69549 10.149 5.83152 9.95354C6.02705 9.66914 6.38423 9.59305 6.89441 9.72771C7.50665 9.89056 7.97852 9.93835 8.29737 9.86887C8.52265 9.81888 8.8585 9.79499 9.17098 9.94704C9.65991 10.1859 9.96601 10.6245 10.0829 11.252C10.119 11.4518 10.1253 11.6516 10.0999 11.8448C10.0872 11.9339 10.1488 12.0164 10.2359 12.0273C10.2423 12.0273 10.2508 12.0295 10.2571 12.0295C10.3358 12.0295 10.4038 11.9709 10.4144 11.8883C10.4442 11.6603 10.4378 11.4258 10.3953 11.1913C10.2252 10.277 9.71089 9.85146 9.30701 9.65384C8.99668 9.50189 8.62257 9.4671 8.22924 9.55177C8.04428 9.59086 7.67652 9.59956 6.97296 9.41282C6.1609 9.19788 5.76133 9.48669 5.57001 9.7668C5.37448 10.0512 5.33621 10.4291 5.46794 10.7765C5.4743 10.7895 5.48066 10.8026 5.49348 10.8286L5.4935 10.8286Z" fill="white" stroke="white" stroke-width="0.1875"/>
<path d="M9.88201 15.2084C9.79912 15.1802 9.70771 15.2258 9.68002 15.3104C9.65242 15.3951 9.69705 15.4885 9.77994 15.5168C10.4899 15.76 10.9682 16.4375 10.9682 17.1996V18.4222H9.80754V17.7708C9.80754 17.6817 9.73522 17.6079 9.64813 17.6079C9.56093 17.6079 9.48871 17.6818 9.48871 17.7708V18.4222L7.05057 18.4221V17.7707C7.05057 17.6816 6.97825 17.6078 6.89115 17.6078C6.80395 17.6078 6.73173 17.6817 6.73173 17.7707V18.4221H5.57108V17.1995C5.57108 16.4352 6.04729 15.7599 6.75718 15.5167C6.84007 15.4885 6.8847 15.3951 6.8571 15.3103C6.8295 15.2257 6.7381 15.1801 6.65511 15.2083C5.81544 15.4971 5.25 16.2961 5.25 17.1994V18.5848C5.25 18.6739 5.32232 18.7477 5.40942 18.7477H11.1255C11.2127 18.7477 11.2849 18.6738 11.2849 18.5848V17.1994C11.2872 16.2962 10.7239 15.495 9.88213 15.2084L9.88201 15.2084Z" fill="white" stroke="white" stroke-width="0.1875"/>
<path d="M13.3773 15.3146L13.4283 15.2538C13.7217 14.9085 13.9767 14.6089 13.6749 13.4624C13.3666 12.2832 13.3731 11.8903 13.3922 11.7686L13.7025 11.8295C13.7897 11.8469 13.8726 11.7882 13.8895 11.7013C13.9065 11.6122 13.8491 11.5276 13.764 11.5103L13.4048 11.4386C13.3474 11.4191 13.2666 11.4212 13.1964 11.4799C13.0477 11.6036 12.952 11.9467 13.3707 13.5449C13.6279 14.5221 13.4536 14.7284 13.1901 15.0389L13.1369 15.1018C12.8861 15.4016 12.4779 15.5361 12.0996 15.4449C11.7978 15.3711 11.7829 15.2039 11.8084 15.0498C11.8764 14.6524 11.8274 14.3984 11.6596 14.2724C11.4746 14.1356 11.3727 13.9858 11.3535 13.8294C11.3194 13.5384 11.4108 13.2735 11.6255 13.039C12.0932 12.5308 12.1293 11.9836 12.1102 11.7014C12.0953 11.4626 12.1229 11.2497 12.193 11.0739C12.31 10.7851 12.4651 10.6113 12.6564 10.5614C12.9986 10.4724 13.3706 10.7743 13.3749 10.7764L13.7406 11.0782C13.781 11.1108 13.8341 11.1216 13.8851 11.1086C13.934 11.0934 13.9743 11.0565 13.9914 11.0065C14.0913 10.7112 14.4123 9.98811 15.2243 9.64062C16.0171 9.29973 17.0311 9.42349 18.2386 10.0032C18.3768 10.0684 18.3427 10.3876 18.2408 10.6546C18.2195 10.7111 18.1898 10.7654 18.1472 10.8219C18.0941 10.8935 18.1089 10.9956 18.1791 11.0499C18.2493 11.1042 18.3492 11.089 18.4023 11.0173C18.4618 10.9369 18.5065 10.8566 18.5384 10.7741C18.6914 10.3724 18.7297 9.88165 18.3746 9.7101C17.0823 9.08909 15.9811 8.96312 15.101 9.34091C14.3315 9.671 13.9467 10.2942 13.7724 10.6894L13.5747 10.5265C13.5556 10.5091 13.0752 10.1205 12.5778 10.2486C12.2823 10.3246 12.0528 10.5635 11.8954 10.9543C11.8062 11.1779 11.7721 11.4364 11.7891 11.7274C11.8082 12.0053 11.753 12.4222 11.3895 12.8196C11.1111 13.1236 10.9877 13.4862 11.0324 13.8728C11.0621 14.1225 11.2088 14.3483 11.466 14.5416C11.4702 14.5438 11.5552 14.6133 11.4894 15.0019C11.4256 15.3906 11.6191 15.6707 12.0229 15.7685C12.125 15.7924 12.2291 15.8054 12.3333 15.8054C12.729 15.7988 13.118 15.625 13.3774 15.3145L13.3773 15.3146Z" fill="white" stroke="white" stroke-width="0.1875"/>
<path d="M17.3447 15.2084C17.2618 15.1802 17.1704 15.2258 17.1427 15.3104C17.1151 15.3951 17.1597 15.4885 17.2426 15.5168C17.9526 15.76 18.4287 16.4375 18.4287 17.1996V18.4222H17.2681V17.7708C17.2681 17.6817 17.1958 17.6079 17.1087 17.6079C17.0215 17.6079 16.9492 17.6818 16.9492 17.7708V18.4222L14.5133 18.4221V17.7707C14.5133 17.6816 14.4409 17.6078 14.3538 17.6078C14.2666 17.6078 14.1944 17.6817 14.1944 17.7707V18.4221H13.0338V17.1995C13.0338 16.4352 13.512 15.7599 14.222 15.5167C14.3049 15.4885 14.3495 15.3951 14.3219 15.3103C14.2943 15.2257 14.2029 15.1801 14.12 15.2083C13.2803 15.4949 12.7148 16.2961 12.7148 17.2016V18.587C12.7148 18.6761 12.7872 18.7499 12.8743 18.7499L18.5903 18.75C18.6775 18.75 18.7497 18.6761 18.7497 18.5871V17.2017C18.7497 16.2962 18.1843 15.495 17.3446 15.2084H17.3447Z" fill="white" stroke="white" stroke-width="0.1875"/>
<defs>
<linearGradient id="paint0_linear_18242_2540" x1="12" y1="0" x2="12" y2="24" gradientUnits="userSpaceOnUse">
<stop stop-color="#32959D"/>
<stop offset="1" stop-color="#036696" stop-opacity="0.8"/>
</linearGradient>
</defs>
</svg>
