<svg width="24" height="24" viewBox="0 0 24 24" fill="none" xmlns="http://www.w3.org/2000/svg">
<circle cx="12" cy="12" r="12" fill="url(#paint0_linear_18242_2530)"/>
<path d="M9.48416 7.48831C9.48416 8.31011 8.81792 8.97648 7.99599 8.97648C7.17419 8.97648 6.50781 8.31011 6.50781 7.48831C6.50781 6.66637 7.17419 6 7.99599 6C8.81792 6 9.48416 6.66637 9.48416 7.48831Z" fill="white"/>
<path d="M8.87634 17.9246H3.91576C3.40059 17.9246 3 17.5049 3 17.0089C3 16.4937 3.41974 16.0931 3.91576 16.0931H6.3197L5.32755 15.2728C5.02226 15.0247 4.90781 14.6241 5.04142 14.2426L6.51055 10.1405C6.58681 9.91163 6.77765 9.7208 6.98753 9.62537C7.21644 9.52995 7.46451 9.51091 7.69342 9.60634L10.0593 10.5412H12.2915C12.8067 10.5412 13.2073 10.961 13.2073 11.457C13.2073 11.9722 12.7876 12.3728 12.2915 12.3728H9.90664C9.79218 12.3728 9.67773 12.3537 9.56328 12.3156L7.92247 11.6477L6.96852 14.2807L9.44884 16.3222C9.75414 16.5703 9.86858 16.9709 9.73497 17.3334C9.60149 17.6958 9.25799 17.9247 8.87644 17.9247L8.87634 17.9246Z" fill="white"/>
<path d="M19.1591 9.20543C19.1591 9.90093 18.5954 10.4647 17.8999 10.4647C17.2045 10.4647 16.6406 9.90093 16.6406 9.20543C16.6406 8.50992 17.2045 7.94617 17.8999 7.94617C18.5954 7.94617 19.1591 8.50992 19.1591 9.20543Z" fill="white"/>
<path d="M20.6105 17.1042L19.6757 15.9594L19.0461 14.5094V14.4521L18.8744 11.4376V11.4186V11.3996C18.8744 11.3806 18.8744 11.3614 18.8554 11.3233V11.3043V11.2853C18.8554 11.2662 18.8363 11.2471 18.8363 11.209V11.19C18.8363 11.1709 18.8173 11.1709 18.8173 11.1518C18.7983 11.1327 18.7983 11.1136 18.7791 11.0945V11.0755C18.7791 11.0565 18.7601 11.0565 18.7601 11.0373C18.741 11.0183 18.741 11.0183 18.7219 10.9991L18.6838 10.9611C18.6648 10.9611 18.6648 10.942 18.6456 10.942C18.6266 10.942 18.6266 10.923 18.6074 10.923C18.5884 10.904 18.5692 10.904 18.5312 10.8848C18.5312 10.8848 18.5121 10.8848 18.5121 10.8658C18.4931 10.8658 18.4739 10.8467 18.4549 10.8467C18.4359 10.8467 18.4167 10.8467 18.3977 10.8277H18.3595L16.4325 10.5034L15.3069 9.93098C15.0016 9.77833 14.639 9.89278 14.4866 10.1981C14.3339 10.5034 14.4484 10.8659 14.7537 11.0184L15.9557 11.629C16.0129 11.648 16.0701 11.6672 16.1274 11.6862L17.0051 11.8389L16.757 12.087H15.0208C14.6774 12.087 14.4102 12.3541 14.4102 12.6976C14.4102 13.0409 14.6773 13.3082 15.0208 13.3082L17.0045 13.3074C17.1762 13.3074 17.3289 13.2501 17.4433 13.1357L17.6532 12.9258V14.1278L16.4321 17.2758C16.3177 17.5811 16.4703 17.9437 16.7755 18.0581C16.8518 18.0771 16.9282 18.0963 16.9854 18.0963C17.2334 18.0963 17.4624 17.9436 17.5578 17.6956L18.2828 15.8258L18.569 16.4937C18.588 16.5509 18.6262 16.5891 18.6452 16.6273L19.6374 17.8484C19.7518 18.001 19.9427 18.0773 20.1143 18.0773C20.248 18.0773 20.3814 18.0391 20.4959 17.9436C20.7822 17.7528 20.8204 17.3712 20.6105 17.1041L20.6105 17.1042Z" fill="white"/>
<defs>
<linearGradient id="paint0_linear_18242_2530" x1="12" y1="0" x2="12" y2="24" gradientUnits="userSpaceOnUse">
<stop stop-color="#32959D"/>
<stop offset="1" stop-color="#036696" stop-opacity="0.8"/>
</linearGradient>
</defs>
</svg>
