<svg width="24" height="24" viewBox="0 0 24 24" fill="none" xmlns="http://www.w3.org/2000/svg">
<circle cx="12" cy="12" r="12" fill="url(#paint0_linear_18242_2601)"/>
<path d="M20.2888 11.4079L17.5962 8.63761C17.4252 8.46186 17.1857 8.39362 16.9616 8.43388C14.612 8.43388 15.3521 8.27989 13.6047 9.15966L12.7588 8.62204C12.4279 8.4115 11.9897 8.50953 11.7799 8.84012C11.5698 9.17071 11.6675 9.60906 11.998 9.81902L12.3682 10.0542L11.7076 11.9906H10.6059L9.25496 10.5244C9.34813 10.43 9.40675 10.3014 9.4087 10.1584L9.42342 9.07246C9.42597 8.88028 9.32478 8.70174 9.15875 8.60515C8.99249 8.5087 8.78716 8.50943 8.62176 8.60685L7.09055 9.50837L5.72428 9.50886C5.694 9.50886 5.6648 9.51287 5.63598 9.51774C5.46959 9.51275 5.30319 9.58451 5.19508 9.72694L3.85801 11.4924C3.78747 11.5856 3.74952 11.6992 3.75 11.8158L3.75742 13.6109C3.75864 13.9038 3.99655 14.1405 4.28931 14.1405H4.29162C4.58524 14.1393 4.82242 13.9002 4.8212 13.6065L4.81439 11.9913L5.1923 11.4924V12.0721C5.1923 12.2356 5.17698 12.3987 5.14645 12.5593L4.8211 14.2736H5.36964V16.6393C5.36964 16.9332 5.60767 17.1712 5.90153 17.1712C6.19538 17.1712 6.43341 16.9332 6.43341 16.6393V16.6227C6.43341 16.9165 6.67144 17.1545 6.9653 17.1545C7.25916 17.1545 7.49719 16.9165 7.49719 16.6227V14.2735H8.04573L7.72038 12.5592C7.68985 12.3986 7.67452 12.2355 7.67452 12.072V10.3993L8.34678 10.0034L8.34483 10.1442C8.34471 10.1546 8.34702 10.1644 8.3475 10.1746C8.25506 10.308 8.25762 10.489 8.3722 10.6134L10.1565 12.55V14.111L9.7909 15.7583H10.1547V17.6496C10.1547 17.8454 10.3134 18.0041 10.5093 18.0041C10.7051 18.0041 10.8638 17.8454 10.8638 17.6496V15.7583H11.5729V17.6496C11.5729 17.8454 11.7316 18.0041 11.9275 18.0041C12.1233 18.0041 12.282 17.8454 12.282 17.6496V15.7583H12.6496L12.284 14.111V12.497L12.9837 10.4458C13.6305 10.8568 13.6514 10.7241 14.7661 10.163V13.0436H14.7713V18.0358C14.7713 18.4275 15.0889 18.7449 15.4804 18.7449C15.8709 18.7449 16.1873 18.4293 16.1893 18.0392V18.0409C16.1893 18.4326 16.5069 18.75 16.8984 18.75C17.29 18.75 17.6075 18.4324 17.6075 18.0409V12.6999C17.6075 12.6835 17.6037 12.6681 17.6026 12.6519V10.6795L19.2715 12.3965C19.4105 12.5395 19.5953 12.6113 19.78 12.6113C19.9582 12.6113 20.1365 12.5446 20.2743 12.4106C20.5554 12.1378 20.5619 11.6887 20.2888 11.4079L20.2888 11.4079Z" fill="white"/>
<path d="M17.4235 6.49097C17.4235 7.17649 16.8679 7.73207 16.1825 7.73207C15.497 7.73207 14.9414 7.17646 14.9414 6.49097C14.9414 5.80558 15.497 5.25 16.1825 5.25C16.8679 5.25 17.4235 5.80561 17.4235 6.49097Z" fill="white"/>
<path d="M7.54044 8.06093C7.54044 8.67284 7.0443 9.16898 6.43239 9.16898C5.82036 9.16898 5.32422 8.67284 5.32422 8.06093C5.32422 7.4489 5.82036 6.95276 6.43239 6.95276C7.0443 6.95276 7.54044 7.4489 7.54044 8.06093Z" fill="white"/>
<path d="M11.8338 10.8312C11.8338 11.2351 11.5064 11.5626 11.1024 11.5626C10.6985 11.5626 10.3711 11.2351 10.3711 10.8312C10.3711 10.4273 10.6985 10.0999 11.1024 10.0999C11.5064 10.0999 11.8338 10.4273 11.8338 10.8312Z" fill="white"/>
<defs>
<linearGradient id="paint0_linear_18242_2601" x1="12" y1="0" x2="12" y2="24" gradientUnits="userSpaceOnUse">
<stop stop-color="#32959D"/>
<stop offset="1" stop-color="#036696" stop-opacity="0.8"/>
</linearGradient>
</defs>
</svg>
