<svg width="24" height="24" viewBox="0 0 24 24" fill="none" xmlns="http://www.w3.org/2000/svg">
<circle cx="12" cy="12" r="12" fill="url(#paint0_linear_18242_2565)"/>
<path d="M12.3984 15.077V18.1807C12.3984 18.4951 12.6532 18.7499 12.9676 18.7499C13.2818 18.7499 13.5367 18.4951 13.5367 18.1807V15.077H12.3984Z" fill="white"/>
<path d="M14.8689 15.077H13.7305V18.1807C13.7305 18.4951 13.9853 18.7499 14.2996 18.7499C14.6137 18.7499 14.8688 18.4951 14.8688 18.1807V16.0693L14.8689 15.077Z" fill="white"/>
<path d="M6.4122 12.5884C6.4348 12.5702 6.45674 12.552 6.47849 12.5337C6.19005 12.4033 5.97273 12.1434 5.90077 11.8284C5.83994 11.8799 5.7759 11.9312 5.70744 11.9824C5.50545 12.1323 5.46336 12.4176 5.61309 12.6195C5.68371 12.7147 5.78457 12.7737 5.89249 12.7945C5.94654 12.7581 5.99635 12.7293 6.03863 12.708C6.11058 12.6657 6.22744 12.6194 6.4122 12.5884L6.4122 12.5884Z" fill="white"/>
<path d="M7.67498 10.9363C7.75314 10.7716 7.82132 10.6126 7.88498 10.4628C8.01248 10.164 8.12728 9.90094 8.26466 9.67957C8.28284 9.65028 8.30129 9.62156 8.32041 9.59378C8.33934 9.56638 8.35864 9.53973 8.37842 9.51355V13.2776C8.71167 13.7532 8.93071 14.4309 9.0295 15.297C9.05417 15.5153 8.89672 15.7132 8.67881 15.7381C8.66365 15.7398 8.64849 15.7407 8.63324 15.7407C8.53671 15.7407 8.44782 15.7057 8.37843 15.6478V18.0463C8.37843 18.435 8.6936 18.75 9.08213 18.75C9.47076 18.75 9.78594 18.4351 9.78594 18.0463L9.78584 12.9084H10.0497V18.0463C10.0497 18.435 10.3649 18.75 10.7534 18.75C11.142 18.75 11.4572 18.4351 11.4572 18.0463V15.0773H11.0288L11.0551 14.9418L11.4572 12.8721L11.457 8.92123C11.63 8.86973 11.87 8.80635 12.1509 8.75324C11.9955 8.85767 11.8219 9.00429 11.6456 9.21052C11.6207 9.23953 11.5958 9.27004 11.5709 9.30139V10.8209C11.7721 10.2999 11.9911 9.95021 12.1859 9.71779L11.1668 14.9635H14.9757C15.0177 14.1585 15.1674 13.5226 15.423 13.07C15.5003 12.932 15.5841 12.8212 15.6664 12.7329L15.0799 9.71449C15.4095 9.90179 15.8399 10.1161 16.3782 10.327C16.5438 10.2286 16.7363 10.1712 16.9423 10.1712C17.3934 10.1712 17.7816 10.4421 17.9552 10.8293C18.0056 10.8422 18.0558 10.8549 18.1072 10.8674C18.3058 10.9156 18.5058 10.7937 18.5541 10.5952C18.6023 10.3966 18.4803 10.1966 18.2818 10.1484C17.4443 9.94521 16.7684 9.70141 16.2391 9.46788C16.223 9.48916 16.2057 9.50988 16.1861 9.52928C16.0789 9.63512 15.9368 9.6937 15.786 9.6937C15.6326 9.6937 15.4888 9.63362 15.3812 9.52467C15.2639 9.4063 15.1368 9.30243 14.9985 9.21231L14.9853 9.0704C15.1543 9.1721 15.3139 9.29527 15.4621 9.44471C15.5511 9.53474 15.6685 9.57994 15.7859 9.57994C15.9017 9.57994 16.0174 9.53615 16.1061 9.44838C16.2848 9.27144 16.2865 8.9831 16.1097 8.80446C15.6953 8.38512 15.2082 8.1143 14.7134 7.953C14.6808 7.94236 14.6481 7.93332 14.6152 7.92362C14.3694 8.18993 14.0191 8.35181 13.6344 8.35181C13.5326 8.35181 13.4301 8.33995 13.3301 8.31659C13.004 8.24079 12.7251 8.04896 12.5358 7.77551C11.7612 7.86092 11.1499 8.05793 10.9271 8.13598L8.81826 8.1358C8.80612 8.1358 8.79416 8.13664 8.78229 8.13758C8.70846 8.13664 8.63332 8.15369 8.56354 8.19079C8.477 8.23637 8.39667 8.2858 8.31946 8.33703C7.99741 8.5506 7.752 8.80871 7.56809 9.08068C7.2303 9.58194 7.06835 10.1008 6.83594 10.579C6.85609 10.5778 6.87605 10.5759 6.89649 10.5759C7.2078 10.5761 7.48691 10.7163 7.67497 10.9363L7.67498 10.9363Z" fill="white"/>
<path d="M11.2019 6.53068C11.2019 7.23788 10.6285 7.81127 9.92131 7.81127C9.21401 7.81127 8.64062 7.23788 8.64062 6.53068C8.64062 5.82338 9.21401 5.25 9.92131 5.25C10.6285 5.25 11.2019 5.82338 11.2019 6.53068Z" fill="white"/>
<path d="M17.9374 11.2811C17.9374 11.8312 17.4914 12.2772 16.9413 12.2772C16.3912 12.2772 15.9453 11.8312 15.9453 11.2811C15.9453 10.731 16.3912 10.2851 16.9413 10.2851C17.4914 10.2851 17.9374 10.731 17.9374 11.2811Z" fill="white"/>
<path d="M15.9454 18.282C15.9454 18.5334 16.1493 18.7373 16.4007 18.7373C16.6521 18.7373 16.8561 18.5334 16.8561 18.282V16.3567H17.0268V18.282C17.0268 18.5334 17.2308 18.7373 17.4822 18.7373C17.7337 18.7373 17.9375 18.5334 17.9375 18.282V15.3096H15.9453L15.9454 18.282Z" fill="white"/>
<path d="M15.0782 15.4465C15.0782 15.5251 15.0789 15.6066 15.081 15.6908C15.0852 15.8609 15.2245 15.9962 15.3939 15.9962C15.3964 15.9962 15.3992 15.9961 15.4017 15.9961C15.5746 15.9918 15.7112 15.8481 15.7071 15.6753C15.7051 15.5972 15.7042 15.521 15.7042 15.4465C15.704 14.5868 15.8191 14.0385 15.9476 13.6966V15.1743H17.9398V13.6965C18.0681 14.0381 18.1832 14.5875 18.183 15.4464C18.183 15.5206 18.182 15.5972 18.1804 15.6763C18.1766 15.8491 18.3138 15.9923 18.4865 15.9961C18.4888 15.9961 18.4912 15.9962 18.4934 15.9962C18.6633 15.9962 18.8026 15.8606 18.8063 15.6899C18.8081 15.6066 18.809 15.5255 18.809 15.4465C18.8086 14.2494 18.602 13.5476 18.3638 13.1258C18.1275 12.7036 17.8496 12.5777 17.785 12.5589C17.7712 12.5544 17.7572 12.5512 17.7434 12.5486C17.7155 12.5394 17.6861 12.5332 17.6552 12.5332H16.2322C16.201 12.5332 16.1716 12.5394 16.1436 12.5486C16.1298 12.5512 16.116 12.5543 16.1023 12.5589H16.1022C16.0376 12.5776 15.7598 12.7035 15.5234 13.1257C15.2851 13.5475 15.0785 14.2492 15.0781 15.4465H15.0782Z" fill="white"/>
<path d="M13.9074 5.82279C14.5655 5.976 14.9747 6.63377 14.8214 7.29182C14.6682 7.94996 14.0104 8.3592 13.3524 8.20591C12.6943 8.05269 12.2852 7.39492 12.4384 6.73688C12.5916 6.07883 13.2494 5.66959 13.9074 5.82279Z" fill="white"/>
<path d="M7.02734 18.3551C7.02734 18.5594 7.19299 18.7251 7.39734 18.7251C7.60169 18.7251 7.76733 18.5594 7.76733 18.3551V16.519C7.53389 16.5813 7.25233 16.6234 7.02737 16.6358L7.02734 18.3551Z" fill="white"/>
<path d="M6.02734 18.3551C6.02734 18.5594 6.19299 18.7251 6.39734 18.7251C6.60168 18.7251 6.76733 18.5594 6.76733 18.3551V16.6358C6.54237 16.6234 6.26089 16.5814 6.02737 16.519L6.02734 18.3551Z" fill="white"/>
<path d="M7.80566 11.6005C7.80566 12.1035 7.39801 12.5111 6.89506 12.5111C6.39212 12.5111 5.98438 12.1035 5.98438 11.6005C5.98438 11.0976 6.39212 10.6898 6.89506 10.6898C7.39801 10.6898 7.80566 11.0976 7.80566 11.6005Z" fill="white"/>
<path d="M5.12745 15.6249C5.13828 15.6261 5.1492 15.6268 5.16003 15.6268C5.30279 15.6268 5.42596 15.5196 5.44254 15.3745C5.52221 14.6773 5.67542 14.2128 5.83324 13.9048C5.70809 14.6022 5.57354 15.4971 5.57354 16.1196C5.57354 16.3393 6.44149 16.5069 6.89689 16.5069C7.3522 16.5069 8.22024 16.3393 8.22024 16.1196C8.22024 15.4973 8.08577 14.6028 7.96071 13.9056C8.11834 14.2135 8.27183 14.6778 8.35131 15.3745C8.36789 15.5196 8.49096 15.6269 8.63372 15.6269C8.64446 15.6269 8.65538 15.6262 8.66631 15.625C8.82235 15.6072 8.9345 15.4661 8.9168 15.31C8.79165 14.2118 8.48654 13.5746 8.18296 13.2065C8.00452 12.989 7.82852 12.8712 7.70374 12.8088C7.61833 12.7577 7.39722 12.6673 6.8969 12.6673C6.39772 12.6673 6.17642 12.7573 6.09065 12.8085C5.96587 12.8708 5.7896 12.9887 5.61068 13.2065C5.30717 13.5746 5.00207 14.2119 4.87684 15.3102C4.85913 15.4661 4.97138 15.607 5.1275 15.6249L5.12745 15.6249Z" fill="white"/>
<defs>
<linearGradient id="paint0_linear_18242_2565" x1="12" y1="0" x2="12" y2="24" gradientUnits="userSpaceOnUse">
<stop stop-color="#32959D"/>
<stop offset="1" stop-color="#036696" stop-opacity="0.8"/>
</linearGradient>
</defs>
</svg>
