<svg width="24" height="24" viewBox="0 0 24 24" fill="none" xmlns="http://www.w3.org/2000/svg">
<circle cx="12" cy="12" r="12" fill="url(#paint0_linear_18242_2586)"/>
<path d="M9.23438 9.04897C9.23438 9.61049 9.68959 10.0657 10.2511 10.0657C10.8127 10.0657 11.2679 9.61049 11.2679 9.04897C11.2679 8.48744 10.8127 8.03223 10.2511 8.03223C9.68959 8.03223 9.23438 8.48744 9.23438 9.04897ZM10.251 9.7945C9.98302 9.7945 9.74827 9.65184 9.61679 9.43902H10.8851C10.7539 9.65184 10.5191 9.7945 10.251 9.7945H10.251Z" fill="white"/>
<path d="M13.5312 18.2832C13.5312 18.5328 13.7335 18.7351 13.9832 18.7351C14.2327 18.7351 14.4351 18.5328 14.4351 18.2832V16.0482C14.0889 16.044 13.7873 16.0111 13.5313 15.9651L13.5312 18.2832Z" fill="white"/>
<path d="M14.5859 18.2832C14.5859 18.5327 14.7882 18.7351 15.0378 18.7351C15.2872 18.7351 15.4898 18.5328 15.4898 18.2832V15.9651C15.2338 16.0111 14.9322 16.044 14.586 16.0482L14.5859 18.2832Z" fill="white"/>
<path d="M15.6628 10.8618C15.4694 10.7381 15.3161 10.6999 15.2485 10.6883C15.1711 10.669 14.8438 10.5923 14.5114 10.5923C14.1789 10.5923 13.8516 10.6689 13.7742 10.6883C13.7066 10.6998 13.5533 10.7381 13.36 10.8618C13.0827 11.0392 12.7229 11.3926 12.4142 12.0957C12.301 11.4002 12.0871 10.9017 11.7729 10.6066C11.5188 10.3678 11.2705 10.3272 11.1436 10.3243C11.1366 10.324 11.1297 10.3233 11.1226 10.3233H9.37693C9.36977 10.3233 9.3628 10.324 9.35583 10.3244C9.24114 10.3273 9.02605 10.3612 8.7978 10.5447C8.38996 10.8726 8.13373 11.5191 8.0359 12.4668C7.97789 12.4885 7.87289 12.5 7.75037 12.5008L7.75169 12.4926L7.70696 12.2594C7.70574 12.2035 7.65903 12.1587 7.60309 12.16C7.54716 12.1612 7.50243 12.2079 7.50365 12.2638L7.54706 12.493C7.48039 12.4877 7.41325 12.4795 7.34922 12.4684C7.1525 12.4339 7.02734 13.1458 7.22388 13.1805C7.31692 13.1968 7.5109 13.2254 7.73013 13.2254C7.99569 13.2254 8.29824 13.1836 8.50334 13.0274C8.64798 12.9174 8.73339 12.7656 8.75044 12.5883C8.80534 12.0162 8.91382 11.6458 9.02777 11.4118V18.1914C9.02777 18.5 9.27797 18.75 9.58637 18.75C9.89487 18.75 10.1451 18.5 10.1451 18.1914V14.1122H10.3545V18.1914C10.3545 18.5 10.6047 18.75 10.9131 18.75C11.2216 18.75 11.4718 18.5 11.4718 18.1914L11.472 11.412C11.674 11.8322 11.854 12.6786 11.761 14.2663C11.7493 14.4656 11.9014 14.6366 12.1008 14.6482C12.1079 14.6487 12.1151 14.6489 12.1222 14.6489C12.3122 14.6489 12.4715 14.5007 12.4828 14.3085C12.4882 14.2165 12.4925 14.1265 12.4963 14.0375C12.6482 13.0352 12.8915 12.3932 13.132 11.983C13.1988 11.8691 13.2653 11.7733 13.3295 11.6924L12.5534 15.5069C12.5534 15.5069 13.2318 15.9136 14.5115 15.9136C15.7912 15.9136 16.4696 15.5069 16.4696 15.5069L15.6939 11.6941C15.7582 11.7754 15.8248 11.8721 15.8917 11.9865C16.1484 12.4255 16.409 13.1281 16.5568 14.2495C16.5763 14.3974 16.7025 14.5049 16.8477 14.5049C16.8604 14.5049 16.8734 14.5041 16.8864 14.5024C17.0473 14.4811 17.1603 14.3336 17.1393 14.1728C16.8501 11.98 16.1361 11.1647 15.6628 10.8619L15.6628 10.8618Z" fill="white"/>
<path d="M14.5106 10.3893C15.0472 10.3893 15.4821 9.95434 15.4821 9.41777C15.4821 8.88119 15.0472 8.44623 14.5106 8.44623C13.974 8.44623 13.5391 8.88119 13.5391 9.41777C13.5391 9.95434 13.974 10.3893 14.5106 10.3893ZM15.1197 9.82214C14.9935 10.0266 14.7681 10.1636 14.5107 10.1636C14.2533 10.1636 14.0279 10.0267 13.9017 9.82214H15.1197Z" fill="white"/>
<path d="M11.3841 5.58669C11.1005 5.74065 11.1317 6.00611 11.1317 6.00611C11.1317 6.00611 10.926 5.83538 10.6425 5.98925C10.3588 6.14321 9.87767 7.02585 11.7712 7.18404C12.6698 5.51002 11.6676 5.43271 11.3841 5.58666L11.3841 5.58669Z" fill="white"/>
<path d="M14.4371 5.5037C14.147 5.41838 13.9851 5.59815 13.9658 5.62094C13.962 5.59137 13.9243 5.35236 13.6345 5.26584C13.3252 5.17346 12.3603 5.45522 13.584 6.90879C15.4023 6.35686 14.7468 5.59476 14.4371 5.50371L14.4371 5.5037Z" fill="white"/>
<path d="M12.9786 7.73295C12.7846 7.64472 12.657 7.76676 12.657 7.76676C12.657 7.76676 12.6652 7.59038 12.4713 7.50206C12.2772 7.41373 11.6203 7.5112 12.2904 8.57256C13.5306 8.38046 13.1726 7.82129 12.9786 7.73296L12.9786 7.73295Z" fill="white"/>
<defs>
<linearGradient id="paint0_linear_18242_2586" x1="12" y1="0" x2="12" y2="24" gradientUnits="userSpaceOnUse">
<stop stop-color="#32959D"/>
<stop offset="1" stop-color="#036696" stop-opacity="0.8"/>
</linearGradient>
</defs>
</svg>
