<svg width="1152" height="65" viewBox="0 0 1152 65" fill="none" xmlns="http://www.w3.org/2000/svg">
<path d="M0 0L38.4667 3.25C76.9333 6.5 153.867 13 230.8 22.75C307.733 32.5 384.667 45.5 461.6 46.5766C538.533 47.7344 615.467 36.7656 692.4 37.9234C769.333 39 846.267 52 923.2 57.4234C1000.13 62.7656 1077.07 60.7344 1115.53 59.5766L1154 58.5V65H1115.53C1077.07 65 1000.13 65 923.2 65C846.267 65 769.333 65 692.4 65C615.467 65 538.533 65 461.6 65C384.667 65 307.733 65 230.8 65C153.867 65 76.9333 65 38.4667 65H0V0Z" fill="#F7CF6A" fill-opacity="0.15"/>
</svg>
