<svg width="64" height="64" viewBox="0 0 64 64" fill="none" xmlns="http://www.w3.org/2000/svg">
<circle cx="32" cy="32" r="32" fill="url(#paint0_linear_18242_2652)"/>
<path d="M47.6477 48.4278L37.4117 38.1926C38.7368 36.3391 39.5192 34.0731 39.5192 31.626C39.5192 25.3817 34.4396 20.3016 28.1955 20.3016C21.9518 20.3014 16.8711 25.3815 16.8711 31.626C16.8711 37.8698 21.9512 42.9497 28.1948 42.9497C30.6418 42.9497 32.9084 42.167 34.7622 40.8423L44.9974 51.0775C45.363 51.4431 45.8428 51.6266 46.3219 51.6266C46.8017 51.6266 47.2817 51.4434 47.6473 51.0775C48.3782 50.3457 48.3782 49.16 47.6473 48.4279L47.6477 48.4278ZM17.8708 31.626C17.8708 25.9235 22.493 21.3012 28.1955 21.3012C33.898 21.3012 38.5202 25.9237 38.5202 31.626C38.5202 37.3279 33.898 41.9507 28.1955 41.9507C22.4933 41.9507 17.8708 37.3282 17.8708 31.626Z" fill="white"/>
<path d="M30.7969 42.1706C30.9004 42.7877 31.4545 43.2367 32.0901 43.1868C32.7625 43.1342 33.2643 42.5468 33.2118 41.8746L33.1656 41.2816C32.4215 41.6654 31.6288 41.9661 30.7969 42.1706L30.7969 42.1706Z" fill="white"/>
<path d="M31.9414 19.4401C31.0908 19.467 30.4175 20.1495 30.3867 20.9868C31.5213 21.2192 32.589 21.6313 33.5644 22.1874L33.5988 21.0978C33.5997 21.0657 33.5999 21.0287 33.5988 20.9963C33.5708 20.1087 32.8287 19.4122 31.9414 19.4402L31.9414 19.4401Z" fill="white"/>
<path d="M31.4439 35.9283C32.292 35.9552 33.0023 35.2886 33.0291 34.4405L33.3684 23.6703C32.2445 22.9377 30.9566 22.4359 29.5703 22.2339L29.9558 34.4398C29.9826 35.2426 30.6296 35.9022 31.4439 35.9279L31.4439 35.9283Z" fill="white"/>
<path d="M31.6141 38.3502C30.7657 38.2839 30.0236 38.9178 29.957 39.7664L29.8633 40.9687C31.0029 40.7662 32.0726 40.3623 33.032 39.7922L33.0303 39.767C32.9722 39.0226 32.3811 38.4103 31.6141 38.3502L31.6141 38.3502Z" fill="white"/>
<path d="M23.7665 23.2126C22.9293 23.654 22.1662 24.2154 21.4999 24.8761L18.998 29.2101C18.7955 29.9816 18.6875 30.7909 18.6875 31.6258C18.6875 31.7498 18.6923 31.872 18.6965 31.9942L23.7665 23.2126Z" fill="white"/>
<path d="M16.5974 45.2054C15.752 45.2054 14.9643 44.7506 14.5422 44.0191C14.1193 43.2876 14.1193 42.3782 14.5422 41.6462L18.0651 35.5434C17.9034 35.1252 17.7661 34.6952 17.6556 34.2541L13.6768 41.1468C13.0765 42.1871 13.0765 43.4792 13.6768 44.519C14.2771 45.5587 15.3963 46.2052 16.5974 46.2052H39.065L38.0662 45.2057L16.5975 45.206L16.5974 45.2054Z" fill="white"/>
<path d="M50.2177 40.9954L34.9124 14.4861C34.3116 13.4464 33.1929 12.7999 31.9924 12.7999C30.7907 12.7999 29.6721 13.4461 29.0715 14.4861L25.2031 21.1864C25.6342 21.0628 26.075 20.9629 26.526 20.8935L29.9367 14.9854C30.3594 14.2536 31.147 13.7991 31.9924 13.7991C32.8369 13.7991 33.6246 14.254 34.0473 14.9854L49.3596 41.5069L49.3745 41.5318C49.6287 41.9181 49.763 42.3676 49.763 42.8328C49.763 44.1413 48.6987 45.2058 47.3898 45.2058H45.4865L46.486 46.2052H47.3898C49.2494 46.2052 50.7619 44.6925 50.7619 42.8331C50.7619 42.1771 50.5733 41.5419 50.2173 40.9953L50.2177 40.9954Z" fill="white"/>
<defs>
<linearGradient id="paint0_linear_18242_2652" x1="32" y1="0" x2="32" y2="64" gradientUnits="userSpaceOnUse">
<stop stop-color="#32959D"/>
<stop offset="1" stop-color="#036696" stop-opacity="0.8"/>
</linearGradient>
</defs>
</svg>
