<svg width="64" height="64" viewBox="0 0 64 64" fill="none" xmlns="http://www.w3.org/2000/svg">
<circle cx="32" cy="32" r="32" fill="url(#paint0_linear_18246_2684)"/>
<path d="M36.2375 18.5585C36.2375 18.2237 35.966 17.9523 35.6313 17.9523H23.8094C23.4746 17.9523 23.2031 18.2237 23.2031 18.5585C23.2031 18.8933 23.4746 19.1647 23.8094 19.1647H35.6313C35.966 19.1647 36.2375 18.8933 36.2375 18.5585Z" fill="white"/>
<path d="M36.6904 24.0151H28.8094C28.4746 24.0151 28.2031 24.2866 28.2031 24.6214C28.2031 24.9562 28.4746 25.2276 28.8094 25.2276H36.6904C37.0254 25.2276 37.2966 24.9562 37.2966 24.6214C37.2966 24.2866 37.0254 24.0151 36.6904 24.0151Z" fill="white"/>
<path d="M26.3869 24.0151H23.9617C23.6269 24.0151 23.3555 24.2866 23.3555 24.6214C23.3555 24.9562 23.6269 25.2276 23.9617 25.2276H26.3869C26.7217 25.2276 26.9931 24.9562 26.9931 24.6214C26.9931 24.2866 26.7217 24.0151 26.3869 24.0151Z" fill="white"/>
<path d="M36.6904 27.0454H28.8094C28.4746 27.0454 28.2031 27.3169 28.2031 27.6516C28.2031 27.9864 28.4746 28.2579 28.8094 28.2579H36.6904C37.0254 28.2579 37.2966 27.9864 37.2966 27.6516C37.2966 27.3169 37.0254 27.0454 36.6904 27.0454Z" fill="white"/>
<path d="M26.3869 27.0454H23.9617C23.6269 27.0454 23.3555 27.3169 23.3555 27.6516C23.3555 27.9864 23.6269 28.2579 23.9617 28.2579H26.3869C26.7217 28.2579 26.9931 27.9864 26.9931 27.6516C26.9931 27.3169 26.7217 27.0454 26.3869 27.0454Z" fill="white"/>
<path d="M37.2969 30.6829C37.2966 30.3481 37.0254 30.0767 36.6904 30.0767H28.8094C28.4746 30.0767 28.2031 30.3481 28.2031 30.6829C28.2031 31.0177 28.4746 31.2891 28.8094 31.2891H36.6904C37.0254 31.2891 37.2966 31.0177 37.2969 30.6829Z" fill="white"/>
<path d="M26.3869 30.0774H23.9617C23.6269 30.0774 23.3555 30.3488 23.3555 30.6836C23.3555 31.0184 23.6269 31.2899 23.9617 31.2899H26.3869C26.7217 31.2899 26.9931 31.0184 26.9931 30.6836C26.9931 30.3488 26.7217 30.0774 26.3869 30.0774Z" fill="white"/>
<path d="M26.3869 33.1078H23.9617C23.6269 33.1078 23.3555 33.3792 23.3555 33.714C23.3555 34.0488 23.6269 34.3203 23.9617 34.3203H26.3869C26.7217 34.3203 26.9931 34.0488 26.9931 33.714C26.9931 33.3792 26.7217 33.1078 26.3869 33.1078Z" fill="white"/>
<path d="M26.3869 36.1396H23.9617C23.6269 36.1396 23.3555 36.4111 23.3555 36.7459C23.3555 37.0807 23.6269 37.3521 23.9617 37.3521H26.3869C26.7217 37.3521 26.9931 37.0807 26.9931 36.7459C26.9931 36.4111 26.7217 36.1396 26.3869 36.1396Z" fill="white"/>
<path d="M26.3869 39.1702H23.9617C23.6269 39.1702 23.3555 39.4416 23.3555 39.7764C23.3555 40.1112 23.6269 40.3826 23.9617 40.3826H26.3869C26.7217 40.3826 26.9931 40.1112 26.9931 39.7764C26.9931 39.4416 26.7217 39.1702 26.3869 39.1702Z" fill="white"/>
<path d="M26.3869 42.202H23.9617C23.6269 42.202 23.3555 42.4735 23.3555 42.8083C23.3555 43.143 23.6269 43.4145 23.9617 43.4145H26.3869C26.7217 43.4145 26.9931 43.143 26.9931 42.8083C26.9931 42.4735 26.7217 42.202 26.3869 42.202Z" fill="white"/>
<path d="M42.3421 49.7796C42.3419 50.1144 42.0704 50.3856 41.7359 50.3859H40.7205C40.79 50.1913 40.826 49.9864 40.8266 49.7796V40.8226L39.9776 41.8637C39.8707 41.9985 39.7486 42.1206 39.6138 42.2275V49.7794C39.6136 50.1142 39.3424 50.3854 39.0076 50.3857H20.2137V44.9296H20.5168C20.8516 44.9296 21.123 44.6581 21.123 44.3233C21.123 43.9885 20.8516 43.7171 20.5168 43.7171H20.2137V38.8672H20.5168C20.8516 38.8672 21.123 38.5958 21.123 38.261C21.123 37.9262 20.8516 37.6547 20.5168 37.6547H20.2137V32.8049H20.5168C20.8516 32.8049 21.123 32.5334 21.123 32.1986C21.123 31.8639 20.8516 31.5924 20.5168 31.5924H20.2137V26.7425H20.5168C20.8516 26.7425 21.123 26.4711 21.123 26.1363C21.123 25.8015 20.8516 25.5301 20.5168 25.5301H20.2137V20.6802H20.5168C20.8516 20.6802 21.123 20.4087 21.123 20.074C21.123 19.7392 20.8516 19.4677 20.5168 19.4677H20.2137V14.0116H39.0076C39.3424 14.0119 39.6136 14.2831 39.6138 14.6179V29.4134L40.8263 27.9271L40.8266 14.6183C40.826 14.4116 40.79 14.2067 40.7205 14.0121H41.7359C42.0704 14.0124 42.3419 14.2836 42.3421 14.6183V26.0696L43.0423 25.2114C43.1887 25.0298 43.3613 24.8712 43.5546 24.7405V14.6188C43.554 14.1365 43.3624 13.6742 43.0214 13.3332C42.6804 12.9922 42.2181 12.8006 41.7358 12.8H18.0913C17.6093 12.8006 17.1471 12.9925 16.8061 13.3332C16.4651 13.6742 16.2732 14.1365 16.2726 14.6188V19.4686H15.9695C15.6347 19.4686 15.3633 19.7401 15.3633 20.0749C15.3633 20.4097 15.6347 20.6811 15.9695 20.6811H16.2726V25.531H15.9695C15.6347 25.531 15.3633 25.8024 15.3633 26.1372C15.3633 26.472 15.6347 26.7434 15.9695 26.7434H16.2726V31.5933H15.9695C15.6347 31.5933 15.3633 31.8648 15.3633 32.1996C15.3633 32.5343 15.6347 32.8058 15.9695 32.8058H16.2726V37.6557H15.9695C15.6347 37.6557 15.3633 37.9271 15.3633 38.2619C15.3633 38.5967 15.6347 38.8681 15.9695 38.8681H16.2726V43.718H15.9695C15.6347 43.718 15.3633 43.9894 15.3633 44.3242C15.3633 44.659 15.6347 44.9305 15.9695 44.9305H16.2726V49.7803C16.2732 50.2626 16.4651 50.7249 16.8061 51.0659C17.1471 51.4066 17.6093 51.5985 18.0913 51.5991H41.7358C42.2181 51.5985 42.6804 51.4069 43.0214 51.0659C43.3624 50.7249 43.554 50.2626 43.5546 49.7803V37.4783L42.3421 38.9652L42.3421 49.7796ZM19.0011 50.3859H18.0915C17.757 50.3856 17.4858 50.1144 17.4852 49.7796V44.9298H19.0008L19.0011 50.3859ZM19.0011 43.7173H17.4852V38.8674H19.0008L19.0011 43.7173ZM19.0011 37.655H17.4852V32.8051H19.0008L19.0011 37.655ZM19.0011 31.5926H17.4852V26.7427H19.0008L19.0011 31.5926ZM19.0011 25.5303H17.4852V20.6804H19.0008L19.0011 25.5303ZM19.0011 19.4679H17.4852V14.6181C17.4858 14.2833 17.757 14.0121 18.0915 14.0118H19.0008L19.0011 19.4679Z" fill="white"/>
<path d="M36.5962 33.1078H28.8094C28.4746 33.1078 28.2031 33.3792 28.2031 33.714C28.2031 34.0488 28.4746 34.3203 28.8094 34.3203H35.607L36.5962 33.1078Z" fill="white"/>
<path d="M33.7152 36.6392L34.1234 36.139H28.8094C28.4746 36.139 28.2031 36.4105 28.2031 36.7453C28.2031 37.0801 28.4746 37.3515 28.8094 37.3515H33.3117C33.4094 37.0949 33.5455 36.8549 33.7152 36.6392L33.7152 36.6392Z" fill="white"/>
<path d="M32.7436 39.1702H28.8094C28.4746 39.1702 28.2031 39.4416 28.2031 39.7764C28.2031 40.1112 28.4746 40.3826 28.8094 40.3826H32.3672L32.7436 39.1702Z" fill="white"/>
<path d="M31.8056 42.202H28.8094C28.4746 42.202 28.2031 42.4735 28.2031 42.8083C28.2031 43.143 28.4746 43.4145 28.8094 43.4145H31.8078C31.7017 43.0194 31.7003 42.6037 31.804 42.208L31.8056 42.202Z" fill="white"/>
<path d="M48.2647 27.8908L45.6828 25.7993L45.6825 25.799C45.4333 25.5976 45.1142 25.5032 44.7953 25.5365C44.4765 25.5697 44.184 25.7283 43.9818 25.9771L34.6728 37.3881H34.6726C34.5445 37.5516 34.4514 37.7394 34.3989 37.9405L32.9957 42.4597L32.9857 42.4954C32.8585 42.8659 32.9691 43.2764 33.2652 43.5328C33.4187 43.6535 33.6084 43.7184 33.8035 43.7168C33.9854 43.7133 34.164 43.6681 34.3256 43.5845L38.6242 41.4283C38.7852 41.3501 38.9262 41.2369 39.0377 41.097L48.4465 29.5592C48.6421 29.3132 48.7331 29 48.699 28.6875C48.6649 28.3751 48.5087 28.0885 48.2646 27.8907L48.2647 27.8908ZM34.3401 42.2194L35.2589 39.2608L37.1355 40.8185L34.3401 42.2194ZM38.2373 40.1574L35.6982 38.0496L44.9212 26.7425L47.4853 28.8194L38.2373 40.1574Z" fill="white"/>
<defs>
<linearGradient id="paint0_linear_18246_2684" x1="32" y1="0" x2="32" y2="64" gradientUnits="userSpaceOnUse">
<stop stop-color="#32959D"/>
<stop offset="1" stop-color="#036696" stop-opacity="0.8"/>
</linearGradient>
</defs>
</svg>
