<svg width="64" height="64" viewBox="0 0 64 64" fill="none" xmlns="http://www.w3.org/2000/svg">
<circle cx="32" cy="32" r="32" fill="url(#paint0_linear_18242_2667)"/>
<path d="M28.1036 32.5009C28.1036 30.3765 26.375 28.6479 24.2507 28.6479C22.1263 28.6479 20.3984 30.3765 20.3984 32.5009C20.3984 34.6252 22.1264 36.3531 24.2507 36.3531C26.375 36.3531 28.1036 34.6251 28.1036 32.5009ZM21.3694 32.5009C21.3694 30.9118 22.6619 29.6189 24.251 29.6189C25.8401 29.6189 27.133 30.9118 27.133 32.5009C27.133 34.09 25.8401 35.3825 24.251 35.3825C22.6616 35.3825 21.3694 34.09 21.3694 32.5009Z" fill="white"/>
<path d="M44.045 32.5009C44.045 30.3765 42.317 28.6479 40.1928 28.6479C38.0685 28.6479 36.3398 30.3765 36.3398 32.5009C36.3398 34.6252 38.0684 36.3531 40.1928 36.3531C42.3171 36.3531 44.045 34.6251 44.045 32.5009ZM37.3104 32.5009C37.3104 30.9118 38.6033 29.6189 40.1924 29.6189C41.7815 29.6189 43.0741 30.9118 43.0741 32.5009C43.0741 34.09 41.7815 35.3825 40.1924 35.3825C38.6037 35.3825 37.3104 34.09 37.3104 32.5009Z" fill="white"/>
<path d="M17.9727 40.6224V44.5748C17.9727 45.6615 18.7401 46.5722 19.7619 46.7949V51.1408C19.7619 51.4089 19.9789 51.6263 20.2473 51.6263H28.223C28.4911 51.6263 28.7084 51.4093 28.7084 51.1408V46.7947C29.7301 46.5719 30.4977 45.6616 30.4977 44.5745V40.6221C30.4977 39.3042 29.4241 38.2321 28.1052 38.2321L20.3652 38.2324C19.0462 38.2324 17.9728 39.3045 17.9728 40.6225L17.9727 40.6224ZM29.527 40.6224V44.5748C29.527 45.2925 28.942 45.8762 28.2233 45.8762C27.9551 45.8762 27.7378 46.0932 27.7378 46.3617V50.6557H20.7327V46.3617C20.7327 46.0935 20.5157 45.8762 20.2473 45.8762C19.5282 45.8762 18.9436 45.2922 18.9436 44.5748V40.6224C18.9436 39.84 19.5814 39.2029 20.3654 39.2029H28.1051C28.8892 39.2029 29.527 39.84 29.527 40.6224H29.527Z" fill="white"/>
<path d="M35.5134 40.1284L33.9399 47.6552C33.9101 47.7984 33.946 47.947 34.0381 48.0608C34.1305 48.1742 34.269 48.2398 34.4149 48.2398H36.7302V51.1412C36.7302 51.4093 36.9472 51.6266 37.2157 51.6266H43.1682C43.4364 51.6266 43.6537 51.4096 43.6537 51.1412V48.2402H45.9693C46.1153 48.2402 46.2537 48.1742 46.3461 48.0611C46.4382 47.9474 46.4741 47.7984 46.4443 47.6555L44.8762 40.1593C44.7194 39.061 43.7634 38.2327 42.653 38.2327H37.7313C36.621 38.2327 35.6649 39.0611 35.5136 40.1285L35.5134 40.1284ZM37.7312 39.2032H42.6529C43.2836 39.2032 43.8263 39.6734 43.9208 40.3275L45.3721 47.2696H43.1681C42.9 47.2696 42.6827 47.4866 42.6827 47.7551V50.6561H37.7008V47.7551C37.7008 47.4869 37.4838 47.2696 37.2153 47.2696H35.0117L36.4688 40.2967C36.5578 39.6735 37.1005 39.2032 37.7311 39.2032L37.7312 39.2032Z" fill="white"/>
<path d="M48.2298 12.7999H16.198C14.3249 12.7999 12.8008 14.324 12.8008 16.1972V20.889C12.8008 22.7621 14.3249 24.2862 16.198 24.2862H18.2553C20.3905 24.2862 22.3977 25.1177 23.9076 26.6276C24.0024 26.7224 24.1266 26.7698 24.2508 26.7698C24.3751 26.7698 24.4993 26.7224 24.5941 26.6276C26.104 25.1177 28.1112 24.2862 30.2464 24.2862H48.2296C50.1027 24.2862 51.6269 22.7621 51.6269 20.889V16.1972C51.6269 14.324 50.1027 12.7999 48.2296 12.7999H48.2298ZM50.6565 20.889C50.6565 22.2269 49.5678 23.3156 48.2298 23.3156H30.2466C28.0105 23.3156 25.8994 24.1288 24.251 25.6153C22.6026 24.1292 20.4915 23.3156 18.2555 23.3156H16.1978C14.8599 23.3156 13.7712 22.2269 13.7712 20.889V16.1972C13.7712 14.8592 14.8599 13.7705 16.1978 13.7705H48.2296C49.5676 13.7705 50.6563 14.8592 50.6563 16.1972L50.6565 20.889Z" fill="white"/>
<defs>
<linearGradient id="paint0_linear_18242_2667" x1="32" y1="0" x2="32" y2="64" gradientUnits="userSpaceOnUse">
<stop stop-color="#32959D"/>
<stop offset="1" stop-color="#036696" stop-opacity="0.8"/>
</linearGradient>
</defs>
</svg>
