<svg width="64" height="418" viewBox="0 0 64 418" fill="none" xmlns="http://www.w3.org/2000/svg">
<g filter="url(#filter0_d_20082_2375)">
<g filter="url(#filter1_d_20082_2375)">
<circle cx="31.5" cy="29.5" r="22.5" fill="#043953"/>
<path d="M35.4725 16.9022V41.1497H32.4084V20.7281L26.2306 22.9806V20.2147L34.9922 16.9022H35.4725Z" fill="white"/>
</g>
<g filter="url(#filter2_d_20082_2375)">
<circle cx="31.5" cy="194.5" r="22.5" fill="#043953"/>
<path d="M40.8047 203.483V206H25.0206V203.797L32.9209 195.003C33.8926 193.92 34.6434 193.004 35.1734 192.253C35.7145 191.491 36.0899 190.812 36.2997 190.216C36.5205 189.609 36.6309 188.99 36.6309 188.361C36.6309 187.566 36.4653 186.848 36.1341 186.208C35.8139 185.556 35.3391 185.037 34.7097 184.651C34.0803 184.264 33.3184 184.071 32.4241 184.071C31.353 184.071 30.4586 184.281 29.7409 184.701C29.0343 185.109 28.5043 185.683 28.1509 186.423C27.7976 187.163 27.6209 188.013 27.6209 188.974H24.5569C24.5569 187.616 24.855 186.373 25.4512 185.247C26.0475 184.121 26.9308 183.227 28.1012 182.564C29.2717 181.891 30.7126 181.554 32.4241 181.554C33.9478 181.554 35.2507 181.824 36.3328 182.365C37.4149 182.895 38.243 183.646 38.8172 184.618C39.4024 185.578 39.695 186.705 39.695 187.997C39.695 188.703 39.5735 189.421 39.3306 190.15C39.0987 190.867 38.773 191.585 38.3534 192.303C37.9449 193.021 37.4646 193.727 36.9125 194.423C36.3715 195.118 35.7918 195.803 35.1734 196.477L28.7141 203.483H40.8047Z" fill="white"/>
</g>
<g filter="url(#filter3_d_20082_2375)">
<circle cx="32.5" cy="384.5" r="22.5" fill="#043953"/>
<path d="M30.4759 382.435H32.6622C33.7332 382.435 34.6166 382.259 35.3122 381.905C36.0189 381.541 36.5433 381.05 36.8856 380.431C37.239 379.802 37.4156 379.095 37.4156 378.311C37.4156 377.384 37.261 376.605 36.9519 375.976C36.6427 375.347 36.179 374.872 35.5606 374.552C34.9423 374.231 34.1583 374.071 33.2087 374.071C32.3475 374.071 31.5856 374.242 30.9231 374.585C30.2717 374.916 29.7582 375.391 29.3828 376.009C29.0184 376.627 28.8362 377.356 28.8362 378.195H25.7722C25.7722 376.97 26.0814 375.854 26.6997 374.85C27.318 373.845 28.1848 373.044 29.3 372.448C30.4262 371.852 31.7292 371.554 33.2087 371.554C34.6662 371.554 35.9416 371.813 37.0347 372.332C38.1278 372.84 38.978 373.602 39.5853 374.618C40.1926 375.623 40.4962 376.876 40.4962 378.378C40.4962 378.985 40.3527 379.636 40.0656 380.332C39.7896 381.016 39.3534 381.657 38.7572 382.253C38.172 382.849 37.4101 383.341 36.4716 383.727C35.533 384.103 34.4068 384.29 33.0928 384.29H30.4759V382.435ZM30.4759 384.953V383.114H33.0928C34.6276 383.114 35.8974 383.297 36.9022 383.661C37.907 384.025 38.6965 384.511 39.2706 385.118C39.8558 385.726 40.2644 386.394 40.4962 387.123C40.7392 387.84 40.8606 388.558 40.8606 389.276C40.8606 390.402 40.6674 391.401 40.2809 392.273C39.9055 393.146 39.37 393.886 38.6744 394.493C37.9898 395.1 37.1837 395.558 36.2562 395.868C35.3287 396.177 34.3184 396.331 33.2253 396.331C32.1764 396.331 31.1881 396.182 30.2606 395.884C29.3442 395.586 28.5326 395.155 27.8259 394.592C27.1193 394.018 26.5672 393.317 26.1697 392.489C25.7722 391.65 25.5734 390.694 25.5734 389.623H28.6375C28.6375 390.463 28.8197 391.197 29.1841 391.826C29.5595 392.456 30.0895 392.947 30.7741 393.3C31.4697 393.643 32.2868 393.814 33.2253 393.814C34.1639 393.814 34.9699 393.654 35.6434 393.333C36.328 393.002 36.8525 392.505 37.2169 391.843C37.5923 391.18 37.78 390.347 37.78 389.342C37.78 388.337 37.5702 387.514 37.1506 386.874C36.731 386.223 36.1348 385.742 35.3619 385.433C34.6 385.113 33.7001 384.953 32.6622 384.953H30.4759Z" fill="white"/>
</g>
<path d="M31.8744 48C29.6653 48 27.8744 49.7909 27.8744 52C27.8744 54.2091 29.6653 56 31.8744 56C34.0836 56 35.8744 54.2091 35.8744 52C35.8744 49.7909 34.0836 48 31.8744 48ZM23.5076 101.087L22.9368 101.574L22.9562 101.597L22.9773 101.618L23.5076 101.087ZM31.1244 171C31.1245 171.414 31.4602 171.75 31.8745 171.75L38.6245 171.75C39.0387 171.75 39.3745 171.414 39.3744 171C39.3744 170.586 39.0386 170.25 38.6244 170.25L32.6244 170.25L32.6243 164.25C32.6243 163.836 32.2885 163.5 31.8743 163.5C31.4601 163.5 31.1243 163.836 31.1243 164.25L31.1244 171ZM31.2744 51.55C30.5952 52.4557 29.9155 53.3731 29.241 54.301L30.4543 55.183C31.1235 54.2623 31.7987 53.351 32.4745 52.45L31.2744 51.55ZM25.3352 59.937C24.0726 61.8685 22.8747 63.8362 21.7879 65.8315L23.1052 66.549C24.169 64.5959 25.3453 62.663 26.5907 60.7578L25.3352 59.937ZM18.8339 72.076C17.9657 74.2695 17.2783 76.4898 16.8314 78.7261L18.3023 79.02C18.7288 76.8858 19.3878 74.7523 20.2286 72.6281L18.8339 72.076ZM16.2825 85.6919C16.3982 87.9886 16.8268 90.2857 17.6282 92.5699L19.0436 92.0732C18.2917 89.9301 17.8893 87.7754 17.7806 85.6164L16.2825 85.6919ZM20.8112 98.7983C21.4461 99.7293 22.1534 100.655 22.9368 101.574L24.0785 100.601C23.3284 99.7209 22.6539 98.838 22.0505 97.9532L20.8112 98.7983ZM22.9773 101.618C23.9268 102.567 24.8506 103.522 25.7474 104.481L26.8432 103.457C25.9344 102.485 24.9989 101.518 24.038 100.557L22.9773 101.618ZM30.9519 110.486C32.6493 112.611 34.2058 114.753 35.6087 116.907L36.8656 116.089C35.4342 113.891 33.8489 111.71 32.124 109.55L30.9519 110.486ZM39.5311 123.78C40.7223 126.215 41.7029 128.657 42.4556 131.099L43.8891 130.658C43.1113 128.134 42.1008 125.619 40.8785 123.121L39.5311 123.78ZM44.0529 138.783C44.3273 141.399 44.3187 144.008 44.0049 146.605L45.4941 146.785C45.8219 144.072 45.8304 141.349 45.5447 138.627L44.0529 138.783ZM42.1793 154.205C41.3192 156.568 40.1802 158.918 38.7424 161.25L40.0192 162.037C41.5079 159.623 42.6923 157.181 43.5888 154.718L42.1793 154.205ZM34.0522 167.574C33.2068 168.544 32.3046 169.509 31.3441 170.47L32.4048 171.53C33.3885 170.547 34.3141 169.556 35.1828 168.56L34.0522 167.574Z" fill="url(#paint0_linear_20082_2375)"/>
<path d="M32.8744 214C30.6653 214 28.8744 215.791 28.8744 218C28.8744 220.209 30.6653 222 32.8744 222C35.0836 222 36.8744 220.209 36.8744 218C36.8744 215.791 35.0836 214 32.8744 214ZM24.5076 277.4L23.8945 277.832L23.9111 277.855L23.9295 277.878L24.5076 277.4ZM32.1278 362.071C32.167 362.483 32.5331 362.786 32.9454 362.747L39.6651 362.108C40.0775 362.069 40.38 361.702 40.3408 361.29C40.3016 360.878 39.9355 360.575 39.5231 360.614L33.5501 361.182L32.9822 355.209C32.943 354.797 32.5769 354.494 32.1645 354.534C31.7522 354.573 31.4497 354.939 31.4889 355.351L32.1278 362.071ZM32.2369 217.605C31.5383 218.732 30.8392 219.874 30.1458 221.03L31.4321 221.802C32.1209 220.654 32.8162 219.518 33.5119 218.395L32.2369 217.605ZM26.1595 228.011C24.8863 230.381 23.682 232.794 22.5947 235.239L23.9653 235.848C25.0346 233.443 26.2216 231.065 27.4808 228.721L26.1595 228.011ZM19.6929 242.782C18.8594 245.387 18.2045 248.018 17.7834 250.665L19.2648 250.901C19.6722 248.34 20.3078 245.783 21.1216 243.24L19.6929 242.782ZM17.2837 258.791C17.3982 261.48 17.8089 264.171 18.5717 266.849L20.0143 266.438C19.2855 263.879 18.8921 261.306 18.7823 258.727L17.2837 258.791ZM21.7164 274.378C22.3637 275.536 23.0883 276.687 23.8945 277.832L25.1208 276.968C24.3438 275.865 23.647 274.757 23.0256 273.646L21.7164 274.378ZM23.9295 277.878C24.7565 278.878 25.564 279.884 26.3514 280.894L27.5344 279.972C26.7381 278.95 25.9216 277.934 25.0858 276.922L23.9295 277.878ZM30.9124 287.131C32.3871 289.29 33.7642 291.465 35.0361 293.652L36.3328 292.898C35.0416 290.677 33.6449 288.472 32.1511 286.285L30.9124 287.131ZM38.6343 300.47C39.752 302.831 40.7402 305.201 41.5894 307.577L43.0019 307.072C42.135 304.647 41.1276 302.231 39.99 299.828L38.6343 300.47ZM43.764 314.944C44.349 317.466 44.7674 319.989 45.0082 322.509L46.5014 322.366C46.2539 319.777 45.8244 317.188 45.2252 314.605L43.764 314.944ZM45.1816 330.164C45.0493 332.701 44.7239 335.231 44.1935 337.748L45.6612 338.057C46.208 335.462 46.5433 332.855 46.6796 330.242L45.1816 330.164ZM42.0406 345.086C41.1584 347.416 40.0858 349.732 38.8124 352.031L40.1246 352.758C41.432 350.397 42.5351 348.016 43.4434 345.617L42.0406 345.086ZM34.6646 358.486C33.9181 359.502 33.129 360.515 32.2963 361.522L33.4526 362.478C34.303 361.449 35.1098 360.414 35.8736 359.374L34.6646 358.486Z" fill="url(#paint1_linear_20082_2375)"/>
</g>
<defs>
<filter id="filter0_d_20082_2375" x="5" y="7" width="54" height="408" filterUnits="userSpaceOnUse" color-interpolation-filters="sRGB">
<feFlood flood-opacity="0" result="BackgroundImageFix"/>
<feColorMatrix in="SourceAlpha" type="matrix" values="0 0 0 0 0 0 0 0 0 0 0 0 0 0 0 0 0 0 127 0" result="hardAlpha"/>
<feOffset dy="4"/>
<feGaussianBlur stdDeviation="2"/>
<feComposite in2="hardAlpha" operator="out"/>
<feColorMatrix type="matrix" values="0 0 0 0 0 0 0 0 0 0 0 0 0 0 0 0 0 0 0.25 0"/>
<feBlend mode="normal" in2="BackgroundImageFix" result="effect1_dropShadow_20082_2375"/>
<feBlend mode="normal" in="SourceGraphic" in2="effect1_dropShadow_20082_2375" result="shape"/>
</filter>
<filter id="filter1_d_20082_2375" x="0.671429" y="0.942857" width="61.6571" height="61.6571" filterUnits="userSpaceOnUse" color-interpolation-filters="sRGB">
<feFlood flood-opacity="0" result="BackgroundImageFix"/>
<feColorMatrix in="SourceAlpha" type="matrix" values="0 0 0 0 0 0 0 0 0 0 0 0 0 0 0 0 0 0 127 0" result="hardAlpha"/>
<feMorphology radius="0.757143" operator="dilate" in="SourceAlpha" result="effect1_dropShadow_20082_2375"/>
<feOffset dy="2.27143"/>
<feGaussianBlur stdDeviation="3.78571"/>
<feComposite in2="hardAlpha" operator="out"/>
<feColorMatrix type="matrix" values="0 0 0 0 0.27451 0 0 0 0 0.239216 0 0 0 0 0.54902 0 0 0 0.25 0"/>
<feBlend mode="normal" in2="BackgroundImageFix" result="effect1_dropShadow_20082_2375"/>
<feBlend mode="normal" in="SourceGraphic" in2="effect1_dropShadow_20082_2375" result="shape"/>
</filter>
<filter id="filter2_d_20082_2375" x="0.671429" y="165.943" width="61.6571" height="61.6571" filterUnits="userSpaceOnUse" color-interpolation-filters="sRGB">
<feFlood flood-opacity="0" result="BackgroundImageFix"/>
<feColorMatrix in="SourceAlpha" type="matrix" values="0 0 0 0 0 0 0 0 0 0 0 0 0 0 0 0 0 0 127 0" result="hardAlpha"/>
<feMorphology radius="0.757143" operator="dilate" in="SourceAlpha" result="effect1_dropShadow_20082_2375"/>
<feOffset dy="2.27143"/>
<feGaussianBlur stdDeviation="3.78571"/>
<feComposite in2="hardAlpha" operator="out"/>
<feColorMatrix type="matrix" values="0 0 0 0 0.27451 0 0 0 0 0.239216 0 0 0 0 0.54902 0 0 0 0.25 0"/>
<feBlend mode="normal" in2="BackgroundImageFix" result="effect1_dropShadow_20082_2375"/>
<feBlend mode="normal" in="SourceGraphic" in2="effect1_dropShadow_20082_2375" result="shape"/>
</filter>
<filter id="filter3_d_20082_2375" x="1.67143" y="355.943" width="61.6571" height="61.6571" filterUnits="userSpaceOnUse" color-interpolation-filters="sRGB">
<feFlood flood-opacity="0" result="BackgroundImageFix"/>
<feColorMatrix in="SourceAlpha" type="matrix" values="0 0 0 0 0 0 0 0 0 0 0 0 0 0 0 0 0 0 127 0" result="hardAlpha"/>
<feMorphology radius="0.757143" operator="dilate" in="SourceAlpha" result="effect1_dropShadow_20082_2375"/>
<feOffset dy="2.27143"/>
<feGaussianBlur stdDeviation="3.78571"/>
<feComposite in2="hardAlpha" operator="out"/>
<feColorMatrix type="matrix" values="0 0 0 0 0.27451 0 0 0 0 0.239216 0 0 0 0 0.54902 0 0 0 0.25 0"/>
<feBlend mode="normal" in2="BackgroundImageFix" result="effect1_dropShadow_20082_2375"/>
<feBlend mode="normal" in="SourceGraphic" in2="effect1_dropShadow_20082_2375" result="shape"/>
</filter>
<linearGradient id="paint0_linear_20082_2375" x1="45" y1="111.5" x2="17" y2="111.5" gradientUnits="userSpaceOnUse">
<stop stop-color="#32959D"/>
<stop offset="1" stop-color="#036696" stop-opacity="0.8"/>
</linearGradient>
<linearGradient id="paint1_linear_20082_2375" x1="46" y1="290" x2="18" y2="290" gradientUnits="userSpaceOnUse">
<stop stop-color="#32959D"/>
<stop offset="1" stop-color="#036696" stop-opacity="0.8"/>
</linearGradient>
</defs>
</svg>
